<?xml version="1.0" standalone="no"?>
<!DOCTYPE svg PUBLIC "-//W3C//DTD SVG 1.1//EN" "http://www.w3.org/Graphics/SVG/1.1/DTD/svg11.dtd" >
<svg xmlns="http://www.w3.org/2000/svg">
<metadata></metadata>
<defs>
<font id="db_helvethaica_x45_li" horiz-adv-x="0" >
<font-face units-per-em="2048" ascent="1638" descent="-410" />
<missing-glyph horiz-adv-x="511" />
<glyph unicode="&#x2b;&#x2d;" horiz-adv-x="1233" d="M94 0v121h1047v-121h-1047zM97 551v124h460v366h121v-366h463v-124h-463v-367h-121v367h-460z" />
<glyph unicode="&#x2e;&#x2e;&#x2e;" horiz-adv-x="2056" d="M250 0v229h187v-229h-187zM936 0v229h184v-229h-184zM1620 0v229h187v-229h-187z" />
<glyph unicode="&#x3c;&#x3d;" horiz-adv-x="1233" d="M88 21v117h1056v-117h-1056zM88 753v123l1056 479v-126l-906 -413l906 -416v-124z" />
<glyph unicode="&#x3e;&#x3d;" horiz-adv-x="1236" d="M91 21v117h1056v-117h-1056zM91 276v124l909 416l-909 413v126l1056 -479v-123z" />
<glyph unicode="&#xe4f;&#x22;" horiz-adv-x="1490" d="M97 617q0 89 23 171t64.5 154t100.5 131t131 100t154.5 64.5t170.5 23.5t170.5 -23.5t154.5 -64.5t130.5 -100t100 -131t65 -154t23.5 -171q0 -88 -23.5 -170t-65 -154.5t-100 -131t-130.5 -100.5t-154.5 -64.5t-170.5 -22.5t-170.5 22.5t-154.5 64.5t-131 100.5 t-100.5 131t-64.5 154.5t-23 170zM235 617q0 -70 17.5 -135t51 -120.5t79.5 -102t102 -79.5t120.5 -50.5t135.5 -17.5q70 0 135 17.5t121 50.5t102 79.5t79 102t51 120.5t18 135q0 71 -18 135.5t-51 120.5t-79 102.5t-102 79.5t-121 50.5t-135 17.5q-71 0 -135.5 -17.5 t-120.5 -50.5t-102 -79.5t-79.5 -102.5t-51 -120.5t-17.5 -135.5zM379 617q0 74 29 140t78 114.5t114.5 78t140.5 29.5q73 0 139.5 -29.5t115 -78t77.5 -114.5t29 -140q0 -75 -29 -140t-77.5 -114.5t-115 -78t-139.5 -28.5q-75 0 -140.5 28.5t-114.5 78t-78 114.5t-29 140z M506 617q0 -48 18 -91.5t50 -75t75 -50t92 -18.5q48 0 91 18.5t74.5 50t50.5 75t19 91.5q0 49 -19 91.5t-50.5 74t-74.5 51t-91 19.5q-49 0 -92 -19.5t-75 -51t-50 -74t-18 -91.5zM538 1755h137l-25 -304h-90zM816 1755h138l-21 -304h-92z" />
<glyph unicode="&#xe0e;&#xe3a;" horiz-adv-x="1290" d="M44 57v111h131v491q0 32 -3 65t-13.5 62.5t-30 53.5t-53.5 42q18 71 58 139t106.5 122t161 86t222.5 32q106 0 187 -19.5t139.5 -55t98.5 -83.5t64 -106t33.5 -122t9.5 -131v-1023h-164q-19 29 -51 52.5t-73.5 41t-91 28t-105.5 10.5t-110 -14.5t-99.5 -36.5t-81 -48.5 t-51.5 -51.5v148q15 12 47 32t78.5 39t102.5 33t114 14q62 0 112.5 -9.5t92 -25t73.5 -35t57 -39.5v911q0 44 -6.5 89t-23.5 85.5t-44.5 76.5t-70.5 61.5t-101.5 42t-135.5 16.5q-100 0 -170.5 -26.5t-117.5 -66.5t-73 -84q-24 -44 -33 -79q50 -29 73 -88t23 -141v-599h-281 zM936 -523q0 25 10 47t27.5 39t39.5 27t47 10t47 -10t38 -27t25.5 -40t9.5 -46q0 -25 -9.5 -47t-25.5 -39t-38 -26t-47 -9t-47 9t-39.5 26t-27.5 39t-10 47z" />
<glyph unicode="&#xe0f;&#xe3a;" horiz-adv-x="1290" d="M44 57v111h131v491q0 32 -3 65t-13.5 62.5t-30 53.5t-53.5 42q18 71 58 139t106.5 122t161 86t222.5 32q106 0 187 -19.5t139.5 -55t98.5 -83.5t64 -106t33.5 -122t9.5 -131v-1032h-155q-14 29 -30 55.5t-37.5 45.5t-50.5 31t-69 12q-38 0 -65.5 -13.5t-46.5 -34 t-29 -45.5t-16 -51h-139q-8 26 -19 52t-29.5 47t-45 34.5t-61.5 13.5q-30 0 -52 -13.5t-38 -34t-26.5 -47t-13.5 -52.5h-132q6 62 27 109t55 79t78 50q46 18 96 18q34 0 67 -7.5t63 -25t55.5 -47t46.5 -72.5q19 44 46.5 74.5t57.5 46.5t61.5 23.5t59.5 7.5q62 0 108 -25 t84 -78v905q0 44 -6.5 89t-23.5 85.5t-44.5 76.5t-70.5 61.5t-101.5 42t-135.5 16.5q-100 0 -170.5 -26.5t-117.5 -66.5t-73 -84q-24 -44 -33 -79q50 -29 73 -88t23 -141v-599h-281zM936 -523q0 25 10 47t27.5 39t39.5 27t47 10t47 -10t38 -27t25.5 -40t9.5 -46 q0 -25 -9.5 -47t-25.5 -39t-38 -26t-47 -9t-47 9t-39.5 26t-27.5 39t-10 47z" />
<glyph unicode="&#xe0e;&#xe38;" horiz-adv-x="1290" d="M94 57v111h129v491q0 47 -4 83t-16 63t-31 47t-49 33q15 71 55 138.5t106 120.5t157 85t209 32q100 0 177 -19.5t133.5 -55t95 -83.5t61 -106t32 -122t9.5 -131v-1023h-164q-19 29 -51 52.5t-73.5 41t-91 28t-103.5 10.5q-56 0 -111 -14.5t-101 -36.5t-80 -49 q-33 -26 -51 -51v148q13 12 46.5 32t79 39t101 33t116.5 14t111 -9.5t91.5 -25t73.5 -35t57 -39.5v911q0 65 -16 131t-57 119t-110 86t-175 35q-88 0 -154.5 -22t-113.5 -58t-73.5 -82.5t-35.5 -93.5q47 -27 73.5 -81t26.5 -148v-599h-279zM908 -417h250v-405h-141v305h-109 v100z" />
<glyph unicode="&#xe0f;&#xe38;" horiz-adv-x="1290" d="M44 57v111h131v491q0 32 -3 65t-13.5 62.5t-30 53.5t-53.5 42q18 71 58 139t106.5 122t161 86t222.5 32q106 0 187 -19.5t139.5 -55t98.5 -83.5t64 -106t33.5 -122t9.5 -131v-1032h-155q-14 29 -30 55.5t-37.5 45.5t-50.5 31t-69 12q-38 0 -65.5 -13.5t-46.5 -34 t-29 -45.5t-16 -51h-139q-8 26 -19 52t-29.5 47t-45 34.5t-61.5 13.5q-30 0 -52 -13.5t-38 -34t-26.5 -47t-13.5 -52.5h-132q6 62 27 109t55 79t78 50q46 18 96 18q34 0 67 -7.5t63 -25t55.5 -47t46.5 -72.5q19 44 46.5 74.5t57.5 46.5t61.5 23.5t59.5 7.5q62 0 108 -25 t84 -78v905q0 44 -6.5 89t-23.5 85.5t-44.5 76.5t-70.5 61.5t-101.5 42t-135.5 16.5q-100 0 -170.5 -26.5t-117.5 -66.5t-73 -84q-24 -44 -33 -79q50 -29 73 -88t23 -141v-599h-281zM908 -417h250v-405h-141v305h-109v100z" />
<glyph unicode="&#xe0e;&#xe39;" horiz-adv-x="1290" d="M44 57v111h131v491q0 32 -3 65t-13.5 62.5t-30 53.5t-53.5 42q18 71 58 139t106.5 122t161 86t222.5 32q106 0 187 -19.5t139.5 -55t98.5 -83.5t64 -106t33.5 -122t9.5 -131v-1023h-164q-19 29 -51 52.5t-73.5 41t-91 28t-105.5 10.5t-110 -14.5t-99.5 -36.5t-81 -48.5 t-51.5 -51.5v148q15 12 47 32t78.5 39t102.5 33t114 14q62 0 112.5 -9.5t92 -25t73.5 -35t57 -39.5v911q0 44 -6.5 89t-23.5 85.5t-44.5 76.5t-70.5 61.5t-101.5 42t-135.5 16.5q-100 0 -170.5 -26.5t-117.5 -66.5t-73 -84q-24 -44 -33 -79q50 -29 73 -88t23 -141v-599h-281 zM434 -417h255v-127q0 -91 39 -136.5t125 -45.5q82 0 118.5 45.5t36.5 136.5v127h144v-127q0 -56 -15 -107.5t-51 -89t-93.5 -59.5t-140 -22t-141 19t-94.5 56.5t-53 95t-17 134.5h-113v100z" />
<glyph unicode="&#xe0f;&#xe39;" horiz-adv-x="1290" d="M44 57v111h131v491q0 32 -3 65t-13.5 62.5t-30 53.5t-53.5 42q18 71 58 139t106.5 122t161 86t222.5 32q106 0 187 -19.5t139.5 -55t98.5 -83.5t64 -106t33.5 -122t9.5 -131v-1032h-155q-14 29 -30 55.5t-37.5 45.5t-50.5 31t-69 12q-38 0 -65.5 -13.5t-46.5 -34 t-29 -45.5t-16 -51h-139q-8 26 -19 52t-29.5 47t-45 34.5t-61.5 13.5q-30 0 -52 -13.5t-38 -34t-26.5 -47t-13.5 -52.5h-132q6 62 27 109t55 79t78 50q46 18 96 18q34 0 67 -7.5t63 -25t55.5 -47t46.5 -72.5q19 44 46.5 74.5t57.5 46.5t61.5 23.5t59.5 7.5q62 0 108 -25 t84 -78v905q0 44 -6.5 89t-23.5 85.5t-44.5 76.5t-70.5 61.5t-101.5 42t-135.5 16.5q-100 0 -170.5 -26.5t-117.5 -66.5t-73 -84q-24 -44 -33 -79q50 -29 73 -88t23 -141v-599h-281zM437 -417h255v-127q0 -91 39 -136.5t125 -45.5q82 0 118.5 45.5t36.5 136.5v127h144v-127 q0 -56 -15 -107.5t-51 -89t-93.5 -59.5t-140 -22t-140.5 19t-94 56.5t-53 95t-17 134.5h-114v100z" />
<glyph unicode="&#xd;" horiz-adv-x="580" />
<glyph unicode=" "  horiz-adv-x="511" />
<glyph unicode="&#x09;" horiz-adv-x="511" />
<glyph unicode="&#xa0;" horiz-adv-x="511" />
<glyph unicode="!" horiz-adv-x="617" d="M218 0v229h182v-229h-182zM232 1029v441h153v-441l-29 -667h-91z" />
<glyph unicode="&#x22;" horiz-adv-x="761" d="M175 964v506h135v-506h-135zM448 964v506h137v-506h-137z" />
<glyph unicode="#" horiz-adv-x="1143" d="M66 454v106h238l46 310h-227v103h239l63 454h116l-65 -454h280l63 454h114l-63 -454h218v-103h-230l-45 -310h213v-106h-225l-66 -454h-115l64 454h-278l-62 -454h-115l62 454h-225zM417 560h281l46 310h-279z" />
<glyph unicode="$" horiz-adv-x="1143" d="M54 479h142q0 -84 25.5 -150.5t69.5 -115t104 -81.5q58 -32 128 -44v596q-58 11 -112.5 27.5t-103 39t-88.5 52t-68.5 71.5t-44 97t-15.5 126q0 91 34 164.5t94 126.5t138 82t166 32v159h91v-159q59 -3 113.5 -19t104 -45.5t90.5 -69t69.5 -89.5t45 -109t14.5 -126h-143 q-1 73 -24 134t-61.5 105t-92.5 70t-116 29v-578q58 -12 115 -28.5t110 -39.5t98.5 -54.5t79.5 -74.5t54 -98.5t20 -126.5q0 -66 -19 -122.5t-53 -102t-79.5 -80t-98 -59t-110.5 -37.5t-117 -13v-177h-91v177q-226 32 -343 155.5t-126 355.5zM232 1080q0 -66 25 -110 t66.5 -72t94 -45.5t105.5 -30.5v560q-56 -3 -108.5 -22t-93 -56t-65 -93t-24.5 -131zM609 82q63 3 124.5 21t111 54.5t79.5 92.5t30 132q0 44 -15.5 81t-40.5 65.5t-59.5 51.5t-72.5 40.5t-78.5 30.5t-78.5 24v-593z" />
<glyph unicode="%" horiz-adv-x="1827" d="M135 1057q0 85 19 156.5t59 124.5t104 83t153 30t152 -30t102.5 -83t58 -125t18.5 -156q0 -85 -18.5 -157t-58 -125t-102.5 -83t-152 -30t-153 30t-104 83t-59 125t-19 157zM256 1054q0 -49 10 -100t33.5 -92.5t65 -68t105.5 -26.5q62 0 102.5 26.5t65 68t34 92.5 t9.5 100q0 32 -4 66.5t-14 67t-26.5 62t-39 50t-54 34t-73 13.5t-74.5 -13.5t-57 -34t-39.5 -50t-25 -62t-14 -66t-4.5 -67.5zM382 -72l917 1542h115l-914 -1542h-118zM1038 364.5q0 85.5 19 157.5t58.5 125t103 82.5t154.5 29.5q88 0 151.5 -29.5t103 -82.5t58 -125 t18.5 -157.5t-18.5 -157.5t-58 -125t-103 -82t-151.5 -29q-91 0 -154.5 29t-103 82t-58.5 125t-19 157.5zM1158 362q0 -49 10.5 -100.5t34 -93.5t65.5 -69t105 -27q62 0 103 27t64.5 69t33 93.5t9.5 100.5q0 32 -3.5 67.5t-14 67.5t-26 60t-39 50t-55 34t-72.5 12 q-43 0 -74.5 -12t-55.5 -34t-39.5 -50t-26 -60t-15 -67.5t-4.5 -67.5z" />
<glyph unicode="&#x26;" horiz-adv-x="1255" d="M75 385q0 80 33 144.5t84.5 116t114 92.5t121.5 75l-31 43q-27 33 -52 67.5t-45.5 73.5t-33.5 81t-13 89q0 69 26.5 125.5t70.5 96.5t104 62t131 22q68 0 128 -22t105 -62t70.5 -95.5t25.5 -126.5q0 -69 -23.5 -124t-63 -100.5t-91 -84t-104.5 -73.5q79 -93 155.5 -182 t154.5 -183q12 27 19.5 52.5t11 53t5.5 60.5q1 31 1 76h141q0 -30 -4.5 -71t-15.5 -88t-28 -96.5t-40 -96.5l259 -310h-183l-150 184q-41 -47 -89.5 -86t-104 -67t-116 -44t-125.5 -16q-97 0 -179 26.5t-141.5 79t-93.5 130t-34 178.5zM218 373q0 -61 25.5 -113.5t69 -90 t99.5 -57.5q55 -21 117 -21q49 0 96 16t90.5 44t80.5 66q37 36 68 77l-361 429q-49 -28 -99.5 -62.5t-92 -77t-67.5 -94.5t-26 -116zM394 1167q0 -34 14.5 -68.5t35.5 -68t46 -66.5q24 -32 48 -61l16 -21q38 24 77 53t71 64.5t51.5 76.5t19.5 91q0 43 -15.5 77.5t-41 57 t-59.5 35t-72 12.5t-73.5 -12.5t-61 -35t-41 -56.5t-15.5 -78z" />
<glyph unicode="'" horiz-adv-x="571" d="M218 964v506h141v-506h-141z" />
<glyph unicode="(" horiz-adv-x="496" d="M100 547q0 132 20 260t57.5 247t91 230.5t119.5 214.5h121q-71 -111 -122.5 -231.5t-84 -247t-47 -257.5t-14.5 -263q0 -112 19 -229t54.5 -231.5t85.5 -224t109 -206.5h-121q-68 112 -122 222t-91 223.5t-56 235.5t-19 257z" />
<glyph unicode=")" horiz-adv-x="496" d="M-15 -391q71 112 122.5 231t84.5 244t48.5 255.5t15.5 266.5q0 111 -19 227.5t-54.5 232.5t-85.5 225.5t-112 207.5h121q69 -113 122.5 -222.5t92 -223.5t57.5 -235t19 -258q0 -132 -20 -259.5t-57.5 -246.5t-92 -230.5t-121.5 -214.5h-121z" />
<glyph unicode="*" horiz-adv-x="721" d="M49 1211l29 88l238 -82v253h90v-253l238 82l31 -88l-238 -79l151 -196l-79 -60l-150 199l-150 -199l-80 60l150 202z" />
<glyph unicode="+" horiz-adv-x="1233" d="M94 462v120h463v459h121v-459h463v-120h-463v-462h-121v462h-463z" />
<glyph unicode="," horiz-adv-x="571" d="M187 -181q20 9 37 29t29 45t18 53q5 29 8 54h-86v229h186v-226q-1 -46 -13.5 -90.5t-36 -84.5t-59.5 -69t-83 -41v101z" />
<glyph unicode="-" horiz-adv-x="864" d="M94 462v120h676v-120h-676z" />
<glyph unicode="." horiz-adv-x="571" d="M193 0v229h186v-229h-186z" />
<glyph unicode="/" horiz-adv-x="683" d="M-26 -29l620 1528h117l-614 -1528h-123z" />
<glyph unicode="0" horiz-adv-x="1143" d="M63 717q0 86 8 174t29.5 170.5t57.5 156t93.5 127.5t136 86.5t184.5 32.5t184.5 -32.5t136 -86.5t93.5 -127.5t57 -156t29 -170.5t8 -174q0 -85 -8 -173t-29 -172t-57 -156.5t-93.5 -128t-136 -86t-184.5 -30.5t-184.5 30.5t-136 86t-93.5 128t-57.5 156.5t-29.5 172 t-8 173zM206 717q0 -61 4.5 -132t18.5 -140.5t39.5 -133.5t65 -112.5t98.5 -78t140 -29.5t139.5 29.5t98.5 78t65 112.5t38 133.5t18 140.5t5 132q0 62 -5 132.5t-18 139.5t-38 133t-65 113.5t-98.5 79t-139.5 29.5t-140 -29.5t-98.5 -79t-65 -113.5t-39.5 -133 t-18.5 -139.5t-4.5 -132.5z" />
<glyph unicode="1" horiz-adv-x="1143" d="M193 1023v127q51 2 98 8t88 16.5t76 29.5t62 50t47.5 75t32.5 104h120v-1433h-142v1114q-34 -26 -75 -42.5t-88 -26.5t-102.5 -14.5t-116.5 -7.5z" />
<glyph unicode="2" horiz-adv-x="1143" d="M69 0q2 76 19.5 140t48.5 118t72 99.5t88.5 86t100.5 76.5q53 39 108 74q41 26 85 54t85 60.5t78 69t65 78.5t44 91.5t16 106.5q0 68 -25 122t-68.5 91t-101.5 57t-121 20q-87 0 -148 -34t-100 -88.5t-55.5 -127t-15.5 -152.5h-141q-3 113 25 209t86 165t147 108.5 t208 39.5q95 0 177.5 -26.5t144.5 -78t95.5 -128.5t33.5 -177q0 -91 -28.5 -167t-77 -139t-112.5 -117q-64 -55 -135 -99q-83 -53 -156 -100t-130.5 -94.5t-94 -97.5t-48.5 -108h788v-132h-957z" />
<glyph unicode="3" horiz-adv-x="1143" d="M63 467h143q-3 -85 19 -155.5t67 -120.5t111.5 -76.5t153.5 -26.5q71 0 135.5 20.5t115 60.5t80.5 98q29 56 29 133q0 73 -26.5 130t-72 94.5t-106.5 55.5q-59 18 -130 18h-117v121h117q49 -2 99.5 13t91.5 47t67.5 80.5t26.5 115.5q0 70 -25 120t-67.5 82.5t-98.5 48 t-119 15.5q-79 0 -140 -27.5t-102.5 -76t-62 -115.5t-17.5 -146h-141q0 103 33 192t92.5 154.5t145 102t189.5 36.5q59 0 115 -10t106.5 -29.5t93 -50t73.5 -72t49 -93.5q17 -51 17 -115q0 -56 -16 -107t-44.5 -92.5t-69.5 -74.5q-43 -33 -93 -53q68 -13 119.5 -44t85 -77 t52 -105t18.5 -129.5t-18.5 -130.5t-52 -108.5t-79.5 -87t-101.5 -63.5t-119 -38t-129.5 -13q-113 0 -208 33.5t-162 97t-100 156.5q-34 95 -27 212z" />
<glyph unicode="4" horiz-adv-x="1143" d="M54 341v135l672 957h127v-971h213v-121h-213v-341h-133v341h-666zM190 462h530v758z" />
<glyph unicode="5" horiz-adv-x="1143" d="M69 417h143q3 -76 29.5 -136.5t72.5 -104.5t108.5 -67.5t134.5 -23.5q82 0 147.5 31t112 84t70.5 123q24 71 24 147q0 80 -26.5 147.5t-75 117t-116 78t-146.5 28.5q-47 0 -91 -12t-85.5 -34t-76.5 -54t-62 -74h-120l138 766h732v-134h-629l-85 -458q27 29 62 51t73 37.5 t78.5 23.5t81.5 8q112 0 202.5 -38t155 -104t99 -159t34.5 -201q0 -71 -18.5 -136.5t-51.5 -120.5t-79.5 -99t-102 -75t-120.5 -47t-135 -16q-102 0 -188 30.5t-149.5 89.5t-101.5 144q-37 83 -39 188z" />
<glyph unicode="6" horiz-adv-x="1143" d="M75 698q0 38 3 92.5t11.5 115.5t25 127.5t43 129t65.5 118t92 97.5t122 67q72 25 160 25q95 0 172.5 -24.5t134.5 -72t93 -121.5q35 -73 47 -172h-141q-9 61 -33.5 110t-62 84.5t-87.5 55.5q-50 19 -111 19q-78 0 -137.5 -27.5t-102.5 -73.5t-71 -107.5t-45.5 -129 t-23.5 -136.5t-6 -134q27 48 67.5 87t89.5 67t105 43.5t115 15.5q109 0 197 -36t151 -100.5t97.5 -153t34.5 -194.5q0 -105 -36.5 -196.5t-102 -157.5t-156.5 -103t-197 -37q-137 0 -234.5 49t-159.5 141.5t-90.5 227t-28.5 304.5zM244 462q0 -45 9 -89t28 -84.5t47 -75.5 t67.5 -61t90.5 -40q52 -15 114 -15q76 0 138 29.5t106 79.5t68 116t24 140q0 77 -22.5 145t-66 118.5t-106 80t-144.5 29.5q-84 0 -149.5 -29.5t-111 -80t-69 -119t-23.5 -144.5z" />
<glyph unicode="7" horiz-adv-x="1143" d="M100 1299v134h935v-126q-44 -47 -101.5 -114.5t-119 -156.5t-123.5 -198t-111 -239t-83.5 -280t-42.5 -319h-153q9 123 29 236.5t52.5 220.5t78.5 210t108.5 207t140.5 209t175 216h-785z" />
<glyph unicode="8" horiz-adv-x="1143" d="M69 403q3 69 22 130t53.5 109.5t84.5 82.5t115 48q-104 38 -161 120.5t-57 200.5q0 61 18 112.5t49.5 91.5t74 70.5t92 50t102 29t107 9.5t109 -9.5t104 -29t92 -50t74 -70.5t49 -91.5t17.5 -112.5q0 -58 -14.5 -108.5t-41.5 -91.5t-67.5 -72t-93.5 -52 q64 -16 115.5 -48.5t87 -79.5t53.5 -107q19 -62 19 -132q0 -109 -40.5 -191.5t-108 -137.5t-159 -82t-192.5 -27q-103 0 -194 27t-159.5 82t-109 137.5t-40.5 191.5zM212 402.5q0 -79.5 28 -139.5t77 -100t115 -59t140 -19q75 0 140.5 19t114 59t76.5 99q28 58 28 141 q0 76 -29.5 135t-79 97t-114 57t-136.5 19q-74 0 -139 -18t-114.5 -57t-78 -96.5t-28.5 -137zM268 1094q0 -72 26 -123t69 -82.5t98 -45.5t111 -12q57 -2 111.5 12.5t97 47t67.5 82.5t25 121q0 58 -23.5 104t-64 76.5t-95.5 47t-118 16.5q-59 0 -114 -16.5t-97 -47 t-67.5 -76.5t-25.5 -104z" />
<glyph unicode="9" horiz-adv-x="1143" d="M63 964q0 106 37.5 196t103 156t156 103.5t197.5 37.5q132 0 228.5 -43.5t158 -136t92 -239.5t30.5 -352q0 -32 -2.5 -79.5t-11 -105t-25 -119.5t-43 -121.5t-64.5 -113t-91 -94.5t-123 -65q-71 -23 -159 -23q-97 0 -173.5 23.5t-134 72t-93.5 120.5q-34 72 -46 172h141 q7 -59 31.5 -109t62 -85.5t88 -54.5t112.5 -19q79 0 139.5 26.5t103 73.5t70.5 108t44 129t22 138.5t6 134.5q-28 -48 -68.5 -88t-89 -68.5t-104 -44t-114.5 -15.5q-109 0 -198 35.5t-151.5 100t-97 154t-34.5 195.5zM206 973q0 -78 22.5 -146t67 -119t107.5 -79.5 t144 -28.5q84 0 149 28.5t111 79.5t69.5 118.5t23.5 146.5q0 68 -21 132.5t-64 116t-110 84t-161 32.5q-77 0 -138.5 -29.5t-106.5 -79.5t-69 -116t-24 -140z" />
<glyph unicode=":" horiz-adv-x="571" d="M193 0v229h186v-229h-186zM193 794v229h186v-229h-186z" />
<glyph unicode=";" horiz-adv-x="571" d="M187 -181q20 9 37 29t29 45t18 53q5 29 8 54h-86v229h186v-226q-1 -46 -13.5 -90.5t-36 -84.5t-59.5 -69t-83 -41v101zM193 794v229h186v-229h-186z" />
<glyph unicode="&#x3c;" horiz-adv-x="1233" d="M88 459v123l1056 478v-127l-906 -413l906 -414v-124z" />
<glyph unicode="=" horiz-adv-x="1233" d="M94 256v123h1047v-123h-1047zM94 662v120h1047v-120h-1047z" />
<glyph unicode="&#x3e;" horiz-adv-x="1233" d="M88 -15v124l912 414l-912 413v127l1056 -478v-123z" />
<glyph unicode="?" horiz-adv-x="1103" d="M106 1008q0 112 31.5 204t91 157.5t148 100.5t201.5 35q88 0 165 -26.5t134.5 -75t91.5 -120.5t34 -163q0 -57 -15 -106.5t-39 -93.5t-57.5 -82t-69.5 -77l-61 -57l-49.5 -49.5t-34 -40.5t-22 -40.5t-13 -48.5t-6.5 -66.5t-4 -93.5h-141q-3 94 12.5 161.5t45.5 122 t75 102.5q46 49 102 102q25 25 49.5 55t43.5 64.5t30.5 70.5t11.5 71q0 59 -23.5 109t-63 85.5t-92.5 56t-110 20.5q-82 0 -143 -29t-102.5 -79.5t-61.5 -119.5t-18 -149h-141zM470 0v229h183v-229h-183z" />
<glyph unicode="@" horiz-adv-x="1643" d="M91 741q0 109 26.5 207.5t75 183.5t117.5 154t154.5 117.5t183.5 75.5q99 26 205 26q100 0 191 -21t169 -61t141 -96.5t107 -128.5t69 -158q24 -84 24 -182q0 -82 -20 -160t-54.5 -144.5t-81 -122t-100.5 -94.5t-111.5 -60t-114.5 -21q-28 0 -53 7t-44 22t-32.5 39 t-19.5 58q-23 -25 -51 -47.5t-60.5 -39t-67.5 -26.5t-77 -10q-64 0 -115.5 23.5t-87 64.5t-54.5 97t-19 119q0 71 16 143t45.5 138.5t73.5 125.5t98.5 101.5t120.5 67.5t140 25q32 0 65 -10t62 -30t52.5 -50t37.5 -71l45 123h120l-195 -600q-12 -32 -18.5 -61.5t-6 -53 t11.5 -36.5t35 -13q44 0 85 21t79.5 58t70.5 86t55 105.5t36 116t13 118.5q0 124 -46 222.5t-125.5 167.5t-185.5 105.5t-220 36.5q-95 0 -180 -23.5t-157 -67.5t-128.5 -105.5t-97 -136.5t-61.5 -161q-20 -85 -20 -179q0 -91 22 -176t63 -158.5t100 -134t131 -103 t155 -65.5q84 -23 175 -23q74 0 148 19t143.5 55t129.5 86t106 115h123q-48 -88 -118.5 -157t-155 -118.5t-181.5 -75.5q-95 -25 -195 -25q-111 0 -211 26.5t-185.5 76.5t-154.5 120.5t-116.5 156.5t-73.5 186t-26 210zM532 575q0 -44 13.5 -80t35.5 -62t52 -40t65 -14 q46 0 88.5 23t80 61t67.5 87.5t52 103t34 106.5q12 54 12 98q0 34 -13.5 67t-35.5 58t-49.5 41.5t-57.5 16.5q-51 0 -96 -20.5t-83 -56.5t-69 -83.5t-51.5 -99.5t-32.5 -105t-12 -101z" />
<glyph unicode="A" horiz-adv-x="1293" d="M-18 0l590 1470h169l572 -1470h-166l-177 459h-645l-178 -459h-165zM370 588h547l-267 711z" />
<glyph unicode="B" horiz-adv-x="1372" d="M147 0v1470h614q62 0 122.5 -8t113.5 -25t97.5 -45t77.5 -68.5t51 -94.5q18 -53 18 -124q0 -55 -16.5 -106.5t-47 -94.5t-73.5 -76.5t-96 -51.5q65 -13 118 -44.5t89.5 -78t57.5 -106t21 -127.5q0 -35 -6 -80.5t-24.5 -92t-53.5 -91t-95 -79t-146.5 -56t-207.5 -21.5 h-614zM301 132h460h10q71 0 136 13q69 14 122 47t84 89.5t31 143.5q0 138 -100 205.5t-283 67.5h-460v-566zM301 831h460q84 0 145 18t101.5 50.5t60.5 76.5t20 96q0 266 -327 266h-460v-507z" />
<glyph unicode="C" horiz-adv-x="1447" d="M78 735q0 100 19 195.5t56.5 181t95.5 156.5t135.5 122.5t173.5 80.5q95 28 212 28q71 0 139.5 -14t130.5 -41t116.5 -68t97.5 -95.5t70.5 -122t36.5 -147.5h-150q-19 86 -61 152t-100 111.5t-129 69t-151 23.5q-97 0 -174 -25t-137.5 -69t-103.5 -104.5t-71 -130 t-41.5 -147t-13.5 -156.5t13.5 -158t41.5 -149.5t71 -130.5t103.5 -103.5t138.5 -68.5q76 -25 173 -25q100 0 181 36.5t140 100.5t94 150t47 185h150q-15 -138 -63.5 -249t-126.5 -189t-184 -121q-108 -42 -238 -42q-117 0 -212.5 27.5t-173 79t-135.5 123t-95.5 156 t-56.5 180.5q-19 98 -19 198z" />
<glyph unicode="D" horiz-adv-x="1408" d="M147 0v1470h509q167 -4 293.5 -52t211 -139t127.5 -227q42 -135 42 -317q0 -363 -169.5 -546t-504.5 -189h-509zM301 132h287h9q151 0 259 32q112 33 183.5 105t104.5 186.5t33 279.5q0 162 -33 276.5t-105 188t-183.5 106t-267.5 32.5h-287v-1206z" />
<glyph unicode="E" horiz-adv-x="1218" d="M147 0v1470h1014v-132h-860v-513h804v-133h-804v-560h869v-132h-1023z" />
<glyph unicode="F" horiz-adv-x="1103" d="M147 0v1470h933v-132h-779v-513h690v-133h-690v-692h-154z" />
<glyph unicode="G" horiz-adv-x="1522" d="M78 735q0 100 19 195.5t56.5 181t95.5 156.5t135.5 122.5t173.5 80.5q95 28 212.5 28t220.5 -31.5t183.5 -94t135 -156.5t75.5 -217h-153q-5 41 -21.5 85t-44.5 85t-68 76.5t-89 62.5t-108.5 42.5t-130.5 15.5q-97 0 -174 -25t-137.5 -69t-103.5 -104.5t-71 -130 t-41.5 -147t-13.5 -156.5t13.5 -158t41.5 -149.5t71 -130.5t103.5 -103.5t138.5 -68.5q76 -25 173 -25q121 0 213.5 38t155.5 107.5t97 164.5q31 91 31 197v13h-494v133h629v-753h-114l-21 247q-38 -72 -91.5 -124t-117.5 -86t-137.5 -50t-150.5 -16q-117 0 -212.5 27.5 t-173 79t-135.5 123t-95.5 156t-56.5 180.5q-19 98 -19 198z" />
<glyph unicode="H" horiz-adv-x="1447" d="M147 0v1470h154v-632h846v632h152v-1470h-152v704h-846v-704h-154z" />
<glyph unicode="I" horiz-adv-x="457" d="M153 0v1470h151v-1470h-151z" />
<glyph unicode="J" horiz-adv-x="1026" d="M41 482h155v-28q0 -32 2 -70.5t9.5 -77t23.5 -77t45.5 -66.5t75 -45.5t113.5 -17.5q79 0 130.5 20.5t81 66t40.5 117.5q12 72 12 172v994h150v-1055q0 -112 -22 -196t-72 -139.5t-132.5 -82t-201.5 -26.5q-85 0 -149 19t-109.5 54t-75 83.5t-45.5 106t-23.5 120.5 t-7.5 128z" />
<glyph unicode="K" horiz-adv-x="1333" d="M147 0v1470h154v-781l834 781h203l-663 -609l692 -861h-197l-607 759l-262 -256v-503h-154z" />
<glyph unicode="L" horiz-adv-x="1098" d="M147 0v1470h154v-1338h799v-132h-953z" />
<glyph unicode="M" horiz-adv-x="1712" d="M144 0v1470h232l482 -1264l477 1264h233v-1470h-151v1294l-494 -1294h-132l-497 1294v-1294h-150z" />
<glyph unicode="N" horiz-adv-x="1447" d="M144 0v1470h188l818 -1269v1269h149v-1470h-173l-832 1279v-1279h-150z" />
<glyph unicode="O" horiz-adv-x="1522" d="M69 735q0 100 19 195.5t57.5 181t96.5 156.5t134.5 122.5t172.5 80t212 28.5q117 0 213 -28.5t172.5 -80t134.5 -122.5t96.5 -156.5t57.5 -181t19 -195.5t-19 -197t-57.5 -181.5t-96.5 -156t-134.5 -123t-172.5 -79t-213 -27.5q-114 0 -211 27.5t-173.5 79t-134.5 123 t-96.5 156t-57.5 181.5t-19 197zM223 735q0 -79 13.5 -158t40.5 -149.5t70.5 -130.5t104 -103.5t136.5 -68.5t173 -25t174.5 25t137 68.5t103 103.5t70.5 130.5t40 148.5q13 80 13 159t-13 156.5t-40 147t-70.5 130t-103 104.5t-137 69t-174.5 25t-173 -25t-136.5 -69 t-104 -104.5t-70.5 -130t-40.5 -147t-13.5 -156.5z" />
<glyph unicode="P" horiz-adv-x="1293" d="M147 0v1470h647q100 0 180.5 -29.5t139 -84.5t89.5 -134q32 -81 32 -181t-31.5 -178.5t-90 -133t-139 -83.5t-180.5 -29h-493v-617h-154zM301 750h460q72 0 132 17.5t102.5 53.5t66 91t23.5 129q0 75 -23.5 130.5t-66 92.5t-102.5 55.5t-132 18.5h-460v-588z" />
<glyph unicode="Q" horiz-adv-x="1522" d="M69 735q0 100 19 195.5t57.5 181t96.5 156.5t134.5 122.5t172.5 80t212 28.5q117 0 213 -28.5t172.5 -80t134.5 -122.5t96.5 -156.5t57.5 -181t19 -195.5q0 -85 -14 -166.5t-40.5 -156t-67.5 -140.5t-94 -119l204 -156l-78 -94l-226 169q-77 -47 -169.5 -74t-207 -27 t-211.5 27.5t-173.5 79t-134.5 123t-96.5 156t-57.5 180.5q-19 98 -19 198zM223 735q0 -79 13.5 -158t40.5 -149.5t70.5 -130.5t104 -103.5t136.5 -68.5t173 -25q78 0 142 14.5t117 44.5l-198 151l81 99l223 -171q44 47 78 103.5t54.5 120.5t30.5 133t10 140q0 79 -13 156.5 t-40 147t-70.5 130t-103 104.5t-137 69t-174.5 25t-173 -25t-136.5 -69t-104 -104.5t-70.5 -130t-40.5 -147t-13.5 -156.5z" />
<glyph unicode="R" horiz-adv-x="1372" d="M147 0v1470h669q62 0 118.5 -10.5t106.5 -31t92 -52.5t72 -75t46 -98.5t16 -122t-17.5 -126t-50 -108.5t-81.5 -85t-113 -57q64 -13 106.5 -42.5t69.5 -70.5t40 -94q14 -53 17 -115q0 -9 1 -21q2 -11 2 -23q3 -40 6 -87.5t10 -94.5t20.5 -88.5t35.5 -67.5h-172 q-12 21 -19.5 48t-12 55.5t-6 56.5t-1.5 52q-2 56 -8 110t-16.5 102.5t-28 90t-48.5 69.5t-77 44q-38 13 -90 13h-21h-512v-641h-154zM301 770h503q63 0 119 19t98.5 56t67.5 88.5t25 117.5q0 65 -19 118.5t-58 90.5t-97 57.5t-136 20.5h-503v-568z" />
<glyph unicode="S" horiz-adv-x="1293" d="M75 497h151v-18q0 -103 32 -173q36 -76 99 -122t150 -65t185 -19q39 0 80.5 6.5t84.5 22t81 38.5t67.5 55t46.5 74t17 95q0 60 -28 103.5t-71.5 75t-95 51.5t-101.5 32l-314 67q-65 18 -127 43t-109 67t-74.5 103t-27.5 147q0 36 8.5 81.5t29 91.5t57.5 90.5t93 79.5 t134.5 55.5t182.5 20.5q110 0 209.5 -29t173.5 -88.5t117.5 -147t43.5 -205.5h-153q-3 85 -35 148.5t-85 106t-122 63t-146 20.5q-70 0 -135 -14.5t-113.5 -48.5t-78 -88.5t-29.5 -135.5q0 -50 18 -86t47.5 -61.5t69 -42.5t83.5 -26l344 -79q79 -21 149 -50t123 -74 t84.5 -110.5t31.5 -156.5q0 -25 -6 -65.5t-24 -88t-54.5 -95.5t-99.5 -87t-155.5 -63t-224.5 -24q-131 0 -240.5 30t-188.5 95q-78 64 -120 164q-36 85 -36 198q0 19 1 39z" />
<glyph unicode="T" horiz-adv-x="1143" d="M12 1338v132h1123v-132h-488v-1338h-150v1338h-485z" />
<glyph unicode="U" horiz-adv-x="1408" d="M132 535v935h153v-904v-9q-1 -122 27 -207q28 -88 81.5 -144t131.5 -81t179 -25q100 0 178.5 25t132.5 81t81 144t27 216v904h150v-935q0 -76 -13 -148t-42 -134.5t-73.5 -115t-108 -89t-146.5 -57t-186 -20.5t-186 20.5t-146 57t-108.5 89t-75 115t-43 134.5t-13.5 148z " />
<glyph unicode="V" horiz-adv-x="1273" d="M12 1470h166l463 -1292l456 1292h161l-535 -1470h-176z" />
<glyph unicode="W" horiz-adv-x="1881" d="M18 1470h166l330 -1255l342 1255h185l347 -1255l329 1255h153l-406 -1470h-160l-359 1282l-351 -1282h-166z" />
<glyph unicode="X" horiz-adv-x="1227" d="M-3 0l517 756l-488 714h183l400 -606l411 606h172l-491 -717l522 -753h-185l-429 635l-441 -635h-171z" />
<glyph unicode="Y" horiz-adv-x="1327" d="M12 1470h181l469 -735l467 735h181l-572 -867v-603h-153v603z" />
<glyph unicode="Z" horiz-adv-x="1180" d="M15 0v132l936 1206h-869v132h1044v-132l-936 -1206h936v-132h-1111z" />
<glyph unicode="[" horiz-adv-x="496" d="M150 -394v1896h344v-120h-203v-1655h203v-121h-344z" />
<glyph unicode="\" horiz-adv-x="683" d="M-26 1499h117l620 -1528h-123z" />
<glyph unicode="]" horiz-adv-x="496" d="M3 -273h203v1655h-203v120h344v-1896h-344v121z" />
<glyph unicode="^" horiz-adv-x="1233" d="M78 485l485 942h107l485 -942h-129l-412 794l-402 -794h-134z" />
<glyph unicode="_" horiz-adv-x="1026" d="M0 -141h1026v-115h-1026v115z" />
<glyph unicode="`" horiz-adv-x="379" d="M-72 1502h172l219 -295h-113z" />
<glyph unicode="a" horiz-adv-x="1065" d="M66 285q0 71 19 121t53.5 85t82 58.5t104 37.5t119 23t128.5 16q62 6 103 15t66.5 23.5t36 39.5t10.5 66q0 63 -20.5 104.5t-57.5 65t-85 32.5q-49 10 -102 10q-56 0 -104.5 -14.5t-85 -44t-58.5 -75t-22 -110.5h-141q4 95 38 165t90.5 114t133.5 66q76 22 167 22 q46 0 93 -5.5t90 -20.5t80.5 -40t65.5 -63t44.5 -92.5t16.5 -127.5v-563q0 -34 17.5 -53t54.5 -19q5 0 20 4t24 7v-123q-21 -5 -39 -7q-17 -2 -50 -2q-47 0 -77.5 12.5t-48.5 34.5t-26 53q-9 29 -12 68q-33 -49 -68 -85.5t-78.5 -61.5t-98.5 -37.5t-129 -12.5q-72 0 -136 18 t-112.5 57t-76.5 99q-29 58 -29 140zM209 294q0 -47 19 -85t50 -64.5t70.5 -40t82.5 -13.5q70 0 135.5 22t115.5 64.5t79 103.5q27 60 27 136l-3 152q-9 -9 -23 -14t-38 -11.5t-60 -13.5t-89 -16q-47 -5 -92 -12.5t-86 -18t-75.5 -25t-59.5 -36.5t-39 -53t-14 -75z" />
<glyph unicode="b" horiz-adv-x="1189" d="M126 0v1482h144v-585q25 51 64 90t86 65.5t100 39.5t109 13q121 0 210.5 -46t148.5 -124.5t88 -181.5t29 -218t-29 -217t-88.5 -179t-148.5 -122.5t-210 -45.5q-59 0 -114.5 14t-103.5 41t-87 65t-65 87v-178h-133zM268 535q0 -54 8.5 -108t26 -104t45.5 -92.5t68 -73.5 t93 -48.5t120 -17.5q59 0 107.5 17.5t85 48.5t63 73.5t44.5 92.5t26.5 104t8.5 108t-8.5 108.5t-26.5 104t-44.5 92t-63 74t-85 50t-107.5 18.5q-67 0 -120 -18.5t-93 -50t-68 -74t-45.5 -92t-26 -103t-8.5 -109.5z" />
<glyph unicode="c" horiz-adv-x="1101" d="M85 532q0 115 32.5 219.5t95.5 182t157.5 123t217.5 45.5q85 0 158.5 -23.5t129.5 -71t93 -118.5q36 -69 48 -163h-141q-13 59 -37.5 105.5t-59.5 79.5t-82 50.5t-109 17.5q-93 0 -161 -38t-113 -101.5t-66.5 -143t-21.5 -164.5q0 -84 21.5 -163t66.5 -141.5t112.5 -101 t161.5 -38.5q59 0 110.5 22t89.5 62t63 95.5t31 120.5h141q-12 -97 -48.5 -175t-92.5 -132.5t-131 -83.5t-163 -29q-82 0 -151 20.5t-125 57t-98.5 89t-71.5 115t-43 134.5t-14 148z" />
<glyph unicode="d" horiz-adv-x="1189" d="M85 532q0 115 28 218t87 181.5t148.5 124.5t211.5 46q57 0 111.5 -13t101.5 -39.5t85.5 -64.5t61.5 -91v585h143v-1482h-132l-3 178q-25 -47 -65 -86t-88.5 -65.5t-103 -41t-111.5 -14.5q-122 0 -211.5 45.5t-148.5 122.5t-87 180q-28 101 -28 216zM226 532 q0 -54 7.5 -108t24.5 -104t43.5 -92.5t64 -73.5t86 -48.5t108.5 -17.5q68 0 121 17.5t93 48.5t68 73.5t46 92.5t25 104.5t7 107.5q0 55 -7 109t-25 103.5t-46 92t-68 74t-93 50t-121 18.5q-62 0 -109.5 -18.5t-85 -50t-64 -74t-43.5 -92t-24.5 -103.5t-7.5 -109z" />
<glyph unicode="e" horiz-adv-x="1126" d="M85 517q0 71 12 142.5t37 136.5t64.5 121t92.5 98t120.5 66t151.5 24q85 0 153.5 -24t121.5 -66t90.5 -100t61.5 -125q22 -67 32 -142q7 -57 8 -115q0 -18 -1 -36h-803q0 -47 9 -95.5t26.5 -93.5t44 -84.5t65 -69t85.5 -46.5t107 -17q68 0 120.5 19t92.5 55t67 86t42 111 h141q-21 -94 -58 -167t-94 -123t-134.5 -75.5t-176.5 -25.5q-126 0 -216.5 42.5t-148.5 116.5t-86 174q-27 99 -27 213zM226 617h662q-3 72 -25 137.5t-64 116.5t-101.5 81t-134.5 30q-76 0 -135 -31t-101 -81t-68 -116q-24 -66 -33 -137z" />
<glyph unicode="f" horiz-adv-x="557" d="M12 951v121h181v92q0 69 11 127t41 101t81 66q53 24 133 24q32 0 57 -3t56 -6v-124q-27 5 -49.5 7t-52.5 2q-50 0 -77.5 -16t-39.5 -42.5t-15 -62.5q-3 -37 -3 -79v-86h209v-121h-209v-951h-142v951h-181z" />
<glyph unicode="g" horiz-adv-x="1161" d="M85 563q0 74 15 142t43 128.5t69 110.5t94 86t117.5 55.5t139.5 19.5q53 0 102 -14.5t92 -39.5t78 -59t59 -75v155h141v-978q-2 -120 -26 -216t-80 -163.5t-145.5 -103.5t-220.5 -36q-53 0 -103.5 8t-98.5 26t-89 45.5t-72.5 64.5t-51.5 84t-25 106h142 q11 -59 40.5 -98.5t70 -64.5t89 -36t98.5 -11q87 0 150 25.5t103 75.5t59 123.5t19 170.5l-6 99q-24 -39 -59 -71t-77.5 -56.5t-91 -39t-97.5 -14.5q-126 0 -216.5 43t-148.5 118t-85.5 176t-27.5 214zM226 547q0 -80 21 -154t62 -132t105 -93.5t149 -35.5q82 0 143 35.5 t104 93.5t63 133q21 73 21 153q0 51 -7.5 103.5t-25 101t-44 90t-63.5 72.5t-84 49.5t-107 18.5q-59 0 -107.5 -17.5t-86 -47t-64.5 -70.5t-44.5 -89.5t-26 -101.5t-8.5 -109z" />
<glyph unicode="h" horiz-adv-x="1114" d="M126 0v1482h142l5 -559q21 43 55.5 77.5t78 57t92.5 35.5q51 12 101 12q111 0 185.5 -29t119.5 -83t64 -131t19 -173v-689h-141v667q0 68 -12.5 125.5t-42 100t-79 66t-123 23.5t-132 -27t-99.5 -75t-65 -112.5t-26 -141.5v-626h-142z" />
<glyph unicode="i" horiz-adv-x="430" d="M144 0v1072h141v-1072h-141zM144 1261v221h141v-221h-141z" />
<glyph unicode="j" horiz-adv-x="430" d="M-41 -270h23h50q36 0 58 10t33.5 30.5t16 47t4.5 59.5v1195h141v-1166q0 -59 -9.5 -113.5t-35 -95t-71.5 -64.5t-115 -24l-95 3v118zM144 1261v221h141v-221h-141z" />
<glyph unicode="k" horiz-adv-x="1062" d="M126 0v1482h142v-919l570 509h191l-463 -402l488 -670h-178l-417 575l-191 -169v-406h-142z" />
<glyph unicode="l" horiz-adv-x="430" d="M144 0v1482h141v-1482h-141z" />
<glyph unicode="m" horiz-adv-x="1700" d="M126 0v1072h133l6 -144q53 83 135 130t194 47q50 0 97 -11.5t86 -35t69 -59.5q30 -38 45 -88q25 50 61 87t80 60.5t92.5 35t98.5 11.5q171 0 261 -95.5t90 -283.5v-726h-141v720q0 65 -12.5 113.5t-40.5 81t-73.5 50t-111.5 17.5q-79 0 -133 -31.5t-86 -84t-45.5 -120 t-13.5 -140.5v-606h-141v726q0 53 -10 99.5t-35 81t-65.5 55t-99.5 20.5q-79 0 -136 -29.5t-92 -81t-52 -121.5q-18 -68 -18 -150v-600h-142z" />
<glyph unicode="n" horiz-adv-x="1126" d="M126 0v1072h142l5 -144q30 50 66 84.5t78 55t89 29t100 8.5q114 0 189 -29t120.5 -83t65 -131t19.5 -173v-689h-142v667q0 68 -12.5 125.5t-42.5 100t-80 66t-126.5 23.5t-136.5 -27t-101 -75t-65 -112.5t-26 -141.5v-626h-142z" />
<glyph unicode="o" horiz-adv-x="1143" d="M69 529.5q0 76.5 14.5 148.5t44 135t72.5 116t98.5 90.5t124 59t149.5 21.5q120 0 214.5 -46t158 -123.5t96.5 -181.5q34 -105 34 -220q0 -76 -15 -148t-43.5 -134.5t-72 -115t-99.5 -89t-124 -57t-149 -20.5q-80 0 -149 20.5t-124.5 57t-98.5 89t-71.5 115t-44 134.5 t-15.5 148.5zM212 529q0 -84 22 -163t67.5 -141.5t113 -101t157.5 -38.5q91 0 158 38.5t111.5 101t67 142.5t22.5 162q0 84 -22.5 164t-67 143.5t-111.5 101.5t-158 38t-158 -38t-112.5 -101.5t-67.5 -143t-22 -164.5z" />
<glyph unicode="p" horiz-adv-x="1189" d="M126 -391v1463h133l3 -178q25 50 62.5 89.5t86 66t104 41t114.5 14.5q121 0 210 -46t148.5 -124.5t88.5 -181.5t29 -218t-29 -217t-88.5 -179t-148.5 -122.5t-210 -45.5q-56 0 -109 11.5t-100.5 37.5t-86.5 64.5t-65 90.5v-566h-142zM268 535q0 -54 8.5 -108t26 -104 t45.5 -92.5t68 -73.5t93 -48.5t120 -17.5q59 0 107.5 17.5t85 48.5t63 73.5t44.5 92.5t26.5 104t8.5 108t-8.5 108.5t-26.5 104t-44.5 92t-63 74t-85 50t-107.5 18.5q-67 0 -121.5 -17t-94.5 -46.5t-67.5 -71t-44.5 -90t-25 -105.5q-8 -58 -8 -117z" />
<glyph unicode="q" horiz-adv-x="1189" d="M85 535q0 115 29.5 218t88.5 181.5t148.5 124.5t208.5 46q56 0 111 -11t103 -35t88 -63q41 -40 69 -96v172h132v-1463h-143l-3 556q-25 -50 -62.5 -87t-84.5 -61t-101.5 -35t-108.5 -11q-120 0 -209 45.5t-148 122.5t-88 180q-30 101 -30 216zM226 535q0 -54 7.5 -108 t25 -104t44 -92.5t65 -73.5t85.5 -48.5t107 -17.5q68 0 120 17.5t92.5 48.5t68.5 73.5t46.5 92.5t25.5 104.5t7 107.5q0 54 -7 108.5t-25.5 104t-46.5 92t-68.5 74t-93.5 50t-119 18.5q-59 0 -106.5 -18.5t-86 -50t-65 -74t-44 -92t-25 -104t-7.5 -108.5z" />
<glyph unicode="r" horiz-adv-x="667" d="M126 0v1072h133l3 -219q26 57 64.5 102t88.5 75.5t111 45.5q49 12 107 13q12 0 23 -1v-143q-14 1 -27 1q-73 0 -133 -24q-71 -28 -122 -78t-78.5 -120.5t-27.5 -151.5v-572h-142z" />
<glyph unicode="s" horiz-adv-x="990" d="M63 356h143q4 -65 28.5 -115t64 -84t92.5 -50t115 -16q41 0 89.5 10.5t90.5 33t69 60t27 90.5q0 44 -19 76.5t-50 53t-72 34t-84 24.5l-157 36q-63 14 -118.5 35.5t-95.5 54.5t-63 83t-23 119q0 53 16 97t45.5 78t69 58t84 40.5t91.5 23.5t94 7q78 0 147 -22t121 -66 t84.5 -110t35.5 -157h-141q-3 61 -25 104.5t-58 72.5t-83 42q-46 13 -99 13q-40 0 -82.5 -9.5t-77.5 -29.5t-58 -53.5t-23 -82.5q0 -44 22 -72.5t54.5 -49.5t69.5 -32q39 -12 72 -21l158 -38q65 -15 121 -38.5t97 -58.5t64.5 -85t23.5 -118q0 -59 -17.5 -105t-48.5 -82 t-72 -62.5t-88 -43t-98 -23.5t-99 -7q-91 0 -167.5 22t-134 69t-92.5 120q-35 74 -43 174z" />
<glyph unicode="t" horiz-adv-x="577" d="M3 951v121h184v319h141v-319h216v-121h-216v-707q0 -31 3.5 -55t14 -41t29.5 -27q19 -9 53 -12q32 0 60.5 1.5t55.5 4.5v-124l-62 -3h-57q-68 0 -114 12t-73.5 40t-39 75t-11.5 117v719h-184z" />
<glyph unicode="u" horiz-adv-x="1114" d="M126 379v693h142v-696q2 -70 17 -124.5t47.5 -90t83.5 -53t125 -17.5q79 0 136.5 35.5t95 94t56 133.5t18.5 155v563h141v-1072h-130l-5 150q-30 -54 -66.5 -89t-80.5 -55.5t-95.5 -27.5t-110.5 -7q-100 0 -170.5 27.5t-116 82t-66.5 129.5t-21 169z" />
<glyph unicode="v" horiz-adv-x="951" d="M0 1072h159l326 -916l316 916h150l-394 -1072h-151z" />
<glyph unicode="w" horiz-adv-x="1514" d="M6 1072h153l269 -885l250 885h157l256 -888l261 888h153l-344 -1072h-153l-255 873l-250 -873h-153z" />
<glyph unicode="x" horiz-adv-x="990" d="M3 0l406 557q-94 129 -190 257t-190 258h169l299 -402l294 402h167l-380 -512l413 -560h-172l-328 445l-326 -445h-162z" />
<glyph unicode="y" horiz-adv-x="951" d="M0 1072h153l338 -888l316 888h144l-457 -1231q-29 -67 -54 -113t-56 -72t-72.5 -36.5t-102.5 -10.5q-41 0 -66 1.5t-40 7.5v120q23 -6 46.5 -7t48.5 -1q40 0 67.5 11.5t47 33.5t34.5 51.5t29 64.5l44 118z" />
<glyph unicode="z" horiz-adv-x="956" d="M35 0v115l674 836h-624v121h809v-99l-682 -852h702v-121h-879z" />
<glyph unicode="{" horiz-adv-x="683" d="M165 491v121q44 0 73.5 27.5t45.5 73.5t22.5 104.5t6.5 118.5v305q0 58 12.5 106.5t36 82.5t58 51.5t80.5 17.5h109v-120h-49q-29 0 -49 -17.5t-33 -45.5t-18.5 -65t-5.5 -78v-285q2 -72 -13 -128.5t-37 -98t-45.5 -68.5t-39.5 -42q15 -10 38.5 -34.5t45.5 -64.5 t37.5 -99t13.5 -135v-287q0 -40 5.5 -76.5t18.5 -64.5t33 -44t49 -16h49v-121h-109q-46 0 -80.5 17.5t-58 50.5t-36 81t-12.5 110v300q0 58 -6.5 117t-22.5 104.5t-45.5 73.5t-73.5 28z" />
<glyph unicode="|" horiz-adv-x="457" d="M168 -29v1528h120v-1528h-120z" />
<glyph unicode="}" horiz-adv-x="683" d="M75 -270h48q30 0 50.5 16t33.5 44t19 64.5t6 76.5v287q-1 76 13 133.5t35 99t44 67.5t38 36q-15 10 -38 34.5t-44 65t-36 98.5t-12 136v285q0 40 -6 77.5t-19 65.5t-33.5 45.5t-50.5 17.5h-48v120h109q47 0 81.5 -17.5t59.5 -51.5t36.5 -82.5t11.5 -106.5v-305 q0 -61 6 -118.5t22 -102.5t45.5 -73t73.5 -28v-120q-45 0 -74 -28t-45 -73.5t-22 -103t-6 -118.5v-303q0 -122 -48.5 -190.5t-140.5 -68.5h-109v121z" />
<glyph unicode="~" horiz-adv-x="1233" d="M135 459q18 33 41.5 66.5t56 60t73.5 42.5t94 16q28 0 58 -6t59.5 -15t59.5 -20q30 -9 58 -21q59 -28 111 -49q54 -21 92 -21q29 0 54 12.5t47 33t41.5 47.5t36.5 54l88 -84q-23 -34 -49.5 -67t-58 -59t-72 -42t-90.5 -16q-31 0 -59.5 6t-57.5 14.5t-56 21.5 q-27 14 -53 26q-27 11 -54 23t-54.5 21.5t-55.5 14.5t-57 5q-34 0 -59.5 -12.5t-46 -33.5t-37 -47.5t-27.5 -53.5z" />
<glyph unicode="&#xa2;" horiz-adv-x="1143" d="M106 529q0 103 31.5 198t89.5 170t140 125q80 51 180 69v182h94v-176q79 -5 149.5 -32t123.5 -74t88.5 -115t44.5 -156h-141q-12 55 -35.5 99t-56 77t-76.5 52t-97 25v-885q53 6 100 30.5t83.5 64t60 91.5t29.5 114h143q-12 -94 -47 -170.5t-89 -131t-125 -85t-155 -33.5 v-209h-94v209q-100 17 -181 68.5t-139 126.5t-89.5 169t-31.5 197zM247 529q0 -70 20.5 -140.5t60.5 -131t95 -104.5q53 -44 124 -62v879q-71 -17 -125 -61.5t-94 -104.5t-60 -131q-21 -73 -21 -144z" />
<glyph unicode="&#xa3;" horiz-adv-x="1143" d="M75 88q48 38 91.5 78.5t76.5 87.5t52 100q18 55 18 113q0 21 -4.5 47.5t-11.5 54.5t-17 55q-10 26 -21 46h-171v80h124q-24 38 -43 76t-33.5 76.5t-22 79.5t-7.5 87q0 113 39.5 194t106 133.5t152.5 77.5q87 25 178 25q115 0 204.5 -35t152 -100t94 -157.5t30.5 -206.5 h-143q0 82 -21 151t-64.5 120.5t-107 79.5t-145.5 28q-63 0 -124 -19t-108 -59t-75 -100t-28 -141q0 -32 4.5 -58t11.5 -48.5t17.5 -42.5t20.5 -41l25.5 -42.5t18.5 -31.5t13 -24.5t10 -21.5h327v-80h-283q10 -17 18 -41.5t14 -51t8 -52t2 -43.5q0 -54 -14.5 -102t-39 -91.5 t-57.5 -81.5q-34 -38 -70 -72q39 18 74 29t78 11q29 0 56.5 -3t54 -9t53.5 -15q25 -10 58 -22q38 -14 77.5 -24.5t88.5 -10.5q29 0 61 9t62.5 26t59.5 38q27 21 51 48l79 -112q-35 -32 -70.5 -56.5t-73.5 -40.5t-79.5 -24t-89.5 -8q-66 0 -119 10t-97 28q-38 16 -94 30.5 t-115 14.5q-26 0 -51 -5t-48 -14t-43 -20t-37 -21l-47 -29z" />
<glyph unicode="&#xa5;" horiz-adv-x="1143" d="M0 1470h159l410 -741l413 741h156l-437 -747h219v-103h-276q-2 -1 -2.5 -3.5t-0.5 -4.5q-2 -3 -3 -6v-144h282v-106h-282v-356h-141v356h-277v106h277v144l-12 14h-265v103h214z" />
<glyph unicode="&#xa9;" horiz-adv-x="1643" d="M51 735q0 109 27.5 208t76 185t118.5 155t155.5 119t185 76.5t208.5 26.5t209.5 -26.5t185.5 -76.5t154.5 -119t119.5 -155t76 -185t26 -208t-26 -209t-76 -185t-119.5 -155t-154.5 -119t-185 -75.5t-210 -26.5q-109 0 -208.5 26.5t-185 75.5t-155.5 119t-118.5 155 t-76 185t-27.5 209zM184 735q0 -91 22 -174t62.5 -156t97.5 -131.5t127.5 -100.5t154 -65t174.5 -23t174 23t154.5 65t129.5 100.5t99 131.5t63 156t22 174q0 90 -22 173t-63 155t-99 130.5t-129.5 101.5t-154.5 66.5t-174 23.5t-174.5 -23.5t-154 -66.5t-127.5 -101.5 t-97.5 -130.5t-62.5 -156t-22 -172zM434 723q0 94 27 179.5t78.5 148.5t128.5 101q79 37 179 37q70 0 129 -19t105 -58t76.5 -97t40.5 -136h-113q-12 49 -32 87.5t-48.5 65t-68 41.5t-89.5 15q-77 0 -132.5 -31.5t-91.5 -82.5t-54 -117t-18 -134q0 -69 18 -134.5t54 -117 t91.5 -82t132.5 -30.5q48 0 90 17.5t73.5 50.5t51.5 78t26 101h116q-10 -80 -39.5 -144.5t-76 -110t-107.5 -69t-134 -23.5q-100 0 -178 36.5t-129.5 100t-78.5 147.5q-27 86 -27 180z" />
<glyph unicode="&#xab;" horiz-adv-x="876" d="M118 497v138l285 265v-159l-185 -175q45 -41 93 -87.5t92 -87.5v-162zM448 497v138l287 265v-159l-188 -175q45 -41 94 -88q50 -46 94 -87v-162z" />
<glyph unicode="&#xad;" horiz-adv-x="864" d="M94 462v120h676v-120h-676z" />
<glyph unicode="&#xae;" horiz-adv-x="1643" d="M51 735q0 109 27.5 208t76 185t118.5 155t155.5 119t185 76.5t208.5 26.5t209.5 -26.5t185.5 -76.5t154.5 -119t119.5 -155t76 -185t26 -208t-26 -209t-76 -185t-119.5 -155t-154.5 -119t-185 -75.5t-210 -26.5q-109 0 -208.5 26.5t-185 75.5t-155.5 119t-118.5 155 t-76 185t-27.5 209zM184 735q0 -91 22 -174t62.5 -156t97.5 -131.5t127.5 -100.5t154 -65t174.5 -23t174 23t154.5 65t129.5 100.5t99 131.5t63 156t22 174q0 90 -22 173t-63 155t-99 130.5t-129.5 101.5t-154.5 66.5t-174 23.5t-174.5 -23.5t-154 -66.5t-127.5 -101.5 t-97.5 -130.5t-62.5 -156t-22 -172zM538 285v898h347q153 0 222.5 -64t69.5 -188q0 -59 -16.5 -102.5t-46 -74.5t-68 -50t-82.5 -26l262 -393h-146l-249 393h-172v-393h-121zM659 782h138q32 0 64.5 1.5t61 6t53 14t42.5 25.5t28.5 41t10.5 61q0 44 -17.5 72.5t-46.5 44.5 t-65.5 23t-74.5 7h-194v-296z" />
<glyph unicode="&#xbb;" horiz-adv-x="876" d="M141 229v162l187 175l-187 175v159l287 -265v-138zM473 229v162l186 175l-186 175v159l286 -265v-138z" />
<glyph unicode="&#xbc;" horiz-adv-x="1715" d="M91 1129v106q53 3 97 10t76.5 28t54.5 58.5t34 101.5h101v-889h-116v651q-44 -35 -107 -49t-140 -17zM301 0l872 1470h121l-869 -1470h-124zM879 206v95l443 587h105v-584h139v-98h-139v-206h-117v206h-431zM1003 304h307v410z" />
<glyph unicode="&#xbd;" horiz-adv-x="1715" d="M91 1129v106q53 3 97 10t76.5 28t54.5 58.5t34 101.5h101v-889h-116v651q-44 -35 -107 -49t-140 -17zM301 0l876 1470h120l-872 -1470h-124zM979 0q0 74 25 129.5t64.5 98t89.5 78t103 67.5q36 21 79 47.5t80.5 60t62.5 75t25 91.5q0 38 -16 67.5t-44 50t-64.5 31.5 t-76.5 11q-53 0 -90.5 -20t-62 -51.5t-35.5 -73.5t-8 -87h-114q-2 73 16.5 134t57.5 105t99 68t143 24q67 0 124 -16.5t98 -49t64.5 -82t23.5 -117.5q0 -56 -19 -101.5t-51.5 -82.5t-72 -67.5t-81.5 -54.5q-117 -63 -189 -119.5t-99 -115.5h506v-100h-638z" />
<glyph unicode="&#xbe;" horiz-adv-x="1715" d="M100 882h112q-3 -47 11 -86.5t41 -67.5t66.5 -44.5t89.5 -16.5q42 0 81.5 12t70.5 33.5t50 53t19 72.5q0 40 -17 69t-45.5 49t-67 30.5t-80.5 10.5h-78v97h78q29 0 60.5 8t58 25t43 43.5t16.5 61.5t-16.5 62.5t-42 45.5t-59.5 27q-35 9 -71 9q-47 0 -82 -15.5 t-59.5 -43.5t-36.5 -66q-13 -40 -13 -84h-111q0 65 20.5 121t59.5 96t95.5 63t126.5 23q59 0 113.5 -13t95.5 -41t66 -72.5t25 -105.5q0 -30 -8 -59t-23.5 -54t-38.5 -45q-24 -22 -53 -33q75 -21 115.5 -74t40.5 -129q0 -68 -26.5 -118.5t-72 -85t-106 -51.5t-128.5 -17 q-76 0 -138 20.5t-103.5 60t-63 97.5t-15.5 132zM454 0l876 1470h121l-873 -1470h-124zM967 206v95l441 587h106v-584h138v-98h-138v-206h-118v206h-429zM1091 304h305v410z" />
<glyph unicode="&#xd7;" horiz-adv-x="1020" d="M29 97l399 420l-399 422l86 84l394 -420l397 420l85 -84l-400 -422l400 -420l-85 -82l-397 419l-394 -419z" />
<glyph unicode="&#xf7;" horiz-adv-x="1233" d="M100 459v119h1035v-119h-1035zM497 109q0 26 8.5 48t25 37.5t38.5 25t48 9.5q25 0 46.5 -9.5t38.5 -25t26.5 -37.5t9.5 -48q0 -24 -9.5 -46t-26 -38t-37.5 -26.5t-45 -10.5q-26 0 -49.5 9.5t-40 26t-25 38.5t-8.5 47zM497 923q0 27 8.5 50.5t25 39.5t38.5 25t48 9 q25 0 46.5 -9t38.5 -26t26.5 -39.5t9.5 -49.5q0 -23 -9.5 -44.5t-26 -38.5t-37.5 -26.5t-45 -9.5q-26 0 -49.5 9.5t-40 26t-25 37.5t-8.5 46z" />
<glyph unicode="&#xe01;" horiz-adv-x="1267" d="M51 882q18 71 58.5 139t106.5 122t160 86t224 32q106 0 186.5 -19.5t139.5 -55t98.5 -83.5t63 -106t34 -122t10.5 -131v-744h-150v770q0 44 -7.5 89t-23.5 85.5t-44 76.5t-70.5 61.5t-101.5 42t-135 16.5q-66 0 -120 -12t-96.5 -32.5t-73.5 -47t-53 -56t-34 -57.5 q-11 -28 -17 -51q50 -29 72.5 -88t22.5 -141v-656h-151v659q0 32 -3 65t-12.5 62.5t-29.5 53.5t-54 42z" />
<glyph unicode="&#xe02;" horiz-adv-x="1031" d="M21 1132v103h292l231 -1120h3l232 1120h163l-283 -1235h-228l-250 1132h-160z" />
<glyph unicode="&#xe03;" horiz-adv-x="1131" d="M44 1235h134q4 -27 16 -52t31 -44t44 -29t56 -10q65 0 105 36.5t49 98.5h138v-227q0 -29 -11.5 -57.5t-33.5 -58t-53 -61t-68 -67.5q-35 -35 -60 -66.5t-41 -63t-24 -66t-10 -77.5v-74q0 -76 20 -135t56.5 -100t86.5 -61.5t109 -20.5q57 0 105 14t81.5 48.5t53.5 92.5 q19 57 19 145v835h150v-859q0 -103 -31 -180t-85.5 -127t-129.5 -74t-163 -24t-165.5 27t-135.5 79t-91.5 127t-33.5 172v52q0 50 3 89t10 68t17.5 54t28 47.5t39.5 44.5t53 48.5t61 54t54.5 57t39 63.5t14.5 72v65q-6 -15 -19 -32t-35 -31t-56 -22.5t-81 -8.5q-32 0 -72 10 t-76 36.5t-63 72.5q-27 48 -36 119z" />
<glyph unicode="&#xe04;" horiz-adv-x="1296" d="M135 0v735q0 66 9 131t32.5 123t61 108t95 86.5t136 57t181.5 20.5t180.5 -20.5t134.5 -57t94.5 -86.5t61 -108t32 -123.5t8.5 -130.5v-735h-150v764q0 44 -7 89t-23.5 87t-44.5 78.5t-67.5 63t-94 43t-125 16.5t-125 -16.5t-94.5 -43t-67.5 -63t-45 -78.5t-25 -87 t-7.5 -89v-294v-3q35 77 83 124t103 73.5t116 36.5q63 10 124 10v-120q-108 0 -189 -35.5t-133 -99.5t-78 -154t-26 -202v-100h-150z" />
<glyph unicode="&#xe05;" horiz-adv-x="1312" d="M135 0v782q0 85 15 163t53 140.5t105 105.5q68 44 171 61l177 -174l166 174q106 -14 174 -58t108.5 -107.5t56.5 -141.5t16 -163v-782h-151v782q0 43 -4.5 91.5t-22 93t-51.5 84.5t-90 66l-202 -197q-6 -6 -9 0l-202 197q-54 -23 -85.5 -63t-48 -85.5t-21.5 -94t-5 -92.5 v-312v-3q40 68 83.5 113.5t94 75t111.5 42.5t137 13v-120q-102 0 -181.5 -35.5t-134 -99.5t-82.5 -154t-28 -202v-100h-150z" />
<glyph unicode="&#xe06;" horiz-adv-x="1258" d="M26 1235h133q4 -27 16.5 -52t31 -44t44 -29t56.5 -10q63 0 104 36q42 37 51 99h138v-227q-3 -41 -15 -74.5t-32.5 -64.5t-48.5 -62t-64 -66q-24 -24 -44 -41.5t-36 -35t-28 -35t-19 -40t-11 -50t-4 -66.5q0 -72 27.5 -140t77.5 -121t122 -84t164 -31q72 0 125 20.5 t88.5 59t53 94t17.5 123.5v841h150v-818q0 -98 -21.5 -180.5t-69 -142t-124 -93t-188.5 -33.5q-64 0 -127.5 12.5t-120 39.5t-103.5 70q-49 42 -81 103v3q0 -50 -3 -98t-3 -98h-138v428q0 47 1.5 81.5t4.5 62.5t12 50t24 42.5t39 43.5q22 23 57 51q44 38 78 67.5t56 61 t31 67.5t7 86v34q-9 -15 -25.5 -30t-40 -26t-50 -16.5t-56.5 -5.5q-34 0 -74 10t-78.5 36.5t-66.5 72.5q-28 48 -37 119z" />
<glyph unicode="&#xe07;" horiz-adv-x="908" d="M38 709h158l180 -528q16 -46 51 -69.5t73 -23.5q31 0 54.5 10.5t39 28t24 41t8.5 50.5v911h-184v106h331v-976q0 -80 -20.5 -134t-57 -89.5t-86.5 -50t-112 -14.5q-59 0 -104.5 14.5t-78 43t-56 69t-40.5 92.5z" />
<glyph unicode="&#xe08;" horiz-adv-x="1089" d="M63 914q9 77 43.5 141t95 108.5t148.5 69.5t204 25q124 0 208.5 -33.5t136 -92.5t73.5 -135.5t19 -161.5q-2 -47 -14.5 -107.5t-33 -129.5t-47.5 -143t-58.5 -151.5t-65.5 -153.5t-68 -150h-198l-215 600h-159v104h274l203 -589q26 61 52.5 126t51.5 131t47 129t38 123.5 t26.5 113.5t13.5 97q3 63 -12.5 118t-51 96.5t-93.5 65t-143 23.5q-143 0 -220 -58q-77 -60 -89 -166h-166z" />
<glyph unicode="&#xe09;" horiz-adv-x="1284" d="M112 917q11 68 45 129.5t96.5 108t154.5 73.5t218 27q106 0 187 -19.5t138 -55t96 -83t62 -106t32 -122t9 -131.5v-738h-139l-6 196q-35 -62 -85.5 -105.5t-110 -71.5t-125 -39.5t-133.5 -11.5q-122 0 -202.5 33t-128 92.5t-66.5 142.5q-19 82 -19 181v239h150v-262 q0 -68 20.5 -122t59 -94t93 -60.5t124.5 -20.5q107 0 186 31t130.5 88t76.5 136.5t25 176.5v235q0 68 -17 134t-59 119t-115 85.5t-183 32.5q-94 0 -157 -20.5t-104.5 -53t-62 -70.5t-29.5 -74h-161z" />
<glyph unicode="&#xe0a;" horiz-adv-x="1089" d="M63 1111v96q21 9 49 17t55 14.5t50.5 10t38.5 3.5q117 0 176.5 -58.5t55.5 -170.5q-3 -20 -7.5 -36.5t-12.5 -32.5t-19.5 -33t-28.5 -38.5t-40 -50.5t-52 -68q-24 -33 -36.5 -59t-17 -50t-4.5 -50q-2 -26 -2 -61v-119q0 -77 22 -136.5t60 -100.5t89.5 -61.5t111.5 -20.5 q59 0 109 15.5t87 51.5t57.5 93t20.5 140v100q0 64 -8.5 110t-23 76t-38 47t-53 25t-64.5 10t-78 2h-40v115h40q79 3 136 28t92 70.5t51.5 107t16.5 138.5h149q-2 -40 -6.5 -82t-16.5 -81.5t-31 -76.5t-48.5 -66t-71.5 -52q-43 -21 -102 -33q59 -8 100 -29t68.5 -50 t43 -63.5t23.5 -69t10 -67.5t2 -59v-124q0 -103 -35 -180t-94 -127t-135.5 -74.5t-160.5 -24.5q-85 0 -163.5 26.5t-139 77.5t-97 126.5t-36.5 175.5v138q0 47 2 82.5t7 62t14 48t22 41t32 41.5q20 22 43 52q24 26 41.5 45t30.5 37t22 35.5t15 40.5q12 75 -20 109 q-30 33 -104 33q-47 0 -85 -11q-38 -10 -72 -25z" />
<glyph unicode="&#xe0b;" horiz-adv-x="1098" d="M18 1235h132q4 -27 13.5 -52t24.5 -44t38 -29q21 -10 53 -10q33 0 56.5 9.5t39.5 27t26 42.5q11 26 14 56h139v-227q0 -29 -8 -57t-25.5 -56.5t-44.5 -60.5q-29 -31 -64 -70q-36 -35 -61 -66.5t-41 -63t-25 -66t-9 -77.5v-66q0 -77 22 -136.5t60.5 -100.5t90 -61.5 t111.5 -20.5q59 0 109 15.5t86.5 51.5t58 93t21.5 140v100q0 64 -9 110t-23.5 76t-37.5 47t-52 25t-65 10t-79 2v115q79 3 135.5 28t92 70.5t51.5 107t16 138.5h150q-3 -40 -7 -82t-16 -81.5t-31 -76.5t-48.5 -66t-72.5 -52q-42 -21 -101 -33q59 -8 100 -29t68 -50 t42.5 -63.5t23.5 -69t10.5 -67.5t2.5 -59v-124q0 -103 -35.5 -180t-94 -127t-135 -74.5t-160.5 -24.5q-56 0 -110.5 12t-103 35t-89.5 57.5t-71 79t-46.5 100.5t-16.5 122v46q0 50 3 87.5t10.5 67.5t19.5 53.5t28 46.5t39 45q21 22 50.5 51t56 57t46 57t30.5 62t11 71v65 q-2 -9 -14 -24.5t-33.5 -31t-51.5 -27t-71 -11.5q-32 0 -69 10t-70 36.5t-57 72.5q-25 48 -33 119z" />
<glyph unicode="&#xe0c;" horiz-adv-x="1953" d="M51 882q12 47 34 93.5t54 88t74.5 78.5t98.5 64t123.5 42.5t149.5 15.5q100 0 175.5 -19.5t132.5 -55t95 -83.5t61.5 -106t34 -122t10.5 -131v-241q0 -86 21 -159.5t64.5 -127.5t106.5 -85t147 -31q62 0 107 22t73 61.5t41 94t13 119.5v835h151v-810q0 -93 -16.5 -175 t-57 -144t-109 -97t-171.5 -35q-57 0 -111 10t-101 36.5t-88 68.5t-76 104l-8 -193h-138v773q0 44 -6.5 89t-22.5 85.5t-43.5 76.5t-67 61.5t-93 42t-124.5 16.5q-91 1 -158.5 -23t-114 -63t-72 -86t-34.5 -90q29 -15 47.5 -38.5t29.5 -53.5t14.5 -64.5t3.5 -75.5v-538h139 v-112h-290v653q0 32 -1.5 63t-11 59t-29.5 54.5t-57 52.5z" />
<glyph unicode="&#xe0d;" horiz-adv-x="1953" d="M51 882q12 47 34 93.5t54 88t74.5 78.5t98.5 64t123.5 42.5t149.5 15.5q100 0 175.5 -19.5t132.5 -55t95 -83.5t61.5 -106t34 -122t10.5 -131v-241q0 -65 13 -119.5t41 -94t73 -61.5t106 -22q84 0 147.5 30.5t106.5 85t64.5 128t21.5 159.5v623h151v-928q0 -88 -8 -155.5 t-21 -119t-31 -89t-35 -64.5q-35 -52 -79.5 -86t-94.5 -55.5t-105.5 -30t-116.5 -8.5q-76 0 -146.5 18t-127 56.5t-97.5 94.5q-42 56 -56 132h160q26 -100 94.5 -146.5t169.5 -46.5q65 0 117.5 15.5t90.5 42t65 63.5t44 78t24.5 86.5t7.5 91.5v114q-35 -61 -76.5 -104 t-88.5 -68.5t-100 -36.5t-111 -11q-103 0 -171.5 36t-109 97.5t-57.5 144t-17 173.5v244q0 44 -6.5 89t-22.5 85.5t-43.5 76.5t-67 61.5t-93 42t-124.5 16.5q-91 1 -158.5 -23t-114 -63t-72 -86t-34.5 -90q29 -15 47.5 -38.5t29.5 -53.5t14.5 -64.5t3.5 -75.5v-538h139v-112 h-290v653q0 32 -1.5 63t-11 59t-29.5 54.5t-57 52.5z" />
<glyph unicode="&#xe0e;" horiz-adv-x="1290" d="M44 0v112h131v547q0 32 -3 65t-13.5 62.5t-30 53.5t-53.5 42q18 71 58 139t106.5 122t161 86t222.5 32q106 0 187 -19.5t139.5 -55t98.5 -83.5t64 -106t33.5 -122t9.5 -131v-1144h-164q-19 30 -51 53.5t-73.5 41t-91 27.5t-105.5 10t-110 -14.5t-99.5 -36.5t-81 -48.5 t-51.5 -49.5v147q15 11 47 31t78.5 39t102.5 33t114 14q62 0 112.5 -9.5t92 -25t73.5 -34.5t57 -40v1032q0 44 -6.5 89t-23.5 85.5t-44.5 76.5t-70.5 61.5t-101.5 42t-135.5 16.5q-100 0 -170.5 -26.5t-117.5 -66.5t-73 -84q-24 -44 -33 -79q50 -29 73 -88t23 -141v-656 h-281z" />
<glyph unicode="&#xe0f;" horiz-adv-x="1290" d="M44 0v112h131v547q0 32 -3 65t-13.5 62.5t-30 53.5t-53.5 42q18 71 58 139t106.5 122t161 86t222.5 32q106 0 187 -19.5t139.5 -55t98.5 -83.5t64 -106t33.5 -122t9.5 -131v-1144h-155q-14 31 -30 56.5t-37.5 45.5t-50.5 31t-69 11q-38 0 -65.5 -13t-46.5 -33.5 t-29 -46.5q-10 -24 -16 -51h-139q-8 27 -19 52.5t-29.5 47t-45 34.5t-61.5 13q-30 0 -52 -12.5t-38 -33t-27 -46.5q-10 -25 -13 -55h-132q6 62 27 109t55 79.5t78 49.5q46 18 96 18q34 0 67 -7.5t63 -25t55.5 -47t46.5 -70.5q19 44 46.5 73.5t57.5 45.5t61.5 23.5t59.5 7.5 q62 0 108 -25t84 -78v1017q0 44 -6.5 89t-23.5 85.5t-44.5 76.5t-70.5 61.5t-101.5 42t-135.5 16.5q-100 0 -170.5 -26.5t-117.5 -66.5t-73 -84q-24 -44 -33 -79q50 -29 73 -88t23 -141v-656h-281z" />
<glyph unicode="&#xe10;" horiz-adv-x="1103" d="M35 -388q0 57 18.5 102t48.5 76.5t71.5 48.5t88.5 17q23 0 49.5 -5t51.5 -18.5t47 -36t35 -61.5q14 39 37.5 62.5t50 36.5t53 17.5t43.5 4.5q24 -2 46.5 -8.5t44 -18t39 -29.5t29.5 -41v135h143v-282h-149q-12 28 -23.5 52t-29.5 43.5t-42 29.5t-58 10q-26 0 -46.5 -10 t-36 -29.5t-24 -43.5t-8.5 -52h-141q0 26 -5.5 51t-19 44.5t-34 31t-49.5 11.5q-27 0 -46 -13t-32.5 -34t-19 -44.5t-5.5 -46.5h-127zM63 914q9 77 43.5 141t95 108.5t148.5 69.5t204 25q50 0 95 -5.5t83 -17.5q41 3 72.5 15.5t54.5 30.5t37.5 42t17.5 50h166 q-4 -26 -18.5 -54t-42.5 -54.5t-69.5 -49.5t-99.5 -38q39 -29 66.5 -66.5t44.5 -81.5t23.5 -94t6.5 -100q-2 -47 -14.5 -107.5t-33 -129.5t-47.5 -143t-58.5 -151.5t-65.5 -153.5t-68 -150h-198l-215 600h-159v104h274l203 -589q26 61 52.5 126t51.5 131t47 129t38 123.5 t26.5 113.5t13.5 97q3 63 -12.5 118t-51 96.5t-93.5 65t-143 23.5q-143 0 -220 -58q-77 -60 -89 -166h-166z" />
<glyph unicode="&#xe11;" horiz-adv-x="1267" d="M41 1235h140q3 -27 13 -52t28 -44t42 -29t58 -10q31 0 57.5 9.5t45.5 27t31 42.5q14 26 17 56h139v-178q67 59 120 96.5t95.5 59.5t75 30.5t58.5 8.5q47 0 79.5 -14.5t53 -44t29.5 -75t9 -107.5v-1011h-150v1011v48.5t-3.5 30t-11 16.5t-22.5 5q-23 0 -57.5 -16t-75 -44 t-85.5 -64.5t-92 -79.5t-92 -90q-43 -47 -84 -91q-30 -35 -53.5 -61.5t-39.5 -50t-27 -45.5t-17.5 -48.5t-9 -59t-2.5 -76.5v-385h-151v373q0 46 1.5 81.5t5 64t11.5 53.5t22 50t36 51q21 27 53 62t58.5 62.5t47.5 51.5t35.5 46t24 49.5t14.5 60.5t5 75q-14 -26 -37.5 -41.5 t-49.5 -24.5t-52 -11q-28 -3 -49 -3q-19 0 -42 4t-48.5 14.5t-50.5 27.5t-46.5 42.5t-35.5 61.5q-15 38 -21 85z" />
<glyph unicode="&#xe12;" horiz-adv-x="2028" d="M135 0v759q0 55 6.5 109.5t22 105.5t41.5 95.5t65 81.5t92 62.5t123 38.5l168 -174l160 174q106 -17 174 -65.5t108 -115t56 -147t16 -165.5v-253q0 -86 22 -159.5t65 -127.5t106.5 -85t147.5 -31q62 0 106 22t73.5 61.5t42.5 94t13 119.5v835h150v-810q0 -93 -16 -175 t-57 -144t-110 -97t-172 -35q-58 0 -110 10t-100 36.5t-89.5 68.5t-77.5 104l-6 -193h-138v782q0 57 -8.5 108.5t-29.5 93.5t-54.5 74.5t-80.5 52.5l-188 -191q-3 -3 1 -2q5 -1 2 2l-208 191q-47 -22 -78.5 -55t-50.5 -74t-28 -91t-9 -109v-601l338 416h-135v104h303v-98 l-490 -603h-166z" />
<glyph unicode="&#xe13;" horiz-adv-x="1953" d="M51 882q12 47 34 93.5t54 88t74.5 78.5t98.5 64t123.5 42.5t149.5 15.5q100 0 175.5 -19.5t132.5 -55t95 -83.5t61.5 -106t34 -122t10.5 -131v-347q0 -65 13 -119.5t41 -94t73 -61.5t106 -22q84 0 147.5 31t106.5 85t64.5 127.5t21.5 159.5v729h151v-1235h-138l-7 193 q-35 -62 -76.5 -104t-88.5 -68.5t-100 -36.5t-111 -10q-103 0 -171.5 35t-109 97t-57.5 144t-17 175v348q0 44 -6.5 89t-22.5 85.5t-43.5 76.5t-67 61.5t-93 42t-124.5 16.5q-91 1 -158.5 -23t-114 -63t-72 -86t-34.5 -90q29 -15 47.5 -38.5t29.5 -53.5t14.5 -64.5 t3.5 -75.5v-538h139v-112h-290v653q0 32 -1.5 63t-11 59t-29.5 54.5t-57 52.5z" />
<glyph unicode="&#xe14;" horiz-adv-x="1306" d="M135 0v732q0 71 10.5 137t34 124t62.5 107.5t97 84.5t136 54t178 19q101 0 179.5 -19t136 -54t95.5 -84.5t62.5 -107.5t34.5 -125q9 -65 9 -136v-732h-150v753q0 47 -6 94.5t-22.5 91t-44 79.5t-68.5 63t-97 42t-129.5 15t-129.5 -15t-97 -42t-67.5 -63t-42.5 -79.5 t-23.5 -91t-7.5 -94.5v-572l347 422h-141v98h303v-98l-496 -603h-163z" />
<glyph unicode="&#xe15;" horiz-adv-x="1327" d="M135 0v759q0 55 6.5 109.5t22 105.5t41.5 95.5t65 81.5t92 62.5t123 38.5l179 -174l174 174q106 -17 173.5 -65.5t108 -115t56.5 -147t16 -165.5v-759h-151v782q0 57 -9 108.5t-29.5 93.5t-53.5 74.5t-82 52.5l-200 -191q-5 -6 -8 0l-208 191q-47 -22 -78.5 -55 t-50.5 -74t-28 -91t-9 -109v-601l353 422h-138v98h304v-98l-503 -603h-166z" />
<glyph unicode="&#xe16;" horiz-adv-x="1264" d="M60 882q18 71 58.5 139t106 122t158.5 86t220 32q104 0 184 -19.5t138 -55t97 -83.5t62.5 -106t34 -122t10.5 -131v-744h-150v770q0 44 -7.5 89t-23.5 85.5t-44 76.5t-69 61.5t-99 42.5q-57 16 -133 16q-97 0 -167.5 -26.5t-117 -66.5t-72.5 -84t-31 -79q50 -29 72.5 -88 t22.5 -141v-547h138v-109h-289v659q0 32 -3 65t-12.5 62.5t-29.5 53.5t-54 42z" />
<glyph unicode="&#xe17;" horiz-adv-x="1278" d="M135 0v1235h150v-203q44 70 94 115t106 69.5t116.5 33t127.5 8.5q112 0 190.5 -32t128.5 -91t73 -142t23 -183v-810h-150v810q0 156 -72 237.5t-221 81.5q-107 0 -185 -34t-129.5 -91t-76.5 -136.5t-25 -169.5v-698h-150z" />
<glyph unicode="&#xe18;" horiz-adv-x="1164" d="M118 347v228h150v-228q0 -72 28.5 -121.5t73.5 -78.5t102 -41t116 -12q35 0 72 4.5t72 14.5t67 28.5t56 46.5t37.5 67t13.5 92q0 41 -3 70.5t-15.5 53t-37 43.5t-65.5 39t-103 40t-150 48q-90 26 -166 56.5t-132 69.5t-87.5 89t-28.5 117q0 53 19 93.5t50 72t72 54.5 t88 37.5t97 21t97 6.5q100 0 185 -18t150 -58.5t103 -104t44 -154.5h-159q-6 62 -31 103t-64.5 67.5t-92.5 37.5t-116 13q-59 1 -111 -10t-91 -32.5t-62 -53t-23 -69.5q0 -34 19.5 -62.5t49.5 -52t68 -41t76.5 -32.5t73.5 -26t60 -18q83 -24 147.5 -45t114.5 -44t84.5 -49.5 t56.5 -63t32.5 -85t10.5 -113.5q0 -100 -39 -170t-105 -114t-153 -64t-181 -20q-97 0 -182.5 21t-149 65t-101 113t-37.5 169z" />
<glyph unicode="&#xe19;" horiz-adv-x="1278" d="M135 425v810h150v-810q0 -156 72 -237.5t221 -81.5q107 0 185.5 33t129.5 91t76 137q25 77 25 168v700h150v-1235h-150v201q-44 -70 -94 -115t-105.5 -69t-116.5 -32.5t-127 -8.5q-111 0 -190 32.5t-129 91.5t-73.5 141t-23.5 184z" />
<glyph unicode="&#xe1a;" horiz-adv-x="1278" d="M135 500v735h150v-762q0 -44 7.5 -90t23 -88t42 -79.5t65.5 -65.5t93 -43.5t124.5 -15.5t123.5 15.5t93 43.5t66.5 65.5t41.5 79.5t22 88t7 90v762h150v-735q0 -68 -9 -132.5t-31 -123.5t-59 -109t-92.5 -85t-132 -55.5t-179.5 -20.5t-181 20.5t-134.5 55.5t-93 85 t-58 109t-30.5 123.5t-9 132.5z" />
<glyph unicode="&#xe1b;" horiz-adv-x="1284" d="M135 500v735h150v-762q0 -44 7.5 -90t23.5 -88t42.5 -79.5t67 -65.5t94 -43.5t124 -15.5t123.5 15.5t93 43.5t66.5 65.5t42.5 79.5t23.5 88t7.5 90v1303h150v-1276q0 -68 -9 -132.5t-31 -123.5t-59 -109t-93.5 -85t-133.5 -55.5t-180 -20.5q-105 0 -182 20.5t-134.5 55.5 t-94 85t-58.5 109t-31 123.5t-9 132.5z" />
<glyph unicode="&#xe1c;" horiz-adv-x="1367" d="M135 335v900h319v-106h-169v-770q0 -77 11 -128.5t31 -82t50 -42.5t68 -12q50 0 82 23.5t49.5 64.5t25 100t7.5 127v191h150v-191q0 -69 7 -127.5t27 -99.5t53 -64.5t85 -23.5q38 0 65 12t46 42.5t28.5 82t9.5 128.5v876h152v-900q0 -91 -20.5 -158.5t-56 -111.5 t-85.5 -65t-106 -21q-38 0 -77.5 5.5t-76.5 24.5t-70.5 56.5t-58.5 99.5q-19 -62 -48.5 -99t-65 -56t-75 -25t-80.5 -6q-59 0 -110.5 21t-88.5 65t-57 111q-21 68 -21 159z" />
<glyph unicode="&#xe1d;" horiz-adv-x="1367" d="M135 335v900h319v-106h-169v-770q0 -77 11 -128.5t31 -82t50 -42.5t68 -12q50 0 82 23.5t49.5 64.5t25 100t7.5 127v191h150v-191q0 -69 7 -127.5t27 -99.5t53 -64.5t85 -23.5q38 0 65 12t46 42.5t28.5 82t9.5 128.5v1417h152v-1441q0 -91 -20.5 -158.5t-56 -111.5 t-85.5 -65t-106 -21q-38 0 -77.5 5.5t-76.5 24.5t-70.5 56.5t-58.5 99.5q-19 -62 -48.5 -99t-65 -56t-75 -25t-80.5 -6q-59 0 -110.5 21t-88.5 65t-57 111q-21 68 -21 159z" />
<glyph unicode="&#xe1e;" horiz-adv-x="1540" d="M60 1235h163l205 -1064l247 1064h183l242 -1064l219 1064h163l-287 -1235h-184l-241 1060l-250 -1060h-182z" />
<glyph unicode="&#xe1f;" horiz-adv-x="1540" d="M60 1235h163l205 -1064l247 1064h183l242 -1064l342 1605h163l-410 -1776h-184l-241 1060l-250 -1060h-182z" />
<glyph unicode="&#xe20;" horiz-adv-x="1290" d="M44 0v112h131v547q0 32 -3 65t-13.5 62.5t-30 53.5t-53.5 42q18 71 58 139t106.5 122t161 86t222.5 32q106 0 187 -19.5t139.5 -55t98.5 -83.5t64 -106t33.5 -122t9.5 -131v-744h-150v770q0 44 -6.5 89t-23.5 85.5t-44.5 76.5t-70.5 61.5t-101.5 42t-135.5 16.5 q-100 0 -170.5 -26.5t-117.5 -66.5t-73 -84q-24 -44 -33 -79q50 -29 73 -88t23 -141v-656h-281z" />
<glyph unicode="&#xe21;" horiz-adv-x="1278" d="M135 0v1235h150v-700q0 -91 25 -169t76.5 -136t129.5 -91t185 -33q150 0 221.5 81.5t71.5 237.5v810h150v-810q0 -100 -23 -183t-73 -142t-128.5 -91.5t-190.5 -32.5q-66 0 -127 8.5t-117 32.5t-106 68t-94 116v-201h-150z" />
<glyph unicode="&#xe22;" horiz-adv-x="1230" d="M100 373q0 50 9 96.5t31 86t61.5 71.5t102.5 51q-72 23 -113 57.5t-60 73t-23.5 78t-4.5 74.5q0 56 13 97.5t37.5 71.5t56 50t67 31.5t72 17.5t68.5 6h140v-115h-84q-17 0 -39 -0.5t-45.5 -6t-47 -15.5t-41.5 -28.5t-29.5 -47t-11.5 -71.5q0 -54 17 -92.5t47 -65 t71 -39.5t91 -16h72v-118h-72q-50 -3 -92.5 -18t-72 -45.5t-45.5 -73.5t-16 -101q0 -73 28 -129t75.5 -91.5t110 -53t130.5 -17.5q76 0 139.5 19t109 64t70.5 117q26 74 26 176v768h149v-810q0 -112 -39 -196.5t-106 -141t-156.5 -85t-192.5 -28.5q-65 0 -126.5 10 t-117.5 31.5t-104 54.5t-82.5 77t-53.5 100.5t-19 125.5z" />
<glyph unicode="&#xe23;" horiz-adv-x="1037" d="M57 350h161q11 -122 87 -188q74 -65 224 -65q44 0 94 10.5t91.5 37t68.5 72t27 115.5q0 44 -18.5 76.5t-55 61t-94.5 55.5q-57 28 -136 60q-56 24 -108.5 45t-98 44t-83 49.5t-64 58.5t-41 72t-14.5 91q0 56 15.5 100t43.5 78.5t67 60.5t83 42t91 24t94 8q94 0 169.5 -19 t131 -58.5t90.5 -103.5q35 -66 49 -154h-152q-20 118 -91 172.5t-179 54.5q-44 0 -90 -10.5t-82.5 -35t-60 -63t-23.5 -93.5q0 -50 22 -84.5t63 -61t99 -50t132 -51.5q115 -42 192 -82t122.5 -82.5t64.5 -91.5q19 -48 19 -110q0 -94 -35 -161.5t-95.5 -110t-142.5 -62 t-177 -19.5q-91 0 -172.5 22t-144 68t-100.5 115t-43 163z" />
<glyph unicode="&#xe24;" horiz-adv-x="1255" d="M51 882q18 71 58.5 139t106 122t158.5 86t220 32q104 0 183.5 -19.5t137.5 -55t98 -83.5t63.5 -106t33.5 -122t10 -131v-1144h-150v1170q0 44 -7 89t-23.5 85.5t-44.5 76.5t-69 61.5t-99 42.5q-57 16 -133 16q-97 0 -167.5 -26.5t-117 -66.5t-72 -84t-31.5 -79 q50 -29 72.5 -88t22.5 -141v-547h139v-109h-290v659q0 32 -3 65t-12.5 62.5t-29.5 53.5t-54 42z" />
<glyph unicode="&#xe25;" horiz-adv-x="1224" d="M72 301q0 67 17 117.5t46.5 88.5t69 65.5t86 45t97 29.5t100.5 17q116 17 200.5 31t140.5 37.5t83 60t27 98.5q0 56 -12.5 97t-34.5 69t-51.5 45.5t-64.5 26.5t-73.5 12t-76.5 3q-73 0 -134 -12t-106.5 -40t-73.5 -77q-30 -49 -36 -124h-153q9 103 53 173.5t115 114 t160.5 61.5t189.5 18q53 0 107.5 -5.5t104.5 -22t93 -41.5t75 -64t51 -91t19 -123v-911h-152v675q-19 -24 -55 -40t-79.5 -28.5t-87.5 -20.5t-82 -14q-41 -6 -88 -12.5t-91 -17t-85.5 -26.5t-72 -42.5t-48.5 -64t-18 -90.5q0 -69 25 -114.5t66.5 -73t94 -38.5t105.5 -11 q21 0 49 1.5t48 4.5v-100q-38 -9 -72 -13t-75 -4q-82 0 -155 17.5t-128 57t-86.5 103t-31.5 152.5z" />
<glyph unicode="&#xe26;" horiz-adv-x="1290" d="M44 0v112h131v547q0 32 -3 65t-13.5 62.5t-30 53.5t-53.5 42q18 71 58 139t106.5 122t161 86t222.5 32q106 0 187 -19.5t139.5 -55t98.5 -83.5t64 -106t33.5 -122t9.5 -131v-1144h-150v1170q0 44 -6.5 89t-23.5 85.5t-44.5 76.5t-70.5 61.5t-101.5 42t-135.5 16.5 q-100 0 -170.5 -26.5t-117.5 -66.5t-73 -84q-24 -44 -33 -79q50 -29 73 -88t23 -141v-656h-281z" />
<glyph unicode="&#xe27;" horiz-adv-x="1074" d="M60 385h158q10 -73 37 -129t67 -93t88.5 -56t101.5 -19q75 0 136 31t103.5 97t66 167.5t23.5 239.5t-23.5 236.5t-66 162t-103 93t-136.5 29.5q-56 0 -104.5 -19.5t-88.5 -56t-66.5 -91t-34.5 -127.5h-158q9 91 45 166.5t95 130t138 84.5t174 30q123 0 215.5 -44 t153 -127t90 -201.5t29.5 -265.5t-30.5 -266.5t-91.5 -205t-152 -131.5t-214 -46q-95 0 -174 29t-138 83.5t-95.5 130.5t-44.5 168z" />
<glyph unicode="&#xe28;" horiz-adv-x="1296" d="M135 0v735q0 66 9 131t32.5 123t61 108t95 86.5t136 57t181.5 20.5q54 0 102 -5.5t92 -17.5q38 0 69 11.5t53.5 30.5t38 43.5t21.5 49.5h166q-4 -26 -19 -54t-41.5 -54.5t-66 -48t-95.5 -36.5q56 -38 93 -87t59 -107t30.5 -122t8.5 -129v-735h-150v764q0 44 -7 89 t-23.5 87t-44.5 78.5t-67.5 63t-94 43t-125 16.5t-125 -16.5t-94.5 -43t-67.5 -63t-45 -78.5t-25 -87t-7.5 -89v-297q35 77 83 124t103 73.5t116 36.5q63 10 124 10v-120q-108 0 -189 -35.5t-133 -99.5t-78 -154t-26 -202v-100h-150z" />
<glyph unicode="&#xe29;" horiz-adv-x="1290" d="M135 500v735h147v-762q0 -44 6 -89.5t21.5 -88t41 -79.5t67 -64t97.5 -42q55 -16 132 -16q75 0 131.5 15.5t96 42.5t64.5 64t40 79.5t21 87.5q5 46 5 90v162h-379v203h147v-97h232v494h150v-494h118v-106h-118v-135q0 -66 -8 -131t-29 -123t-58 -108t-93.5 -86t-135 -56 t-184.5 -20t-185.5 20t-136 56t-93 86t-58 108t-30.5 123t-9 131z" />
<glyph unicode="&#xe2a;" horiz-adv-x="1224" d="M72 301q0 67 17 117.5t46.5 88.5t69 65.5t86 45t97 29.5t100.5 17q116 17 200.5 31t140.5 37.5t83 60t27 98.5q0 56 -12.5 97t-34.5 69t-51.5 45.5t-64.5 26.5t-73.5 12t-76.5 3q-73 0 -134 -12t-106.5 -40t-73.5 -77q-30 -49 -36 -124h-153q9 103 53 173.5t115 114 t160.5 61.5t189.5 18q47 0 94 -4t93 -16q38 0 69.5 11.5t54.5 30.5t38 43.5t21 49.5h166q-4 -26 -18.5 -54t-41 -54.5t-66.5 -48t-93 -36.5q30 -19 53.5 -45.5t41 -59.5t28 -73.5t10.5 -90.5v-911h-152v675q-19 -24 -55 -40t-79.5 -28.5t-87.5 -20.5t-82 -14 q-41 -6 -88 -12.5t-91 -17t-85.5 -26.5t-72 -42.5t-48.5 -64t-18 -90.5q0 -69 25 -114.5t66.5 -73t94 -38.5t105.5 -11q21 0 49 1.5t48 4.5v-100q-38 -9 -72 -13t-75 -4q-82 0 -155 17.5t-128 57t-86.5 103t-31.5 152.5z" />
<glyph unicode="&#xe2b;" horiz-adv-x="1243" d="M135 0v1235h150v-551l635 551h209l-282 -235q85 -27 136.5 -71t79.5 -100.5t36.5 -126.5t8.5 -148v-554h-150v582q0 59 -10 113.5t-35 98.5t-67.5 73.5t-107.5 38.5l-453 -397v-509h-150z" />
<glyph unicode="&#xe2c;" horiz-adv-x="1525" d="M60 1235h163l205 -1003l283 837h124l262 -837l144 599q9 35 16 71t8.5 70.5t-3.5 66t-23.5 56.5t-52.5 42.5t-86 23.5v80q58 4 105 16.5t82.5 36t59 60.5t32.5 88h184q-12 -53 -38 -97t-62.5 -77t-82 -53.5t-92.5 -25.5q50 -19 78 -55.5t39 -81t7 -92t-16 -90.5 l-235 -870h-123l-268 850l-294 -850h-123z" />
<glyph unicode="&#xe2d;" horiz-adv-x="1221" d="M82 620v42h496v-105h-343q0 -106 28 -192t77.5 -147.5t117.5 -95.5t151 -34q86 0 156 35.5t118.5 103.5t75 167.5t26.5 225.5q0 521 -379 521q-65 0 -124 -18t-106.5 -51t-80.5 -79t-48 -102h-153q24 82 66.5 149.5t105.5 117.5t148.5 78t191.5 28q147 0 248.5 -48.5 t164.5 -134.5t91 -204t28 -257q0 -86 -12.5 -168t-40 -154t-69 -132t-101 -104t-136 -67.5t-170.5 -23.5q-97 0 -173.5 23.5t-135.5 66.5t-100 102.5t-67.5 132.5t-38.5 154.5t-12 169.5z" />
<glyph unicode="&#xe2e;" horiz-adv-x="1240" d="M82 620v42h496v-105h-343q0 -106 28 -192t77.5 -147.5t117.5 -95.5t151 -34q86 0 156 35.5t118.5 103.5t75 167.5t26.5 225.5q0 521 -379 521q-65 0 -124 -18t-106.5 -51t-80.5 -79t-48 -102h-153q24 82 66.5 149.5t105.5 117.5t148.5 78t191.5 28q57 0 106 -8 q49 -6 95 -21q35 3 64 15.5t48 30.5t32 41t19 48h171q-6 -26 -19.5 -54t-39 -53t-64.5 -48.5t-95 -41.5q56 -41 97 -98.5t67.5 -128.5t38.5 -153t12 -173q0 -86 -12.5 -168t-40 -154t-69 -132t-101 -104t-136 -67.5t-170.5 -23.5q-97 0 -173.5 23.5t-135.5 66.5t-100 102.5 t-67.5 132.5t-38.5 154.5t-12 169.5z" />
<glyph unicode="&#xe2f;" horiz-adv-x="1230" d="M82 903q0 61 16.5 109.5t44.5 85.5t66 63.5t80.5 42.5t88 23.5t89.5 7.5h147v-115h-147q-117 0 -173 -53t-56 -167q0 -50 13.5 -99.5t48.5 -88.5t96 -62.5t155 -23.5q97 0 170.5 19t123 57.5t75 100t25.5 145.5v287h152v-1235h-152v684q-34 -49 -78 -82t-94.5 -53 t-104.5 -28.5t-105 -8.5q-121 0 -210.5 27.5t-149.5 79t-90.5 123.5t-30.5 161z" />
<glyph unicode="&#xe30;" horiz-adv-x="667" d="M118 218v194h138v-90h313v-104h-451zM118 864v199h138v-90h313v-109h-451z" />
<glyph unicode="&#xe31;" d="M-744 1461v215h138v-108h630v-107h-768z" />
<glyph unicode="&#xe32;" horiz-adv-x="1023" d="M44 914q3 86 41 150.5t98 107t135.5 63t154.5 20.5q89 0 165 -23.5t132 -73.5t87 -125t31 -177v-856h-150v813q0 85 -17.5 147.5t-51.5 102t-82.5 59t-113.5 19.5q-56 0 -101.5 -15t-80 -43t-55.5 -70.5t-27 -98.5h-165z" />
<glyph unicode="&#xe33;" horiz-adv-x="1023" d="M-416 1646q0 42 14.5 78.5t40.5 62.5t60.5 41t74.5 15q41 0 77 -15t61.5 -41t41.5 -62q15 -37 15 -79q0 -39 -15.5 -73.5t-41 -60.5t-61.5 -40.5t-77 -14.5q-40 0 -74.5 14.5t-60.5 40.5t-40.5 60.5t-14.5 73.5zM-315 1646q0 -17 7.5 -33.5t19.5 -28t28 -18t34 -6.5 q20 0 37 6.5t29.5 18t20 28t7.5 33.5q0 21 -7.5 38.5t-20 29.5t-29.5 19t-37 7q-18 0 -34 -7t-28 -19t-19.5 -29.5t-7.5 -38.5zM44 914q3 86 41 150.5t98 107t135.5 63t154.5 20.5q89 0 165 -23.5t132 -73.5t87 -125t31 -177v-856h-150v813q0 85 -17.5 147.5t-51.5 102 t-82.5 59t-113.5 19.5q-56 0 -101.5 -15t-80 -43t-55.5 -70.5t-27 -98.5h-165z" />
<glyph unicode="&#xe34;" d="M-1135 1461l55 107h945v-107h-1000z" />
<glyph unicode="&#xe35;" d="M-1135 1461l55 107h807v193h138v-300h-1000z" />
<glyph unicode="&#xe36;" d="M-1150 1461l53 107h606q-9 17 -15 39t-6 45q0 41 15 76.5t41.5 62t61.5 42.5t75 16q41 0 77 -16t62.5 -42.5t41.5 -62t15 -76.5t-15 -75.5t-41.5 -60t-61.5 -40.5t-78 -15h-831zM-412 1652q0 -19 7.5 -36t19.5 -29.5t29.5 -19.5t36.5 -7t36 7t29.5 19.5t20 30.5t7.5 35 q0 19 -7.5 36t-20 30.5t-29.5 20.5t-36 7t-36.5 -7t-29.5 -20.5t-19.5 -30.5t-7.5 -36z" />
<glyph unicode="&#xe37;" d="M-1135 1461l55 107h492v193h137v-193h181v193h135v-300h-1000z" />
<glyph unicode="&#xe38;" d="M-385 -159h250v-404h-141v304h-109v100z" />
<glyph unicode="&#xe39;" d="M-856 -159h256v-126q0 -91 40 -136.5t123 -45.5t120.5 45.5t37.5 136.5v126h144v-126q0 -56 -16.5 -107.5t-51.5 -89t-92.5 -59.5t-141.5 -22q-82 0 -140 19t-95 57.5t-53 95t-16 132.5h-115v100z" />
<glyph unicode="&#xe3a;" d="M-362 -265q0 25 10.5 47t26.5 39t39 27.5t48 10.5t47 -10.5t38 -27.5t25.5 -39t9.5 -47t-9.5 -47t-25.5 -38t-38 -25.5t-47 -9.5t-48 9.5t-39 25.5t-26.5 38t-10.5 47z" />
<glyph unicode="&#xe3e;" />
<glyph unicode="&#xe3f;" horiz-adv-x="1399" d="M147 0v1470h431v126h136v-126h47q62 0 122.5 -8t113.5 -25t97.5 -45t77.5 -68.5t51 -94.5q18 -53 18 -124q0 -55 -16.5 -106.5t-47 -94.5t-73.5 -76.5t-96 -51.5q65 -13 118 -44.5t89.5 -78t57.5 -106t21 -127.5q0 -35 -6 -80.5t-24.5 -92t-53.5 -91t-95 -79t-146.5 -56 t-207.5 -21.5h-47v-138h-136v138h-431zM301 132h277v566h-277v-566zM301 831h277v507h-277v-507zM714 132h47q77 -1 146 13t122 47t84 89.5t31 143.5q0 138 -100 205.5t-283 67.5h-47v-566zM714 831h47q84 0 145 18t101.5 50.5t60.5 76.5t20 96q0 266 -327 266h-47v-507z " />
<glyph unicode="&#xe40;" horiz-adv-x="502" d="M178 0v1235h147v-1235h-147z" />
<glyph unicode="&#xe41;" horiz-adv-x="790" d="M135 0v1235h147v-1235h-147zM509 0v1235h147v-1235h-147z" />
<glyph unicode="&#xe42;" horiz-adv-x="568" d="M26 1652l31 109h555l55 -106h-458q38 -16 66 -41t47 -56.5t29.5 -65.5t10.5 -69v-1317h135v-106h-285v1417q0 53 -15 95t-39 70.5t-57 46t-75 23.5z" />
<glyph unicode="&#xe43;" horiz-adv-x="568" d="M-51 1514q2 78 29.5 133t71 89.5t98.5 51t117 16.5q60 0 111.5 -12t89.5 -37.5t59.5 -67t21.5 -99.5q0 -24 -6 -41.5t-17.5 -36t-29.5 -39.5q-18 -22 -40 -48q-38 -47 -58 -79.5t-27 -62t-7 -61.5v-79v-1035h135v-106h-285v1141q0 48 6.5 88.5t19.5 74.5t34 64t50 59 q18 21 34.5 39.5t30 37.5t22 39.5t8.5 44.5q0 20 -5.5 41.5t-22 38.5t-46.5 28t-78 11q-42 0 -72.5 -14t-52.5 -39t-35.5 -61t-16.5 -79h-139z" />
<glyph unicode="&#xe44;" horiz-adv-x="568" d="M-100 1655l59 106h553l32 -109q-38 -6 -71 -22t-57.5 -44t-39 -67.5t-14.5 -91.5v-1321h132v-106h-282v1433q0 63 38 122t112 100h-462z" />
<glyph unicode="&#xe45;" horiz-adv-x="993" d="M29 914q3 86 41.5 150.5t98 107t135 63t155.5 20.5q88 0 164.5 -23.5t131.5 -73.5t86.5 -125t31.5 -177v-1256h-150v1213q0 85 -17.5 147.5t-51.5 102t-83 59.5q-48 19 -112 19q-112 0 -182.5 -57.5t-83.5 -169.5h-164z" />
<glyph unicode="&#xe46;" horiz-adv-x="1149" d="M75 794q-4 82 8.5 156.5t50 135.5t102 103.5t164.5 60.5l163 -153l148 153q74 -6 127 -29t88 -57t56 -78t31 -94.5t13 -105.5q3 -57 3 -113v-1173h-150v1201q0 27 -0.5 59t-6 65t-14 64t-25 56t-43 42.5t-61.5 23.5l-160 -157q-3 -3 -8 -2t-7 2l-169 160 q-50 -20 -82.5 -50.5t-50.5 -69t-25 -84.5t-4 -97v3q0 -40 13.5 -78t37.5 -68.5t59 -48.5t79 -18h97v-115h-97q-142 0 -229 76.5t-108 229.5z" />
<glyph unicode="&#xe47;" d="M-1023 1686q0 65 28 109.5t72 74t101.5 43t112.5 13.5h658v-108h-633q-55 0 -92.5 -11.5t-59.5 -30t-31 -42.5t-9 -48q0 -20 6.5 -41.5t22 -37.5t40.5 -27.5t63 -11.5q24 0 47.5 8.5t41.5 24t30.5 36.5t12.5 49h100q0 -25 10.5 -46.5t26.5 -36.5t38 -25t51.5 -10t53 11.5 t39 27.5t23.5 37.5t5 41.5h133q6 -50 -7.5 -93.5t-43 -75t-75 -49t-104.5 -17.5q-41 0 -75.5 11.5t-61 30t-43.5 43t-21 47.5q-4 -23 -22 -47.5t-46 -43.5t-64.5 -31t-77.5 -10q-63 3 -111 23t-79 52t-45.5 73.5t-14.5 86.5z" />
<glyph unicode="&#xe48;" d="M-273 1920v314h138v-314h-138z" />
<glyph unicode="&#xe49;" d="M-670 2111v98h225v-183q85 0 142.5 16.5t94.5 42.5t57 59t30 65h147q-2 -26 -16 -57.5t-38.5 -64t-61 -62t-84.5 -53t-109 -38t-134 -14.5h-149v191h-104z" />
<glyph unicode="&#xe4a;" d="M-698 1920q-6 62 8 109t39 78.5t57 47t64.5 15.5t57.5 -8t44 -23.5t31 -35.5t18 -44q4 24 16.5 44t31.5 35.5t42.5 23.5t50.5 8q29 0 55.5 -9t47 -26.5t34 -47t19.5 -70.5q23 3 48 17.5t45 39.5t32.5 59t10.5 76h139q0 -61 -24.5 -113.5t-62.5 -90.5t-84 -61 q-46 -24 -85 -24h-115q-3 25 -6.5 50t-11.5 44.5t-22 32t-35 12.5q-19 0 -33 -12.5t-23 -31.5t-12.5 -44t-3.5 -51h-109q0 26 -4 52t-14 45.5t-23 30.5t-31 11q-20 0 -35 -12.5t-23 -32t-10 -44t-1 -50.5h-123z" />
<glyph unicode="&#xe4b;" d="M-465 2083v100h186v160h144v-160h189v-100h-189v-163h-144v163h-186z" />
<glyph unicode="&#xe4c;" d="M-417 1785q8 70 37.5 121.5t78 87t117.5 54.5t155 23v-95q-105 -6 -169 -54.5t-75 -136.5h-144z" />
<glyph unicode="&#xe4d;" d="M-416 1646q0 42 14.5 78.5t40.5 62.5t60.5 41t74.5 15q41 0 77 -15t61.5 -41t41.5 -62q15 -37 15 -79q0 -39 -15.5 -73.5t-41 -60.5t-61.5 -40.5t-77 -14.5q-40 0 -74.5 14.5t-60.5 40.5t-40.5 60.5t-14.5 73.5zM-315 1646q0 -17 7.5 -33.5t19.5 -28t28 -18t34 -6.5 q20 0 37 6.5t29.5 18t20 28t7.5 33.5q0 21 -7.5 38.5t-20 29.5t-29.5 19t-37 7q-18 0 -34 -7t-28 -19t-19.5 -29.5t-7.5 -38.5z" />
<glyph unicode="&#xe4e;" d="M-451 1461q0 50 11 92.5t36 76.5t66 59t100 40q6 41 25 75t53 58.5t81 41t108 22.5v-99q-45 -3 -75 -14t-49.5 -33t-27.5 -55q-9 -35 -9 -79v-3h-15q-53 0 -84.5 -13t-50 -37.5t-25.5 -57.5q-8 -33 -9 -74h-135z" />
<glyph unicode="&#xe4f;" horiz-adv-x="1480" d="M97 617q0 89 23 171t64.5 154t100.5 131t131 100t154.5 64.5t170.5 23.5t170.5 -23.5t154.5 -64.5t130.5 -100t100 -131t65 -154t23.5 -171q0 -88 -23.5 -170t-65 -154.5t-100 -131t-130.5 -100.5t-154.5 -64.5t-170.5 -22.5t-170.5 22.5t-154.5 64.5t-131 100.5 t-100.5 131t-64.5 154.5t-23 170zM235 617q0 -70 17.5 -135t51 -120.5t79.5 -102t102 -79.5t120.5 -50.5t135.5 -17.5q70 0 135 17.5t121 50.5t102 79.5t79 102t51 120.5t18 135q0 71 -18 135.5t-51 120.5t-79 102.5t-102 79.5t-121 50.5t-135 17.5q-71 0 -135.5 -17.5 t-120.5 -50.5t-102 -79.5t-79.5 -102.5t-51 -120.5t-17.5 -135.5zM379 617q0 74 29 140t78 114.5t114.5 78t140.5 29.5q73 0 139.5 -29.5t115 -78t77.5 -114.5t29 -140q0 -75 -29 -140t-77.5 -114.5t-115 -78t-139.5 -28.5q-75 0 -140.5 28.5t-114.5 78t-78 114.5t-29 140z M506 617q0 -48 18 -91.5t50 -75t75 -50t92 -18.5q48 0 91 18.5t74.5 50t50.5 75t19 91.5q0 49 -19 91.5t-50.5 74t-74.5 51t-91 19.5q-49 0 -92 -19.5t-75 -51t-50 -74t-18 -91.5z" />
<glyph unicode="&#xe50;" horiz-adv-x="1303" d="M91 572q0 116 38.5 211.5t110.5 163t176 104.5t237 37q131 0 235 -37t176 -104.5t111 -163t39 -211.5q0 -113 -20.5 -200.5t-57 -154t-88 -112t-113.5 -74t-134 -40.5t-148 -12q-78 0 -149.5 12.5t-134 41.5t-114 74.5t-88 111.5t-56.5 153.5t-20 199.5zM232 526 q0 -97 30.5 -176.5t85.5 -136.5t133 -89.5t172 -32.5t172 32.5t132 89.5t84.5 136.5t30.5 176.5q0 122 -34.5 208t-92 139t-132.5 78t-160 25q-84 0 -160 -25t-134.5 -78t-92.5 -138t-34 -209z" />
<glyph unicode="&#xe51;" horiz-adv-x="1345" d="M75 106l100 109q47 -31 93.5 -54t97.5 -37t108.5 -20.5t125.5 -6.5q109 0 197 29.5t151 89t97.5 148.5t34.5 208q0 92 -22.5 167t-72 127.5t-125.5 81t-182 28.5q-86 0 -155.5 -21.5t-119 -57.5t-76 -83t-26.5 -100q0 -47 17 -94t55.5 -80.5t101 -51.5t154.5 -9v-88 q-32 -6 -55.5 -7.5t-50.5 -1.5q-79 0 -149.5 22t-123 63.5t-82.5 98.5t-30 129q0 71 21.5 127.5t59 100.5t88 75.5t110 51.5t124.5 30.5t129 10.5q80 0 153.5 -12.5t136.5 -38.5t116 -67t89.5 -98.5t57.5 -132.5t21 -167q0 -133 -43 -242.5t-123.5 -187t-199.5 -120.5 t-272 -43q-50 0 -116.5 1.5t-137 13.5t-141.5 37t-136 72z" />
<glyph unicode="&#xe52;" horiz-adv-x="1508" d="M29 1129l25 118q50 -3 90.5 -24t70 -59t45.5 -92.5t16 -126.5v-491q0 -76 32.5 -141.5t97 -113.5t163 -75t228.5 -27q123 0 211.5 26.5t142.5 70.5t79 101q25 55 25 117v332q0 50 -14 88t-38 64.5t-57 44t-71 26.5l-161 -151l-158 135q-28 0 -57 -12.5t-52.5 -36t-38 -60 t-14.5 -86.5v-100q0 -47 1.5 -91.5t14 -79t41 -55.5t81.5 -21h47v-96h-68q-61 0 -105 17t-73.5 45t-46 64t-25 73.5t-11.5 73.5q-3 34 -5 64v85q0 63 23 119.5t65.5 103t102 78t131.5 44.5l144 -122l136 127q76 -6 140.5 -32.5t112 -67.5t73.5 -95.5t26 -119.5v-319 q0 -82 -19 -149t-55 -119t-86 -91t-109.5 -64t-128.5 -37t-140 -12h-111q-147 0 -262.5 35.5t-194 101t-120 157.5t-41.5 203v427q0 53 -5 94t-17 68t-31.5 42.5t-49.5 21.5z" />
<glyph unicode="&#xe53;" horiz-adv-x="1375" d="M112 482v93q0 123 26.5 213.5t78 152.5t124 97t165.5 47l169 -154l183 157q99 -9 170.5 -44.5t119 -89t70.5 -122t23 -143.5v-689h-147v689q0 55 -17 102.5t-46.5 83t-70 56t-87.5 20.5l-203 -160l-185 160q-20 0 -45 -8t-50 -25.5t-48.5 -45.5t-42 -69.5t-29.5 -97 t-11 -127.5v-93q0 -44 0.5 -89t5.5 -86.5t17 -78.5t32.5 -64t54.5 -42.5t82 -15.5h49t69 6v-115q-18 -3 -42 -6t-49 -4.5t-50 -1.5t-43 3q-67 9 -114.5 37t-78 67.5t-47 89t-23.5 101t-8.5 102t-1.5 94.5z" />
<glyph unicode="&#xe54;" horiz-adv-x="1362" d="M112 465v129q0 122 39.5 211t113 147.5t178 87.5t235.5 29h219q56 0 94 12.5t61.5 36t34 55.5t13.5 74h152q-1 -56 -16.5 -110t-53.5 -95t-105 -66q-69 -25 -171 -25h-253q-91 0 -163.5 -21.5t-123.5 -62.5t-79 -101t-28 -137v-156q0 -76 20.5 -142t64.5 -114t113 -75 t163 -27h144q-32 17 -60 42t-48.5 56.5t-32 70t-11.5 84.5q0 14 1 35.5t9.5 45.5t25 49t47.5 45.5t76.5 34t113.5 16.5v-112q-56 -3 -84 -18.5t-40.5 -36.5t-13 -43t-0.5 -37q0 -34 11.5 -64t30.5 -56.5t43 -47t47.5 -35.5t45.5 -22t39 -7h288v-115h-661q-94 0 -167.5 20.5 t-126.5 55t-88.5 81t-57.5 98t-30 104.5q-9 56 -9 106z" />
<glyph unicode="&#xe55;" horiz-adv-x="1362" d="M112 465v132q0 110 30 192.5t85 139t133 88t172 40.5q-4 4 -9.5 13t-9.5 20.5t-7 25.5t-3 28q0 39 14.5 73.5t40.5 61t60.5 41.5t73.5 15q40 0 74.5 -15t60.5 -41.5t40.5 -61t14.5 -73.5q0 -22 -4.5 -43t-19.5 -38q74 3 119.5 15.5t72 36t37 57t13.5 75.5h152 q-1 -56 -16.5 -110.5t-53.5 -95.5t-105 -67q-69 -26 -171 -26h-239q-83 0 -157.5 -17t-130.5 -55t-88 -99t-32 -148v-156q0 -76 20.5 -140.5t64.5 -112.5t113 -75t163 -27h144q-23 14 -50.5 36t-50 52.5t-37 71t-14.5 90.5q0 14 1 36t9.5 45.5t25 48.5t47.5 45.5t76.5 35.5 t113.5 18v-112q-56 -3 -84 -19t-40.5 -38t-13 -44t-0.5 -37q0 -29 11.5 -58.5t30.5 -54.5t43 -47t47.5 -37t45.5 -23.5t39 -8.5h288v-118h-661q-94 0 -167.5 20.5t-126.5 55t-88.5 81t-57.5 98t-30 104.5q-9 56 -9 106zM594 1143.5q0 -20.5 7.5 -38t20.5 -31t31.5 -22 t38.5 -8.5q21 0 39.5 8.5t31.5 22t20.5 31t7.5 38t-7.5 38.5t-20.5 31.5t-31.5 22t-39.5 8.5q-20 0 -38.5 -8.5t-31.5 -22t-20.5 -31.5t-7.5 -38.5z" />
<glyph unicode="&#xe56;" horiz-adv-x="1359" d="M66 1105l102 65l126 -206q32 15 80 34t105.5 37.5t120.5 31.5q64 15 129 18q103 3 184 -15.5t141 -53t101.5 -83t66.5 -106.5t35 -123.5t10 -131.5v-81q-6 -68 -25 -132.5t-52 -122t-81 -106t-109.5 -82t-139.5 -51.5t-171 -15q-102 3 -188 29.5t-148 73t-96 108 t-34 135.5q0 70 23.5 122.5t68 84.5t106 48.5t139.5 16.5h52v-94h-43q-62 0 -101 -14t-61 -38.5t-30.5 -59.5t-8.5 -75q0 -47 24 -86.5t68 -70t106.5 -48t137.5 -17.5q80 -1 154.5 23t132 74t92.5 123q34 74 34 168v81q0 103 -25.5 179.5t-75 125.5t-119.5 72 q-71 24 -159 21q-68 -1 -131 -13t-122.5 -33t-117.5 -52t-117 -72z" />
<glyph unicode="&#xe57;" horiz-adv-x="1577" d="M112 470v102q0 117 26.5 207.5t76.5 154t122.5 101.5t165.5 53l135 -152l144 149q107 -15 178.5 -56t114 -106t60 -151.5t17.5 -189.5v-106q0 -45 -3.5 -93t-14.5 -95t-33 -95q-22 -46 -57 -93q92 29 149 72t86 98t39 118q9 62 9 129v428q0 72 16.5 126.5t46 92.5 t69.5 59t90 24l25 -118q-29 -6 -49 -21.5t-31.5 -42.5t-16.5 -68q-4 -41 -4 -94v-362q0 -118 -23.5 -212.5t-76.5 -164.5t-139.5 -115.5t-216.5 -66.5l-123 96q41 47 64.5 92t34 92t11.5 97q1 53 1 111v112q0 88 -16 153.5t-44 110.5t-64.5 71.5t-79.5 33.5l-163 -163 l-153 163q-38 -3 -77.5 -25.5t-73 -68.5t-54.5 -115.5t-21 -166.5v-99q0 -31 1.5 -69.5t7 -80t17.5 -79.5t34 -68.5t56 -48.5t84 -18h13.5h21.5h23q9 1 18 3l3 -115q-13 -3 -31.5 -6t-39 -4.5t-41 -1.5t-38.5 3q-62 15 -107.5 44.5t-75.5 69t-48.5 85t-28.5 94t-13 96.5 q-3 49 -3 90z" />
<glyph unicode="&#xe58;" horiz-adv-x="1330" d="M112 385v212q0 109 32 196.5t97 148.5t161 94t224 33h288q56 0 94.5 12.5t61 34.5t33.5 54t14 74h150q0 -39 -7.5 -75.5t-22 -70.5t-39.5 -62t-63 -49t-89.5 -33t-122.5 -12h-320q-91 0 -156 -26.5t-107 -69.5t-61.5 -100.5t-19.5 -116.5v-244q0 -53 19 -99t51.5 -82 t72 -58.5t80.5 -24.5l185 158l200 -158q44 0 82.5 12.5t66.5 41t43.5 76t15.5 119.5q0 33 -5.5 69.5t-20 66t-42.5 49.5t-74 20h-39v95h39q62 0 107 -11.5t76.5 -33.5t51.5 -51.5t30 -63.5t14.5 -69t4.5 -71q0 -92 -21 -163.5t-66 -120t-114 -73.5t-163 -28l-186 153 l-173 -153q-94 9 -166 44.5t-120 89.5t-72 122t-24 144z" />
<glyph unicode="&#xe59;" horiz-adv-x="1345" d="M112 473v96q0 126 19 222.5t63 162.5t117 100t180 34q21 0 43 -1.5t45.5 -4.5t45.5 -9t39 -16q15 -9 30 -18.5t28 -22.5t27.5 -31t29.5 -43l135 133q3 3 9 8t13 5h75q56 0 91.5 8.5t56 28t28 50t8.5 72.5h149q-3 -36 -10 -71t-21 -66t-37.5 -56.5t-58.5 -44t-85 -29 t-118 -10.5h-17q-21 0 -34 -8.5t-27 -22.5l-89 -95l400 -844h-153l-359 767q-24 49 -46.5 86.5t-50.5 64t-65 39.5q-35 13 -88 13q-48 0 -90 -19t-72 -63t-47 -120.5t-17 -189.5v-124q0 -35 4.5 -74t13 -77t24 -72.5t40 -61t57.5 -42.5q34 -15 78 -15q15 0 28 0.5t34 5.5 l19 -118q-32 -4 -73 -7q-43 -3 -78 1q-68 9 -115.5 34t-81 61.5t-52.5 83.5t-29 97t-13 103t-3 100z" />
<glyph unicode="&#xe5a;" horiz-adv-x="1543" d="M66 903q0 61 17 109.5t45 85.5t66 63.5t81 42.5t88.5 23.5t87.5 7.5h149v-115h-149q-117 0 -172.5 -53t-55.5 -167q0 -50 13.5 -99.5t48.5 -88.5t95.5 -62.5t154.5 -23.5q97 0 171.5 19t123.5 57.5t75 100t26 145.5v287h149v-1235h-149v684q-34 -49 -78.5 -82t-95 -53 t-104 -28.5t-106.5 -8.5q-121 0 -210.5 27.5t-150 79t-90.5 123.5t-30 161zM1276 0h147v1235h-147v-1235z" />
<glyph unicode="&#xe5b;" horiz-adv-x="2609" d="M69 620q0 81 15.5 158.5t45.5 145t75 124t104 97t131 64t157 23.5q78 0 141 -16t112.5 -45.5t84.5 -69.5t58.5 -88.5t34 -102.5t10.5 -113h-144q0 67 -18 121.5t-52.5 93t-86 59t-117.5 20.5q-92 0 -164 -35.5t-121.5 -99.5t-74.5 -153t-25 -197q0 -93 31 -176t90.5 -145 t144 -98.5t188.5 -36.5q100 0 177.5 28t137.5 79.5t101.5 122t69 155.5t41.5 184q16 98 19 201q16 9 28.5 16.5t25 14.5t25 14.5t30.5 16.5q29 -35 61.5 -79.5t64 -91.5t60 -94t50.5 -88q58 96 108 174.5t91 135.5q17 -26 39 -63t45 -77t46 -81.5t45 -79.5q13 18 30.5 41.5 t36.5 50t37 52.5t35 46h374q23 -36 44 -72q20 -36 41 -72h-432q-41 -59 -82.5 -124t-80.5 -135q-36 73 -82 150.5t-96 153.5q-24 -32 -49.5 -71t-52 -84t-52.5 -95.5t-48 -108.5q-20 52 -47.5 107t-58 108.5t-62.5 104.5q-30 51 -62 95q-6 -119 -34 -222.5t-72 -190.5 t-103 -156t-131 -116t-154.5 -72t-171.5 -25q-99 0 -182.5 25t-151.5 68.5t-120 103t-86.5 127t-53 143t-18.5 150.5z" />
<glyph unicode="&#x2000;" horiz-adv-x="1171" />
<glyph unicode="&#x2001;" horiz-adv-x="2343" />
<glyph unicode="&#x2002;" horiz-adv-x="1171" />
<glyph unicode="&#x2003;" horiz-adv-x="2343" />
<glyph unicode="&#x2004;" horiz-adv-x="781" />
<glyph unicode="&#x2005;" horiz-adv-x="585" />
<glyph unicode="&#x2006;" horiz-adv-x="390" />
<glyph unicode="&#x2007;" horiz-adv-x="390" />
<glyph unicode="&#x2008;" horiz-adv-x="292" />
<glyph unicode="&#x2009;" horiz-adv-x="468" />
<glyph unicode="&#x200a;" horiz-adv-x="130" />
<glyph unicode="&#x200b;" />
<glyph unicode="&#x2010;" horiz-adv-x="864" d="M94 462v120h676v-120h-676z" />
<glyph unicode="&#x2011;" horiz-adv-x="864" d="M94 462v120h676v-120h-676z" />
<glyph unicode="&#x2012;" horiz-adv-x="864" d="M94 462v120h676v-120h-676z" />
<glyph unicode="&#x2013;" horiz-adv-x="1026" d="M0 503v132h1026v-132h-1026z" />
<glyph unicode="&#x2014;" horiz-adv-x="2056" d="M0 503v132h2057v-132h-2057z" />
<glyph unicode="&#x2018;" horiz-adv-x="571" d="M190 964v225q0 44 12.5 89.5t36.5 84.5t60 68.5t86 44.5v-103q-23 -9 -39.5 -28t-28 -45.5t-19 -54.5t-10.5 -53h85v-228h-183z" />
<glyph unicode="&#x2019;" horiz-adv-x="571" d="M187 958v99q23 6 40 25.5t29 46t19 54.5t7 55h-84v232h184v-226q-1 -46 -12 -91t-35.5 -84.5t-60.5 -69t-87 -41.5z" />
<glyph unicode="&#x201c;" horiz-adv-x="761" d="M126 964v225q0 47 12 92t36 84t60 67.5t85 43.5v-103q-24 -9 -40.5 -28t-28.5 -45.5t-18 -54.5t-9 -53h87v-228h-184zM442 964v225q0 44 12.5 89.5t37 84.5t60.5 68.5t86 44.5v-103q-24 -9 -40 -28t-27.5 -45.5t-19 -54.5t-10.5 -53h85v-228h-184z" />
<glyph unicode="&#x201d;" horiz-adv-x="761" d="M123 958v99q24 7 40 27t28 45.5t19.5 53.5t9.5 55h-88v232h187v-226q-1 -46 -13 -91t-35.5 -84.5t-60.5 -69t-87 -41.5zM440 958v99q23 6 40 25.5t28.5 46t19 54.5t7.5 55h-84v232h184v-226q-1 -46 -12 -91t-35.5 -84.5t-60.5 -69t-87 -41.5z" />
<glyph unicode="&#x2022;" horiz-adv-x="710" d="M91 606q0 56 20.5 103.5t56 83.5t84 56.5t104.5 20.5t103.5 -20.5t83.5 -56.5t57 -84q20 -47 20 -103t-20.5 -104.5t-56.5 -84t-84 -55.5q-47 -21 -103 -21t-104.5 20.5t-84 56t-56 84t-20.5 104.5z" />
<glyph unicode="&#x202f;" horiz-adv-x="468" />
<glyph unicode="&#x205f;" horiz-adv-x="585" />
<glyph unicode="&#x20ac;" horiz-adv-x="1531" d="M44 572v90h121q-3 17 -3 36v37v37q0 20 3 41h-121v95h134q15 83 42.5 158.5t69.5 141t98 120t126.5 92.5t156 58.5t185.5 20.5q70 0 137.5 -13t131 -39t118 -64.5t96 -91.5t69.5 -119.5t37 -145.5h-151q-20 85 -61 149t-99 106.5t-128.5 64t-149.5 21.5 q-118 0 -207.5 -36.5t-154.5 -100t-106 -145.5t-60 -177h528v-95h-540q-3 -21 -3 -40.5v-37.5t1 -36q1 -20 2 -37h540v-90h-528q17 -97 56 -182.5t104 -150t156 -102t212 -37.5q100 0 180.5 34t139.5 95.5t94 145.5t46 182h151q-15 -138 -63.5 -247t-127.5 -184.5t-185 -115 t-235 -39.5q-152 0 -270.5 47t-202 127.5t-136.5 191t-72 235.5h-131z" />
<glyph unicode="&#x2122;" horiz-adv-x="2034" d="M165 1370v100h666v-100h-274v-750h-115v750h-277zM976 620v850h179l272 -676l262 676h181v-850h-115l-3 729l-295 -729h-69l-297 729v-729h-115z" />
<glyph unicode="&#x25cc;" horiz-adv-x="1372" d="M307 597l135 67q-4 -32 -5.5 -66t5.5 -72zM406 332l61 141q18 -29 41.5 -54t54.5 -46zM434 861l138 -48q-66 -31 -102 -93zM614 831l72 142l67 -132q-33 6 -69.5 3.5t-69.5 -13.5zM620 347q33 -9 62 -9t68 12l-64 -135zM804 816l163 45l-64 -144q-18 33 -44.5 55.5 t-54.5 43.5zM807 370q29 21 52 44q23 24 44 51l39 -137zM928 529q13 34 14.5 67t-6.5 66l130 -68z" />
<glyph unicode="&#x25fc;" horiz-adv-x="1073" d="M0 0v1073h1073v-1073h-1073z" />
<glyph unicode="&#xf700;" horiz-adv-x="1103" d="M63 914q9 77 43.5 141t95 108.5t148.5 69.5t204 25q50 0 95 -5.5t83 -17.5q41 3 72.5 15.5t54.5 30.5t37.5 42t17.5 50h166q-4 -26 -18.5 -54t-42.5 -54.5t-69.5 -49.5t-99.5 -38q39 -29 66.5 -66.5t44.5 -81.5t23.5 -94t6.5 -100q-2 -47 -14.5 -107.5t-33 -129.5 t-47.5 -143t-58.5 -151.5t-65.5 -153.5t-68 -150h-198l-215 600h-159v104h274l203 -589q26 61 52.5 126t51.5 131t47 129t38 123.5t26.5 113.5t13.5 97q3 63 -12.5 118t-51 96.5t-93.5 65t-143 23.5q-143 0 -220 -58q-77 -60 -89 -166h-166z" />
<glyph unicode="&#xf701;" d="M-1304 1461l54 107h802v-107h-856z" />
<glyph unicode="&#xf702;" d="M-1304 1461l54 107h662v193h140v-300h-856z" />
<glyph unicode="&#xf703;" d="M-1304 1461l54 107h459q-9 17 -15 39q-7 22 -7 45q0 41 15.5 76.5t42 62t61 42.5t74.5 16q41 0 77 -16t62.5 -42.5t41 -62t14.5 -76.5t-14.5 -75.5t-41 -60t-62.5 -40.5t-77 -15h-684zM-714 1652q0 -19 7 -36t20.5 -29.5t30.5 -19.5t36 -7t36 7t30 19.5t20.5 30.5t7.5 35 q0 19 -7.5 36t-20.5 30.5t-30 20.5t-36 7t-36 -7t-30.5 -20.5t-20.5 -30.5t-7 -36z" />
<glyph unicode="&#xf704;" d="M-1319 1461l55 107h370v193h135v-193h174v193h137v-300h-871z" />
<glyph unicode="&#xf705;" d="M-647 1461v343h138v-343h-138z" />
<glyph unicode="&#xf706;" d="M-1080 1649v100h224v-183q86 0 143 16.5t94.5 42.5t57.5 59t32 65h147q-3 -26 -18 -57.5t-39 -64t-60 -62.5t-84.5 -53.5t-109 -37t-135.5 -13.5h-148v188h-104z" />
<glyph unicode="&#xf707;" d="M-1226 1461q-6 62 9 109t40 78t57 47t63 16q32 0 58 -9t45 -23.5t31 -35t17 -44.5q5 24 17.5 44.5t31.5 35t42.5 23.5t50.5 9q29 0 54.5 -9t46.5 -28t35 -48.5t19 -68.5q24 3 49 17.5t45 39t31 57.5q11 34 11 78h138q0 -41 -11 -77.5t-31 -69t-45 -57.5t-53.5 -44 t-58.5 -30q-30 -10 -57 -10h-113q-3 25 -6.5 49.5t-12.5 44t-22.5 32t-33.5 12.5q-19 0 -33 -11.5t-23 -31.5t-13 -45q-5 -23 -5 -50h-108q0 27 -4.5 52t-13.5 44t-22 30.5t-31 11.5q-21 0 -35.5 -12.5t-22.5 -32t-11 -44.5q-4 -25 -1 -49h-124z" />
<glyph unicode="&#xf708;" d="M-914 1623v100h182v159h144v-159h191v-100h-191v-162h-144v162h-182z" />
<glyph unicode="&#xf709;" d="M-810 1461q9 71 39 122.5t78.5 86t116.5 53.5q70 19 156 23v-97q-105 -7 -169 -55t-75 -133h-146z" />
<glyph unicode="&#xf70a;" d="M-273 1461v343h138v-343h-138z" />
<glyph unicode="&#xf70b;" d="M-656 1649v100h225v-183q86 0 143 16.5t94.5 42.5t58 59t29.5 65h147q-3 -26 -16 -57.5t-38 -64t-61 -62.5t-84.5 -53.5t-109.5 -37t-135 -13.5h-148v188h-105z" />
<glyph unicode="&#xf70c;" d="M-804 1461q-6 62 8 109t39 78t57.5 47t64.5 16t58 -9t44.5 -23.5t30 -35t17.5 -44.5q4 24 17.5 44.5t32 35t42.5 23.5q23 9 49 9q29 0 55.5 -9t47.5 -28t34.5 -48.5t19.5 -68.5q24 3 48 17.5t44.5 39t32.5 58t11 77.5h139q0 -61 -25 -112.5t-63 -90.5t-83 -62 q-43 -23 -85 -23h-114q-3 25 -7.5 49.5t-12 44t-21.5 32.5q-15 12 -36 12q-19 0 -33 -11.5t-22.5 -31.5t-12.5 -45q-4 -23 -4 -50h-107q0 27 -4.5 52t-14 44t-23.5 30.5t-32 11.5q-20 0 -34 -12.5t-22 -32t-11 -44.5t-2 -49h-123z" />
<glyph unicode="&#xf70d;" d="M-465 1623v100h186v159h144v-159h189v-100h-189v-162h-144v162h-186z" />
<glyph unicode="&#xf70e;" d="M-417 1461q8 71 37.5 122.5t78 86t117.5 53.5t155 23v-97q-105 -7 -169 -55t-75 -133h-144z" />
<glyph unicode="&#xf70f;" horiz-adv-x="1953" d="M51 882q12 47 34 93.5t54 88t74.5 78.5t98.5 64t123.5 42.5t149.5 15.5q100 0 175.5 -19.5t132.5 -55t95 -83.5t61.5 -106t34 -122t10.5 -131v-347q0 -78 20.5 -134.5t58.5 -92.5t91 -53t115 -17t114.5 17t91 53t60.5 93t22 134v835h151v-810q0 -103 -27 -186 t-81.5 -142.5t-137.5 -91t-193 -31.5t-192.5 31.5t-136 91t-81 142.5t-27.5 186v348q0 44 -6.5 89t-22.5 85.5t-43.5 76.5t-67 61.5t-93 42t-124.5 16.5q-91 1 -158.5 -23t-114 -63t-72 -86t-34.5 -90q29 -15 47.5 -38.5t29.5 -53.5t14.5 -64.5t3.5 -75.5v-538h139v-112 h-290v653q0 32 -1.5 63t-11 59t-29.5 54.5t-57 52.5z" />
<glyph unicode="&#xf710;" d="M-882 1461v215h138v-108h853v-107h-991z" />
<glyph unicode="&#xf711;" d="M-813 1638q0 41 14.5 77t40.5 62.5t60.5 41t74.5 14.5q41 0 77 -14.5t62.5 -41t41 -62.5t14.5 -77q0 -40 -14.5 -74.5t-41 -60.5t-62.5 -40.5t-77 -14.5q-40 0 -74.5 14.5t-60.5 40.5t-40.5 60.5t-14.5 74.5zM-711 1638q0 -18 7 -34t19 -28t28 -19.5t34 -7.5q20 0 37 7.5 t29.5 19.5t20 28t7.5 34q0 41 -26.5 67.5t-67.5 26.5q-18 0 -34 -7.5t-28 -20t-19 -29.5t-7 -37z" />
<glyph unicode="&#xf712;" d="M-1223 1686q0 65 24 109.5t64.5 74t93.5 43t110 13.5h549v-108h-524q-55 0 -89 -15t-51.5 -37.5t-23 -44.5t-5.5 -35q0 -12 3 -31.5t14 -39t33 -33.5q20 -14 58 -14q47 0 77 32q29 32 32 86h99q0 -25 6 -46.5t18 -36.5t31 -25t48.5 -10t48.5 11.5t31 27.5t14.5 37.5 t1.5 41.5h132q6 -50 -3.5 -93.5t-34.5 -75t-66 -49t-100 -17.5q-41 0 -72 11.5t-53 30t-35.5 43t-17.5 47.5q-4 -23 -18 -47.5t-37.5 -43.5t-57 -31t-74.5 -10q-63 3 -106.5 27t-70 59.5t-38 75t-11.5 73.5z" />
<glyph unicode="&#xf713;" d="M-588 1920v314h140v-314h-140z" />
<glyph unicode="&#xf714;" d="M-988 2111v98h227v-183q85 0 142 16.5t94 42.5t57.5 59t30.5 65h149q-3 -26 -17.5 -57.5t-39.5 -64t-60.5 -62t-84 -53t-109.5 -37.5q-63 -15 -136 -15h-147v191h-106z" />
<glyph unicode="&#xf715;" d="M-1038 1920q-6 62 7.5 109t38.5 78.5t57 47t64.5 15.5t58.5 -8t44 -23.5t30 -35.5t18 -44q4 24 17.5 44t32.5 35.5t42.5 23.5t49.5 8q30 0 55.5 -9t46 -26.5t35.5 -47t21 -70.5q23 3 47.5 17.5t44 39.5t31.5 59t12 76h138q0 -41 -12 -77.5t-31 -68t-44.5 -58t-54.5 -45 t-58 -28.5q-29 -12 -56 -12h-114q-3 25 -7.5 50t-12 44.5t-21.5 32.5q-15 12 -36 12q-19 0 -32 -12.5t-22 -31.5t-12.5 -44t-3.5 -51h-109q0 26 -4.5 52t-13.5 45.5t-23 30.5q-15 11 -33 11q-20 0 -33.5 -12.5t-22 -32t-11.5 -44t0 -50.5h-124z" />
<glyph unicode="&#xf716;" d="M-776 2083v100h182v160h146v-160h189v-100h-189v-163h-146v163h-182z" />
<glyph unicode="&#xf717;" d="M-594 1785q9 70 39 121.5t79.5 87t117 54.5t152.5 23v-95q-103 -6 -167 -55q-65 -51 -75 -136h-146z" />
<glyph unicode="&#xf718;" d="M-385 -500h250v-403h-141v303h-109v100z" />
<glyph unicode="&#xf719;" d="M-856 -500h256v-126q0 -91 40 -136t123 -45t120.5 45t37.5 136v126h144v-126q0 -56 -16.5 -107t-51.5 -88t-92.5 -59.5t-141.5 -22.5q-82 0 -140 19.5t-95 57.5t-53 95q-16 55 -16 131h-115v100z" />
<glyph unicode="&#xf71a;" d="M-362 -614q0 25 10.5 47.5t26.5 38.5t39 26.5t48 10.5t47 -10.5t38 -26.5t25.5 -38.5t9.5 -47.5t-9.5 -46.5t-25.5 -37.5t-38 -26.5t-47 -10.5t-48 10.5t-39 26.5t-26.5 37.5t-10.5 46.5z" />
<glyph unicode="&#xf71d;" horiz-adv-x="1525" d="M60 1235h163l205 -1003l283 837h124l262 -837l144 599q9 35 16 71t8.5 70.5t-3.5 66t-23.5 56.5t-52.5 42.5t-86 23.5v80q58 4 105 16.5t82.5 36t59 60.5t32.5 88h184q-12 -53 -38 -97t-62.5 -77t-82 -53.5t-92.5 -25.5q50 -19 78 -55.5t39 -81t7 -92t-16 -90.5 l-235 -870h-123l-268 850l-294 -850h-123z" />
<glyph unicode="&#xf881;" horiz-adv-x="1913" d="M51 882q18 71 58.5 139t106 122t158.5 86t220 32q76 0 138 -10t113.5 -30.5t91 -48.5t68.5 -61q31 36 71.5 63t87 45.5t97 27t103.5 8.5q88 0 164.5 -23.5t132.5 -73.5t87 -125t31 -177v-1259h-150v1216q0 85 -18 147.5t-51.5 102t-82 59t-113.5 19.5q-54 0 -99 -14 t-79.5 -41.5t-56.5 -68.5q-21 -41 -29 -94q11 -42 15.5 -87t4.5 -92v-1144h-150v1170q0 44 -7 89t-23.5 85.5t-44.5 76.5t-69 61.5t-99 42.5q-57 16 -133 16q-97 0 -167.5 -26.5t-117 -66.5t-72 -84t-31.5 -79q50 -29 72.5 -88t22.5 -141v-547h139v-109h-290v659q0 32 -3 65 t-12.5 62.5t-29.5 53.5t-54 42z" />
<glyph unicode="&#xf882;" horiz-adv-x="1950" d="M44 0v112h131v547q0 32 -3 65t-13.5 62.5t-30 53.5t-53.5 42q18 71 58 139t106.5 122t161 86t222.5 32q80 0 144.5 -11.5t117.5 -32t92.5 -50t69.5 -65.5q29 39 67 67t84 47.5t97.5 29t103.5 9.5q89 0 165.5 -23.5t132 -73.5t87 -125t31.5 -177v-1256h-151v1213 q0 85 -17 147.5t-50 102t-83 59t-115 19.5q-111 0 -179.5 -56t-84.5 -165q12 -42 16 -86.5t4 -89.5v-1144h-150v1170q0 44 -6.5 89t-23.5 85.5t-44.5 76.5t-70.5 61.5t-101.5 42t-135.5 16.5q-100 0 -170.5 -26.5t-117.5 -66.5t-73 -84q-24 -44 -33 -79q50 -29 73 -88 t23 -141v-656h-281z" />
<glyph d="M-885 1461q3 100 60 166q58 66 178 93q15 81 84 132q69 50 195 62v-99q-54 -2 -88 -13.5t-53 -32.5t-25.5 -54t-6.5 -77v-3h-16q-53 0 -88.5 -12t-58 -34.5t-32.5 -55.5q-11 -31 -14 -72h-135z" />
<glyph horiz-adv-x="1008" d="M-797 1638q0 41 15 77t40 62.5t60 41t73 14.5q42 0 78.5 -14.5t62.5 -41t41 -62.5t15 -77q0 -40 -15 -74.5t-41 -60.5t-62 -40q-37 -15 -79 -15q-39 0 -73.5 14.5t-59.5 40.5t-40 60.5t-15 74.5zM-695 1638q0 -18 6.5 -34t18 -28t28 -19.5t33.5 -7.5q21 0 38.5 7.5 t29.5 19.5t19.5 28t7.5 34q0 20 -7.5 37t-19.5 29.5t-29.5 20t-38.5 7.5q-17 0 -33.5 -7.5t-28 -20t-18 -29.5t-6.5 -37zM29 914q3 86 41.5 150.5t98 107t135 63t155.5 20.5q88 0 164.5 -23.5t131.5 -73.5t86.5 -125t31.5 -177v-856h-150v813q0 85 -17.5 147.5t-51.5 102 t-83 59.5q-48 19 -112 19q-112 0 -182.5 -57.5t-83.5 -169.5h-164z" />
<glyph horiz-adv-x="1008" d="M-797 1638q0 41 15 77t40 62.5t60 41t73 14.5q42 0 78.5 -14.5t62.5 -41t41 -62.5t15 -77q0 -40 -15 -74.5t-41 -60.5t-62 -40q-37 -15 -79 -15q-39 0 -73.5 14.5t-59.5 40.5t-40 60.5t-15 74.5zM-695 1638q0 -18 6.5 -34t18 -28t28 -19.5t33.5 -7.5q21 0 38.5 7.5 t29.5 19.5t19.5 28t7.5 34q0 20 -7.5 37t-19.5 29.5t-29.5 20t-38.5 7.5q-17 0 -33.5 -7.5t-28 -20t-18 -29.5t-6.5 -37zM29 914q3 86 41.5 150.5t98 107t135 63t155.5 20.5q88 0 164.5 -23.5t131.5 -73.5t86.5 -125t31.5 -177v-856h-150v813q0 85 -17.5 147.5t-51.5 102 t-83 59.5q-48 19 -112 19q-112 0 -182.5 -57.5t-83.5 -169.5h-164z" />
<glyph d="M-951 1461l54 107h762v-107h-816z" />
<glyph d="M-951 1461l54 107h624v193h138v-300h-816z" />
<glyph d="M-951 1461l54 107h406q-9 17 -15 39t-6 45q0 41 15 76.5t41.5 62t61.5 42.5t75 16q41 0 77 -16t62.5 -42.5t41.5 -62t15 -76.5t-15 -75.5t-41.5 -60t-61.5 -40.5t-78 -15h-632zM-412 1652q0 -19 7.5 -36t19.5 -29.5t29.5 -19.5t36.5 -7t36 7t29.5 19.5t20 30.5t7.5 35 q0 19 -7.5 36t-20 30.5t-29.5 20.5t-36 7t-36.5 -7t-29.5 -20.5t-19.5 -30.5t-7.5 -36z" />
<glyph d="M-951 1461l54 107h309v193h137v-193h181v193h135v-300h-816z" />
<glyph d="M-1485 1461l55 107h1042v-107h-1097z" />
<glyph d="M-1485 1461l55 107h904v193h138v-300h-1097z" />
<glyph d="M-1485 1461l55 107h760q-9 17 -16 39q-6 22 -6 45q0 41 15 76.5t41.5 62t61.5 42.5t74 16q41 0 77 -16t62.5 -42.5t41.5 -62t15 -76.5t-15 -75.5t-41.5 -60t-62.5 -40.5t-77 -15h-985zM-594 1652q0 -19 7.5 -36t20.5 -29.5t30 -19.5t36 -7t36 7t30.5 19.5t20.5 30.5t7 35 q0 19 -7 36t-20.5 30.5t-30.5 20.5t-36 7t-36 -7t-30 -20.5t-20.5 -30.5t-7.5 -36z" />
<glyph d="M-1485 1461l55 107h595v193h137v-193h175v193h135v-300h-1097z" />
<glyph d="M-526 1920v314h138v-314h-138z" />
<glyph d="M-882 2111v98h226v-183q86 0 143 16.5t94 42.5t57.5 59t29.5 65h148q-3 -26 -17 -57.5t-39 -64t-61 -62t-83.5 -53t-109.5 -38t-135 -14.5h-147v191h-106z" />
<glyph d="M-1041 1920q-6 62 7.5 109t38.5 78.5t57 47t64.5 15.5t58.5 -8t44 -23.5t30 -35.5t18 -44q4 24 17.5 44t31.5 35.5t43 23.5q22 8 49 8q29 0 55.5 -9t47 -26.5t34.5 -47t20 -70.5q24 3 48 17.5t44.5 39.5t32.5 59t12 76h138q0 -61 -25 -113.5t-63 -90.5t-83 -61 q-44 -24 -85 -24h-114q-3 25 -7.5 50t-12 44.5t-21.5 32.5q-15 12 -36 12q-19 0 -32 -12.5t-22 -31.5t-12.5 -44t-3.5 -51h-109q0 26 -4.5 52t-14 45.5t-23.5 30.5t-32 11q-20 0 -33.5 -12.5t-22 -32t-11.5 -44t0 -50.5h-124z" />
<glyph d="M-717 2083v100h191v160h138v-160h190v-100h-190v-163h-138v163h-191z" />
<glyph d="M-1408 1461l56 107h1217v-107h-1273z" />
<glyph d="M-1408 1461l56 107h1079v193h138v-300h-1273z" />
<glyph d="M-1408 1461l56 107h861q-9 17 -15 39t-6 45q0 41 15 76.5t41.5 62t61.5 42.5t75 16q41 0 77 -16t62.5 -42.5t41.5 -62t15 -76.5t-15 -75.5t-41.5 -60t-61.5 -40.5t-78 -15h-1089zM-412 1652q0 -19 7.5 -36t19.5 -29.5t29.5 -19.5t36.5 -7t36 7t29.5 19.5t20 30.5t7.5 35 q0 19 -7.5 36t-20 30.5t-29.5 20.5t-36 7t-36.5 -7t-29.5 -20.5t-19.5 -30.5t-7.5 -36z" />
<glyph d="M-1408 1461l56 107h764v193h137v-193h181v193h135v-300h-1273z" />
<glyph d="M-273 1785v314h138v-314h-138z" />
<glyph d="M-641 1976v98h226v-184q86 0 143 16.5t94 43t57.5 58.5t29.5 66h148q-3 -26 -17 -58t-39 -64t-61 -61.5t-83.5 -53t-109.5 -38t-135 -14.5h-147v191h-106z" />
<glyph d="M-788 1785q-6 61 7.5 108t38.5 79t57 47t64.5 15t58 -8t44 -23.5t30.5 -36t18 -43.5q4 23 17 43.5t32.5 36t43 23.5t49.5 8q30 0 55.5 -8.5t46 -27t35.5 -47t20 -69.5q24 3 48.5 17.5t44 38.5t31.5 59t12 77h138q0 -41 -12 -77.5t-31 -68.5t-44.5 -58.5t-54.5 -44.5 t-58 -29t-56 -11h-115q-2 25 -6.5 50t-12 44.5t-21.5 31.5q-15 12 -36 12q-19 0 -32.5 -12t-22 -31t-12.5 -44t-4 -51h-108q0 26 -4.5 51.5t-13.5 45t-23 30.5q-15 11 -33 11q-20 0 -33.5 -12t-22.5 -31.5t-11.5 -44t0.5 -50.5h-124z" />
<glyph d="M-465 1948v98h186v160h144v-160h189v-98h-189v-163h-144v163h-186z" />
<glyph d="M-588 1785v314h140v-314h-140z" />
<glyph d="M-1000 1976v98h227v-184q85 0 142.5 16.5t94 43t57 58.5t31.5 66h147q-3 -26 -17 -58t-39 -64t-60.5 -61.5t-84 -53t-109.5 -38t-136 -14.5h-147v191h-106z" />
<glyph d="M-1158 1785q-6 61 7 108t38 79t57.5 47t65 15t58 -8t44 -23.5t30 -36t17.5 -43.5q5 23 19 43.5t32 36t42.5 23.5t49.5 8q29 0 55 -8.5t46.5 -27t35 -47t20.5 -69.5q24 3 48 17.5t44 38.5t31.5 59t11.5 77h138q0 -41 -11.5 -77.5t-30.5 -68.5t-45 -58.5t-54.5 -44.5 t-57.5 -29q-30 -11 -56 -11h-115q-3 25 -6.5 50t-11.5 44.5t-22 31.5q-16 12 -36 12t-33 -12t-22 -31t-12.5 -44t-3.5 -51h-109q0 26 -4.5 51.5t-13 45t-22.5 30.5q-16 11 -33 11q-21 0 -34 -12t-22 -31.5t-12 -44t0 -50.5h-123z" />
<glyph d="M-776 1948v98h182v160h146v-160h189v-98h-189v-163h-146v163h-182z" />
<glyph d="M-614 -159h249v-404h-141v304h-108v100z" />
<glyph d="M-903 -159h256v-126q0 -91 39 -137q38 -45 123 -45q82 0 119.5 45.5t37.5 136.5v126h144v-126q0 -56 -15.5 -107.5t-50.5 -89t-92.5 -59.5t-142.5 -22q-82 0 -139.5 19t-94.5 57.5t-53 95t-16 132.5h-115v100z" />
<glyph d="M-594 -265q0 25 10.5 47t27.5 39t39.5 27.5t46.5 10.5q25 0 47 -10.5t38.5 -27.5t25.5 -39t9 -47t-9 -47t-25.5 -38t-38 -25.5t-47.5 -9.5q-25 0 -47 9.5t-39 25.5t-27.5 38t-10.5 47z" />
<glyph d="M-551 -159h250v-404h-141v304h-109v100z" />
<glyph d="M-1035 -159h256v-126q0 -91 39 -136.5t123 -45.5q82 0 118.5 45.5t36.5 136.5v126h146v-126q0 -56 -15.5 -107.5t-51.5 -89t-93.5 -59.5t-140.5 -22t-140 19t-94 57.5t-53 95t-16 132.5h-115v100z" />
<glyph d="M-547 -265q0 25 9.5 47t26.5 39t39 27.5t47 10.5t47 -10.5t38.5 -27.5t26 -39t9.5 -47t-9.5 -47t-26 -38t-38.5 -25.5t-47 -9.5t-47 9.5t-39 25.5t-26.5 38t-9.5 47z" />
<glyph d="M-882 1461v215h138v-108h973v-107h-1111z" />
<glyph d="M-588 1920v314h140v-314h-140z" />
<glyph d="M-888 2111v98h226v-183q86 0 143 16.5t94 42.5t57.5 59t29.5 65h148q-3 -26 -16.5 -57.5t-38.5 -64t-61.5 -62t-84 -53t-109.5 -38t-135 -14.5h-147v191h-106z" />
<glyph d="M-917 1920q-6 62 7 109t38 78.5t57.5 47t65 15.5t58 -8t44 -23.5t30 -35.5t17.5 -44q5 24 18 44t31.5 35.5t42.5 23.5q23 8 49 8q30 0 56.5 -9t47 -26.5t34.5 -47t20 -70.5q23 3 47.5 17.5t45 39.5t32 59t11.5 76h139q0 -61 -25 -113.5t-63.5 -90.5t-83.5 -61 q-43 -24 -84 -24h-115q-3 25 -7.5 50t-11.5 44.5t-21 32.5q-16 12 -36 12q-19 0 -32.5 -12.5t-22.5 -31.5t-12.5 -44t-3.5 -51h-109q0 26 -4.5 52t-14 45.5t-23.5 30.5t-31 11q-21 0 -35 -12.5t-22 -32t-11 -44t0 -50.5h-123z" />
<glyph d="M-776 2083v100h182v160h146v-160h189v-100h-189v-163h-146v163h-182z" />
<glyph d="M-676 1920v314h139v-314h-139z" />
<glyph d="M-864 2083v100h182v160h145v-160h190v-100h-190v-163h-145v163h-182z" />
</font>
</defs>
</svg>
