<svg xmlns="http://www.w3.org/2000/svg" width="46" height="46" viewBox="0 0 46 46"><defs><style>.a{fill:#92bf1c;}.b{fill:#fff;}</style></defs><g transform="translate(-281 -477)"><circle class="a" cx="23" cy="23" r="23" transform="translate(281 477)"/><path class="b" d="M120.423,395.882a1,1,0,0,0,0-.764,1.025,1.025,0,0,0-.216-.326l-9-9a1,1,0,0,0-1.414,1.414l7.293,7.293H96.5a1,1,0,0,0,0,2h20.586l-7.293,7.293a1,1,0,1,0,1.414,1.414l9-9A1.025,1.025,0,0,0,120.423,395.882Z" transform="translate(196.5 104.5)"/></g></svg>