<svg xmlns="http://www.w3.org/2000/svg" width="60" height="60" viewBox="0 0 60 60"><defs><style>.a{fill:#91b210;}.b{fill:#fff;stroke:#fff;stroke-width:0.5px;}.c{fill:none;}</style></defs><g transform="translate(-469 -777)"><g transform="translate(190 607)"><circle class="a" cx="19.5" cy="19.5" r="19.5" transform="translate(290 181)"/><path class="b" d="M490.783,733.056l6.554-6.554a.942.942,0,0,0-1.332-1.332l-6.554,6.554-6.554-6.554a.942.942,0,0,0-1.332,1.332l6.554,6.554-6.554,6.554a.942.942,0,0,0,1.332,1.332l6.554-6.554,6.554,6.554a.942.942,0,0,0,1.332-1.332Z" transform="translate(-179.29 -533.072)"/></g><rect class="c" width="60" height="60" transform="translate(469 777)"/></g></svg>