<svg xmlns="http://www.w3.org/2000/svg" xmlns:xlink="http://www.w3.org/1999/xlink" width="284" height="214" viewBox="0 0 284 214"><defs><style>.a{fill:none;}.b{fill:#7a7a7a;}.c{fill:#fff;}.d{opacity:0.6;}.e{clip-path:url(#a);}.f{fill:#fefefe;}.g{fill:#fdfdfd;}.h{fill:#fcfcfc;}.i{fill:#fbfbfb;}.j{fill:#fafafa;}.k{fill:#f9f9f9;}.l{fill:#f8f8f8;}.m{fill:#f7f7f7;}.n{fill:#f6f6f6;}.o{fill:#f5f5f5;}.p{fill:#f4f4f4;}.q{fill:#f3f3f3;}.r{fill:#f2f2f2;}.s{fill:#f1f1f1;}.t{fill:#f0f0f0;}.u{fill:#efefef;}.v{fill:#eee;}.w{fill:#ececec;}.x{fill:#ebebeb;}.y{fill:#eaeaea;}.z{fill:#e9e9e9;}.aa{fill:#e8e8e8;}.ab{fill:#e7e7e7;}.ac{fill:#e6e6e6;}.ad{fill:#e5e5e5;}.ae{fill:#e4e4e4;}.af{fill:#e3e3e3;}.ag{fill:#e2e2e2;}.ah{fill:#e1e1e1;}.ai{fill:#e0e0e0;}.aj{fill:#dfdfdf;}.ak{fill:#dedede;}.al{fill:#ddd;}.am{fill:#dcdcdc;}.an{fill:#dbdbdb;}</style><clipPath id="a"><path class="a" d="M543.634,225.927c0-.065.01-.128.01-.193,0-18.422-14.4-33.355-32.154-33.355a31.542,31.542,0,0,0-23.839,11.029c-10.3-17.956-31.083-30.237-55.061-30.237-24.836,0-46.246,13.169-56.127,32.176-.193,0-.378-.031-.569-.031-26.148,0-47.344,21.983-47.344,49.1s21.2,49.1,47.344,49.1c.591,0,1.169-.071,1.756-.091,8.326,14.06,23.247,23.471,40.327,23.471a45.825,45.825,0,0,0,25.168-7.565C453.467,326.213,467,330.4,481.832,330.4c32.359,0,58.592-18.966,58.592-43.5,0-.394-.024-.25-.039-.25h.039c15.983,0,28.936-14.145,28.936-30.457C569.361,240.987,558.1,227.558,543.634,225.927Z" transform="translate(-328.551 -173.171)"/></clipPath></defs><g transform="translate(-834 -579)"><g transform="translate(802 508.883)"><g transform="translate(-274.551 -77.054)"><g transform="translate(328.551 179.301)"><path class="b" d="M543.634,227.927c0-.065.01-.128.01-.193,0-18.422-14.4-33.355-32.154-33.355a31.542,31.542,0,0,0-23.839,11.029c-10.3-17.956-31.083-30.237-55.061-30.237-24.836,0-46.246,13.169-56.127,32.176-.193,0-.378-.031-.569-.031-26.148,0-47.344,21.983-47.344,49.1s21.2,49.1,47.344,49.1c.591,0,1.169-.071,1.756-.091,8.326,14.06,23.247,23.471,40.327,23.471a45.825,45.825,0,0,0,25.168-7.565C453.467,328.213,467,332.4,481.832,332.4c32.359,0,58.592-18.966,58.592-43.5,0-.394-.024-.25-.039-.25h.039c15.983,0,28.936-14.145,28.936-30.457C569.361,242.987,558.1,229.558,543.634,227.927Z" transform="translate(-328.551 -175.171)"/></g><g transform="translate(328.551 171.171)"><path class="c" d="M543.634,223.927c0-.065.01-.128.01-.193,0-18.422-14.4-33.355-32.154-33.355a31.542,31.542,0,0,0-23.839,11.029c-10.3-17.956-31.083-30.237-55.061-30.237-24.836,0-46.246,13.169-56.127,32.176-.193,0-.378-.031-.569-.031-26.148,0-47.344,21.983-47.344,49.1s21.2,49.1,47.344,49.1c.591,0,1.169-.071,1.756-.091,8.326,14.06,23.247,23.471,40.327,23.471a45.825,45.825,0,0,0,25.168-7.565C453.467,324.213,467,328.4,481.832,328.4c32.359,0,58.592-18.966,58.592-43.5,0-.394-.024-.25-.039-.25h.039c15.983,0,28.936-14.145,28.936-30.457C569.361,238.987,558.1,225.558,543.634,223.927Z" transform="translate(-328.551 -171.171)"/></g><g class="d" transform="translate(328.551 175.236)"><g class="e"><path class="c" d="M328.551,251h0Z" transform="translate(-328.551 -92.804)"/><path class="c" d="M329,248H568.848v6.1H329Z" transform="translate(-328.087 -95.902)"/><rect class="f" width="239.848" height="4.065" transform="translate(0.913 148.033)"/><rect class="g" width="239.848" height="4.065" transform="translate(0.913 143.968)"/><rect class="h" width="239.848" height="4.065" transform="translate(0.913 139.903)"/><rect class="i" width="239.848" height="4.065" transform="translate(0.913 135.838)"/><rect class="j" width="239.848" height="4.065" transform="translate(0.913 131.772)"/><rect class="k" width="239.848" height="6.098" transform="translate(0.913 125.674)"/><rect class="l" width="239.848" height="4.065" transform="translate(0.913 121.609)"/><rect class="m" width="239.848" height="4.065" transform="translate(0.913 117.544)"/><rect class="n" width="239.848" height="4.065" transform="translate(0.913 113.479)"/><rect class="o" width="239.848" height="4.065" transform="translate(0.913 109.414)"/><rect class="p" width="239.848" height="4.065" transform="translate(0.913 105.348)"/><rect class="q" width="239.848" height="4.065" transform="translate(0.913 101.283)"/><rect class="r" width="239.848" height="6.098" transform="translate(0.913 95.185)"/><rect class="s" width="239.848" height="4.065" transform="translate(0.913 91.12)"/><rect class="t" width="239.848" height="4.065" transform="translate(0.913 87.055)"/><rect class="u" width="239.848" height="4.065" transform="translate(0.913 82.99)"/><rect class="v" width="239.848" height="4.065" transform="translate(0.913 78.924)"/><rect class="w" width="239.848" height="4.065" transform="translate(0.913 74.859)"/><rect class="x" width="239.848" height="4.065" transform="translate(0.913 70.794)"/><rect class="y" width="239.848" height="6.098" transform="translate(0.913 64.696)"/><rect class="z" width="239.848" height="4.065" transform="translate(0.913 60.631)"/><rect class="aa" width="239.848" height="4.065" transform="translate(0.913 56.566)"/><rect class="ab" width="239.848" height="4.065" transform="translate(0.913 52.5)"/><rect class="ac" width="239.848" height="4.065" transform="translate(0.913 48.435)"/><rect class="ad" width="239.848" height="4.065" transform="translate(0.913 44.37)"/><rect class="ae" width="239.848" height="4.065" transform="translate(0.913 40.305)"/><rect class="af" width="239.848" height="6.098" transform="translate(0.913 34.207)"/><rect class="ag" width="239.848" height="4.065" transform="translate(0.913 30.142)"/><rect class="ah" width="239.848" height="4.065" transform="translate(0.913 26.076)"/><rect class="ai" width="239.848" height="4.065" transform="translate(0.913 22.011)"/><rect class="aj" width="239.848" height="4.065" transform="translate(0.913 17.946)"/><rect class="ak" width="239.848" height="4.065" transform="translate(0.913 13.881)"/><rect class="al" width="239.848" height="6.098" transform="translate(0.913 7.783)"/><rect class="am" width="239.848" height="4.065" transform="translate(0.913 3.718)"/><path class="an" d="M432.1,173H568.848v4.065H329V173Z" transform="translate(-328.087 -173.348)"/><path class="an" d="M516.518,173h0Z" transform="translate(-275.708 -173.348)"/></g></g></g></g><rect class="a" width="284" height="214" transform="translate(834 579)"/></g></svg>