<svg xmlns="http://www.w3.org/2000/svg" width="332" height="202" viewBox="0 0 332 202"><defs><style>.a{fill:none;}.b{fill:#ffde31;}.c{fill:#fff;opacity:0.34;}.d{fill:#b0fc44;}</style></defs><g transform="translate(-399 -113)"><g transform="translate(367.688 126.228) rotate(-11)"><g transform="translate(49 64)"><g transform="translate(0 0.25)"><path d="M799.581-342.732q-3.741.7-7.113,1.377a10.92,10.92,0,0,1-2.081.394,5.144,5.144,0,0,1-1.461-.084,4.205,4.205,0,0,1-1.041-.366,7.366,7.366,0,0,1-.815-.506,18.9,18.9,0,0,1-1.743-1.265q-.787-.646-2.081-1.659a5.637,5.637,0,0,1-1.461-1.771A3.814,3.814,0,0,1,781.5-349q.169-2.193.562-5.2t.956-6.495q.563-3.486,1.237-7.225t1.461-7.451q.787-3.711,1.6-7.141t1.6-6.3q.561-1.63,1.433-1.94a4.561,4.561,0,0,1,2.615.2,30.85,30.85,0,0,1,3.767,1.265,19.52,19.52,0,0,1,3.543,1.827,5.705,5.705,0,0,1,1.827,1.856,3.1,3.1,0,0,1-.141,2.249q-1.125,3.374-2.277,7.422t-2.305,8.322q-1.153,4.274-2.193,8.519t-1.94,8.125q2.586-.45,4.836-.675t4.892-.393a5.9,5.9,0,0,1,2.39.2,3.218,3.218,0,0,1,1.49,1.378,11.522,11.522,0,0,1,1.1,2.052,13.758,13.758,0,0,1,.647,2,2.47,2.47,0,0,1,.2,1.575q-.2.394-1.94.731Q803.32-343.435,799.581-342.732Z" transform="translate(-776.698 395.602)"/><path d="M785.652-340.473a9.151,9.151,0,0,1-2.038-.217,8.842,8.842,0,0,1-2.219-.8,12.182,12.182,0,0,1-1.248-.766,23.5,23.5,0,0,1-2.094-1.529q-.749-.615-1.99-1.586c-.033-.025-.064-.05-.1-.076a10.375,10.375,0,0,1-2.661-3.26,8.375,8.375,0,0,1-.778-5.087c.12-1.506.308-3.237.575-5.282s.6-4.264.976-6.636.8-4.819,1.253-7.313c.455-2.518.955-5.073,1.489-7.592.528-2.49,1.076-4.931,1.628-7.254s1.108-4.507,1.644-6.458q.039-.144.088-.286a7.242,7.242,0,0,1,4.326-4.861,8.83,8.83,0,0,1,5.45.091,35.928,35.928,0,0,1,4.284,1.44,24.4,24.4,0,0,1,4.4,2.281c.056.038.113.077.168.117a9.842,9.842,0,0,1,3.324,3.677,7.56,7.56,0,0,1,.052,5.771c-.723,2.168-1.465,4.59-2.208,7.2-.76,2.668-1.529,5.447-2.288,8.259s-1.486,5.638-2.165,8.412q-.178.728-.352,1.445c1.037-.088,2.121-.168,3.24-.24a10.239,10.239,0,0,1,4.366.493,7.793,7.793,0,0,1,3.784,3.224,16.231,16.231,0,0,1,1.515,2.856,18.85,18.85,0,0,1,.818,2.483,6.526,6.526,0,0,1-.128,4.985c-1.247,2.482-3.967,3.008-5.274,3.261q-3.569.68-7.307,1.383c-2.455.462-4.779.912-6.908,1.337a15.115,15.115,0,0,1-2.843.505Q786.034-340.473,785.652-340.473Zm14.255-8.511Zm-17.949-3.8q1.306,1.022,2.107,1.68a14.194,14.194,0,0,0,1.307.948c.064.041.127.084.189.128.041.029.084.058.128.086l.121,0a6.542,6.542,0,0,0,1.146-.237c.1-.028.21-.054.317-.075l1.291-.256a4.738,4.738,0,0,1-3.015-1.462,4.735,4.735,0,0,1-1.173-4.322c.6-2.571,1.253-5.325,1.954-8.185.7-2.844,1.444-5.747,2.22-8.624.77-2.855,1.551-5.676,2.323-8.386.671-2.355,1.344-4.574,2.007-6.611a16.261,16.261,0,0,0-2.174-1.055c-.7-.28-1.366-.523-2-.727-.344,1.319-.693,2.726-1.045,4.205-.534,2.249-1.065,4.614-1.577,7.029s-1,4.884-1.434,7.309-.851,4.839-1.223,7.139c-.367,2.279-.682,4.417-.935,6.355s-.432,3.591-.536,4.95l-.009.108Zm3.643,2.841Zm-3.7-2.49h0Zm11.944-34.954Zm-.566-1.952Zm-6.455-1.058Z" transform="translate(-772.432 399.865)"/></g><g transform="translate(31.386 0.6)"><path d="M877.053-382.226a16.1,16.1,0,0,1,1.434,4.414,40.78,40.78,0,0,1,.281,8.913,48.23,48.23,0,0,1-1.659,9.559,43.1,43.1,0,0,1-3.6,8.968,25.65,25.65,0,0,1-5.595,7.141,12.383,12.383,0,0,1-4.723,2.333,16.885,16.885,0,0,1-5.679.253,42.571,42.571,0,0,1-4.386-.7,16.257,16.257,0,0,1-4.1-1.434,16.051,16.051,0,0,1-2.98-2.024,9.6,9.6,0,0,1-2.305-2.811,22.377,22.377,0,0,1-2.024-5.848,31.367,31.367,0,0,1-.618-6.86,38.512,38.512,0,0,1,.843-7.338,38.686,38.686,0,0,1,2.305-7.282,37.424,37.424,0,0,1,3.739-6.719,31.055,31.055,0,0,1,5.145-5.708,13.929,13.929,0,0,1,4.7-2.305,11.9,11.9,0,0,1,5.2-.393,32.07,32.07,0,0,1,6.1,1.575,17.333,17.333,0,0,1,4.807,2.586A11.677,11.677,0,0,1,877.053-382.226ZM862.236-379.3a18.531,18.531,0,0,0-2.924,3.739,41.623,41.623,0,0,0-2.727,5.258,46.563,46.563,0,0,0-2.052,5.6,32.615,32.615,0,0,0-1.124,5.482,32.292,32.292,0,0,0-.225,5.285,13.323,13.323,0,0,0,.787,4.189,3.223,3.223,0,0,0,1.968,2.137,2.7,2.7,0,0,0,2.474-.506A10.917,10.917,0,0,0,861-350.877a25.275,25.275,0,0,0,2.446-4.583,44.019,44.019,0,0,0,2-5.932,46.328,46.328,0,0,0,1.181-5.82,42.539,42.539,0,0,0,.45-5.932,18.8,18.8,0,0,0-.535-4.807q-.535-2-1.658-2.334Q863.7-380.678,862.236-379.3Z" transform="translate(-836.355 394.935)"/><path d="M855.471-340.052a26.094,26.094,0,0,1-2.719-.147,47.621,47.621,0,0,1-4.872-.78,21.074,21.074,0,0,1-5.293-1.858,20.913,20.913,0,0,1-3.869-2.618,14.358,14.358,0,0,1-3.42-4.19,27.265,27.265,0,0,1-2.487-7.124,36.278,36.278,0,0,1-.716-7.892,43.428,43.428,0,0,1,.944-8.24,43.6,43.6,0,0,1,2.587-8.172,42.33,42.33,0,0,1,4.21-7.567,35.922,35.922,0,0,1,5.927-6.575c.067-.058.136-.114.206-.168a18.68,18.68,0,0,1,6.273-3.106,16.643,16.643,0,0,1,7.258-.521,36.934,36.934,0,0,1,7,1.808,22.106,22.106,0,0,1,6.115,3.321l.049.04a16.4,16.4,0,0,1,4.35,5.208l0,0a20.879,20.879,0,0,1,1.868,5.706c.009.047.017.095.024.143a45.691,45.691,0,0,1,.323,9.948,53.19,53.19,0,0,1-1.82,10.5,48.1,48.1,0,0,1-3.995,9.951,30.469,30.469,0,0,1-6.63,8.443c-.074.066-.151.129-.23.19a17.143,17.143,0,0,1-6.525,3.2A19.64,19.64,0,0,1,855.471-340.052Zm10.277-24.372a48.958,48.958,0,0,1-2.205,6.542,30.008,30.008,0,0,1-2.923,5.447,18.546,18.546,0,0,1-1.983,2.42,8.149,8.149,0,0,0,2-1.133,21.122,21.122,0,0,0,4.443-5.736,38.588,38.588,0,0,0,3.2-7.987,43.691,43.691,0,0,0,1.5-8.622,36.37,36.37,0,0,0-.229-7.8,11.4,11.4,0,0,0-.985-3.051,7.073,7.073,0,0,0-1.867-2.135,11.545,11.545,0,0,0-2.563-1.469,8.3,8.3,0,0,1,2.711,4.51,23.251,23.251,0,0,1,.7,6.034,47.4,47.4,0,0,1-.5,6.6A51.3,51.3,0,0,1,865.748-364.425Zm-13.9-23.535a26.451,26.451,0,0,0-4.253,4.744,32.824,32.824,0,0,0-3.268,5.872,34.14,34.14,0,0,0-2.024,6.393,33.933,33.933,0,0,0-.742,6.436,26.777,26.777,0,0,0,.521,5.826,17.759,17.759,0,0,0,1.585,4.618,4.845,4.845,0,0,0,1.164,1.385q.226.192.452.367a18.042,18.042,0,0,1-1.1-5.672,37.186,37.186,0,0,1,.253-6.06,37.522,37.522,0,0,1,1.289-6.275,51.468,51.468,0,0,1,2.251-6.137,46.64,46.64,0,0,1,3.041-5.857,22.942,22.942,0,0,1,3.7-4.692h0a7.874,7.874,0,0,1,4.9-2.346q-.791-.17-1.6-.3a7.181,7.181,0,0,0-3.15.266A9.411,9.411,0,0,0,851.851-387.96Zm2.313,32.33h0Zm3.848-19.854c-.468.881-.921,1.82-1.353,2.81a42.2,42.2,0,0,0-1.846,5.024,28.187,28.187,0,0,0-.968,4.715,29.138,29.138,0,0,0-.218,3.833,25.069,25.069,0,0,0,1.192-2.467,39.538,39.538,0,0,0,1.778-5.293l.015-.056a41.935,41.935,0,0,0,1.056-5.224C857.833-373.3,857.948-374.422,858.012-375.483Zm3.32-4.735h0Zm-3.712-1.019.351-2.329h0Z" transform="translate(-832.09 399.199)"/></g><g transform="translate(68.19 0.07)"><path d="M930.728-351.439a64.968,64.968,0,0,0-7.394,1.434q-1.125,2.193-1.968,4.077t-1.63,3.683a1.846,1.846,0,0,1-1.1,1.124,3.645,3.645,0,0,1-1.94-.281q-.731-.282-1.6-.647t-1.771-.815q-.675-.449-1.181-.759a2.347,2.347,0,0,1-.787-.759,2.322,2.322,0,0,1-.309-1.153,6.348,6.348,0,0,1,.309-1.883q1.349-3.88,3.514-9.109t4.667-10.8q2.5-5.567,5.117-10.993t4.976-9.643a7.362,7.362,0,0,1,2.193-2.474,5.993,5.993,0,0,1,3.993-.731q2.305.114,4.1.366t3.29.591q1.489.337,2.755.731t2.558.731a3.632,3.632,0,0,1,2.221,1.63,5.011,5.011,0,0,1,.309,2.643q-.338,3.993-.563,9.165t-.337,10.8q-.114,5.623-.141,11.274t.028,10.487a1.882,1.882,0,0,1-.422,1.406,3,3,0,0,1-1.884.394q-1.462,0-2.7-.084a9.693,9.693,0,0,1-2.53-.535,3.9,3.9,0,0,1-1.884-1.012,4.387,4.387,0,0,1-.759-2.193q-.226-1.63-.393-3.571t-.337-4.245Q934.918-352.03,930.728-351.439Zm2.755-9.7q2.558-.281,5.145-.45-.114-4.61-.169-9.194t.056-9.081q-2.25,4.105-4.864,9.081t-5.258,10.318Q930.925-360.857,933.484-361.139Z" transform="translate(-906.312 395.942)"/><path d="M943.473-340.482c-1.079,0-2.1-.032-3.021-.1a14.445,14.445,0,0,1-3.652-.748,8.268,8.268,0,0,1-4.026-2.431,8.732,8.732,0,0,1-1.86-4.617c-.134-.963-.253-2.006-.359-3.12q-1.717.237-3.43.478h0c-1.739.245-3.347.526-4.806.839q-.482,1-.9,1.92-.833,1.862-1.613,3.644c-.019.042-.037.083-.057.124a6.364,6.364,0,0,1-4.184,3.685,7.869,7.869,0,0,1-4.689-.39c-.05-.017-.1-.035-.149-.055q-.788-.3-1.726-.7c-.68-.285-1.374-.6-2.063-.95a4.642,4.642,0,0,1-.508-.295q-.584-.39-1.023-.658a7.045,7.045,0,0,1-2.331-2.286,6.982,6.982,0,0,1-1.027-3.474,10.768,10.768,0,0,1,.487-3.377c.024-.085.051-.17.081-.254.923-2.653,2.137-5.8,3.611-9.364,1.448-3.5,3.037-7.176,4.723-10.927,1.666-3.705,3.4-7.443,5.17-11.107,1.776-3.686,3.5-7.018,5.11-9.9a12.082,12.082,0,0,1,3.586-4.023,10.452,10.452,0,0,1,7.042-1.594c1.646.083,3.143.218,4.451.4,1.325.187,2.562.409,3.677.662s2.149.528,3.112.827c.769.239,1.557.465,2.35.671.132.035.263.075.391.12a8.121,8.121,0,0,1,4.916,4.068,9.614,9.614,0,0,1,.743,5.1c-.218,2.589-.4,5.594-.547,8.932-.148,3.4-.26,6.992-.334,10.686-.074,3.675-.121,7.443-.139,11.2-.019,3.7-.009,7.206.028,10.408,0,.018,0,.037,0,.056a6.388,6.388,0,0,1-1.922,4.864A7.275,7.275,0,0,1,943.473-340.482Zm-3.1-8.769Zm-28.865-.559Zm28.714-.366a4.706,4.706,0,0,0,.791.145c-.014-2.38-.015-4.89,0-7.5.019-3.806.066-7.623.142-11.345.075-3.767.19-7.436.341-10.907.143-3.3.324-6.3.539-8.929-.589-.164-1.172-.336-1.744-.515-.723-.224-1.53-.438-2.392-.633s-1.838-.37-2.9-.52c-1.047-.147-2.284-.256-3.678-.325-.056,0-.111-.006-.167-.011a4.551,4.551,0,0,0-1.018,0,2.719,2.719,0,0,0-.628.784c-1.529,2.73-3.158,5.888-4.85,9.4-1.729,3.589-3.433,7.249-5.064,10.879-1.647,3.665-3.2,7.254-4.61,10.666-1.239,2.995-2.28,5.666-3.1,7.957q.17.079.338.154.276-.623.559-1.255c.6-1.346,1.3-2.794,2.078-4.306a4.735,4.735,0,0,1,3.008-2.417c1.691-.445,3.577-.842,5.63-1.187a4.732,4.732,0,0,1-3.183-1.892,4.734,4.734,0,0,1-.426-4.9c1.773-3.584,3.56-7.091,5.31-10.421s3.4-6.411,4.9-9.154a4.734,4.734,0,0,1,5.385-2.3,4.735,4.735,0,0,1,3.5,4.691c-.074,2.922-.092,5.917-.055,8.9s.093,6.07.168,9.136a4.737,4.737,0,0,1-3.025,4.533,4.746,4.746,0,0,1,1.783.905,4.735,4.735,0,0,1,1.736,3.329q.167,2.271.333,4.18C940.014-352,940.115-351.041,940.226-350.176Zm-29.882-1.755,0,0Zm16.12-3.773h0Z" transform="translate(-902.047 400.206)"/></g><g transform="translate(110.74 0.561)"><path d="M1000.32-388.277a34.866,34.866,0,0,1,6.157-1.575,32.824,32.824,0,0,1,6.663-.393,21.858,21.858,0,0,1,6.579,1.293,18.978,18.978,0,0,1,5.877,3.458,18.6,18.6,0,0,1,4.554,6.13,18.707,18.707,0,0,1,1.968,6.635,23.1,23.1,0,0,1-.422,7.394,28.7,28.7,0,0,1-2.839,7.563,31.537,31.537,0,0,1-5.257,7.085,37.171,37.171,0,0,1-7.675,5.96,41.421,41.421,0,0,1-10.065,4.217,7.6,7.6,0,0,1-6.016-.506,29.59,29.59,0,0,1-2.756-1.546q-1.181-.759-2.7-1.883-.561-.507-1.068-.984a4.991,4.991,0,0,1-.872-1.1,3.916,3.916,0,0,1-.478-1.518,9.78,9.78,0,0,1,.056-2.305l3.261-35.706A34.735,34.735,0,0,1,1000.32-388.277Zm10.037,34.469a28.76,28.76,0,0,0,5.173-5.482,23.642,23.642,0,0,0,3.036-5.736,20.293,20.293,0,0,0,1.181-5.342,10.125,10.125,0,0,0-.788-5.341,6.307,6.307,0,0,0-3.542-2.868,9.328,9.328,0,0,0-6.185.225q-1.969,7.367-3.486,14.536t-2.924,14.479A30.034,30.034,0,0,0,1010.357-353.808Z" transform="translate(-987.19 395.009)"/><path d="M999.266-339.639a13.2,13.2,0,0,1-5.745-1.377l-.061-.029a34.4,34.4,0,0,1-3.2-1.8c-.877-.563-1.871-1.257-2.957-2.062q-.182-.135-.351-.287-.606-.547-1.153-1.063a9.726,9.726,0,0,1-1.69-2.122,8.631,8.631,0,0,1-1.1-3.34,14.176,14.176,0,0,1,.044-3.391l3.256-35.643a4.735,4.735,0,0,1,2.425-3.713A39.559,39.559,0,0,1,994.454-397h0a39.823,39.823,0,0,1,6.99-1.791,37.721,37.721,0,0,1,7.624-.451,26.671,26.671,0,0,1,8,1.572,23.794,23.794,0,0,1,7.338,4.309,23.34,23.34,0,0,1,5.713,7.608,23.528,23.528,0,0,1,2.442,8.242,27.944,27.944,0,0,1-.5,8.9,33.549,33.549,0,0,1-3.3,8.811,36.414,36.414,0,0,1-6.037,8.148,42.077,42.077,0,0,1-8.645,6.725,46.26,46.26,0,0,1-11.074,4.669A11.7,11.7,0,0,1,999.266-339.639ZM1008.671-388a11.679,11.679,0,0,1,4.155.732,10.919,10.919,0,0,1,6.054,5.082,14.5,14.5,0,0,1,1.327,7.866,25.1,25.1,0,0,1-1.44,6.608,28.488,28.488,0,0,1-3.633,6.89,33.6,33.6,0,0,1-6.016,6.395h0a34.316,34.316,0,0,1-7.9,4.835,36.206,36.206,0,0,0,8.024-3.466,32.609,32.609,0,0,0,6.706-5.2,26.953,26.953,0,0,0,4.477-6.021,24.112,24.112,0,0,0,2.382-6.317,18.485,18.485,0,0,0,.343-5.886,14.089,14.089,0,0,0-1.464-4.97l-.056-.111a14.01,14.01,0,0,0-3.371-4.6,14.134,14.134,0,0,0-4.415-2.607,17.214,17.214,0,0,0-5.159-1.013,28.232,28.232,0,0,0-5.7.336,30.324,30.324,0,0,0-5.322,1.358q-1.152.414-2.16.849l-3.019,33.053c0,.044-.009.089-.014.134a7.645,7.645,0,0,0-.067,1c.236.223.478.446.729.672q.617.455,1.171.84a4.734,4.734,0,0,1-.387-2.956c.934-4.86,1.923-9.761,2.941-14.567,1.025-4.843,2.217-9.815,3.544-14.777a4.734,4.734,0,0,1,3.118-3.283A16.824,16.824,0,0,1,1008.671-388Zm-20.91,33.389h0Zm18.331-3.458h0Zm2.7-20.459c-.986,3.846-1.885,7.679-2.679,11.431q-.335,1.579-.664,3.17a20.949,20.949,0,0,0,1.948-2.355,19.017,19.017,0,0,0,2.44-4.581,15.694,15.694,0,0,0,.921-4.087,5.793,5.793,0,0,0-.248-2.8,2.091,2.091,0,0,0-1.032-.654A2.177,2.177,0,0,0,1008.793-378.532Z" transform="translate(-982.925 399.273)"/></g><g transform="translate(150.885 1.111)"><path d="M1088.211-383.817a3.933,3.933,0,0,1-.084,2.305q-.788,2.53-1.715,5.792t-1.856,6.888q-.928,3.626-1.828,7.422t-1.743,7.422q-.844,3.627-1.547,6.86t-1.209,5.763a2.045,2.045,0,0,1-.759,1.237,3.066,3.066,0,0,1-1.94-.056q-1.462-.394-2.784-.787a13.859,13.859,0,0,1-2.5-1.012,3.553,3.553,0,0,1-1.715-1.434,4.012,4.012,0,0,1-.254-2.277q.114-1.967.478-5.089t.9-6.831q.535-3.711,1.209-7.816t1.377-8.041q.7-3.935,1.434-7.451t1.349-6.157a2.935,2.935,0,0,1,1.378-2,4.146,4.146,0,0,1,2.615.14,24.45,24.45,0,0,1,3.767,1.349,23.829,23.829,0,0,1,3.543,1.912A4.973,4.973,0,0,1,1088.211-383.817Z" transform="translate(-1063.496 393.962)"/><path d="M1072.553-339.533a10.454,10.454,0,0,1-2.351-.3c-.055-.013-.11-.026-.165-.041-.995-.268-1.971-.544-2.9-.821a18.74,18.74,0,0,1-3.278-1.319,8.078,8.078,0,0,1-3.8-3.492,8.5,8.5,0,0,1-.767-4.846c.084-1.384.25-3.147.5-5.244.25-2.125.558-4.466.916-6.956.364-2.526.776-5.186,1.223-7.91.455-2.771.923-5.5,1.389-8.106.475-2.663.967-5.214,1.459-7.582.5-2.383.958-4.494,1.375-6.273.026-.109.055-.217.088-.325a7.349,7.349,0,0,1,4.067-4.957,8.422,8.422,0,0,1,5.7-.061,29.463,29.463,0,0,1,4.438,1.589,28.747,28.747,0,0,1,4.248,2.3,9.094,9.094,0,0,1,3.662,4.06l0,.01a8.311,8.311,0,0,1,.09,5.215c-.019.075-.04.15-.064.224-.507,1.626-1.057,3.483-1.682,5.679-.605,2.128-1.219,4.4-1.823,6.766-.618,2.416-1.226,4.885-1.807,7.34q-.9,3.788-1.739,7.4c-.559,2.405-1.074,4.691-1.531,6.793s-.856,4-1.193,5.687c-.027.139-.062.276-.1.412a6.545,6.545,0,0,1-2.89,3.972A5.959,5.959,0,0,1,1072.553-339.533Zm-3.782-10.626a9.581,9.581,0,0,0,1.062.385l.144.043q.27-1.281.572-2.668c.466-2.145.992-4.475,1.561-6.926q.847-3.638,1.748-7.443c.594-2.507,1.215-5.033,1.848-7.5.625-2.443,1.259-4.8,1.889-7.01.53-1.864,1.011-3.5,1.458-4.966a20.49,20.49,0,0,0-2.455-1.277c-.59-.262-1.157-.489-1.7-.68-.27,1.211-.556,2.543-.854,3.981-.475,2.281-.949,4.743-1.409,7.319s-.917,5.248-1.366,7.976c-.438,2.662-.84,5.26-1.194,7.724-.347,2.408-.644,4.665-.884,6.708C1068.993-352.766,1068.85-351.311,1068.771-350.159ZM1080-385.564h0Z" transform="translate(-1059.233 398.227)"/></g><g transform="translate(168.283 1.053)"><path d="M1129.807-373.973q1.659-7.14,3.29-13.158a2.828,2.828,0,0,1,1.378-2.024,4.5,4.5,0,0,1,2.727.056q.843.226,1.518.394a8.523,8.523,0,0,1,1.322.45q.645.282,1.377.675t1.687,1.012a3.51,3.51,0,0,1,1.827,2.052,5.3,5.3,0,0,1-.253,2.5q-1.294,4.162-2.7,9.447t-2.784,10.74q-1.379,5.455-2.643,10.656t-2.165,9.137q-.336,2.136-3.373,1.462a37.143,37.143,0,0,1-5.286-1.462,5.949,5.949,0,0,1-3.487-3.374q-.788-1.742-1.6-4.048t-1.659-4.976q-.843-2.67-1.687-5.567t-1.575-5.82q-.619,3.487-1.265,6.973t-1.237,6.663q-.59,3.178-1.068,5.9t-.759,4.751a1.691,1.691,0,0,1-.731,1.209,3.241,3.241,0,0,1-1.968-.14q-1.349-.338-2.727-.7a10.085,10.085,0,0,1-2.671-1.153,3.566,3.566,0,0,1-1.659-1.434,4.3,4.3,0,0,1-.309-2.277q.113-1.518.365-4.33t.675-6.382q.422-3.57.956-7.647t1.153-8.125q.619-4.049,1.265-7.816t1.265-6.691a2.745,2.745,0,0,1,1.405-2.109,4.428,4.428,0,0,1,2.756.028q2.08.619,4.048,1.237a32.2,32.2,0,0,1,4.105,1.63,5.354,5.354,0,0,1,2.474,1.828,8.242,8.242,0,0,1,1.068,3.233q.281,1.632.731,4.161t1.012,5.482q.561,2.952,1.181,6.073t1.237,5.989Q1128.148-366.831,1129.807-373.973Z" transform="translate(-1096.568 394.073)"/><path d="M1105.854-339.748a10.185,10.185,0,0,1-2.613-.393q-1.363-.341-2.754-.71a14.846,14.846,0,0,1-3.758-1.589,8.063,8.063,0,0,1-3.564-3.4,8.766,8.766,0,0,1-.824-4.812q.114-1.531.37-4.393c.172-1.909.4-4.1.689-6.513.276-2.345.6-4.938.963-7.706s.756-5.534,1.167-8.226c.423-2.766.853-5.425,1.279-7.9.437-2.554.874-4.866,1.3-6.871.007-.031.013-.062.021-.093a7.2,7.2,0,0,1,4.2-5.405,8.968,8.968,0,0,1,5.758-.186c.057.015.114.031.17.047q2.114.63,4.115,1.257a36.984,36.984,0,0,1,4.624,1.827,9.907,9.907,0,0,1,4.476,3.522,11.2,11.2,0,0,1,1.5,3.587q.65-2.557,1.293-4.927a7.28,7.28,0,0,1,4.095-5.142,8.852,8.852,0,0,1,5.727-.18l.076.019q.8.214,1.442.374a13.323,13.323,0,0,1,2.061.7c.552.242,1.133.525,1.732.847s1.261.719,1.983,1.185a7.912,7.912,0,0,1,3.944,5.168,9.945,9.945,0,0,1-.379,4.776c-.846,2.724-1.736,5.838-2.648,9.271-.927,3.487-1.859,7.081-2.768,10.683-.887,3.508-1.773,7.079-2.633,10.616-.824,3.384-1.537,6.4-2.123,8.954a6.5,6.5,0,0,1-2.708,4.257,7.823,7.823,0,0,1-6.272.9,42.153,42.153,0,0,1-5.9-1.635l-.124-.046a10.682,10.682,0,0,1-6.12-5.894c-.333-.739-.67-1.548-1.009-2.421q-.041.236-.082.469c-.31,1.767-.556,3.31-.732,4.585-.021.148-.048.294-.083.439a6.18,6.18,0,0,1-3.221,4.355A5.862,5.862,0,0,1,1105.854-339.748Zm-4.078-9.872Zm21.346-1.116c1,.351,1.989.651,2.961.9.475-2.031,1.013-4.28,1.605-6.717.868-3.564,1.76-7.163,2.653-10.7.92-3.641,1.861-7.274,2.8-10.8.891-3.353,1.765-6.426,2.6-9.142-.312-.192-.592-.355-.838-.488-.363-.195-.709-.365-1.02-.5a3.753,3.753,0,0,0-.579-.2l-.356-.089c-.92,3.473-1.859,7.27-2.8,11.3h0c-1.073,4.617-1.985,9.378-2.715,14.15A4.734,4.734,0,0,1,1122.9-359a4.746,4.746,0,0,1-3.9-1.842q.112.361.224.717c.549,1.738,1.09,3.36,1.608,4.822.5,1.411.986,2.647,1.453,3.677.019.041.037.083.054.124A1.226,1.226,0,0,0,1123.122-350.736Zm-21.3.3a5.081,5.081,0,0,0,1.092.432l.071.019q.112-.666.236-1.376.48-2.748,1.077-5.952l1.237-6.663q.642-3.466,1.258-6.937a4.734,4.734,0,0,1,4.5-3.9,4.718,4.718,0,0,1,4.757,3.584c.419,1.675.873,3.367,1.352,5.037q-.262-1.278-.525-2.6-.623-3.138-1.188-6.109c-.372-1.949-.716-3.814-1.022-5.539q-.454-2.543-.736-4.186c0-.021-.007-.042-.01-.063a6.615,6.615,0,0,0-.292-1.235,3.275,3.275,0,0,0-.407-.2q-.1-.041-.193-.086a27.668,27.668,0,0,0-3.5-1.394q-1.248-.391-2.544-.784c-.277,1.408-.559,2.949-.842,4.6-.417,2.424-.837,5.025-1.252,7.733-.4,2.626-.784,5.327-1.139,8.026-.356,2.727-.676,5.28-.948,7.586-.275,2.327-.5,4.431-.661,6.252Q1101.932-351.864,1101.821-350.437Zm-.792-.443h0Zm24.511-27.357h0Z" transform="translate(-1092.303 398.338)"/></g><g transform="translate(207.575)"><path d="M1212.32-367.416a3.193,3.193,0,0,1-1.94.253,10.331,10.331,0,0,1-5.763-2.3,7.082,7.082,0,0,1-2.109-4.611,7.537,7.537,0,0,1-.141-1.1,7.938,7.938,0,0,1,.028-1.153c0-.412-.02-.806-.057-1.181s-.075-.749-.112-1.124q-.226-1.068-.421-1.8a1.158,1.158,0,0,0-.76-.9,3.01,3.01,0,0,0-2.671.928,16.99,16.99,0,0,0-3.148,3.627,44.2,44.2,0,0,0-3.121,5.482,47.755,47.755,0,0,0-2.586,6.495,29.507,29.507,0,0,0-1.378,5.539,27.241,27.241,0,0,0-.309,5.257,12.974,12.974,0,0,0,.787,4.133,3.262,3.262,0,0,0,1.855,2.108,2.784,2.784,0,0,0,2.109-.168,7.218,7.218,0,0,0,2.164-1.631,17.618,17.618,0,0,0,2.081-2.727,35.334,35.334,0,0,0,1.911-3.458,7.94,7.94,0,0,1-5.2-1.181,9,9,0,0,1-2.9-4.555,1.41,1.41,0,0,1,.027-1.153,1.735,1.735,0,0,1,.872-.674,6.815,6.815,0,0,1,1.518-.394q.9-.14,2.025-.309a43.5,43.5,0,0,1,4.33-.7q2.248-.253,3.88-.534a7.991,7.991,0,0,1,3.093.028,4.514,4.514,0,0,1,2.193,1.434,19.262,19.262,0,0,1,1.265,1.518l1.1,1.462a4.272,4.272,0,0,1,.984,2.305,7.223,7.223,0,0,1-.478,2.474,35.528,35.528,0,0,1-4.78,8.491,21.28,21.28,0,0,1-5.849,5.286,13.068,13.068,0,0,1-4.274,1.49,15.945,15.945,0,0,1-4.723.028,30.833,30.833,0,0,1-8.434-2.362,13.07,13.07,0,0,1-2.84-2.109,10.561,10.561,0,0,1-2.165-2.9,17.467,17.467,0,0,1-2.024-5.932,30.584,30.584,0,0,1-.281-7.225,41.739,41.739,0,0,1,1.349-7.788,43.116,43.116,0,0,1,2.9-7.7,41.108,41.108,0,0,1,4.33-7,27.846,27.846,0,0,1,5.651-5.567,8.484,8.484,0,0,1,2.193-1.237,10.983,10.983,0,0,1,2.39-.619,17.255,17.255,0,0,1,2.39-.168,13.354,13.354,0,0,1,2.193.168,22.031,22.031,0,0,1,2.98.562,30.17,30.17,0,0,1,2.952.928,19.806,19.806,0,0,1,2.7,1.237,14.722,14.722,0,0,1,2.277,1.546,8.832,8.832,0,0,1,2.7,3.318,14.6,14.6,0,0,1,1.068,4.049q.056,1.181.028,2.643t-.169,2.924q-.141,1.463-.337,2.811t-.422,2.249A2.948,2.948,0,0,1,1212.32-367.416Z" transform="translate(-1171.253 396.075)"/><path d="M1189.88-340.1a21.886,21.886,0,0,1-2.959-.2,35.632,35.632,0,0,1-9.7-2.717c-.116-.051-.23-.107-.342-.167a17.83,17.83,0,0,1-3.875-2.862,15.329,15.329,0,0,1-3.056-4.064,22.34,22.34,0,0,1-2.527-7.407,35.451,35.451,0,0,1-.332-8.345,46.7,46.7,0,0,1,1.5-8.673,48.016,48.016,0,0,1,3.213-8.55,46.019,46.019,0,0,1,4.829-7.806,32.728,32.728,0,0,1,6.558-6.466,13.259,13.259,0,0,1,3.352-1.878,15.812,15.812,0,0,1,3.425-.885,20.505,20.505,0,0,1,5.894,0,26.92,26.92,0,0,1,3.509.668,35.277,35.277,0,0,1,3.419,1.075,24.761,24.761,0,0,1,3.345,1.535,19.593,19.593,0,0,1,2.968,2.013,13.5,13.5,0,0,1,4.047,5.09,19.383,19.383,0,0,1,1.429,5.359c.015.122.026.245.032.367.042.892.053,1.887.032,2.955-.022,1.1-.086,2.2-.19,3.286-.1,1.042-.222,2.065-.364,3.042-.158,1.074-.326,1.959-.514,2.713-.035.142-.077.281-.125.418a7.367,7.367,0,0,1-2.721,3.832h0l-.111.074a8.739,8.739,0,0,1,1.774,4.8,11.708,11.708,0,0,1-.736,4.159q-.044.128-.1.254a40.4,40.4,0,0,1-5.438,9.618,26.057,26.057,0,0,1-7.165,6.436l-.1.06a17.866,17.866,0,0,1-5.812,2.024A19.737,19.737,0,0,1,1189.88-340.1Zm6.484-24.252a4.735,4.735,0,0,1,2.061,1.729,4.735,4.735,0,0,1,.311,4.68,40.3,40.3,0,0,1-2.168,3.919,22.428,22.428,0,0,1-2.651,3.46l-.165.171c.151-.072.3-.149.453-.232a16.75,16.75,0,0,0,4.478-4.1,30.824,30.824,0,0,0,4.066-7.228c.042-.128.075-.237.1-.33l-1.054-1.406a14.732,14.732,0,0,0-.957-1.147l-.04-.044-.026-.028a6.154,6.154,0,0,0-1,.076C1198.776-364.668,1197.655-364.508,1196.364-364.355Zm-3.35-26.516a12.515,12.515,0,0,0-1.734.123,6.177,6.177,0,0,0-1.362.355,3.748,3.748,0,0,0-.97.549c-.036.028-.072.056-.109.083a23.238,23.238,0,0,0-4.691,4.628,36.584,36.584,0,0,0-3.833,6.2,38.575,38.575,0,0,0-2.578,6.858,37.2,37.2,0,0,0-1.2,6.9,25.963,25.963,0,0,0,.23,6.107,12.869,12.869,0,0,0,1.453,4.335c.047.081.092.164.134.248a5.8,5.8,0,0,0,1.208,1.6q.155.149.31.287a17.9,17.9,0,0,1-1.035-5.449,32.044,32.044,0,0,1,.356-6.173,34.369,34.369,0,0,1,1.572-6.348,52.629,52.629,0,0,1,2.818-7.061,49.168,49.168,0,0,1,3.461-6.07,21.414,21.414,0,0,1,4.068-4.633,7.985,7.985,0,0,1,5.445-2.066,17.017,17.017,0,0,0-1.893-.334c-.079-.009-.157-.02-.235-.033A8.73,8.73,0,0,0,1193.014-390.871Zm-4.191,35.14Zm0,0Zm4.9-20.818c-.548.938-1.093,1.961-1.628,3.061l-.079.164c.853-.142,1.723-.263,2.6-.361l.035,0A12.384,12.384,0,0,1,1193.727-376.549Zm5.859-12.924a5.969,5.969,0,0,1,2.525,3.536c.158.591.315,1.259.484,2.059a4.656,4.656,0,0,1,.08.522l.111,1.111c.054.541.08,1.095.08,1.653,0,.145-.007.29-.021.434a3.207,3.207,0,0,0-.015.466,2.773,2.773,0,0,0,.054.412,4.631,4.631,0,0,1,.071.476,2.374,2.374,0,0,0,.663,1.645,3.218,3.218,0,0,0,1.166.6c.093-.682.175-1.394.244-2.119.081-.848.131-1.711.148-2.567.015-.778.009-1.5-.016-2.135a9.771,9.771,0,0,0-.685-2.565,4.348,4.348,0,0,0-1.305-1.507c-.03-.023-.059-.046-.087-.07a10.03,10.03,0,0,0-1.548-1.045A15.1,15.1,0,0,0,1199.586-389.473Zm-2.292,8.331Z" transform="translate(-1166.988 400.34)"/></g><g transform="translate(5.788 3.573)"><path class="a" d="M1014.639-328.387a30.006,30.006,0,0,0,7.535-4.47,28.748,28.748,0,0,0,5.173-5.482,24.036,24.036,0,0,0,2.864-5.275q-3.529.026-7.1.028-2.708,0-5.391-.017c-.053.246-.109.493-.161.738Q1016.044-335.7,1014.639-328.387Z" transform="translate(-893.002 369.884)"/><path class="a" d="M1150.936-341.053q.537-3.518,1.2-6.983-1.29.1-2.593.194c.053.268.1.53.157.8Q1150.317-343.921,1150.936-341.053Z" transform="translate(-956.933 371.98)"/><path class="a" d="M951.111-340.567q2.558-.28,5.145-.45-.05-2.015-.086-4.024-3.739-.14-7.406-.308-1.367,2.68-2.741,5.457Q948.553-340.285,951.111-340.567Z" transform="translate(-860.485 370.706)"/><path class="a" d="M866.277-341.95a32.281,32.281,0,0,0-.225,5.285,13.325,13.325,0,0,0,.787,4.189,3.224,3.224,0,0,0,1.968,2.137,2.7,2.7,0,0,0,2.474-.506,10.928,10.928,0,0,0,2.587-2.755,25.3,25.3,0,0,0,2.446-4.583,44.057,44.057,0,0,0,2-5.932,46.36,46.36,0,0,0,1.18-5.82c.015-.1.025-.2.039-.307q-5.539-.49-10.793-1.051c-.521,1.318-.97,2.606-1.335,3.86A32.627,32.627,0,0,0,866.277-341.95Z" transform="translate(-822.573 373.523)"/><path class="b" d="M787.72-363.707q-.787,3.711-1.461,7.451t-1.237,7.225q-.562,3.487-.956,6.494t-.562,5.2a3.815,3.815,0,0,0,.281,2.39,5.641,5.641,0,0,0,1.461,1.771q1.295,1.012,2.081,1.659a18.815,18.815,0,0,0,1.743,1.265,7.436,7.436,0,0,0,.815.506,4.226,4.226,0,0,0,1.041.366,5.163,5.163,0,0,0,1.461.084,11.007,11.007,0,0,0,2.081-.394q3.374-.675,7.113-1.378t7.282-1.378q1.742-.337,1.94-.731a2.469,2.469,0,0,0-.2-1.574,13.791,13.791,0,0,0-.646-2,11.559,11.559,0,0,0-1.1-2.052,3.213,3.213,0,0,0-1.49-1.377,5.9,5.9,0,0,0-2.39-.2q-2.644.168-4.892.394t-4.836.674q.9-3.879,1.94-8.125t2.193-8.519c.479-1.776.958-3.512,1.436-5.229-4.707-.826-9.083-1.7-13.084-2.626Z" transform="translate(-783.434 379.452)"/><path class="b" d="M868.622-351.365a46.371,46.371,0,0,1-1.181,5.82,44.044,44.044,0,0,1-2,5.932A25.294,25.294,0,0,1,863-335.03a10.925,10.925,0,0,1-2.587,2.755,2.7,2.7,0,0,1-2.474.506,3.224,3.224,0,0,1-1.968-2.137,13.325,13.325,0,0,1-.787-4.189,32.294,32.294,0,0,1,.225-5.285,32.626,32.626,0,0,1,1.124-5.482c.365-1.254.814-2.542,1.335-3.86q-6.918-.737-13.306-1.588c-.233.826-.447,1.656-.624,2.5a38.513,38.513,0,0,0-.843,7.338,31.362,31.362,0,0,0,.618,6.86,22.385,22.385,0,0,0,2.024,5.848,9.61,9.61,0,0,0,2.305,2.811,16.045,16.045,0,0,0,2.98,2.024,16.28,16.28,0,0,0,4.1,1.434,42.711,42.711,0,0,0,4.386.7,16.9,16.9,0,0,0,5.679-.253,12.378,12.378,0,0,0,4.723-2.334,25.647,25.647,0,0,0,5.594-7.141,43.108,43.108,0,0,0,3.6-8.969,48.678,48.678,0,0,0,1.437-7.236q-6.081-.432-11.885-.943C868.647-351.568,868.637-351.469,868.622-351.365Z" transform="translate(-811.705 374.953)"/><path class="b" d="M940.629-341.592q-2.588.169-5.145.45t-5.089.675q1.375-2.779,2.741-5.457-6.075-.279-11.938-.638-2.307,5.159-4.327,10.031-2.164,5.229-3.514,9.109a6.353,6.353,0,0,0-.309,1.884,2.32,2.32,0,0,0,.309,1.153,2.345,2.345,0,0,0,.787.759q.506.309,1.181.759.9.451,1.771.815t1.6.647a3.645,3.645,0,0,0,1.94.281,1.849,1.849,0,0,0,1.1-1.124q.787-1.8,1.63-3.683t1.968-4.077a64.967,64.967,0,0,1,7.394-1.434q4.189-.59,8.406-1.153.168,2.307.337,4.246t.393,3.571a4.383,4.383,0,0,0,.759,2.193,3.9,3.9,0,0,0,1.884,1.012,9.67,9.67,0,0,0,2.53.534q1.237.084,2.7.085a3,3,0,0,0,1.884-.393,1.882,1.882,0,0,0,.422-1.406q-.057-4.836-.028-10.487t.14-11.274c.005-.25.011-.493.017-.742q-5.89-.143-11.63-.357Q940.58-343.606,940.629-341.592Z" transform="translate(-844.857 371.281)"/><path class="b" d="M1017.53-338.51a28.745,28.745,0,0,1-5.173,5.482,30,30,0,0,1-7.535,4.47q1.4-7.308,2.923-14.479c.052-.245.109-.492.162-.738q-6.353-.036-12.57-.154l-1.312,14.359a9.787,9.787,0,0,0-.056,2.306,3.923,3.923,0,0,0,.478,1.518,5.015,5.015,0,0,0,.872,1.1q.506.478,1.068.984,1.518,1.125,2.7,1.883a29.482,29.482,0,0,0,2.756,1.547,7.6,7.6,0,0,0,6.016.506,41.421,41.421,0,0,0,10.065-4.218,37.17,37.17,0,0,0,7.675-5.96,31.514,31.514,0,0,0,5.257-7.085,28.981,28.981,0,0,0,2.7-6.982q-6.5.14-13.165.189A24.036,24.036,0,0,1,1017.53-338.51Z" transform="translate(-883.186 370.055)"/><path class="b" d="M1071.655-337.761q-.533,3.711-.9,6.832t-.478,5.089a4.007,4.007,0,0,0,.254,2.277,3.553,3.553,0,0,0,1.715,1.434,13.9,13.9,0,0,0,2.5,1.012q1.321.392,2.784.787a3.066,3.066,0,0,0,1.94.056,2.048,2.048,0,0,0,.759-1.237q.507-2.531,1.209-5.764t1.547-6.86q.844-3.627,1.743-7.422c.266-1.122.534-2.229.8-3.329q-6.328.249-12.847.411Q1072.12-340.973,1071.655-337.761Z" transform="translate(-919.347 370.486)"/><path class="b" d="M1105.323-345.208q-.533,4.078-.956,7.647t-.675,6.382q-.253,2.812-.365,4.329a4.3,4.3,0,0,0,.309,2.277,3.563,3.563,0,0,0,1.659,1.434,10.085,10.085,0,0,0,2.67,1.153q1.377.365,2.727.7a3.249,3.249,0,0,0,1.968.14,1.69,1.69,0,0,0,.731-1.209q.281-2.025.759-4.752t1.069-5.9q.59-3.176,1.237-6.664.625-3.375,1.225-6.751-6.026.357-12.28.633C1105.376-345.595,1105.348-345.4,1105.323-345.208Z" transform="translate(-935.021 371.214)"/><path class="b" d="M1142.061-342.012q-.619-2.868-1.237-5.989c-.054-.271-.1-.532-.157-.8q-4.842.352-9.852.651.708,2.815,1.519,5.6.844,2.9,1.687,5.567T1135.68-332q.814,2.307,1.6,4.049a5.949,5.949,0,0,0,3.486,3.374,37.218,37.218,0,0,0,5.286,1.462q3.037.675,3.373-1.462.9-3.936,2.165-9.137t2.643-10.656q.725-2.867,1.456-5.685-6.046.577-12.432,1.064Q1142.6-345.529,1142.061-342.012Z" transform="translate(-948.059 372.938)"/><path class="b" d="M1231.019-355.653a10.331,10.331,0,0,0,5.763,2.305,3.2,3.2,0,0,0,1.94-.253,2.949,2.949,0,0,0,.928-1.49q.224-.9.421-2.249c.113-.771.208-1.575.293-2.4q-5.16.955-10.885,1.82A6.537,6.537,0,0,0,1231.019-355.653Z" transform="translate(-994.816 377.527)"/><path class="b" d="M1178.08-344.383a30.592,30.592,0,0,0,.281,7.225,17.479,17.479,0,0,0,2.024,5.932,10.557,10.557,0,0,0,2.165,2.9,13.052,13.052,0,0,0,2.84,2.109,30.8,30.8,0,0,0,8.434,2.362,15.93,15.93,0,0,0,4.723-.028,13.071,13.071,0,0,0,4.274-1.49,21.276,21.276,0,0,0,5.849-5.285,35.528,35.528,0,0,0,4.78-8.491,7.22,7.22,0,0,0,.478-2.474,4.27,4.27,0,0,0-.984-2.305l-1.1-1.462a19.364,19.364,0,0,0-1.265-1.518,4.513,4.513,0,0,0-2.193-1.434,8,8,0,0,0-3.092-.028q-1.632.282-3.88.534a43.635,43.635,0,0,0-4.33.7q-1.126.169-2.025.309a6.871,6.871,0,0,0-1.518.393,1.736,1.736,0,0,0-.872.675,1.41,1.41,0,0,0-.027,1.153,9,9,0,0,0,2.9,4.555,7.943,7.943,0,0,0,5.2,1.181,35.448,35.448,0,0,1-1.911,3.458,17.626,17.626,0,0,1-2.081,2.727,7.208,7.208,0,0,1-2.164,1.631,2.782,2.782,0,0,1-2.109.169,3.264,3.264,0,0,1-1.855-2.109,12.971,12.971,0,0,1-.788-4.133,27.244,27.244,0,0,1,.309-5.257,29.526,29.526,0,0,1,1.378-5.539,47.845,47.845,0,0,1,2.059-5.357q-6.843.849-14.262,1.573A41.508,41.508,0,0,0,1178.08-344.383Z" transform="translate(-970.413 374.466)"/><path class="c" d="M1130.633-346.62l.1-.005c-.018-.072-.038-.144-.056-.216C1130.66-346.767,1130.646-346.694,1130.633-346.62Z" transform="translate(-947.972 371.413)"/><path class="b" d="M807.85-385.564a3.1,3.1,0,0,0,.141-2.249,5.7,5.7,0,0,0-1.827-1.856,19.561,19.561,0,0,0-3.543-1.828,30.948,30.948,0,0,0-3.767-1.265,4.56,4.56,0,0,0-2.615-.2q-.872.309-1.433,1.94-.788,2.868-1.6,6.3-.8,3.385-1.582,7.045c4,.923,8.377,1.8,13.084,2.626.29-1.038.579-2.076.869-3.093Q806.725-382.19,807.85-385.564Z" transform="translate(-787.313 393.324)"/><path class="c" d="M807.85-385.564a3.1,3.1,0,0,0,.141-2.249,5.7,5.7,0,0,0-1.827-1.856,19.561,19.561,0,0,0-3.543-1.828,30.948,30.948,0,0,0-3.767-1.265,4.56,4.56,0,0,0-2.615-.2q-.872.309-1.433,1.94-.788,2.868-1.6,6.3-.8,3.385-1.582,7.045c4,.923,8.377,1.8,13.084,2.626.29-1.038.579-2.076.869-3.093Q806.725-382.19,807.85-385.564Z" transform="translate(-787.313 393.324)"/><path class="b" d="M881.813-380.018a16.1,16.1,0,0,0-1.434-4.414,11.666,11.666,0,0,0-3.121-3.683,17.346,17.346,0,0,0-4.807-2.587,32.073,32.073,0,0,0-6.1-1.574,11.885,11.885,0,0,0-5.2.394,13.919,13.919,0,0,0-4.7,2.305,31.04,31.04,0,0,0-5.145,5.708,37.435,37.435,0,0,0-3.739,6.719,38.808,38.808,0,0,0-1.681,4.785q6.379.851,13.306,1.588c.226-.573.462-1.15.718-1.735a41.565,41.565,0,0,1,2.727-5.257,18.518,18.518,0,0,1,2.924-3.74q1.462-1.377,2.643-.984,1.123.337,1.658,2.333a18.807,18.807,0,0,1,.535,4.808,42.207,42.207,0,0,1-.411,5.625q5.8.512,11.885.943.14-1.16.222-2.323A40.766,40.766,0,0,0,881.813-380.018Z" transform="translate(-813.031 393.007)"/><path class="c" d="M881.813-380.018a16.1,16.1,0,0,0-1.434-4.414,11.666,11.666,0,0,0-3.121-3.683,17.346,17.346,0,0,0-4.807-2.587,32.073,32.073,0,0,0-6.1-1.574,11.885,11.885,0,0,0-5.2.394,13.919,13.919,0,0,0-4.7,2.305,31.04,31.04,0,0,0-5.145,5.708,37.435,37.435,0,0,0-3.739,6.719,38.808,38.808,0,0,0-1.681,4.785q6.379.851,13.306,1.588c.226-.573.462-1.15.718-1.735a41.565,41.565,0,0,1,2.727-5.257,18.518,18.518,0,0,1,2.924-3.74q1.462-1.377,2.643-.984,1.123.337,1.658,2.333a18.807,18.807,0,0,1,.535,4.808,42.207,42.207,0,0,1-.411,5.625q5.8.512,11.885.943.14-1.16.222-2.323A40.766,40.766,0,0,0,881.813-380.018Z" transform="translate(-813.031 393.007)"/><path class="b" d="M960.4-386.681a5.009,5.009,0,0,0-.309-2.643,3.634,3.634,0,0,0-2.221-1.631q-1.294-.338-2.558-.731t-2.755-.731q-1.491-.338-3.29-.59t-4.1-.366a5.99,5.99,0,0,0-3.993.731,7.368,7.368,0,0,0-2.193,2.474q-2.362,4.217-4.976,9.643t-5.117,10.993c-.115.257-.226.509-.34.765q5.861.358,11.938.638,1.262-2.472,2.516-4.862,2.614-4.976,4.864-9.081-.114,4.5-.056,9.081.031,2.581.083,5.17,5.736.215,11.63.357.112-5.219.32-10.054Q960.061-382.688,960.4-386.681Z" transform="translate(-852.2 393.485)"/><path class="c" d="M960.4-386.681a5.009,5.009,0,0,0-.309-2.643,3.634,3.634,0,0,0-2.221-1.631q-1.294-.338-2.558-.731t-2.755-.731q-1.491-.338-3.29-.59t-4.1-.366a5.99,5.99,0,0,0-3.993.731,7.368,7.368,0,0,0-2.193,2.474q-2.362,4.217-4.976,9.643t-5.117,10.993c-.115.257-.226.509-.34.765q5.861.358,11.938.638,1.262-2.472,2.516-4.862,2.614-4.976,4.864-9.081-.114,4.5-.056,9.081.031,2.581.083,5.17,5.736.215,11.63.357.112-5.219.32-10.054Q960.061-382.688,960.4-386.681Z" transform="translate(-852.2 393.485)"/><path class="b" d="M1035.39-374.936a18.711,18.711,0,0,0-1.968-6.635,18.6,18.6,0,0,0-4.554-6.129,18.987,18.987,0,0,0-5.877-3.459,21.857,21.857,0,0,0-6.579-1.293,32.786,32.786,0,0,0-6.663.394,34.911,34.911,0,0,0-6.157,1.574,34.792,34.792,0,0,0-5.033,2.221l-1.95,21.347q6.214.118,12.57.154,1.462-6.811,3.325-13.8a9.325,9.325,0,0,1,6.185-.225,6.309,6.309,0,0,1,3.542,2.868,10.124,10.124,0,0,1,.788,5.342,20.282,20.282,0,0,1-1.181,5.341c-.054.154-.114.307-.172.461q6.66-.05,13.166-.189c.047-.194.095-.387.136-.58A23.091,23.091,0,0,0,1035.39-374.936Z" transform="translate(-884.458 393.042)"/><path class="c" d="M1035.39-374.936a18.711,18.711,0,0,0-1.968-6.635,18.6,18.6,0,0,0-4.554-6.129,18.987,18.987,0,0,0-5.877-3.459,21.857,21.857,0,0,0-6.579-1.293,32.786,32.786,0,0,0-6.663.394,34.911,34.911,0,0,0-6.157,1.574,34.792,34.792,0,0,0-5.033,2.221l-1.95,21.347q6.214.118,12.57.154,1.462-6.811,3.325-13.8a9.325,9.325,0,0,1,6.185-.225,6.309,6.309,0,0,1,3.542,2.868,10.124,10.124,0,0,1,.788,5.342,20.282,20.282,0,0,1-1.181,5.341c-.054.154-.114.307-.172.461q6.66-.05,13.166-.189c.047-.194.095-.387.136-.58A23.091,23.091,0,0,0,1035.39-374.936Z" transform="translate(-884.458 393.042)"/><path class="b" d="M1090.625-377.927q.928-3.26,1.715-5.791a3.935,3.935,0,0,0,.084-2.306,4.972,4.972,0,0,0-1.883-1.856,23.917,23.917,0,0,0-3.543-1.912,24.565,24.565,0,0,0-3.767-1.349,4.147,4.147,0,0,0-2.615-.141,2.936,2.936,0,0,0-1.378,2q-.62,2.644-1.349,6.158t-1.434,7.45q-.7,3.937-1.377,8.041c-.061.372-.119.735-.179,1.1q6.519-.161,12.847-.411c.338-1.38.679-2.748,1.024-4.094Q1089.7-374.665,1090.625-377.927Z" transform="translate(-921.559 392.546)"/><path class="c" d="M1090.625-377.927q.928-3.26,1.715-5.791a3.935,3.935,0,0,0,.084-2.306,4.972,4.972,0,0,0-1.883-1.856,23.917,23.917,0,0,0-3.543-1.912,24.565,24.565,0,0,0-3.767-1.349,4.147,4.147,0,0,0-2.615-.141,2.936,2.936,0,0,0-1.378,2q-.62,2.644-1.349,6.158t-1.434,7.45q-.7,3.937-1.377,8.041c-.061.372-.119.735-.179,1.1q6.519-.161,12.847-.411c.338-1.38.679-2.748,1.024-4.094Q1089.7-374.665,1090.625-377.927Z" transform="translate(-921.559 392.546)"/><path class="b" d="M1170.928-384.22a5.3,5.3,0,0,0,.252-2.5,3.511,3.511,0,0,0-1.827-2.052q-.957-.618-1.687-1.012t-1.377-.674a8.536,8.536,0,0,0-1.322-.45q-.676-.168-1.518-.393a4.509,4.509,0,0,0-2.727-.056,2.829,2.829,0,0,0-1.378,2.024q-1.631,6.018-3.29,13.158-.867,3.731-1.585,7.525,6.38-.488,12.432-1.064.661-2.545,1.327-5.055Q1169.633-380.059,1170.928-384.22Z" transform="translate(-959.269 392.599)"/><path class="c" d="M1170.928-384.22a5.3,5.3,0,0,0,.252-2.5,3.511,3.511,0,0,0-1.827-2.052q-.957-.618-1.687-1.012t-1.377-.674a8.536,8.536,0,0,0-1.322-.45q-.676-.168-1.518-.393a4.509,4.509,0,0,0-2.727-.056,2.829,2.829,0,0,0-1.378,2.024q-1.631,6.018-3.29,13.158-.867,3.731-1.585,7.525,6.38-.488,12.432-1.064.661-2.545,1.327-5.055Q1169.633-380.059,1170.928-384.22Z" transform="translate(-959.269 392.599)"/><path class="b" d="M1128.5-373.727q-.563-2.952-1.012-5.482t-.731-4.161a8.247,8.247,0,0,0-1.068-3.233,5.354,5.354,0,0,0-2.474-1.827,32.282,32.282,0,0,0-4.105-1.631q-1.969-.618-4.048-1.237a4.433,4.433,0,0,0-2.756-.028,2.744,2.744,0,0,0-1.405,2.109q-.62,2.925-1.265,6.691t-1.265,7.816q-.575,3.76-1.074,7.545,6.248-.275,12.28-.633c.013-.074.027-.147.04-.221.018.072.038.144.056.216q5.011-.3,9.852-.651C1129.165-370.252,1128.822-372.015,1128.5-373.727Z" transform="translate(-936.911 392.592)"/><path class="c" d="M1128.5-373.727q-.563-2.952-1.012-5.482t-.731-4.161a8.247,8.247,0,0,0-1.068-3.233,5.354,5.354,0,0,0-2.474-1.827,32.282,32.282,0,0,0-4.105-1.631q-1.969-.618-4.048-1.237a4.433,4.433,0,0,0-2.756-.028,2.744,2.744,0,0,0-1.405,2.109q-.62,2.925-1.265,6.691t-1.265,7.816q-.575,3.76-1.074,7.545,6.248-.275,12.28-.633c.013-.074.027-.147.04-.221.018.072.038.144.056.216q5.011-.3,9.852-.651C1129.165-370.252,1128.822-372.015,1128.5-373.727Z" transform="translate(-936.911 392.592)"/><path class="b" d="M1217.374-379.1q.027-1.462-.028-2.643a14.6,14.6,0,0,0-1.068-4.048,8.829,8.829,0,0,0-2.7-3.318,14.679,14.679,0,0,0-2.277-1.546,19.8,19.8,0,0,0-2.7-1.237,30.17,30.17,0,0,0-2.952-.927,21.944,21.944,0,0,0-2.98-.562,13.343,13.343,0,0,0-2.193-.169,17.246,17.246,0,0,0-2.39.169,10.983,10.983,0,0,0-2.39.618,8.5,8.5,0,0,0-2.193,1.237,27.845,27.845,0,0,0-5.651,5.567,41.093,41.093,0,0,0-4.33,7,43.11,43.11,0,0,0-2.9,7.7c-.042.155-.073.307-.113.461q7.409-.722,14.262-1.573c.173-.381.345-.762.527-1.137a44.205,44.205,0,0,1,3.121-5.482,16.994,16.994,0,0,1,3.148-3.627,3.01,3.01,0,0,1,2.671-.927,1.157,1.157,0,0,1,.76.9q.2.732.421,1.8.055.564.112,1.125c.037.375.057.769.057,1.181a7.938,7.938,0,0,0-.028,1.153,7.528,7.528,0,0,0,.141,1.1,8.216,8.216,0,0,0,.569,2.344q5.719-.865,10.886-1.82c.014-.138.031-.271.044-.411Q1217.345-377.635,1217.374-379.1Z" transform="translate(-971.611 393.548)"/><path class="c" d="M1217.374-379.1q.027-1.462-.028-2.643a14.6,14.6,0,0,0-1.068-4.048,8.829,8.829,0,0,0-2.7-3.318,14.679,14.679,0,0,0-2.277-1.546,19.8,19.8,0,0,0-2.7-1.237,30.17,30.17,0,0,0-2.952-.927,21.944,21.944,0,0,0-2.98-.562,13.343,13.343,0,0,0-2.193-.169,17.246,17.246,0,0,0-2.39.169,10.983,10.983,0,0,0-2.39.618,8.5,8.5,0,0,0-2.193,1.237,27.845,27.845,0,0,0-5.651,5.567,41.093,41.093,0,0,0-4.33,7,43.11,43.11,0,0,0-2.9,7.7c-.042.155-.073.307-.113.461q7.409-.722,14.262-1.573c.173-.381.345-.762.527-1.137a44.205,44.205,0,0,1,3.121-5.482,16.994,16.994,0,0,1,3.148-3.627,3.01,3.01,0,0,1,2.671-.927,1.157,1.157,0,0,1,.76.9q.2.732.421,1.8.055.564.112,1.125c.037.375.057.769.057,1.181a7.938,7.938,0,0,0-.028,1.153,7.528,7.528,0,0,0,.141,1.1,8.216,8.216,0,0,0,.569,2.344q5.719-.865,10.886-1.82c.014-.138.031-.271.044-.411Q1217.345-377.635,1217.374-379.1Z" transform="translate(-971.611 393.548)"/></g><g transform="translate(12.444 56.554)"><g transform="translate(0 0)"><g transform="translate(0 2.797)"><path d="M841.417-254.6a3.2,3.2,0,0,1-1.94.253,10.335,10.335,0,0,1-5.763-2.305,7.083,7.083,0,0,1-2.109-4.611,7.511,7.511,0,0,1-.141-1.1,7.929,7.929,0,0,1,.028-1.153c0-.412-.02-.806-.057-1.181s-.075-.75-.112-1.125q-.226-1.068-.422-1.8a1.155,1.155,0,0,0-.759-.9,3.008,3.008,0,0,0-2.671.927,17,17,0,0,0-3.148,3.627,44.236,44.236,0,0,0-3.121,5.483,47.744,47.744,0,0,0-2.586,6.495,29.512,29.512,0,0,0-1.378,5.539,27.246,27.246,0,0,0-.309,5.257,12.974,12.974,0,0,0,.788,4.133,3.264,3.264,0,0,0,1.855,2.109,2.787,2.787,0,0,0,2.109-.169,7.215,7.215,0,0,0,2.164-1.631,17.641,17.641,0,0,0,2.081-2.727,35.415,35.415,0,0,0,1.911-3.459,7.94,7.94,0,0,1-5.2-1.181,9,9,0,0,1-2.9-4.554,1.409,1.409,0,0,1,.027-1.153,1.734,1.734,0,0,1,.872-.675,6.871,6.871,0,0,1,1.518-.394q.9-.14,2.024-.309a43.642,43.642,0,0,1,4.33-.7q2.248-.253,3.88-.534a7.989,7.989,0,0,1,3.092.028,4.515,4.515,0,0,1,2.193,1.434,19.3,19.3,0,0,1,1.265,1.518l1.1,1.462a4.272,4.272,0,0,1,.984,2.306,7.222,7.222,0,0,1-.478,2.474,35.521,35.521,0,0,1-4.78,8.491,21.271,21.271,0,0,1-5.849,5.286,13.056,13.056,0,0,1-4.274,1.49,15.928,15.928,0,0,1-4.723.028,30.8,30.8,0,0,1-8.434-2.362,13.053,13.053,0,0,1-2.84-2.109,10.552,10.552,0,0,1-2.165-2.9,17.476,17.476,0,0,1-2.024-5.932,30.6,30.6,0,0,1-.281-7.226,41.741,41.741,0,0,1,1.349-7.788,43.135,43.135,0,0,1,2.9-7.7,41.128,41.128,0,0,1,4.33-7A27.845,27.845,0,0,1,819.4-276.5a8.5,8.5,0,0,1,2.193-1.237,10.987,10.987,0,0,1,2.39-.619,17.331,17.331,0,0,1,2.39-.168,13.408,13.408,0,0,1,2.193.168,22.028,22.028,0,0,1,2.98.562,30.308,30.308,0,0,1,2.952.928,19.756,19.756,0,0,1,2.7,1.237,14.713,14.713,0,0,1,2.277,1.546,8.829,8.829,0,0,1,2.7,3.318,14.6,14.6,0,0,1,1.068,4.048q.056,1.181.028,2.643t-.169,2.924q-.14,1.463-.337,2.811t-.422,2.25A2.95,2.95,0,0,1,841.417-254.6Z" transform="translate(-800.349 283.261)"/><path d="M818.977-227.289a21.886,21.886,0,0,1-2.959-.2,35.592,35.592,0,0,1-9.7-2.717c-.116-.05-.23-.106-.342-.166a17.864,17.864,0,0,1-3.875-2.862,15.352,15.352,0,0,1-3.055-4.064,22.325,22.325,0,0,1-2.527-7.407,35.459,35.459,0,0,1-.332-8.345,46.693,46.693,0,0,1,1.5-8.673,48.037,48.037,0,0,1,3.213-8.55,46,46,0,0,1,4.829-7.805,32.7,32.7,0,0,1,6.558-6.467,13.241,13.241,0,0,1,3.352-1.878,15.779,15.779,0,0,1,3.425-.885,20.508,20.508,0,0,1,5.894,0,27.036,27.036,0,0,1,3.508.669,35.316,35.316,0,0,1,3.419,1.074,24.707,24.707,0,0,1,3.345,1.535,19.512,19.512,0,0,1,2.968,2.013,13.5,13.5,0,0,1,4.047,5.089,19.376,19.376,0,0,1,1.429,5.36c.015.122.026.244.032.367.042.892.053,1.886.033,2.955-.022,1.1-.086,2.2-.189,3.287-.1,1.042-.222,2.065-.365,3.041-.158,1.074-.325,1.96-.513,2.713-.036.141-.077.281-.125.418a7.363,7.363,0,0,1-2.721,3.832h0l-.111.074a8.735,8.735,0,0,1,1.774,4.8,11.706,11.706,0,0,1-.736,4.159c-.03.086-.062.17-.1.254a40.383,40.383,0,0,1-5.438,9.618,26.062,26.062,0,0,1-7.166,6.437l-.1.059a17.841,17.841,0,0,1-5.812,2.024A19.734,19.734,0,0,1,818.977-227.289Zm6.484-24.252a4.737,4.737,0,0,1,2.061,1.729,4.736,4.736,0,0,1,.311,4.679,40.485,40.485,0,0,1-2.168,3.92,22.458,22.458,0,0,1-2.651,3.46c-.054.057-.109.114-.164.17q.227-.108.452-.231a16.75,16.75,0,0,0,4.478-4.1,30.832,30.832,0,0,0,4.066-7.228c.042-.128.074-.238.1-.33l-1.054-1.405a14.893,14.893,0,0,0-.956-1.148l-.04-.044-.026-.028a6.266,6.266,0,0,0-1,.076C827.873-251.853,826.752-251.694,825.461-251.54Zm-3.35-26.516a12.6,12.6,0,0,0-1.735.123,6.2,6.2,0,0,0-1.362.355,3.726,3.726,0,0,0-.97.55l-.109.083a23.236,23.236,0,0,0-4.691,4.628,36.488,36.488,0,0,0-3.833,6.2,38.526,38.526,0,0,0-2.578,6.858,37.22,37.22,0,0,0-1.2,6.9,25.99,25.99,0,0,0,.231,6.107,12.865,12.865,0,0,0,1.453,4.335c.046.082.091.164.133.248a5.8,5.8,0,0,0,1.208,1.6c.1.1.207.195.31.286a17.911,17.911,0,0,1-1.035-5.449,32.1,32.1,0,0,1,.356-6.173,34.394,34.394,0,0,1,1.572-6.348,52.632,52.632,0,0,1,2.819-7.061,49.067,49.067,0,0,1,3.461-6.07,21.409,21.409,0,0,1,4.067-4.633,8,8,0,0,1,5.446-2.066,16.909,16.909,0,0,0-1.893-.334c-.079-.009-.157-.02-.235-.033A8.721,8.721,0,0,0,822.111-278.056Zm-4.191,35.14Zm0,0Zm4.9-20.818q-.823,1.407-1.629,3.061c-.026.055-.052.109-.079.164.853-.142,1.722-.262,2.6-.361l.035,0A12.392,12.392,0,0,1,822.824-263.735Zm5.859-12.923a5.97,5.97,0,0,1,2.525,3.536c.158.591.315,1.259.484,2.059a4.737,4.737,0,0,1,.081.522l.11,1.111c.053.541.08,1.1.08,1.653,0,.145-.006.29-.02.434a3.208,3.208,0,0,0-.015.466,2.827,2.827,0,0,0,.054.412,4.556,4.556,0,0,1,.071.476,2.371,2.371,0,0,0,.663,1.645,3.2,3.2,0,0,0,1.166.6c.092-.682.175-1.394.244-2.119.081-.848.131-1.711.148-2.567.015-.778.009-1.5-.016-2.135a9.791,9.791,0,0,0-.686-2.565,4.342,4.342,0,0,0-1.306-1.506l-.087-.07a10.026,10.026,0,0,0-1.547-1.046A15.1,15.1,0,0,0,828.683-276.658Zm-2.292,8.331Z" transform="translate(-796.085 287.525)"/></g><g transform="translate(36.5 2.867)"><path d="M894.144-238.626a64.958,64.958,0,0,0-7.394,1.434q-1.126,2.194-1.969,4.077t-1.63,3.683a1.847,1.847,0,0,1-1.1,1.125,3.647,3.647,0,0,1-1.94-.281q-.731-.282-1.6-.647t-1.771-.815q-.674-.45-1.181-.759a2.349,2.349,0,0,1-.787-.759,2.326,2.326,0,0,1-.309-1.153,6.35,6.35,0,0,1,.309-1.883q1.349-3.88,3.514-9.109t4.667-10.8q2.5-5.567,5.117-10.993t4.976-9.643a7.373,7.373,0,0,1,2.193-2.474,5.993,5.993,0,0,1,3.993-.731q2.305.114,4.1.366t3.29.591q1.489.337,2.755.731t2.558.731a3.632,3.632,0,0,1,2.221,1.63,5.006,5.006,0,0,1,.309,2.643q-.338,3.993-.562,9.165t-.338,10.8q-.113,5.623-.141,11.274t.028,10.487a1.878,1.878,0,0,1-.422,1.406,3,3,0,0,1-1.884.394q-1.462,0-2.7-.084a9.716,9.716,0,0,1-2.53-.534,3.908,3.908,0,0,1-1.884-1.012,4.392,4.392,0,0,1-.759-2.193q-.226-1.63-.393-3.57t-.337-4.246Q898.334-239.215,894.144-238.626Zm2.756-9.7q2.558-.281,5.145-.45-.114-4.61-.168-9.194t.056-9.081q-2.25,4.105-4.864,9.081t-5.257,10.318Q894.341-248.043,896.9-248.325Z" transform="translate(-869.728 283.128)"/><path d="M906.889-227.668c-1.079,0-2.1-.032-3.021-.1a14.438,14.438,0,0,1-3.652-.748,8.272,8.272,0,0,1-4.027-2.431,8.736,8.736,0,0,1-1.86-4.617c-.134-.963-.253-2.007-.359-3.12q-1.717.237-3.43.478h0c-1.739.245-3.347.526-4.806.839-.321.664-.621,1.305-.9,1.919q-.833,1.862-1.613,3.644c-.019.041-.037.083-.057.124a6.367,6.367,0,0,1-4.184,3.685,7.879,7.879,0,0,1-4.689-.39c-.05-.017-.1-.036-.149-.055q-.788-.3-1.726-.7c-.68-.285-1.374-.6-2.063-.949a4.639,4.639,0,0,1-.508-.3q-.584-.389-1.023-.658a7.04,7.04,0,0,1-2.331-2.286,6.98,6.98,0,0,1-1.027-3.474,10.77,10.77,0,0,1,.487-3.376c.024-.086.052-.17.08-.255.923-2.652,2.138-5.8,3.611-9.364,1.448-3.5,3.037-7.175,4.724-10.927,1.665-3.705,3.4-7.443,5.17-11.106,1.776-3.687,3.5-7.018,5.111-9.9a12.081,12.081,0,0,1,3.585-4.023,10.455,10.455,0,0,1,7.042-1.594c1.646.083,3.143.218,4.451.4,1.325.186,2.562.409,3.677.661s2.149.528,3.112.827c.769.24,1.557.465,2.35.672.132.034.263.075.391.121a8.118,8.118,0,0,1,4.916,4.068,9.61,9.61,0,0,1,.743,5.1c-.218,2.589-.4,5.595-.547,8.933-.148,3.4-.26,6.992-.334,10.686-.074,3.675-.121,7.444-.139,11.2-.019,3.7-.01,7.206.028,10.408,0,.019,0,.037,0,.056a6.387,6.387,0,0,1-1.922,4.864A7.274,7.274,0,0,1,906.889-227.668Zm-3.1-8.768ZM874.928-237h0Zm28.714-.366a4.7,4.7,0,0,0,.791.144c-.014-2.38-.015-4.89,0-7.5.019-3.805.066-7.623.141-11.345.075-3.767.19-7.436.341-10.907.143-3.3.324-6.3.539-8.929-.589-.165-1.172-.337-1.744-.515-.723-.224-1.53-.438-2.392-.633s-1.838-.37-2.9-.52c-1.047-.147-2.284-.256-3.678-.325-.056,0-.111-.006-.167-.012a4.537,4.537,0,0,0-1.018,0,2.725,2.725,0,0,0-.628.783c-1.529,2.73-3.158,5.888-4.85,9.4-1.729,3.589-3.433,7.249-5.064,10.879-1.647,3.666-3.2,7.254-4.61,10.666-1.239,2.995-2.28,5.666-3.1,7.957.113.052.226.1.338.153q.276-.623.559-1.255c.6-1.346,1.3-2.794,2.079-4.306a4.736,4.736,0,0,1,3.008-2.417c1.691-.445,3.577-.842,5.63-1.187a4.732,4.732,0,0,1-3.183-1.892,4.733,4.733,0,0,1-.426-4.9c1.773-3.585,3.56-7.091,5.31-10.421s3.4-6.411,4.9-9.154a4.735,4.735,0,0,1,5.385-2.3,4.736,4.736,0,0,1,3.5,4.691c-.074,2.922-.092,5.918-.055,8.9s.093,6.07.168,9.136a4.737,4.737,0,0,1-3.025,4.533,4.739,4.739,0,0,1,1.784.905,4.733,4.733,0,0,1,1.736,3.329q.167,2.272.332,4.181C903.43-239.181,903.531-238.226,903.642-237.361Zm-29.882-1.755,0,0Zm16.12-3.773h0Z" transform="translate(-865.463 287.392)"/></g><g transform="translate(77.781 3.002)"><path d="M965.77-248.877q-.674,3.825-1.237,7.366t-.984,6.635q-.422,3.093-.647,5.51a1.976,1.976,0,0,1-.731,1.322,2.8,2.8,0,0,1-1.856.028q-1.294-.282-2.615-.7a17.039,17.039,0,0,1-2.446-.984,4.553,4.553,0,0,1-1.912-1.462,3.629,3.629,0,0,1-.393-2.249q0-2.193.2-5.37t.562-6.888q.366-3.711.815-7.7t.984-7.872q.536-3.88,1.069-7.338t1.04-6.1a3.565,3.565,0,0,1,1.434-2.39,5.056,5.056,0,0,1,2.9-.2,47.4,47.4,0,0,1,5.145,1.012q2.109.563,4.245,1.349a8.652,8.652,0,0,1,2.137,1.1,5.029,5.029,0,0,1,1.237,1.293,4.951,4.951,0,0,1,.647,1.546q.2.844.422,1.912a10.225,10.225,0,0,0,.084,1.209q.084.7.337,2.5t.759,5.117q.506,3.318,1.406,9.109.9-2.024,2.108-4.442t2.5-4.948q1.293-2.53,2.67-5.061t2.672-4.78q1.293-2.585,2.249-4.245a9.72,9.72,0,0,1,1.968-2.531,3.964,3.964,0,0,1,2.277-.984,9.287,9.287,0,0,1,3.233.45q2.305.62,4.864,1.463a50.022,50.022,0,0,1,5.033,1.968,3.87,3.87,0,0,1,2.053,1.828,4.32,4.32,0,0,1-.2,2.9q-.844,2.644-1.912,6.073t-2.164,7.2q-1.1,3.768-2.193,7.647t-2.08,7.422q-.985,3.542-1.772,6.523T998.44-229.7a3.771,3.771,0,0,1-.9,1.462q-.506.449-1.968.112-1.3-.282-2.643-.674a11.437,11.437,0,0,1-2.362-.956,3.49,3.49,0,0,1-1.715-1.462,3.491,3.491,0,0,1-.14-2.249q.224-1.687.731-4.358t1.181-5.9q.675-3.232,1.49-6.776t1.771-6.86q-1.687,2.925-3.571,6.354t-3.655,6.748q-1.771,3.318-3.261,6.27t-2.39,4.92q-.282.619-.478.984a1.349,1.349,0,0,1-.478.535,1.608,1.608,0,0,1-.731.2,4.275,4.275,0,0,1-1.181-.14,33.011,33.011,0,0,1-3.936-1.012,7.116,7.116,0,0,1-1.068-.478,2.69,2.69,0,0,1-.788-.674,4.223,4.223,0,0,1-.59-1.04q-.253-.619-.534-1.575-1.125-4.048-2.165-9.334t-1.884-10.909Q966.445-252.7,965.77-248.877Z" transform="translate(-948.195 282.87)"/><path d="M957.1-227.413a9.621,9.621,0,0,1-2.018-.233c-1.053-.229-2.078-.5-3.09-.828a21.831,21.831,0,0,1-3.091-1.244,8.96,8.96,0,0,1-3.812-3.156,8.1,8.1,0,0,1-1.143-4.969c.005-1.519.074-3.368.206-5.5.135-2.176.329-4.551.576-7.06.245-2.481.521-5.094.823-7.769.3-2.7.64-5.384,1-7.988.365-2.644.728-5.138,1.08-7.416.36-2.334.72-4.444,1.07-6.268q.031-.162.073-.32a7.954,7.954,0,0,1,3.84-5.387,9.381,9.381,0,0,1,5.736-.676,52.471,52.471,0,0,1,5.694,1.124c1.541.411,3.109.909,4.663,1.481a13.221,13.221,0,0,1,3.341,1.751,9.778,9.778,0,0,1,2.382,2.525,9.708,9.708,0,0,1,1.272,3.021c.139.6.287,1.268.445,2.015a4.753,4.753,0,0,1,.1.98,5.71,5.71,0,0,0,.051.642q.067.565.245,1.837.338-.63.679-1.257c.9-1.657,1.8-3.257,2.657-4.756.891-1.779,1.651-3.209,2.321-4.37a14.216,14.216,0,0,1,2.979-3.752,8.744,8.744,0,0,1,4.945-2.113,13.664,13.664,0,0,1,4.919.6c1.612.434,3.322.949,5.083,1.529a54.914,54.914,0,0,1,5.509,2.154l.1.048a8.384,8.384,0,0,1,4.379,4.309,8.671,8.671,0,0,1-.081,6.142q-.836,2.621-1.894,6.016c-.7,2.238-1.417,4.63-2.139,7.112q-1.092,3.752-2.183,7.613t-2.075,7.4c-.643,2.316-1.234,4.49-1.756,6.465-.508,1.92-.911,3.533-1.2,4.8a4.773,4.773,0,0,1-.2.661,8.28,8.28,0,0,1-2.165,3.283c-1.543,1.373-3.612,1.775-6.15,1.2-.954-.208-1.94-.46-2.931-.749a16.356,16.356,0,0,1-3.214-1.3,8,8,0,0,1-3.775-3.552c-.055-.11-.107-.222-.157-.335a5.931,5.931,0,0,1-1.966,1.939,6.293,6.293,0,0,1-2.88.865,8.645,8.645,0,0,1-2.464-.236,37.7,37.7,0,0,1-4.443-1.151l-.113-.039a11.858,11.858,0,0,1-1.781-.805,7.408,7.408,0,0,1-2.161-1.842,8.367,8.367,0,0,1-.727-1.075c-.125,1.033-.227,1.988-.307,2.855a4.833,4.833,0,0,1-.094.6,6.485,6.485,0,0,1-2.879,4.328A6.243,6.243,0,0,1,957.1-227.413Zm1.534-6.217h0Zm30.431-3.042Zm.179-1.191c.225.088.473.172.741.249l.183.053q.3-1.184.662-2.565c.532-2.013,1.133-4.228,1.787-6.581s1.353-4.847,2.085-7.442,1.469-5.159,2.2-7.683,1.475-4.989,2.19-7.283q.948-3.044,1.721-5.473c-1.206-.517-2.433-.982-3.658-1.385-1.607-.53-3.159-1-4.611-1.387l-.069-.019a7.691,7.691,0,0,0-1.281-.273,6.686,6.686,0,0,0-.8,1.148c-.583,1.011-1.3,2.355-2.117,4-.041.082-.085.163-.13.243-.845,1.47-1.726,3.045-2.617,4.682s-1.776,3.313-2.613,4.951q-1.287,2.515-2.485,4.913c-.775,1.55-1.454,2.979-2.015,4.245a4.735,4.735,0,0,1-4.95,2.773,4.734,4.734,0,0,1-4.057-3.967q-.9-5.8-1.408-9.122-.511-3.353-.767-5.173-.263-1.867-.35-2.6c-.053-.432-.087-.832-.1-1.208q-.164-.766-.312-1.4a.322.322,0,0,0-.013-.043,1.263,1.263,0,0,0-.1-.085,4.306,4.306,0,0,0-.955-.449c-1.257-.462-2.546-.872-3.8-1.208-1.051-.28-2.344-.543-3.849-.785-.251,1.392-.508,2.935-.765,4.607-.344,2.229-.7,4.673-1.058,7.264-.347,2.526-.673,5.136-.969,7.756s-.568,5.2-.809,7.637c-.235,2.394-.42,4.655-.548,6.717-.113,1.832-.176,3.412-.186,4.7q.425.195.9.368.125-1.009.272-2.1c.286-2.1.622-4.364,1-6.738.37-2.332.791-4.837,1.251-7.445h0c.458-2.591.934-5.186,1.418-7.714a4.735,4.735,0,0,1,4.65-3.845h.1a4.734,4.734,0,0,1,4.588,4.031c.552,3.676,1.173,7.275,1.847,10.7.665,3.379,1.362,6.389,2.072,8.948.082.276.152.5.212.67q.646.2,1.4.393c.506-1.06,1.1-2.269,1.78-3.612.985-1.953,2.1-4.1,3.31-6.364s2.45-4.553,3.682-6.8c1.265-2.3,2.483-4.47,3.619-6.44a4.734,4.734,0,0,1,5.954-1.991,4.735,4.735,0,0,1,2.7,5.669c-.611,2.121-1.186,4.345-1.706,6.61-.529,2.3-1.024,4.543-1.47,6.683-.441,2.116-.833,4.075-1.163,5.818C989.582-239.9,989.387-238.779,989.248-237.863ZM975.1-240.349Z" transform="translate(-943.93 287.135)"/></g><g transform="translate(130.413 3.189)"><path d="M1063.7-275.025q2.953-.675,6.185-1.237t6.636-.984q3.4-.421,6.775-.534,3.206-.055,4.105,2.474a11.023,11.023,0,0,1,1.012,2.446q.281,1.1.562,2.39a2.5,2.5,0,0,1-.224,1.968,3.6,3.6,0,0,1-2.081.731q-3.374.394-6.972.787t-7.591.956q-.844,2.531-1.575,5.258t-1.631,5.707q1.687-.224,3.374-.337t3.6-.169a6.6,6.6,0,0,1,2.474.281,3,3,0,0,1,1.518,1.462,11.337,11.337,0,0,1,1.041,2.221q.365,1.1.647,2.221.449,1.294.084,1.743a3.741,3.741,0,0,1-1.94.788q-3.374.619-6.888,1.181t-6.776,1.237q-.45,1.8-.843,3.4t-.843,3.177q2.643-.449,5.032-.731t5.2-.45a5.854,5.854,0,0,1,2.446.225,3.09,3.09,0,0,1,1.49,1.349,12.891,12.891,0,0,1,1.04,2.109q.365.984.816,2a2.1,2.1,0,0,1,0,1.546q-.283.422-1.8.7-3.6.675-7.31,1.406t-7.084,1.349a7.289,7.289,0,0,1-3.4.253,6.716,6.716,0,0,1-2-.871q-.957-.619-1.828-1.265T1054.9-231.9a5.676,5.676,0,0,1-1.49-1.856,4.9,4.9,0,0,1-.422-2.587l5.342-37.393Q1060.751-274.35,1063.7-275.025Z" transform="translate(-1048.237 282.516)"/><path d="M1057.467-227.52a8.378,8.378,0,0,1-2.178-.271,11.492,11.492,0,0,1-3.364-1.484c-.71-.459-1.4-.939-2.058-1.427s-1.406-1.09-2.28-1.838a10.4,10.4,0,0,1-2.674-3.359,9.568,9.568,0,0,1-.91-5.053q.012-.162.035-.322l5.342-37.392a4.734,4.734,0,0,1,3.514-3.918c1.648-.421,3.494-.866,5.487-1.322,2.035-.466,4.2-.9,6.429-1.286s4.541-.73,6.865-1.018c2.391-.3,4.813-.488,7.2-.568l.077,0,.216,0c3.946,0,6.938,1.9,8.289,5.246a15.13,15.13,0,0,1,1.28,3.231c.2.775.4,1.635.6,2.559.021.1.039.194.055.292a6.832,6.832,0,0,1-1.365,5.83,7.9,7.9,0,0,1-4.976,2.277l-.1.013q-3.391.4-7.007.791c-1.438.157-2.939.338-4.489.538q-.213.72-.415,1.45l.425-.013a11.013,11.013,0,0,1,4.277.581,7.615,7.615,0,0,1,3.957,3.527,16.044,16.044,0,0,1,1.429,3.086c.26.783.5,1.585.7,2.39.971,3,.117,4.948-.785,6.06a7.819,7.819,0,0,1-4.624,2.434l-.136.027a8.348,8.348,0,0,1,2,2.264,17.76,17.76,0,0,1,1.438,2.926c.211.569.447,1.146.7,1.722a4.748,4.748,0,0,1,.269.781,6.452,6.452,0,0,1-.652,5.315,7.032,7.032,0,0,1-4.881,2.736q-3.56.668-7.256,1.4c-2.381.469-4.736.919-7.005,1.335A14.69,14.69,0,0,1,1057.467-227.52Zm-4.024-12.512a1.057,1.057,0,0,0,.2.216l.073.061c.7.6,1.3,1.09,1.787,1.447.505.375,1.034.741,1.579,1.093l.056.036a1.684,1.684,0,0,0,.412.185,7,7,0,0,0,1.215-.219c.1-.024.194-.045.291-.063l.673-.124a4.733,4.733,0,0,1-3.176-1.563,4.735,4.735,0,0,1-1.027-4.46c.28-.98.549-1.992.8-3.009q.393-1.6.847-3.418a4.736,4.736,0,0,1,3.634-3.489c2.225-.46,4.576-.89,6.987-1.276q1.356-.217,2.7-.444-1.142.047-2.173.116c-1.013.068-2.045.171-3.066.307a4.737,4.737,0,0,1-4.229-1.626,4.736,4.736,0,0,1-.927-4.435c.588-1.949,1.123-3.822,1.59-5.566.506-1.89,1.064-3.751,1.657-5.529a4.735,4.735,0,0,1,3.832-3.191c2.7-.38,5.3-.708,7.735-.974q2.281-.249,4.47-.5a9.022,9.022,0,0,0-.409-.851c-2.036.075-4.1.24-6.141.493-2.171.269-4.327.589-6.407.95s-4.066.759-5.94,1.188h0q-1.131.259-2.19.511l-4.861,34.027C1053.441-240.094,1053.442-240.059,1053.443-240.032Zm20.4-.086h0Zm6.208-33.728Zm-20.616-5.444h0Z" transform="translate(-1043.972 286.781)"/></g><g transform="translate(163.433)"><path d="M1116.332-237.552a4.758,4.758,0,0,1,1.546-1.743,5.559,5.559,0,0,1,2.446-.9,7.981,7.981,0,0,1,3.234.309,6.6,6.6,0,0,1,2.474,1.153,5.018,5.018,0,0,1,1.406,1.659,4.31,4.31,0,0,1,.478,1.8,4.553,4.553,0,0,1-.2,1.575,5.2,5.2,0,0,1-.647,1.209,6.359,6.359,0,0,1-1.181,1.293,6.734,6.734,0,0,1-1.687,1.012,5.591,5.591,0,0,1-2.221.421,6.8,6.8,0,0,1-4.5-1.406,4.718,4.718,0,0,1-1.744-4.161A5.39,5.39,0,0,1,1116.332-237.552Zm22.38-40.654a3.957,3.957,0,0,1-.141,2.558q-1.463,4.218-2.9,8.547t-2.755,8.547q-1.322,4.217-2.418,8.125t-1.94,7.282a2.029,2.029,0,0,1-.872,1.462,2.944,2.944,0,0,1-1.884-.056,22.6,22.6,0,0,1-2.9-.7,17.839,17.839,0,0,1-2.558-1.04,3.833,3.833,0,0,1-1.715-1.49,4,4,0,0,1-.14-2.446q.449-3.261,1.265-7.676t1.828-9.081q1.012-4.666,2.08-9.221t2.024-8.153a3,3,0,0,1,1.322-2.137,3.852,3.852,0,0,1,2.671.225,28.434,28.434,0,0,1,3.683,1.293,19.258,19.258,0,0,1,3.458,1.856A4.779,4.779,0,0,1,1138.712-278.205Z" transform="translate(-1111 288.576)"/><path d="M1117.52-229.292a11.389,11.389,0,0,1-7.23-2.423,9.474,9.474,0,0,1-3.544-8.077,10.146,10.146,0,0,1,1.109-4.186l0,0a9.37,9.37,0,0,1,2.379-2.952c-.024-.044-.046-.087-.069-.13a8.329,8.329,0,0,1-.615-5.339c.307-2.22.741-4.849,1.29-7.816s1.172-6.071,1.855-9.225,1.389-6.274,2.1-9.3c.715-3.054,1.407-5.843,2.057-8.288a7.347,7.347,0,0,1,3.949-5.236,8.038,8.038,0,0,1,5.994.007,33.56,33.56,0,0,1,4.15,1.465,24.059,24.059,0,0,1,4.309,2.323,9.227,9.227,0,0,1,3.656,4.431l0,0a8.544,8.544,0,0,1-.116,5.624l-.018.054c-.942,2.715-1.909,5.57-2.875,8.484-.95,2.869-1.869,5.72-2.732,8.473s-1.658,5.428-2.377,7.99c-.714,2.545-1.355,4.952-1.905,7.151a7.413,7.413,0,0,1-1.4,2.978,8.993,8.993,0,0,1,.892,3.6,9.275,9.275,0,0,1-.436,3.218,9.732,9.732,0,0,1-1.223,2.375,11.1,11.1,0,0,1-2.053,2.259,11.466,11.466,0,0,1-2.865,1.738,10.3,10.3,0,0,1-4.038.8Zm-1.307-9.815a2.135,2.135,0,0,0,1.406.344,2.572,2.572,0,0,0,.456-.04,2.063,2.063,0,0,0,.506-.286,1.969,1.969,0,0,0,.221-.214,2.554,2.554,0,0,0-.7-.264l-.093-.025a3.387,3.387,0,0,0-1.308-.176,1.289,1.289,0,0,0-.393.1.48.48,0,0,0-.038.029.656.656,0,0,0-.066.271A1.718,1.718,0,0,0,1116.214-239.107Zm.016.087h0Zm2.756-.119h0Zm.049-.507Zm3.879-10.9ZM1119-251.617q.53.221,1.081.4.137.044.279.086c.4-1.545.844-3.163,1.315-4.839.744-2.653,1.571-5.432,2.458-8.262.877-2.8,1.812-5.7,2.778-8.62.907-2.739,1.817-5.427,2.705-8a15.317,15.317,0,0,0-2.36-1.221c-.607-.257-1.189-.481-1.74-.672-.485,1.9-.989,3.955-1.506,6.163-.7,2.976-1.392,6.052-2.063,9.145-.663,3.058-1.268,6.065-1.8,8.937C1119.673-255.9,1119.287-253.589,1119-251.617Zm-.917-.441Zm12.174-28.306h0Zm-.392-1.249Zm-3.784-3.255Z" transform="translate(-1106.736 292.842)"/></g><g transform="translate(185.924)"><path d="M1159.083-237.552a4.759,4.759,0,0,1,1.546-1.743,5.557,5.557,0,0,1,2.446-.9,7.98,7.98,0,0,1,3.233.309,6.6,6.6,0,0,1,2.474,1.153,5.016,5.016,0,0,1,1.406,1.659,4.31,4.31,0,0,1,.478,1.8,4.551,4.551,0,0,1-.2,1.575,5.2,5.2,0,0,1-.647,1.209,6.361,6.361,0,0,1-1.181,1.293,6.737,6.737,0,0,1-1.687,1.012,5.592,5.592,0,0,1-2.221.421,6.8,6.8,0,0,1-4.5-1.406,4.718,4.718,0,0,1-1.744-4.161A5.393,5.393,0,0,1,1159.083-237.552Zm22.379-40.654a3.953,3.953,0,0,1-.141,2.558q-1.463,4.218-2.9,8.547t-2.755,8.547q-1.322,4.217-2.418,8.125t-1.94,7.282a2.027,2.027,0,0,1-.871,1.462,2.945,2.945,0,0,1-1.884-.056,22.6,22.6,0,0,1-2.9-.7,17.819,17.819,0,0,1-2.558-1.04,3.832,3.832,0,0,1-1.715-1.49,4,4,0,0,1-.141-2.446q.449-3.261,1.265-7.676t1.828-9.081q1.011-4.666,2.08-9.221t2.024-8.153a3,3,0,0,1,1.322-2.137,3.852,3.852,0,0,1,2.671.225,28.422,28.422,0,0,1,3.683,1.293,19.27,19.27,0,0,1,3.458,1.856A4.772,4.772,0,0,1,1181.462-278.205Z" transform="translate(-1153.751 288.576)"/><path d="M1160.271-229.292a11.388,11.388,0,0,1-7.23-2.423,9.474,9.474,0,0,1-3.544-8.077,10.144,10.144,0,0,1,1.109-4.186l0,0a9.372,9.372,0,0,1,2.379-2.952c-.024-.044-.046-.087-.069-.13a8.329,8.329,0,0,1-.615-5.339c.307-2.22.741-4.849,1.29-7.816s1.172-6.071,1.855-9.225,1.388-6.274,2.1-9.3c.716-3.054,1.407-5.843,2.058-8.288a7.347,7.347,0,0,1,3.949-5.236,8.038,8.038,0,0,1,5.994.007,33.574,33.574,0,0,1,4.15,1.465,24.056,24.056,0,0,1,4.309,2.323,9.225,9.225,0,0,1,3.656,4.431v0a8.544,8.544,0,0,1-.116,5.624l-.019.054c-.942,2.715-1.908,5.57-2.875,8.484-.95,2.869-1.869,5.72-2.731,8.473s-1.658,5.428-2.377,7.99c-.714,2.545-1.355,4.952-1.905,7.151a7.411,7.411,0,0,1-1.4,2.978,9,9,0,0,1,.892,3.6,9.281,9.281,0,0,1-.436,3.218,9.727,9.727,0,0,1-1.223,2.375,11.091,11.091,0,0,1-2.053,2.259,11.467,11.467,0,0,1-2.865,1.738,10.3,10.3,0,0,1-4.038.8Zm-1.307-9.815a2.13,2.13,0,0,0,1.406.344,2.559,2.559,0,0,0,.456-.04,2.065,2.065,0,0,0,.506-.286,1.969,1.969,0,0,0,.221-.214,2.552,2.552,0,0,0-.7-.264l-.093-.025a3.385,3.385,0,0,0-1.308-.176,1.29,1.29,0,0,0-.393.1.472.472,0,0,0-.038.029.654.654,0,0,0-.066.271A1.71,1.71,0,0,0,1158.965-239.107Zm.016.087h0Zm2.756-.119Zm.048-.507Zm3.88-10.9Zm-3.91-1.069q.53.221,1.081.4.137.044.279.086c.4-1.545.844-3.163,1.315-4.839.744-2.653,1.571-5.432,2.458-8.262.877-2.8,1.812-5.7,2.778-8.62.907-2.739,1.817-5.427,2.705-8a15.311,15.311,0,0,0-2.36-1.221c-.607-.257-1.189-.481-1.74-.672-.486,1.9-.989,3.955-1.506,6.163-.7,2.976-1.392,6.052-2.063,9.145-.663,3.058-1.268,6.065-1.8,8.937C1162.424-255.9,1162.038-253.589,1161.755-251.617Zm-.917-.441Zm12.174-28.306h0Zm-.391-1.249Zm-3.784-3.255Z" transform="translate(-1149.487 292.842)"/></g></g><g transform="translate(3.36 3.683)"><path class="a" d="M909.915-224.961q2.558-.281,5.145-.45c-.006-.243-.01-.484-.016-.727q-4.558-.335-8.929-.735-.643,1.282-1.289,2.586Q907.357-224.678,909.915-224.961Z" transform="translate(-850.977 257.895)"/><path class="d" d="M803.914-241.048a41.746,41.746,0,0,0-1.349,7.788,30.57,30.57,0,0,0,.281,7.226,17.476,17.476,0,0,0,2.024,5.932,10.553,10.553,0,0,0,2.165,2.9,13.064,13.064,0,0,0,2.839,2.109,30.8,30.8,0,0,0,8.435,2.362,15.929,15.929,0,0,0,4.723-.028,13.056,13.056,0,0,0,4.273-1.49,21.274,21.274,0,0,0,5.848-5.286,35.5,35.5,0,0,0,4.78-8.491,7.2,7.2,0,0,0,.478-2.474,4.271,4.271,0,0,0-.984-2.306l-1.1-1.462a19.276,19.276,0,0,0-1.265-1.518,4.517,4.517,0,0,0-2.193-1.434,7.992,7.992,0,0,0-3.093-.028q-1.631.282-3.88.534a43.647,43.647,0,0,0-4.329.7q-1.126.169-2.024.309a6.873,6.873,0,0,0-1.518.394,1.733,1.733,0,0,0-.872.675,1.409,1.409,0,0,0-.028,1.153,9,9,0,0,0,2.9,4.554,7.942,7.942,0,0,0,5.2,1.181,35.517,35.517,0,0,1-1.912,3.459,17.609,17.609,0,0,1-2.081,2.727,7.215,7.215,0,0,1-2.164,1.631,2.787,2.787,0,0,1-2.109.169,3.263,3.263,0,0,1-1.855-2.109,12.942,12.942,0,0,1-.787-4.133,27.2,27.2,0,0,1,.309-5.257A29.512,29.512,0,0,1,816-236.8c.447-1.413.96-2.788,1.526-4.135-4.7-1.035-8.926-2.149-12.6-3.329C804.554-243.2,804.207-242.134,803.914-241.048Z" transform="translate(-802.471 266.138)"/><path class="d" d="M899.433-226.488q-2.588.169-5.145.45t-5.089.674q.646-1.3,1.289-2.586-5.943-.542-11.513-1.2-1.736,3.946-3.3,7.718-2.164,5.23-3.514,9.109a6.348,6.348,0,0,0-.309,1.883,2.322,2.322,0,0,0,.309,1.153,2.344,2.344,0,0,0,.787.759q.506.309,1.181.759.9.45,1.771.815t1.6.647a3.647,3.647,0,0,0,1.94.281,1.848,1.848,0,0,0,1.1-1.125q.787-1.8,1.63-3.683t1.968-4.077a64.971,64.971,0,0,1,7.394-1.434q4.189-.59,8.406-1.153.168,2.307.337,4.246t.393,3.57a4.386,4.386,0,0,0,.759,2.193,3.905,3.905,0,0,0,1.884,1.012,9.715,9.715,0,0,0,2.53.534q1.237.084,2.7.084a3,3,0,0,0,1.884-.394,1.881,1.881,0,0,0,.422-1.406q-.057-4.835-.028-10.487.021-4.185.093-8.353-5.871-.31-11.495-.724C899.423-226.972,899.426-226.731,899.433-226.488Z" transform="translate(-835.35 258.973)"/><path class="d" d="M951.1-220.969q-.365,3.711-.562,6.888t-.2,5.37a3.626,3.626,0,0,0,.394,2.249A4.545,4.545,0,0,0,952.644-205a16.991,16.991,0,0,0,2.446.984q1.32.422,2.615.7a2.8,2.8,0,0,0,1.856-.028,1.975,1.975,0,0,0,.731-1.322q.223-2.417.646-5.51t.984-6.635q.5-3.157,1.093-6.54-5.912-.169-11.63-.44C951.285-222.837,951.188-221.894,951.1-220.969Z" transform="translate(-872.536 256.434)"/><path class="d" d="M1020.143-218.634q-.674,3.234-1.181,5.9t-.731,4.358a3.5,3.5,0,0,0,.141,2.249,3.49,3.49,0,0,0,1.715,1.462,11.436,11.436,0,0,0,2.362.956q1.349.393,2.643.674,1.462.338,1.968-.112a3.778,3.778,0,0,0,.9-1.462q.45-1.967,1.237-4.948t1.771-6.523q.914-3.292,1.927-6.879-5.847.167-11.868.23C1020.715-221.323,1020.419-219.956,1020.143-218.634Z" transform="translate(-904.667 256.038)"/><path class="d" d="M980.123-222.8q.221,1.185.45,2.357,1.039,5.286,2.165,9.334.281.956.534,1.575a4.227,4.227,0,0,0,.59,1.04,2.692,2.692,0,0,0,.788.674,7.092,7.092,0,0,0,1.068.478,33.014,33.014,0,0,0,3.936,1.012,4.271,4.271,0,0,0,1.181.14,1.6,1.6,0,0,0,.731-.2,1.347,1.347,0,0,0,.478-.535c.131-.243.289-.571.478-.984q.9-1.967,2.39-4.92t3.261-6.27q.934-1.75,1.9-3.532-2.039.013-4.092.014Q987.922-222.614,980.123-222.8Z" transform="translate(-886.661 255.966)"/><path class="d" d="M1050.38-212.911a4.9,4.9,0,0,0,.422,2.587,5.668,5.668,0,0,0,1.49,1.856q1.18,1.012,2.052,1.659t1.828,1.265a6.717,6.717,0,0,0,2,.871,7.287,7.287,0,0,0,3.4-.253q3.374-.619,7.085-1.349t7.31-1.406q1.518-.28,1.8-.7a2.1,2.1,0,0,0,0-1.546q-.451-1.012-.815-2a12.887,12.887,0,0,0-1.041-2.109,3.086,3.086,0,0,0-1.49-1.349,5.85,5.85,0,0,0-2.446-.225q-2.812.169-5.2.45t-5.032.731q.449-1.573.843-3.177t.843-3.4q3.261-.675,6.776-1.237t6.888-1.181a3.742,3.742,0,0,0,1.94-.788q.365-.449-.084-1.743c-.014-.057-.031-.112-.046-.169-8.493.7-17.486,1.218-26.852,1.544Z" transform="translate(-919.946 257.541)"/><path class="d" d="M1123.42-201.466a6.6,6.6,0,0,0-2.474-1.153,7.982,7.982,0,0,0-3.233-.309,5.559,5.559,0,0,0-2.446.9,4.754,4.754,0,0,0-1.546,1.743,5.375,5.375,0,0,0-.591,2.221,4.718,4.718,0,0,0,1.744,4.161,6.8,6.8,0,0,0,4.5,1.406,5.593,5.593,0,0,0,2.221-.421,6.745,6.745,0,0,0,1.687-1.012,6.361,6.361,0,0,0,1.181-1.293,5.2,5.2,0,0,0,.647-1.209,4.547,4.547,0,0,0,.2-1.575,4.31,4.31,0,0,0-.478-1.8A5.022,5.022,0,0,0,1123.42-201.466Z" transform="translate(-949.69 246.574)"/><path class="d" d="M1118.271-223.037a4,4,0,0,0,.141,2.446,3.833,3.833,0,0,0,1.715,1.49,17.8,17.8,0,0,0,2.558,1.04,22.593,22.593,0,0,0,2.9.7,2.945,2.945,0,0,0,1.884.056,2.028,2.028,0,0,0,.871-1.462q.844-3.374,1.94-7.282.567-2.019,1.194-4.124-5.9.76-12.283,1.392Q1118.619-225.562,1118.271-223.037Z" transform="translate(-952.076 259.458)"/><path class="d" d="M1162.287-234.3q-.817,4.415-1.266,7.676a4.005,4.005,0,0,0,.141,2.446,3.833,3.833,0,0,0,1.715,1.49,17.812,17.812,0,0,0,2.558,1.04,22.6,22.6,0,0,0,2.9.7,2.944,2.944,0,0,0,1.884.056,2.027,2.027,0,0,0,.871-1.462q.844-3.374,1.94-7.282t2.412-8.1c-3.993.869-8.324,1.681-12.962,2.431C1162.414-234.97,1162.349-234.632,1162.287-234.3Z" transform="translate(-972.336 263.044)"/><path class="d" d="M1166.171-201.466a6.6,6.6,0,0,0-2.475-1.153,7.978,7.978,0,0,0-3.233-.309,5.556,5.556,0,0,0-2.446.9,4.754,4.754,0,0,0-1.546,1.743,5.378,5.378,0,0,0-.591,2.221,4.717,4.717,0,0,0,1.744,4.161,6.8,6.8,0,0,0,4.5,1.406,5.592,5.592,0,0,0,2.221-.421,6.746,6.746,0,0,0,1.687-1.012,6.353,6.353,0,0,0,1.181-1.293,5.2,5.2,0,0,0,.647-1.209,4.548,4.548,0,0,0,.2-1.575,4.3,4.3,0,0,0-.478-1.8A5.016,5.016,0,0,0,1166.171-201.466Z" transform="translate(-969.949 246.574)"/><path class="d" d="M823.928-265.964a17.018,17.018,0,0,1,3.149-3.627,3.008,3.008,0,0,1,2.671-.928,1.156,1.156,0,0,1,.759.9q.2.732.422,1.8c.036.375.075.75.112,1.125s.056.769.056,1.181a7.916,7.916,0,0,0-.028,1.153,7.537,7.537,0,0,0,.141,1.1,7.083,7.083,0,0,0,2.109,4.611,10.333,10.333,0,0,0,5.763,2.305,3.2,3.2,0,0,0,1.94-.253,2.952,2.952,0,0,0,.927-1.49q.224-.9.422-2.25t.337-2.811q.14-1.462.169-2.924t-.028-2.643a14.6,14.6,0,0,0-1.068-4.048,8.828,8.828,0,0,0-2.7-3.318,14.739,14.739,0,0,0-2.277-1.546,19.812,19.812,0,0,0-2.7-1.237,30.3,30.3,0,0,0-2.952-.928,22.049,22.049,0,0,0-2.98-.562,13.413,13.413,0,0,0-2.193-.168,17.331,17.331,0,0,0-2.389.168,10.976,10.976,0,0,0-2.39.619,8.5,8.5,0,0,0-2.193,1.237,27.828,27.828,0,0,0-5.651,5.567,41.117,41.117,0,0,0-4.33,7,43.51,43.51,0,0,0-1.878,4.485c3.672,1.181,7.9,2.294,12.6,3.329.335-.8.683-1.586,1.06-2.36A44.314,44.314,0,0,1,823.928-265.964Z" transform="translate(-804.688 283.322)"/><path class="c" d="M823.928-265.964a17.018,17.018,0,0,1,3.149-3.627,3.008,3.008,0,0,1,2.671-.928,1.156,1.156,0,0,1,.759.9q.2.732.422,1.8c.036.375.075.75.112,1.125s.056.769.056,1.181a7.916,7.916,0,0,0-.028,1.153,7.537,7.537,0,0,0,.141,1.1,7.083,7.083,0,0,0,2.109,4.611,10.333,10.333,0,0,0,5.763,2.305,3.2,3.2,0,0,0,1.94-.253,2.952,2.952,0,0,0,.927-1.49q.224-.9.422-2.25t.337-2.811q.14-1.462.169-2.924t-.028-2.643a14.6,14.6,0,0,0-1.068-4.048,8.828,8.828,0,0,0-2.7-3.318,14.739,14.739,0,0,0-2.277-1.546,19.812,19.812,0,0,0-2.7-1.237,30.3,30.3,0,0,0-2.952-.928,22.049,22.049,0,0,0-2.98-.562,13.413,13.413,0,0,0-2.193-.168,17.331,17.331,0,0,0-2.389.168,10.976,10.976,0,0,0-2.39.619,8.5,8.5,0,0,0-2.193,1.237,27.828,27.828,0,0,0-5.651,5.567,41.117,41.117,0,0,0-4.33,7,43.51,43.51,0,0,0-1.878,4.485c3.672,1.181,7.9,2.294,12.6,3.329.335-.8.683-1.586,1.06-2.36A44.314,44.314,0,0,1,823.928-265.964Z" transform="translate(-804.688 283.322)"/><path class="d" d="M917.714-264.5q.225-5.173.563-9.165a5.012,5.012,0,0,0-.309-2.643,3.633,3.633,0,0,0-2.221-1.63q-1.294-.338-2.558-.731t-2.755-.731q-1.491-.338-3.29-.591t-4.1-.366a5.993,5.993,0,0,0-3.993.731,7.367,7.367,0,0,0-2.193,2.474q-2.362,4.217-4.976,9.643T886.76-256.51q-.7,1.553-1.368,3.078,5.565.653,11.513,1.2,1.993-3.97,3.969-7.732,2.615-4.976,4.864-9.081-.114,4.5-.056,9.081.05,4.222.153,8.467,5.618.413,11.495.724c.016-.974.028-1.949.048-2.921Q917.489-259.321,917.714-264.5Z" transform="translate(-841.768 283.26)"/><path class="c" d="M917.714-264.5q.225-5.173.563-9.165a5.012,5.012,0,0,0-.309-2.643,3.633,3.633,0,0,0-2.221-1.63q-1.294-.338-2.558-.731t-2.755-.731q-1.491-.338-3.29-.591t-4.1-.366a5.993,5.993,0,0,0-3.993.731,7.367,7.367,0,0,0-2.193,2.474q-2.362,4.217-4.976,9.643T886.76-256.51q-.7,1.553-1.368,3.078,5.565.653,11.513,1.2,1.993-3.97,3.969-7.732,2.615-4.976,4.864-9.081-.114,4.5-.056,9.081.05,4.222.153,8.467,5.618.413,11.495.724c.016-.974.028-1.949.048-2.921Q917.489-259.321,917.714-264.5Z" transform="translate(-841.768 283.26)"/><path class="d" d="M1004.07-258.243q1.1-3.767,2.165-7.2t1.912-6.073a4.313,4.313,0,0,0,.2-2.9,3.871,3.871,0,0,0-2.052-1.828,50.068,50.068,0,0,0-5.033-1.968q-2.56-.844-4.864-1.463a9.288,9.288,0,0,0-3.233-.45,3.965,3.965,0,0,0-2.277.984,9.722,9.722,0,0,0-1.968,2.531q-.957,1.659-2.25,4.245-1.293,2.25-2.671,4.78t-2.67,5.061q-1.3,2.531-2.5,4.948t-2.109,4.442q-.9-5.791-1.406-9.109t-.759-5.117q-.253-1.8-.338-2.5a10.332,10.332,0,0,1-.084-1.209q-.226-1.068-.421-1.912a4.961,4.961,0,0,0-.647-1.546,5.023,5.023,0,0,0-1.237-1.293,8.646,8.646,0,0,0-2.136-1.1q-2.137-.787-4.245-1.349a47.386,47.386,0,0,0-5.145-1.012,5.055,5.055,0,0,0-2.9.2,3.565,3.565,0,0,0-1.433,2.39q-.507,2.644-1.041,6.1t-1.069,7.338q-.533,3.879-.984,7.872-.282,2.5-.529,4.884,5.714.271,11.63.44c.048-.276.1-.548.144-.826q.675-3.823,1.406-7.647.657,4.379,1.434,8.552,7.789.186,15.859.188,2.055,0,4.092-.014.865-1.6,1.753-3.215,1.884-3.429,3.571-6.354-.956,3.318-1.771,6.86c-.21.912-.411,1.8-.607,2.685q6.014-.063,11.868-.23c.052-.182.1-.36.153-.543Q1002.974-254.476,1004.07-258.243Z" transform="translate(-873.496 283.137)"/><path class="c" d="M1004.07-258.243q1.1-3.767,2.165-7.2t1.912-6.073a4.313,4.313,0,0,0,.2-2.9,3.871,3.871,0,0,0-2.052-1.828,50.068,50.068,0,0,0-5.033-1.968q-2.56-.844-4.864-1.463a9.288,9.288,0,0,0-3.233-.45,3.965,3.965,0,0,0-2.277.984,9.722,9.722,0,0,0-1.968,2.531q-.957,1.659-2.25,4.245-1.293,2.25-2.671,4.78t-2.67,5.061q-1.3,2.531-2.5,4.948t-2.109,4.442q-.9-5.791-1.406-9.109t-.759-5.117q-.253-1.8-.338-2.5a10.332,10.332,0,0,1-.084-1.209q-.226-1.068-.421-1.912a4.961,4.961,0,0,0-.647-1.546,5.023,5.023,0,0,0-1.237-1.293,8.646,8.646,0,0,0-2.136-1.1q-2.137-.787-4.245-1.349a47.386,47.386,0,0,0-5.145-1.012,5.055,5.055,0,0,0-2.9.2,3.565,3.565,0,0,0-1.433,2.39q-.507,2.644-1.041,6.1t-1.069,7.338q-.533,3.879-.984,7.872-.282,2.5-.529,4.884,5.714.271,11.63.44c.048-.276.1-.548.144-.826q.675-3.823,1.406-7.647.657,4.379,1.434,8.552,7.789.186,15.859.188,2.055,0,4.092-.014.865-1.6,1.753-3.215,1.884-3.429,3.571-6.354-.956,3.318-1.771,6.86c-.21.912-.411,1.8-.607,2.685q6.014-.063,11.868-.23c.052-.182.1-.36.153-.543Q1002.974-254.476,1004.07-258.243Z" transform="translate(-873.496 283.137)"/><path class="d" d="M1078.776-255.826a3,3,0,0,0-1.518-1.461,6.6,6.6,0,0,0-2.474-.281q-1.912.057-3.6.169t-3.374.337q.9-2.98,1.63-5.707t1.575-5.258q3.991-.561,7.591-.956t6.972-.787a3.591,3.591,0,0,0,2.081-.731,2.5,2.5,0,0,0,.225-1.968q-.282-1.293-.562-2.39a11.027,11.027,0,0,0-1.012-2.446q-.9-2.531-4.105-2.474-3.373.114-6.776.534t-6.635.984q-3.234.563-6.185,1.237t-5.37,1.293l-3.674,25.723c9.366-.326,18.359-.848,26.852-1.544-.178-.691-.376-1.376-.6-2.052A11.327,11.327,0,0,0,1078.776-255.826Z" transform="translate(-921.466 282.969)"/><path class="c" d="M1078.776-255.826a3,3,0,0,0-1.518-1.461,6.6,6.6,0,0,0-2.474-.281q-1.912.057-3.6.169t-3.374.337q.9-2.98,1.63-5.707t1.575-5.258q3.991-.561,7.591-.956t6.972-.787a3.591,3.591,0,0,0,2.081-.731,2.5,2.5,0,0,0,.225-1.968q-.282-1.293-.562-2.39a11.027,11.027,0,0,0-1.012-2.446q-.9-2.531-4.105-2.474-3.373.114-6.776.534t-6.635.984q-3.234.563-6.185,1.237t-5.37,1.293l-3.674,25.723c9.366-.326,18.359-.848,26.852-1.544-.178-.691-.376-1.376-.6-2.052A11.327,11.327,0,0,0,1078.776-255.826Z" transform="translate(-921.466 282.969)"/><path class="d" d="M1136.376-269.1q1.434-4.329,2.9-8.547a3.955,3.955,0,0,0,.14-2.558,4.775,4.775,0,0,0-1.883-2.109,19.269,19.269,0,0,0-3.458-1.856,28.423,28.423,0,0,0-3.683-1.293,3.852,3.852,0,0,0-2.671-.225,2.992,2.992,0,0,0-1.321,2.136q-.957,3.6-2.025,8.154t-2.08,9.221q-1.012,4.669-1.827,9.081c-.123.665-.239,1.309-.349,1.935q6.372-.631,12.283-1.392.586-1.965,1.223-4Q1134.942-264.771,1136.376-269.1Z" transform="translate(-953.003 285.841)"/><path class="c" d="M1136.376-269.1q1.434-4.329,2.9-8.547a3.955,3.955,0,0,0,.14-2.558,4.775,4.775,0,0,0-1.883-2.109,19.269,19.269,0,0,0-3.458-1.856,28.423,28.423,0,0,0-3.683-1.293,3.852,3.852,0,0,0-2.671-.225,2.992,2.992,0,0,0-1.321,2.136q-.957,3.6-2.025,8.154t-2.08,9.221q-1.012,4.669-1.827,9.081c-.123.665-.239,1.309-.349,1.935q6.372-.631,12.283-1.392.586-1.965,1.223-4Q1134.942-264.771,1136.376-269.1Z" transform="translate(-953.003 285.841)"/><path class="d" d="M1179.613-269.1q1.434-4.329,2.9-8.547a3.956,3.956,0,0,0,.14-2.558,4.776,4.776,0,0,0-1.883-2.109,19.27,19.27,0,0,0-3.458-1.856,28.423,28.423,0,0,0-3.683-1.293,3.852,3.852,0,0,0-2.671-.225,2.992,2.992,0,0,0-1.322,2.136q-.957,3.6-2.024,8.154t-2.08,9.221q-.9,4.139-1.637,8.074c4.638-.749,8.969-1.562,12.962-2.431l.006-.021Q1178.178-264.771,1179.613-269.1Z" transform="translate(-973.748 285.841)"/><path class="c" d="M1179.613-269.1q1.434-4.329,2.9-8.547a3.956,3.956,0,0,0,.14-2.558,4.776,4.776,0,0,0-1.883-2.109,19.27,19.27,0,0,0-3.458-1.856,28.423,28.423,0,0,0-3.683-1.293,3.852,3.852,0,0,0-2.671-.225,2.992,2.992,0,0,0-1.322,2.136q-.957,3.6-2.024,8.154t-2.08,9.221q-.9,4.139-1.637,8.074c4.638-.749,8.969-1.562,12.962-2.431l.006-.021Q1178.178-264.771,1179.613-269.1Z" transform="translate(-973.748 285.841)"/></g></g></g></g><rect class="a" width="332" height="202" transform="translate(399 113)"/></g></svg>