<svg xmlns="http://www.w3.org/2000/svg" width="324" height="163" viewBox="0 0 324 163"><defs><style>.a{fill:#f26c36;}.b{fill:none;}.c{fill:#ffde31;}.d{fill:#fff;opacity:0.34;}</style></defs><g transform="translate(-724 -113)"><g transform="matrix(0.985, -0.174, 0.174, 0.985, 2223.035, 721.168)"><path d="M-1099.994-776.64l0-.014a11.107,11.107,0,0,0-4.393-5.35,27.845,27.845,0,0,0-4.978-2.685,38.67,38.67,0,0,0-4.738-1.673,9.751,9.751,0,0,0-7.274.028c-2.415,1.092-4.055,3.254-4.861,6.384-.108.409-.219.828-.329,1.254q-.673-.595-1.447-1.249a20.787,20.787,0,0,0-4.08-2.72,11.225,11.225,0,0,0-5.889-1.255,8.092,8.092,0,0,0-6.882,5.113c-2,3.575-4.038,7.16-6.062,10.67-.8-2.358-1.573-4.532-2.322-6.489-.073-.187-.152-.37-.242-.549a20.481,20.481,0,0,0-2.717-4.274,10.979,10.979,0,0,0-5.957-3.351,19.345,19.345,0,0,0-5.394-.5q-1.834.1-3.828.225a6.077,6.077,0,0,0-.763.1c-1.079.208-4.362.842-6.111,3.855a6.816,6.816,0,0,0-.584,1.332,27.147,27.147,0,0,0-6.777-3.639,30.744,30.744,0,0,0-9.213-1.811,43.186,43.186,0,0,0-8.718.518,45.475,45.475,0,0,0-7.988,2.046h0a45.417,45.417,0,0,0-6.462,2.856,11,11,0,0,0-4.559-2.895q-.249-.089-.5-.155c-.875-.228-1.75-.478-2.6-.744-1.1-.342-2.295-.659-3.556-.946-1.277-.288-2.686-.542-4.19-.754s-3.192-.363-5.058-.457a12.5,12.5,0,0,0-8.4,1.93,14.324,14.324,0,0,0-4.253,4.77c-1.2,2.148-2.459,4.521-3.75,7.082,0-.035-.006-.068-.011-.1-.019-.126-.043-.252-.07-.376-.226-1.036-.455-2.009-.684-2.9a17.728,17.728,0,0,0-1.486-3.766c-1.665-4.058-5.459-6.419-10.263-6.33l-.1,0c-2.7.091-5.447.307-8.154.642-2.613.323-5.218.71-7.746,1.149s-4.958.926-7.259,1.452c-2.24.511-4.32,1.012-6.182,1.489a6.076,6.076,0,0,0-3.843,3.027c-.656-.818-1.332-1.619-2.039-2.387q-.11-.12-.226-.233a17.829,17.829,0,0,0-9.751-4.97,29.61,29.61,0,0,0-9.858.14,48.6,48.6,0,0,0-9.607,2.775c-2.9,1.158-5.729,2.362-8.421,3.576q-.2.089-.384.19a9.985,9.985,0,0,0-4.3,5.24,33.8,33.8,0,0,0-1.71,5.542c-.446,1.94-.875,4.148-1.274,6.563-.388,2.354-.75,4.815-1.073,7.314-.315,2.439-.617,4.938-.9,7.428-.27,2.406-.517,4.736-.734,6.929q-.32,3.227-.544,5.786-.217,2.491-.342,3.8c0,.04-.007.079-.01.119a11.229,11.229,0,0,0,.837,5.591,9.754,9.754,0,0,0,4.139,4.437c.07.04.141.08.213.118a15.13,15.13,0,0,0,4.23,1.48c.743.141,1.629.345,2.635.606.08.021.16.039.239.057a11.314,11.314,0,0,0,2.468.295,7.663,7.663,0,0,0,3.912-1,8.083,8.083,0,0,0,3.561-4.74,5.959,5.959,0,0,0,.158-.613q.326-1.6.658-3.226l.02.018c1.425,1.293,2.839,2.5,4.2,3.591,1.393,1.114,2.6,2.021,3.677,2.772.111.077.225.15.341.22a15.358,15.358,0,0,0,6.449,2.325,14.768,14.768,0,0,0,4.892-.322q1.081-.184,1.854-.338a10.654,10.654,0,0,0,4.411-2.158,10.436,10.436,0,0,0,1.333-1.179c.4.318.769.607,1.116.864.75.556,1.54,1.1,2.351,1.629a13.671,13.671,0,0,0,4,1.765,10.132,10.132,0,0,0,2.645.332,17.246,17.246,0,0,0,4.027-.541c2.556-.47,5.2-.974,7.856-1.5q4.14-.815,8.141-1.565a14.136,14.136,0,0,0,2.207-.573c.209.153.419.307.645.444q.484.295,1.128.726a6.111,6.111,0,0,0,.648.376c.788.395,1.584.76,2.363,1.087q1.068.448,1.962.792c.063.024.126.047.189.069a9.7,9.7,0,0,0,5.717.457,7.992,7.992,0,0,0,5.2-4.559c.024-.052.047-.1.07-.155q.874-2,1.81-4.089.386-.862.832-1.793c1.521-.317,3.184-.6,4.974-.855h0q1.526-.216,3.055-.427.149,1.444.328,2.737a10.543,10.543,0,0,0,2.269,5.582,10.022,10.022,0,0,0,4.87,2.961,17.052,17.052,0,0,0,4.285.875c1.059.072,2.218.108,3.445.108a8.876,8.876,0,0,0,6.272-2.082,7.288,7.288,0,0,0,1.522-2.052c.449.309.883.6,1.29.862a39.448,39.448,0,0,0,3.665,2.062l.078.038a15.585,15.585,0,0,0,6.785,1.624,13.882,13.882,0,0,0,4.43-.725,52.64,52.64,0,0,0,12.6-5.318,48.025,48.025,0,0,0,9.868-7.677,41.673,41.673,0,0,0,6.906-9.323,39.862,39.862,0,0,0,3.03-7.234q.779,2.188,1.507,4.255c-.4,2.429-.708,4.693-.927,6.747-.237,2.241-.5,4.243-.776,5.95q-.04.251-.06.5a10.463,10.463,0,0,0,.977,5.761,10.75,10.75,0,0,0,3.974,4.079,6.119,6.119,0,0,0,.958.5c1.05.43,2.209.854,3.449,1.259s2.431.75,3.57,1.034l.108.026a13.079,13.079,0,0,0,2.941.383,7.608,7.608,0,0,0,3.115-.627,7.775,7.775,0,0,0,4.314-5.6c.023-.089.043-.178.06-.267q.691-3.395,1.447-7.011c.423-2.025.928-4.22,1.5-6.539,1.659-2.384,3.387-4.893,5.146-7.475,1.593-2.34,3.125-4.635,4.574-6.853-.541,2.981-.976,5.648-1.293,7.933a10.329,10.329,0,0,0,.575,6.068,11.289,11.289,0,0,0-2.4,3.151l0,.008a12.173,12.173,0,0,0-1.328,5.02,11.392,11.392,0,0,0,4.274,9.709,13.737,13.737,0,0,0,8.613,2.885l.27,0a12.337,12.337,0,0,0,4.83-.966,13.69,13.69,0,0,0,3.411-2.071,13.294,13.294,0,0,0,2.446-2.692,11.709,11.709,0,0,0,1.469-2.861,11.2,11.2,0,0,0,.527-3.88,10.785,10.785,0,0,0-.883-3.917,9.487,9.487,0,0,0,1.437-3.279c.613-2.451,1.329-5.136,2.127-7.985s1.7-5.868,2.663-8.949c.958-3.06,1.989-6.257,3.064-9.5s2.16-6.447,3.224-9.517c.008-.023.017-.047.024-.07A10.353,10.353,0,0,0-1099.994-776.64Zm-97.444,30.426c.843-3.978,1.789-8.038,2.825-12.114a3.479,3.479,0,0,1,.675.342,6.373,6.373,0,0,1,.193,2.74,16.9,16.9,0,0,1-.993,4.384,20.61,20.61,0,0,1-2.642,4.957c-.057.081-.115.161-.174.242ZM-1309.4-737.48q-.53-.529-1.053-1.061,2.376-1.355,4.473-2.785l-.9,6.312C-1307.729-735.825-1308.573-736.647-1309.4-737.48Zm50.206-23.571c-1.194,2.546-2.375,5.1-3.516,7.638q-.774,1.721-1.52,3.42a18.877,18.877,0,0,0-1.638-3.525,9.315,9.315,0,0,0-4.843-4.3,12.717,12.717,0,0,0-4.523-.712c.013-.043.025-.086.038-.13,1.558-.2,3.071-.379,4.525-.538q4.063-.444,7.876-.889l.124-.016A12.493,12.493,0,0,0-1259.2-761.051Z" transform="translate(0 0)"/><g transform="translate(-1345.206 -781.254)"><g transform="translate(0 4.003)"><path class="a" d="M-1329.1-722.726q-.727,3.537-1.421,6.946a2.252,2.252,0,0,1-.853,1.326,3.06,3.06,0,0,1-1.989,0q-1.706-.443-3.032-.695a9,9,0,0,1-2.526-.884,3.79,3.79,0,0,1-1.642-1.673,5.436,5.436,0,0,1-.315-2.621q.127-1.326.347-3.852t.537-5.715q.317-3.188.726-6.852t.884-7.325q.474-3.661,1.042-7.1t1.2-6.188a28.261,28.261,0,0,1,1.389-4.547,4.449,4.449,0,0,1,1.579-2.241q3.914-1.767,8.178-3.473a42.3,42.3,0,0,1,8.4-2.431,23.424,23.424,0,0,1,7.83-.127,11.8,11.8,0,0,1,6.473,3.315,39.812,39.812,0,0,1,4.01,5.147,22.154,22.154,0,0,1,2.809,6.725,10.346,10.346,0,0,1-.631,6.946,22.894,22.894,0,0,1-7.293,8.019,68.7,68.7,0,0,1-12.155,6.82q1.452,1.643,3.189,3.473t3.568,3.662q1.831,1.833,3.631,3.536t3.378,2.968q1.263,1.075,1.137,1.705a2.44,2.44,0,0,1-1.073,1.325,5,5,0,0,1-1.926,1.042c-.527.105-1.168.221-1.927.347a8.546,8.546,0,0,1-3.062.221,9.6,9.6,0,0,1-3.884-1.484q-1.453-1.009-3.346-2.526t-3.915-3.346q-2.021-1.831-4.041-3.821a48.6,48.6,0,0,1-3.663-4.009Q-1328.373-726.262-1329.1-722.726Zm6.409-26.142q-.947,3.663-2.146,7.83a35.893,35.893,0,0,0,7.735-3.568,35.047,35.047,0,0,0,5.652-4.294,16.326,16.326,0,0,0,3.283-4.136,4.082,4.082,0,0,0,.632-3.031q-.758-1.767-4.484-1.768a20.786,20.786,0,0,0-4.041.442,19.489,19.489,0,0,0-4.672,1.641Q-1321.743-752.532-1322.689-748.869Z" transform="translate(1340.903 770.76)"/><path class="a" d="M-1255.831-767.069q3.315-.758,6.947-1.389t7.451-1.105q3.819-.474,7.609-.6,3.6-.062,4.609,2.778a12.307,12.307,0,0,1,1.137,2.747q.315,1.232.632,2.684a2.814,2.814,0,0,1-.253,2.21,4.035,4.035,0,0,1-2.336.821q-3.789.442-7.831.883t-8.525,1.073q-.947,2.842-1.768,5.9t-1.831,6.41q1.894-.251,3.789-.379t4.04-.189a7.427,7.427,0,0,1,2.779.316,3.368,3.368,0,0,1,1.705,1.642,12.688,12.688,0,0,1,1.168,2.494q.41,1.232.726,2.495.505,1.453.094,1.958a4.2,4.2,0,0,1-2.178.884q-3.788.7-7.735,1.326t-7.609,1.389q-.507,2.022-.947,3.821t-.947,3.567q2.967-.5,5.651-.821t5.841-.5a6.583,6.583,0,0,1,2.747.252,3.472,3.472,0,0,1,1.673,1.516,14.537,14.537,0,0,1,1.168,2.368q.41,1.105.915,2.241a2.349,2.349,0,0,1,0,1.737q-.316.474-2.02.79-4.042.757-8.209,1.578t-7.957,1.516a8.193,8.193,0,0,1-3.82.284,7.556,7.556,0,0,1-2.242-.978q-1.075-.694-2.052-1.421t-2.3-1.863a6.358,6.358,0,0,1-1.673-2.084,5.509,5.509,0,0,1-.474-2.9l6-41.992Q-1259.147-766.31-1255.831-767.069Z" transform="translate(1312.342 770.647)"/><path class="a" d="M-1188.862-726.1a72.792,72.792,0,0,0-8.3,1.61q-1.263,2.462-2.21,4.578t-1.832,4.136a2.074,2.074,0,0,1-1.232,1.263,4.091,4.091,0,0,1-2.178-.316q-.821-.316-1.8-.726t-1.989-.915q-.758-.5-1.326-.852a2.632,2.632,0,0,1-.884-.852,2.61,2.61,0,0,1-.348-1.294,7.143,7.143,0,0,1,.348-2.116q1.515-4.356,3.946-10.23t5.241-12.124q2.809-6.252,5.747-12.345t5.589-10.829a8.264,8.264,0,0,1,2.462-2.778,6.729,6.729,0,0,1,4.483-.821q2.589.128,4.61.41t3.695.663q1.672.379,3.094.821t2.873.821a4.083,4.083,0,0,1,2.495,1.831,5.626,5.626,0,0,1,.347,2.968q-.379,4.484-.631,10.293t-.379,12.124q-.127,6.316-.158,12.661t.032,11.777a2.113,2.113,0,0,1-.473,1.579,3.371,3.371,0,0,1-2.116.442q-1.643,0-3.031-.094a10.922,10.922,0,0,1-2.842-.6,4.385,4.385,0,0,1-2.115-1.137,4.918,4.918,0,0,1-.852-2.462q-.254-1.831-.443-4.01t-.379-4.767Q-1184.158-726.761-1188.862-726.1Zm3.094-10.893q2.873-.315,5.778-.505-.126-5.177-.189-10.325t.063-10.2q-2.525,4.61-5.462,10.2t-5.9,11.587Q-1188.64-736.674-1185.768-736.991Z" transform="translate(1290.08 770.88)"/><path class="a" d="M-1123.057-767.61a39.177,39.177,0,0,1,6.915-1.768,36.851,36.851,0,0,1,7.483-.442,24.534,24.534,0,0,1,7.387,1.452,21.3,21.3,0,0,1,6.6,3.884,20.86,20.86,0,0,1,5.115,6.883,21.037,21.037,0,0,1,2.21,7.451,25.982,25.982,0,0,1-.474,8.3,32.255,32.255,0,0,1-3.189,8.493,35.416,35.416,0,0,1-5.9,7.956,41.774,41.774,0,0,1-8.62,6.693,46.491,46.491,0,0,1-11.3,4.736,8.538,8.538,0,0,1-6.757-.568,33.332,33.332,0,0,1-3.094-1.736q-1.326-.853-3.031-2.116-.631-.568-1.2-1.105a5.587,5.587,0,0,1-.979-1.231,4.409,4.409,0,0,1-.537-1.7,11.015,11.015,0,0,1,.063-2.589l3.662-40.1A39.005,39.005,0,0,1-1123.057-767.61Zm11.272,38.708a32.292,32.292,0,0,0,5.809-6.156,26.571,26.571,0,0,0,3.411-6.441,22.8,22.8,0,0,0,1.325-6,11.367,11.367,0,0,0-.884-6,7.082,7.082,0,0,0-3.978-3.22,10.477,10.477,0,0,0-6.946.252q-2.211,8.274-3.916,16.324t-3.284,16.26A33.7,33.7,0,0,0-1111.785-728.9Z" transform="translate(1259.384 770.526)"/><path class="a" d="M-1016.528-754.687q-2.116,3.537-4.768,7.641t-5.619,8.461q-2.969,4.357-5.747,8.335-1.075,4.23-1.831,7.862t-1.452,7.04q-.317,1.262-.885,1.515a4.116,4.116,0,0,1-2.21-.126q-1.515-.379-3.157-.916t-3.031-1.105a5.028,5.028,0,0,1-1.831-1.736,4.742,4.742,0,0,1-.316-2.495q.441-2.713.822-6.283t1.136-7.924q-1.326-3.789-2.842-8.02t-3.031-8.493q-1.516-4.262-2.937-8.335t-2.557-7.609q-.694-1.705-.347-2.3t1.989-.916q1.957-.126,3.757-.221a13.171,13.171,0,0,1,3.694.348,5.069,5.069,0,0,1,2.747,1.421,14.865,14.865,0,0,1,1.863,3q1.451,3.789,3.03,8.651t3.284,10.293q3.409-5.43,6.693-11.114t6.567-11.556a2.148,2.148,0,0,1,1.831-1.673,5.216,5.216,0,0,1,2.715.631,14.666,14.666,0,0,1,2.873,1.926q1.42,1.2,2.431,2.147a8.008,8.008,0,0,1,.883,1.294,2.941,2.941,0,0,1,.347,1.232,3.6,3.6,0,0,1-.22,1.358q-.253.726-.695,1.737A59.086,59.086,0,0,1-1016.528-754.687Z" transform="translate(1229.956 770.958)"/></g><g transform="translate(213.65 0)"><path class="a" d="M-989.336-725.549a5.332,5.332,0,0,1,1.737-1.958,6.243,6.243,0,0,1,2.747-1.011,8.981,8.981,0,0,1,3.631.348,7.415,7.415,0,0,1,2.779,1.294,5.637,5.637,0,0,1,1.578,1.863,4.836,4.836,0,0,1,.536,2.021,5.117,5.117,0,0,1-.22,1.768,5.869,5.869,0,0,1-.726,1.358,7.145,7.145,0,0,1-1.326,1.452,7.569,7.569,0,0,1-1.895,1.137,6.28,6.28,0,0,1-2.494.474,7.642,7.642,0,0,1-5.052-1.579A5.3,5.3,0,0,1-990-723.056,6.041,6.041,0,0,1-989.336-725.549ZM-964.2-771.2a4.446,4.446,0,0,1-.158,2.873q-1.643,4.735-3.252,9.6t-3.094,9.6q-1.484,4.735-2.715,9.124t-2.179,8.178a2.276,2.276,0,0,1-.979,1.641,3.3,3.3,0,0,1-2.115-.063,25.222,25.222,0,0,1-3.252-.789,19.944,19.944,0,0,1-2.873-1.168,4.306,4.306,0,0,1-1.926-1.674,4.492,4.492,0,0,1-.158-2.747q.505-3.663,1.421-8.62t2.052-10.2q1.136-5.241,2.336-10.356t2.274-9.156a3.364,3.364,0,0,1,1.484-2.4,4.327,4.327,0,0,1,3,.253,31.876,31.876,0,0,1,4.136,1.452,21.629,21.629,0,0,1,3.883,2.084A5.362,5.362,0,0,1-964.2-771.2Z" transform="translate(990.006 777.533)"/></g></g><g transform="translate(-1345.218 -783.69)"><path class="b" d="M-1314.131-727.906l-.348-.051-.056.2C-1314.4-727.806-1314.268-727.859-1314.131-727.906Z" transform="translate(1330.602 760.578)"/><path class="c" d="M-1324.856-729.16l.056-.2q-7.12-1.027-13.68-2.179-.426,3.335-.8,6.671-.41,3.662-.726,6.852t-.536,5.714q-.221,2.526-.348,3.852a5.436,5.436,0,0,0,.316,2.621,3.791,3.791,0,0,0,1.641,1.673,9.006,9.006,0,0,0,2.526.884q1.326.251,3.031.695a3.06,3.06,0,0,0,1.989,0,2.252,2.252,0,0,0,.852-1.326q.694-3.41,1.421-6.946t1.61-7.388a48.6,48.6,0,0,0,3.662,4.009q2.02,1.989,4.042,3.821t3.915,3.346q1.894,1.516,3.346,2.526a9.612,9.612,0,0,0,3.884,1.484,8.546,8.546,0,0,0,3.062-.221q1.137-.19,1.926-.347a5.006,5.006,0,0,0,1.926-1.042,2.448,2.448,0,0,0,1.073-1.326q.125-.63-1.137-1.7-1.579-1.262-3.378-2.968t-3.631-3.536q-1.832-1.83-3.568-3.662t-3.189-3.473a72.483,72.483,0,0,0,10.323-5.566q-10.015-1.091-19.2-2.411C-1324.589-729.259-1324.717-729.206-1324.856-729.16Z" transform="translate(1340.923 761.977)"/><path class="c" d="M-1267.881-708.177a5.511,5.511,0,0,0,.474,2.9,6.377,6.377,0,0,0,1.673,2.083q1.327,1.137,2.305,1.863t2.052,1.42a7.538,7.538,0,0,0,2.241.979,8.2,8.2,0,0,0,3.821-.284q3.788-.7,7.956-1.516t8.209-1.579q1.706-.315,2.021-.789a2.35,2.35,0,0,0,0-1.736q-.506-1.137-.915-2.242a14.582,14.582,0,0,0-1.168-2.368,3.474,3.474,0,0,0-1.673-1.515,6.583,6.583,0,0,0-2.747-.253q-3.158.19-5.841.505t-5.651.821q.5-1.767.947-3.567t.947-3.821q3.66-.758,7.609-1.389t7.735-1.327c.089-.019.17-.039.255-.058-9.785-.548-19.229-1.246-28.256-2.083Z" transform="translate(1312.363 758.297)"/><path class="c" d="M-1206.689-714.469q-2.431,5.873-3.947,10.23a7.133,7.133,0,0,0-.347,2.115,2.6,2.6,0,0,0,.347,1.294,2.631,2.631,0,0,0,.884.852q.569.348,1.327.853,1.01.506,1.989.915t1.8.726a4.082,4.082,0,0,0,2.178.315,2.069,2.069,0,0,0,1.231-1.263q.884-2.02,1.831-4.136t2.21-4.578a72.785,72.785,0,0,1,8.3-1.61q4.7-.663,9.44-1.294.19,2.589.379,4.767t.442,4.009a4.92,4.92,0,0,0,.853,2.463,4.391,4.391,0,0,0,2.115,1.137,10.929,10.929,0,0,0,2.842.6q1.389.1,3.031.094a3.368,3.368,0,0,0,2.115-.442,2.109,2.109,0,0,0,.474-1.578q-.064-5.431-.032-11.777.015-3.1.054-6.2c-13.078-.047-25.823-.354-38.092-.9Q-1205.989-716.156-1206.689-714.469Z" transform="translate(1290.1 756.633)"/><path class="c" d="M-1111.806-711.944a33.691,33.691,0,0,1-8.461,5.02q.985-5.127,2.027-10.186-6.6.1-13.334.109l-.816,8.941a11.046,11.046,0,0,0-.064,2.59,4.411,4.411,0,0,0,.537,1.7,5.6,5.6,0,0,0,.979,1.232q.568.537,1.2,1.105,1.705,1.264,3.032,2.115a33.019,33.019,0,0,0,3.094,1.737,8.532,8.532,0,0,0,6.757.568,46.46,46.46,0,0,0,11.3-4.736,41.74,41.74,0,0,0,8.62-6.693,35.451,35.451,0,0,0,5.9-7.956c.279-.519.537-1.039.785-1.559q-8.017.364-16.3.594A33.142,33.142,0,0,1-1111.806-711.944Z" transform="translate(1259.404 756.665)"/><path class="c" d="M-1039.115-718.421q-.757,4.356-1.136,7.924t-.821,6.283a4.747,4.747,0,0,0,.315,2.495,5.034,5.034,0,0,0,1.832,1.736q1.387.568,3.03,1.105t3.158.916a4.123,4.123,0,0,0,2.21.126q.569-.253.884-1.516.694-3.41,1.453-7.041t1.832-7.862q2.432-3.484,5.015-7.265-8.941.776-18.378,1.371C-1039.517-719.566-1039.314-718.988-1039.115-718.421Z" transform="translate(1223.654 758.059)"/><path class="c" d="M-983.993-719.254a4.491,4.491,0,0,0,.158,2.747,4.3,4.3,0,0,0,1.926,1.674,19.944,19.944,0,0,0,2.873,1.168,25.207,25.207,0,0,0,3.252.789,3.3,3.3,0,0,0,2.115.063,2.276,2.276,0,0,0,.979-1.641q.947-3.789,2.179-8.178.584-2.082,1.226-4.245-6.669.9-13.769,1.685Q-983.629-721.89-983.993-719.254Z" transform="translate(1201.366 760.156)"/><path class="c" d="M-977.442-699.428a7.416,7.416,0,0,0-2.779-1.294,8.98,8.98,0,0,0-3.631-.348,6.242,6.242,0,0,0-2.747,1.011,5.331,5.331,0,0,0-1.737,1.957,6.041,6.041,0,0,0-.663,2.494,5.3,5.3,0,0,0,1.958,4.673,7.642,7.642,0,0,0,5.052,1.579,6.282,6.282,0,0,0,2.494-.474,7.572,7.572,0,0,0,1.895-1.137,7.145,7.145,0,0,0,1.326-1.452,5.865,5.865,0,0,0,.726-1.358,5.116,5.116,0,0,0,.22-1.768,4.837,4.837,0,0,0-.536-2.021A5.636,5.636,0,0,0-977.442-699.428Z" transform="translate(1203.278 750.085)"/><path class="c" d="M-1294.556-753.536a10.355,10.355,0,0,0,.631-6.947,22.165,22.165,0,0,0-2.81-6.724,39.715,39.715,0,0,0-4.01-5.147,11.792,11.792,0,0,0-6.472-3.315,23.427,23.427,0,0,0-7.83.127,42.343,42.343,0,0,0-8.4,2.431q-4.263,1.705-8.177,3.473a4.451,4.451,0,0,0-1.579,2.242,28.219,28.219,0,0,0-1.389,4.546q-.633,2.747-1.2,6.188t-1.042,7.1c-.028.219-.051.437-.079.655q6.554,1.152,13.68,2.179,1.164-4.055,2.09-7.633.948-3.661,1.958-6.883a19.474,19.474,0,0,1,4.672-1.642,20.793,20.793,0,0,1,4.042-.443q3.725,0,4.483,1.768a4.085,4.085,0,0,1-.632,3.032,16.336,16.336,0,0,1-3.284,4.136,35.038,35.038,0,0,1-5.652,4.294,35.584,35.584,0,0,1-7.331,3.421q9.171,1.315,19.2,2.411c.628-.413,1.244-.83,1.832-1.254A22.9,22.9,0,0,0-1294.556-753.536Z" transform="translate(1339.354 779.345)"/><path class="d" d="M-1294.556-753.536a10.355,10.355,0,0,0,.631-6.947,22.165,22.165,0,0,0-2.81-6.724,39.715,39.715,0,0,0-4.01-5.147,11.792,11.792,0,0,0-6.472-3.315,23.427,23.427,0,0,0-7.83.127,42.343,42.343,0,0,0-8.4,2.431q-4.263,1.705-8.177,3.473a4.451,4.451,0,0,0-1.579,2.242,28.219,28.219,0,0,0-1.389,4.546q-.633,2.747-1.2,6.188t-1.042,7.1c-.028.219-.051.437-.079.655q6.554,1.152,13.68,2.179,1.164-4.055,2.09-7.633.948-3.661,1.958-6.883a19.474,19.474,0,0,1,4.672-1.642,20.793,20.793,0,0,1,4.042-.443q3.725,0,4.483,1.768a4.085,4.085,0,0,1-.632,3.032,16.336,16.336,0,0,1-3.284,4.136,35.038,35.038,0,0,1-5.652,4.294,35.584,35.584,0,0,1-7.331,3.421q9.171,1.315,19.2,2.411c.628-.413,1.244-.83,1.832-1.254A22.9,22.9,0,0,0-1294.556-753.536Z" transform="translate(1339.354 779.345)"/><path class="c" d="M-1234.414-741.8q.41-.505-.094-1.958-.317-1.262-.727-2.494a12.672,12.672,0,0,0-1.168-2.494,3.364,3.364,0,0,0-1.705-1.642,7.409,7.409,0,0,0-2.778-.316q-2.147.064-4.041.189t-3.788.379q1.008-3.346,1.831-6.41t1.768-5.9q4.482-.63,8.525-1.073t7.83-.884a4.039,4.039,0,0,0,2.336-.821,2.816,2.816,0,0,0,.253-2.21q-.317-1.452-.631-2.684a12.37,12.37,0,0,0-1.137-2.747q-1.011-2.842-4.61-2.778-3.788.127-7.609.6t-7.451,1.105q-3.632.631-6.946,1.389t-6.03,1.453l-4.006,28.042c9.028.837,18.472,1.535,28.256,2.083A3.78,3.78,0,0,0-1234.414-741.8Z" transform="translate(1311.069 779.233)"/><path class="d" d="M-1234.414-741.8q.41-.505-.094-1.958-.317-1.262-.727-2.494a12.672,12.672,0,0,0-1.168-2.494,3.364,3.364,0,0,0-1.705-1.642,7.409,7.409,0,0,0-2.778-.316q-2.147.064-4.041.189t-3.788.379q1.008-3.346,1.831-6.41t1.768-5.9q4.482-.63,8.525-1.073t7.83-.884a4.039,4.039,0,0,0,2.336-.821,2.816,2.816,0,0,0,.253-2.21q-.317-1.452-.631-2.684a12.37,12.37,0,0,0-1.137-2.747q-1.011-2.842-4.61-2.778-3.788.127-7.609.6t-7.451,1.105q-3.632.631-6.946,1.389t-6.03,1.453l-4.006,28.042c9.028.837,18.472,1.535,28.256,2.083A3.78,3.78,0,0,0-1234.414-741.8Z" transform="translate(1311.069 779.233)"/><path class="c" d="M-1163.009-758.393q.251-5.809.631-10.292a5.628,5.628,0,0,0-.348-2.968,4.077,4.077,0,0,0-2.494-1.831q-1.454-.379-2.873-.821t-3.094-.821q-1.674-.379-3.694-.663t-4.61-.41a6.729,6.729,0,0,0-4.483.821,8.282,8.282,0,0,0-2.462,2.778q-2.652,4.736-5.589,10.83t-5.746,12.345q-2,4.459-3.813,8.722c12.269.544,25.014.851,38.092.9q.039-3.235.1-6.462Q-1163.263-752.582-1163.009-758.393Zm-19.1,15.913q-2.874.316-5.715.757,2.967-6,5.9-11.587t5.462-10.2q-.128,5.052-.063,10.2t.189,10.325Q-1179.238-742.8-1182.11-742.479Z" transform="translate(1286.423 779.466)"/><path class="d" d="M-1163.009-758.393q.251-5.809.631-10.292a5.628,5.628,0,0,0-.348-2.968,4.077,4.077,0,0,0-2.494-1.831q-1.454-.379-2.873-.821t-3.094-.821q-1.674-.379-3.694-.663t-4.61-.41a6.729,6.729,0,0,0-4.483.821,8.282,8.282,0,0,0-2.462,2.778q-2.652,4.736-5.589,10.83t-5.746,12.345q-2,4.459-3.813,8.722c12.269.544,25.014.851,38.092.9q.039-3.235.1-6.462Q-1163.263-752.582-1163.009-758.393Zm-19.1,15.913q-2.874.316-5.715.757,2.967-6,5.9-11.587t5.462-10.2q-.128,5.052-.063,10.2t.189,10.325Q-1179.238-742.8-1182.11-742.479Z" transform="translate(1286.423 779.466)"/><path class="c" d="M-1086.771-755.638a21.009,21.009,0,0,0-2.21-7.451,20.884,20.884,0,0,0-5.115-6.883,21.32,21.32,0,0,0-6.6-3.883,24.53,24.53,0,0,0-7.388-1.452,36.807,36.807,0,0,0-7.483.442,39.161,39.161,0,0,0-6.914,1.768,39.046,39.046,0,0,0-5.652,2.495l-2.845,31.157q6.726-.009,13.334-.109c.415-2.029.83-4.059,1.257-6.074q1.705-8.052,3.915-16.324a10.474,10.474,0,0,1,6.946-.252,7.085,7.085,0,0,1,3.978,3.22,11.374,11.374,0,0,1,.884,6,22.8,22.8,0,0,1-1.326,6,26.52,26.52,0,0,1-3.41,6.441q-.263.373-.544.74,8.273-.228,16.3-.594a31.465,31.465,0,0,0,2.4-6.935A25.956,25.956,0,0,0-1086.771-755.638Z" transform="translate(1258.807 779.111)"/><path class="d" d="M-1086.771-755.638a21.009,21.009,0,0,0-2.21-7.451,20.884,20.884,0,0,0-5.115-6.883,21.32,21.32,0,0,0-6.6-3.883,24.53,24.53,0,0,0-7.388-1.452,36.807,36.807,0,0,0-7.483.442,39.161,39.161,0,0,0-6.914,1.768,39.046,39.046,0,0,0-5.652,2.495l-2.845,31.157q6.726-.009,13.334-.109c.415-2.029.83-4.059,1.257-6.074q1.705-8.052,3.915-16.324a10.474,10.474,0,0,1,6.946-.252,7.085,7.085,0,0,1,3.978,3.22,11.374,11.374,0,0,1,.884,6,22.8,22.8,0,0,1-1.326,6,26.52,26.52,0,0,1-3.41,6.441q-.263.373-.544.74,8.273-.228,16.3-.594a31.465,31.465,0,0,0,2.4-6.935A25.956,25.956,0,0,0-1086.771-755.638Z" transform="translate(1258.807 779.111)"/><path class="c" d="M-1021.316-752.534q2.652-4.1,4.768-7.641a59.247,59.247,0,0,0,3.189-5.936q.44-1.009.695-1.736a3.614,3.614,0,0,0,.22-1.358,2.952,2.952,0,0,0-.347-1.231,8.023,8.023,0,0,0-.884-1.294q-1.011-.947-2.431-2.147a14.621,14.621,0,0,0-2.873-1.926,5.213,5.213,0,0,0-2.715-.631,2.147,2.147,0,0,0-1.831,1.673q-3.284,5.873-6.567,11.556t-6.694,11.114q-1.705-5.43-3.284-10.293t-3.031-8.651a14.857,14.857,0,0,0-1.863-3,5.077,5.077,0,0,0-2.747-1.421,13.168,13.168,0,0,0-3.694-.347q-1.8.095-3.757.221-1.641.317-1.989.916t.347,2.3q1.138,3.537,2.558,7.609t2.937,8.335q1.515,4.262,3.03,8.493,1.174,3.281,2.235,6.293,9.425-.594,18.377-1.371c.244-.357.485-.709.731-1.07Q-1023.969-748.429-1021.316-752.534Z" transform="translate(1229.977 779.543)"/><path class="d" d="M-1021.316-752.534q2.652-4.1,4.768-7.641a59.247,59.247,0,0,0,3.189-5.936q.44-1.009.695-1.736a3.614,3.614,0,0,0,.22-1.358,2.952,2.952,0,0,0-.347-1.231,8.023,8.023,0,0,0-.884-1.294q-1.011-.947-2.431-2.147a14.621,14.621,0,0,0-2.873-1.926,5.213,5.213,0,0,0-2.715-.631,2.147,2.147,0,0,0-1.831,1.673q-3.284,5.873-6.567,11.556t-6.694,11.114q-1.705-5.43-3.284-10.293t-3.031-8.651a14.857,14.857,0,0,0-1.863-3,5.077,5.077,0,0,0-2.747-1.421,13.168,13.168,0,0,0-3.694-.347q-1.8.095-3.757.221-1.641.317-1.989.916t.347,2.3q1.138,3.537,2.558,7.609t2.937,8.335q1.515,4.262,3.03,8.493,1.174,3.281,2.235,6.293,9.425-.594,18.377-1.371c.244-.357.485-.709.731-1.07Q-1023.969-748.429-1021.316-752.534Z" transform="translate(1229.977 779.543)"/><path class="c" d="M-964.017-762.733q1.609-4.862,3.252-9.6a4.445,4.445,0,0,0,.158-2.873,5.362,5.362,0,0,0-2.115-2.368,21.626,21.626,0,0,0-3.883-2.084,31.878,31.878,0,0,0-4.136-1.452,4.327,4.327,0,0,0-3-.253,3.364,3.364,0,0,0-1.484,2.4q-1.074,4.042-2.273,9.156t-2.336,10.356q-1.136,5.242-2.052,10.2c-.172.929-.331,1.821-.481,2.681q7.091-.785,13.769-1.685.71-2.393,1.489-4.88Q-965.628-757.87-964.017-762.733Z" transform="translate(1200.682 781.533)"/><path class="d" d="M-964.017-762.733q1.609-4.862,3.252-9.6a4.445,4.445,0,0,0,.158-2.873,5.362,5.362,0,0,0-2.115-2.368,21.626,21.626,0,0,0-3.883-2.084,31.878,31.878,0,0,0-4.136-1.452,4.327,4.327,0,0,0-3-.253,3.364,3.364,0,0,0-1.484,2.4q-1.074,4.042-2.273,9.156t-2.336,10.356q-1.136,5.242-2.052,10.2c-.172.929-.331,1.821-.481,2.681q7.091-.785,13.769-1.685.71-2.393,1.489-4.88Q-965.628-757.87-964.017-762.733Z" transform="translate(1200.682 781.533)"/></g></g><rect class="b" width="324" height="163" transform="translate(724 113)"/></g></svg>