<svg xmlns="http://www.w3.org/2000/svg" xmlns:xlink="http://www.w3.org/1999/xlink" width="284" height="208" viewBox="0 0 284 208"><defs><style>.a,.cn,.di{fill:none;}.b{fill:#019787;opacity:0.73;}.c{clip-path:url(#a);}.d{fill:#ff2453;}.e{fill:#ff2554;}.f{fill:#ff2655;}.g{fill:#fe2757;}.h{fill:#fe2858;}.i{fill:#fe2a59;}.j{fill:#fe2b5a;}.k{fill:#fd2c5b;}.l{fill:#fd2d5c;}.m{fill:#fd2e5d;}.n{fill:#fd2f5f;}.o{fill:#fc3060;}.p{fill:#fc3161;}.q{fill:#fc3262;}.r{fill:#fc3363;}.s{fill:#fb3464;}.t{fill:#fb3566;}.u{fill:#fb3767;}.v{fill:#fb3868;}.w{fill:#fb3969;}.x{fill:#fa3a6a;}.y{fill:#fa3b6b;}.z{fill:#fa3c6c;}.aa{fill:#fa3d6d;}.ab{fill:#f93e6f;}.ac{fill:#f93f70;}.ad{fill:#f94071;}.ae{fill:#f94172;}.af{fill:#f84273;}.ag{fill:#f84374;}.ah{fill:#f84475;}.ai{fill:#f84576;}.aj{fill:#f84677;}.ak{fill:#f74778;}.al{fill:#f7487a;}.am{fill:#f7497b;}.an{fill:#f74a7c;}.ao{fill:#f64b7d;}.ap{fill:#f64c7e;}.aq{fill:#f64d7f;}.ar{fill:#f64e80;}.as{fill:#f64f81;}.at{fill:#f55082;}.au{fill:#f55183;}.av{fill:#f55284;}.aw{fill:#f55385;}.ax{fill:#f55486;}.ay{fill:#f45587;}.az{fill:#f45688;}.ba{fill:#f45789;}.bb{fill:#f4588a;}.bc{fill:#f3598b;}.bd{fill:#f35a8c;}.be{fill:#f35b8d;}.bf{fill:#f35c8f;}.bg{fill:#f35d90;}.bh{fill:#f25e90;}.bi{fill:#f25f91;}.bj{fill:#f26092;}.bk{fill:#f26193;}.bl{fill:#f26294;}.bm{fill:#f16395;}.bn{fill:#f16496;}.bo{fill:#f16497;}.bp{fill:#f16598;}.bq{fill:#f16699;}.br{fill:#f0679a;}.bs{fill:#f0689b;}.bt{fill:#f0699c;}.bu{fill:#f06a9d;}.bv{fill:#f06b9e;}.bw{fill:#f06b9f;}.bx{fill:#ef6ca0;}.by{fill:#ef6da0;}.bz{fill:#ef6ea1;}.ca{fill:#ef6fa2;}.cb{fill:#ef70a3;}.cc{fill:#ee70a4;}.cd{fill:#ee71a5;}.ce{fill:#ee72a6;}.cf{fill:#ee73a6;}.cg{fill:#ee73a7;}.ch{fill:#ee74a8;}.ci{fill:#ee75a9;}.cj{fill:#ed75a9;}.ck{fill:#ed76aa;}.cl{fill:#ed77ab;}.cm{fill:#77124c;}.cn{stroke:#fff;stroke-linecap:round;stroke-width:3px;}.cn,.db,.de,.di{stroke-miterlimit:10;}.cn,.cq,.dg{opacity:0.8;}.co{clip-path:url(#b);}.cp{fill:url(#c);}.cr{fill:url(#d);}.cs{opacity:0.64;}.ct{fill:#2d1000;}.cu{fill:#2b150b;}.cv{fill:#ffde31;}.cw,.dd{opacity:0.6;}.cw,.dd,.dg{mix-blend-mode:multiply;}.cw,.cx,.cy,.cz,.da,.dd,.df,.dg,.dh{isolation:isolate;}.cw{fill:url(#e);}.cx,.cy,.cz,.da,.df,.dh{mix-blend-mode:screen;}.cx{fill:url(#f);}.cy{fill:url(#g);}.cz{fill:url(#h);}.da{fill:url(#i);}.db,.dc,.de{fill:#fffbd4;}.db{stroke:#fffad7;}.db,.de{stroke-width:0.7px;}.dd{fill:url(#j);}.de{stroke:#fdfada;}.df{fill:url(#k);}.dg{fill:url(#l);}.dh{fill:url(#m);}.di{stroke:#707070;}.dj{opacity:0.2;}.dk{fill:#590000;}.dl{fill:#bf7600;}.dm{fill:url(#n);}.dn{fill:#cc6017;}.dn,.dr{opacity:0.3;}.do{fill:#fcf865;opacity:0.63;}.dp{opacity:0.7;}.dq{fill:#ffeda1;}.dr{fill:#b24800;}.ds{fill:#fff;}.dt{fill:url(#o);}.du{fill:url(#p);}</style><clipPath id="a"><path class="a" d="M1808.843,585.222,1793.7,613.87l33.675,18.986.426-21.266,10.616-5.772Z" transform="translate(-1793.702 -585.222)"/></clipPath><clipPath id="b"><path class="a" d="M1546.8,586.536l-29.127,18.25,17.067,6.96-2.931,24.911,35.179-21.014Z" transform="translate(-1517.67 -586.536)"/></clipPath><radialGradient id="c" cx="0.501" cy="0.515" r="2.155" gradientTransform="matrix(0.291, 0.032, -0.009, 0.999, 0.217, -0.01)" gradientUnits="objectBoundingBox"><stop offset="0.081" stop-color="#ed77ab"/><stop offset="0.293" stop-color="#f06598"/><stop offset="0.716" stop-color="#fa396a"/><stop offset="0.907" stop-color="#ff2453"/></radialGradient><linearGradient id="d" x1="-0.005" y1="0.5" x2="1.005" y2="0.5" gradientUnits="objectBoundingBox"><stop offset="0" stop-color="#fff"/><stop offset="0.388" stop-color="#fff"/><stop offset="0.394" stop-color="#fff"/><stop offset="0.782" stop-color="#fff"/></linearGradient><radialGradient id="e" cx="0.475" cy="0.488" r="0.58" gradientTransform="matrix(0.795, 0.066, -0.053, 0.998, -0.237, 0.04)" gradientUnits="objectBoundingBox"><stop offset="0.071" stop-color="#7d2870"/><stop offset="0.951" stop-color="#d61d7d"/></radialGradient><radialGradient id="f" cx="0.5" cy="0.5" r="0.206" gradientTransform="matrix(2.408, -0.054, 0.315, 2.429, -2920.347, 174.576)" gradientUnits="objectBoundingBox"><stop offset="0" stop-color="#fff"/><stop offset="0.047" stop-color="#d1d1d1"/><stop offset="0.098" stop-color="#a5a5a5"/><stop offset="0.156" stop-color="#7d7d7d"/><stop offset="0.218" stop-color="#5b5b5b"/><stop offset="0.285" stop-color="#3f3f3f"/><stop offset="0.36" stop-color="#272727"/><stop offset="0.446" stop-color="#151515"/><stop offset="0.548" stop-color="#090909"/><stop offset="0.685" stop-color="#020202"/><stop offset="1"/></radialGradient><radialGradient id="g" cx="0.5" cy="0.5" r="0.221" gradientTransform="matrix(1.548, 0.402, -1.652, 2.227, -1004.029, -140.456)" xlink:href="#f"/><radialGradient id="h" cx="0.5" cy="0.5" r="0.082" gradientTransform="matrix(1.978, 0.402, -5.776, 6.094, -976.401, -190.848)" gradientUnits="objectBoundingBox"><stop offset="0" stop-color="#fff"/><stop offset="0.073" stop-color="#d2d2d2"/><stop offset="0.165" stop-color="#a1a1a1"/><stop offset="0.262" stop-color="#767676"/><stop offset="0.362" stop-color="#515151"/><stop offset="0.466" stop-color="#333"/><stop offset="0.576" stop-color="#1c1c1c"/><stop offset="0.694" stop-color="#0c0c0c"/><stop offset="0.826" stop-color="#030303"/><stop offset="1"/></radialGradient><radialGradient id="i" cx="0.5" cy="0.5" r="0.221" gradientTransform="matrix(1.548, 0.402, -1.653, 2.227, -1011.629, -142.172)" xlink:href="#f"/><radialGradient id="j" cx="0.493" cy="0.494" r="0.379" gradientTransform="matrix(2.419, 0.066, -0.161, 0.998, 4.19, 0.207)" xlink:href="#e"/><radialGradient id="k" cx="0.5" cy="0.5" r="0.191" gradientTransform="matrix(2.279, 0.208, -1.292, 2.611, -2965.596, -162.223)" xlink:href="#f"/><radialGradient id="l" cx="0.497" cy="0.494" r="0.476" gradientTransform="matrix(1.102, 0.066, -0.073, 0.998, -0.033, 0.07)" xlink:href="#e"/><radialGradient id="m" cx="0.5" cy="0.5" r="0.189" gradientTransform="matrix(2.437, 0.155, -1.021, 2.637, -2975.909, -98.375)" xlink:href="#f"/><linearGradient id="n" x1="-100.776" y1="-53.842" x2="-99.784" y2="-53.842" gradientUnits="objectBoundingBox"><stop offset="0.002" stop-color="#ff9700"/><stop offset="1" stop-color="#fbce3b"/></linearGradient><linearGradient id="o" x1="-117.82" y1="-64.492" x2="-116.824" y2="-64.492" xlink:href="#n"/><linearGradient id="p" x1="-67.515" y1="-56.814" x2="-66.506" y2="-56.814" xlink:href="#n"/></defs><g transform="translate(-1414 -83)"><rect class="a" width="284" height="208" transform="translate(1414 83)"/><g transform="translate(-79.775 -333.109)"><path class="b" d="M1741.848,589.664l3.069-5.374c-7.324-20.453-54.893-35.825-105.157-35.07-53.113.8-93.59,15.6-102.749,34.278l2.171,3.489-19.939,12.493,17.067,6.959-2.932,24.91,35.179-21.014-5.173-7.459c18.448-8.81,44.479-14.028,78.041-14.532,29.03-.436,55.337,6.863,74.875,14.873l-3.031,5.737,33.675,18.986.426-21.267,10.617-5.772Z" transform="translate(-1.328 -32.111)"/><g transform="translate(1709.597 542.305)"><g transform="translate(1.239 0.102)"><g class="c"><rect class="d" width="44.718" height="47.634"/><path class="d" d="M1821.663,594.172a20.748,20.748,0,0,1-32.893,16.173h2.764V582.762h24.52v-3.453A20.693,20.693,0,0,1,1821.663,594.172Z" transform="translate(-1792.237 -583.465)"/><path class="e" d="M1821.5,594.227a20.533,20.533,0,0,1-32.553,16.006h2.638V582.824h24.364v-3.306A20.48,20.48,0,0,1,1821.5,594.227Z" transform="translate(-1792.29 -583.527)"/><path class="f" d="M1821.34,594.283a20.318,20.318,0,0,1-32.212,15.838h2.512V582.886h24.207v-3.159A20.264,20.264,0,0,1,1821.34,594.283Z" transform="translate(-1792.343 -583.589)"/><path class="g" d="M1821.179,594.338a20.1,20.1,0,0,1-31.873,15.671h2.387V582.948h24.05v-3.012A20.051,20.051,0,0,1,1821.179,594.338Z" transform="translate(-1792.396 -583.651)"/><path class="h" d="M1821.017,594.393a19.891,19.891,0,0,1-31.532,15.5h2.261V583.01h23.894v-2.865A19.834,19.834,0,0,1,1821.017,594.393Z" transform="translate(-1792.449 -583.713)"/><path class="i" d="M1820.856,594.449a19.674,19.674,0,0,1-31.192,15.336h2.135V583.072h23.737v-2.718A19.623,19.623,0,0,1,1820.856,594.449Z" transform="translate(-1792.502 -583.775)"/><path class="j" d="M1819.509,594.5a19.468,19.468,0,0,1-33.656,12.7h4.814v-24.07h23.581v-2.571A19.41,19.41,0,0,1,1819.509,594.5Z" transform="translate(-1791.37 -583.838)"/><path class="k" d="M1819.361,594.559a19.253,19.253,0,0,1-33.285,12.561h4.657V583.2h23.424v-2.424A19.194,19.194,0,0,1,1819.361,594.559Z" transform="translate(-1791.436 -583.9)"/><path class="l" d="M1819.212,594.614a19.039,19.039,0,0,1-32.913,12.421h4.5V583.258h23.268v-2.277A18.979,18.979,0,0,1,1819.212,594.614Z" transform="translate(-1791.502 -583.962)"/><path class="m" d="M1819.064,594.67a18.824,18.824,0,0,1-32.543,12.281h4.345v-23.63h23.111V581.19A18.767,18.767,0,0,1,1819.064,594.67Z" transform="translate(-1791.568 -584.024)"/><path class="n" d="M1818.916,594.725a18.609,18.609,0,0,1-32.172,12.141h4.188V583.383h22.954V581.4A18.552,18.552,0,0,1,1818.916,594.725Z" transform="translate(-1791.635 -584.086)"/><path class="o" d="M1818.767,594.78a18.395,18.395,0,0,1-31.8,12H1791V583.445h22.8v-1.837A18.339,18.339,0,0,1,1818.767,594.78Z" transform="translate(-1791.701 -584.148)"/><path class="p" d="M1818.618,594.836A18.18,18.18,0,0,1,1787.19,606.7h3.875v-23.19h22.641v-1.69A18.121,18.121,0,0,1,1818.618,594.836Z" transform="translate(-1791.767 -584.21)"/><path class="q" d="M1818.47,594.891a17.966,17.966,0,0,1-31.058,11.721h3.718V583.569h22.485v-1.543A17.908,17.908,0,0,1,1818.47,594.891Z" transform="translate(-1791.833 -584.272)"/><path class="r" d="M1818.322,594.946a17.751,17.751,0,0,1-30.687,11.581h3.562v-22.9h22.328v-1.4A17.692,17.692,0,0,1,1818.322,594.946Z" transform="translate(-1791.899 -584.334)"/><path class="s" d="M1818.173,595a17.536,17.536,0,0,1-30.315,11.441h3.4V583.693h22.172v-1.249A17.481,17.481,0,0,1,1818.173,595Z" transform="translate(-1791.966 -584.396)"/><path class="t" d="M1818.025,595.057a17.321,17.321,0,0,1-29.944,11.3h3.248v-22.6h22.015v-1.1A17.266,17.266,0,0,1,1818.025,595.057Z" transform="translate(-1792.032 -584.458)"/><path class="u" d="M1817.877,595.112a17.107,17.107,0,0,1-29.574,11.161h3.092V583.817h21.859v-.955A17.053,17.053,0,0,1,1817.877,595.112Z" transform="translate(-1792.098 -584.521)"/><path class="v" d="M1817.728,595.167a16.892,16.892,0,0,1-29.2,11.021h2.935V583.879h21.7v-.808A16.838,16.838,0,0,1,1817.728,595.167Z" transform="translate(-1792.164 -584.583)"/><path class="w" d="M1817.58,595.222a16.677,16.677,0,0,1-28.831,10.881h2.778V583.941h21.546v-.661A16.625,16.625,0,0,1,1817.58,595.222Z" transform="translate(-1792.23 -584.645)"/><path class="x" d="M1817.431,595.278a16.463,16.463,0,0,1-28.46,10.74h2.623V584h21.389v-.515A16.41,16.41,0,0,1,1817.431,595.278Z" transform="translate(-1792.296 -584.707)"/><path class="y" d="M1817.283,595.333a16.249,16.249,0,0,1-28.089,10.6h2.466V584.066h21.232V583.7A16.2,16.2,0,0,1,1817.283,595.333Z" transform="translate(-1792.363 -584.769)"/><path class="z" d="M1817.135,595.388a16.033,16.033,0,0,1-27.718,10.461h2.309V584.128H1812.8v-.221A15.984,15.984,0,0,1,1817.135,595.388Z" transform="translate(-1792.429 -584.831)"/><path class="aa" d="M1816.986,595.443a15.819,15.819,0,0,1-27.346,10.32h2.152V584.19h20.919v-.074A15.766,15.766,0,0,1,1816.986,595.443Z" transform="translate(-1792.495 -584.893)"/><path class="ab" d="M1816.838,593.419a15.6,15.6,0,0,1-26.975,10.18h2V582.173h9.88v-4.847A15.6,15.6,0,0,1,1816.838,593.419Z" transform="translate(-1792.561 -582.876)"/><path class="ac" d="M1816.689,593.5a15.389,15.389,0,0,1-26.6,10.04h1.839v-21.28h9.873v-4.631A15.389,15.389,0,0,1,1816.689,593.5Z" transform="translate(-1792.627 -582.967)"/><path class="ad" d="M1816.541,593.587a15.175,15.175,0,0,1-26.233,9.9h1.683V582.354h9.866v-4.417A15.175,15.175,0,0,1,1816.541,593.587Z" transform="translate(-1792.694 -583.057)"/><path class="ae" d="M1816.393,593.671a14.96,14.96,0,0,1-25.861,9.76h1.526V582.445h9.86v-4.2A14.96,14.96,0,0,1,1816.393,593.671Z" transform="translate(-1792.76 -583.148)"/><path class="af" d="M1816.244,593.755a14.746,14.746,0,0,1-25.491,9.62h1.37V582.536h9.853v-3.988A14.744,14.744,0,0,1,1816.244,593.755Z" transform="translate(-1792.826 -583.239)"/><path class="ag" d="M1816.1,593.835a14.531,14.531,0,0,1-25.12,9.48h1.213V582.776h-.559a14.531,14.531,0,0,1,24.465,11.059Z" transform="translate(-1792.892 -583.326)"/><path class="ah" d="M1815.947,593.919a14.316,14.316,0,0,1-24.748,9.34h1.056V583.024h-.412a14.315,14.315,0,0,1,24.1,10.9Z" transform="translate(-1792.958 -583.417)"/><path class="ai" d="M1814.188,594a14.1,14.1,0,0,1-24.377,9.2h.9v-10.1H1786a14.1,14.1,0,1,1,28.188.9Z" transform="translate(-1791.414 -583.508)"/><circle class="aj" cx="13.886" cy="13.886" r="13.886" transform="translate(-5.206 -3.84)"/><circle class="ak" cx="13.672" cy="13.672" r="13.672" transform="translate(-4.991 -3.625)"/><circle class="al" cx="13.457" cy="13.457" r="13.457" transform="translate(-4.777 -3.411)"/><circle class="am" cx="13.242" cy="13.242" r="13.242" transform="translate(-4.562 -3.196)"/><circle class="an" cx="13.028" cy="13.028" r="13.028" transform="translate(-4.347 -2.981)"/><circle class="ao" cx="12.813" cy="12.813" r="12.813" transform="translate(-4.133 -2.766)"/><circle class="ap" cx="12.598" cy="12.598" r="12.598" transform="translate(-3.918 -2.552)"/><circle class="aq" cx="12.384" cy="12.384" r="12.384" transform="translate(-3.703 -2.337)"/><circle class="ar" cx="12.169" cy="12.169" r="12.169" transform="translate(-3.488 -2.122)"/><circle class="as" cx="11.954" cy="11.954" r="11.954" transform="translate(-3.274 -1.908)"/><circle class="at" cx="11.74" cy="11.74" r="11.74" transform="translate(-3.059 -1.693)"/><circle class="au" cx="11.525" cy="11.525" r="11.525" transform="translate(-2.844 -1.478)"/><circle class="av" cx="11.31" cy="11.31" r="11.31" transform="translate(-2.63 -1.264)"/><circle class="aw" cx="11.095" cy="11.095" r="11.095" transform="translate(-2.415 -1.049)"/><circle class="ax" cx="10.881" cy="10.881" r="10.881" transform="translate(-2.2 -0.834)"/><circle class="ay" cx="10.666" cy="10.666" r="10.666" transform="translate(-1.986 -0.62)"/><circle class="az" cx="10.451" cy="10.451" r="10.451" transform="translate(-1.771 -0.405)"/><circle class="ba" cx="10.237" cy="10.237" r="10.237" transform="translate(-1.556 -0.19)"/><circle class="bb" cx="10.022" cy="10.022" r="10.022" transform="translate(-1.342 0.024)"/><circle class="bc" cx="9.807" cy="9.807" r="9.807" transform="translate(-1.127 0.239)"/><circle class="bd" cx="9.593" cy="9.593" r="9.593" transform="translate(-0.912 0.454)"/><circle class="be" cx="9.378" cy="9.378" r="9.378" transform="translate(-0.698 0.669)"/><circle class="bf" cx="9.163" cy="9.163" r="9.163" transform="translate(-0.483 0.883)"/><circle class="bg" cx="8.949" cy="8.949" r="8.949" transform="translate(-0.268 1.098)"/><circle class="bh" cx="8.734" cy="8.734" r="8.734" transform="translate(-0.053 1.313)"/><circle class="bi" cx="8.519" cy="8.519" r="8.519" transform="translate(0.161 1.527)"/><circle class="bj" cx="8.305" cy="8.305" r="8.305" transform="translate(0.376 1.742)"/><circle class="bk" cx="8.09" cy="8.09" r="8.09" transform="translate(0.591 1.957)"/><circle class="bl" cx="7.875" cy="7.875" r="7.875" transform="translate(0.805 2.171)"/><circle class="bm" cx="7.66" cy="7.66" r="7.66" transform="translate(1.02 2.386)"/><circle class="bn" cx="7.446" cy="7.446" r="7.446" transform="translate(1.235 2.601)"/><circle class="bo" cx="7.231" cy="7.231" r="7.231" transform="translate(1.449 2.815)"/><circle class="bp" cx="7.016" cy="7.016" r="7.016" transform="translate(1.664 3.03)"/><circle class="bq" cx="6.802" cy="6.802" r="6.802" transform="translate(1.879 3.245)"/><circle class="br" cx="6.587" cy="6.587" r="6.587" transform="translate(2.093 3.459)"/><circle class="bs" cx="6.372" cy="6.372" r="6.372" transform="translate(2.308 3.674)"/><circle class="bt" cx="6.158" cy="6.158" r="6.158" transform="translate(2.523 3.889)"/><circle class="bu" cx="5.943" cy="5.943" r="5.943" transform="translate(2.738 4.104)"/><circle class="bv" cx="5.728" cy="5.728" r="5.728" transform="translate(2.952 4.318)"/><circle class="bw" cx="5.514" cy="5.514" r="5.514" transform="translate(3.167 4.533)"/><circle class="bx" cx="5.299" cy="5.299" r="5.299" transform="translate(3.382 4.748)"/><circle class="by" cx="5.084" cy="5.084" r="5.084" transform="translate(3.596 4.962)"/><circle class="bz" cx="4.87" cy="4.87" r="4.87" transform="translate(3.811 5.177)"/><circle class="ca" cx="4.655" cy="4.655" r="4.655" transform="translate(4.026 5.392)"/><circle class="cb" cx="4.44" cy="4.44" r="4.44" transform="translate(4.24 5.606)"/><circle class="cc" cx="4.225" cy="4.225" r="4.225" transform="translate(4.455 5.821)"/><circle class="cd" cx="4.011" cy="4.011" r="4.011" transform="translate(4.67 6.036)"/><circle class="ce" cx="3.796" cy="3.796" r="3.796" transform="translate(4.884 6.25)"/><circle class="cf" cx="3.581" cy="3.581" r="3.581" transform="translate(5.099 6.465)"/><circle class="cg" cx="3.367" cy="3.367" r="3.367" transform="translate(5.314 6.68)"/><circle class="ch" cx="3.152" cy="3.152" r="3.152" transform="translate(5.528 6.894)"/><circle class="ci" cx="2.937" cy="2.937" r="2.937" transform="translate(5.743 7.109)"/><circle class="cj" cx="2.723" cy="2.723" r="2.723" transform="translate(5.958 7.324)"/><circle class="ck" cx="2.508" cy="2.508" r="2.508" transform="translate(6.173 7.539)"/><circle class="cl" cx="2.293" cy="2.293" r="2.293" transform="translate(6.387 7.753)"/><circle class="cl" cx="2.079" cy="2.079" r="2.079" transform="translate(6.602 7.968)"/></g></g><g transform="translate(0 0)"><path class="cm" d="M1808.344,585.281l-3.582,7.544-3.527,7.3c-1.186,2.388-2.353,4.776-3.563,7.118q-1.792,3.536-3.673,7.014l-.365-1.241c2.788,1.615,5.528,3.316,8.283,4.988s5.491,3.38,8.273,5,5.589,3.206,8.42,4.745,5.691,3.023,8.54,4.531l-.9.515-.065-5.32-.011-5.319c-.02-3.546.042-7.09.06-10.636l0-.6.544-.3,5.273-2.949,5.3-2.894-.105,1.919c-4.793-3.387-9.528-6.82-14.3-10.4Zm-.05-.2,7.4,4.71,7.568,4.862c5.089,3.288,10.212,6.721,15.279,10.2l1.515,1.04-1.622.879-5.313,2.878-5.343,2.821.547-.9c-.125,3.543-.2,7.088-.366,10.63l-.224,5.315-.278,5.313-.053,1.022-.848-.508c-2.765-1.656-5.509-3.349-8.3-4.962s-5.589-3.205-8.417-4.748-5.705-3-8.564-4.489-5.73-2.956-8.555-4.5l-.783-.43.418-.812q1.9-3.679,3.9-7.31c1.313-2.431,2.67-4.819,4.007-7.2l4.044-7.022Z" transform="translate(-1791.94 -585.076)"/></g></g><line class="cn" x1="29.577" y1="20.596" transform="translate(1720.543 541.831)"/><g transform="translate(1514.775 543.228)"><g transform="translate(2.035 0.103)"><g class="co"><rect class="d" width="49.315" height="50.12"/><path class="d" d="M1553.4,595.472a22.734,22.734,0,0,1-39.3,14.831h1.809V583.652h31.349v-4.459A22.662,22.662,0,0,1,1553.4,595.472Z" transform="translate(-1516.608 -584.354)"/><path class="e" d="M1553.236,595.533a22.5,22.5,0,0,1-38.895,14.678h1.637V583.72h31.178v-4.3A22.43,22.43,0,0,1,1553.236,595.533Z" transform="translate(-1516.681 -584.422)"/><path class="f" d="M1553.073,595.593a22.263,22.263,0,0,1-38.488,14.525h1.466v-26.33h31.006v-4.137A22.189,22.189,0,0,1,1553.073,595.593Z" transform="translate(-1516.753 -584.49)"/><path class="g" d="M1552.911,595.654a22.029,22.029,0,0,1-38.082,14.372h1.294v-26.17h30.835V579.88A21.957,21.957,0,0,1,1552.911,595.654Z" transform="translate(-1516.826 -584.558)"/><path class="h" d="M1552.748,595.714a21.793,21.793,0,0,1-37.675,14.218h1.123V583.924h30.663v-3.815A21.727,21.727,0,0,1,1552.748,595.714Z" transform="translate(-1516.898 -584.626)"/><path class="i" d="M1550.952,595.364a21.558,21.558,0,0,1-37.268,14.065h.951v-23.77h-4.816a21.587,21.587,0,0,1,4.835-6.7v4.624h30.472v-3.654A21.488,21.488,0,0,1,1550.952,595.364Z" transform="translate(-1515.337 -584.284)"/><path class="j" d="M1550.807,595.43a21.323,21.323,0,0,1-36.862,13.911h.78V585.83h-4.6a21.351,21.351,0,0,1,4.783-6.629v4.453h30.14v-3.493A21.255,21.255,0,0,1,1550.807,595.43Z" transform="translate(-1515.427 -584.357)"/><path class="k" d="M1550.663,595.495a21.088,21.088,0,0,1-36.456,13.758h.608V586h-4.389a21.119,21.119,0,0,1,4.73-6.555v4.281h29.808v-3.332A21.025,21.025,0,0,1,1550.663,595.495Z" transform="translate(-1515.518 -584.429)"/><path class="l" d="M1550.517,595.56a20.853,20.853,0,0,1-36.049,13.6h.437V586.171h-4.176a20.9,20.9,0,0,1,4.678-6.482v4.11h29.475v-3.172A20.788,20.788,0,0,1,1550.517,595.56Z" transform="translate(-1515.608 -584.501)"/><path class="m" d="M1550.373,595.625a20.617,20.617,0,0,1-35.642,13.451H1515V586.342h-3.962a20.66,20.66,0,0,1,4.625-6.409v3.938H1544.8v-3.011A20.551,20.551,0,0,1,1550.373,595.625Z" transform="translate(-1515.698 -584.574)"/><path class="n" d="M1550.228,595.69a20.382,20.382,0,0,1-35.236,13.3h.094V586.513h-3.749a20.416,20.416,0,0,1,4.573-6.336v3.767h28.81v-2.85A20.322,20.322,0,0,1,1550.228,595.69Z" transform="translate(-1515.788 -584.646)"/><path class="o" d="M1549.872,595.755a20.153,20.153,0,0,1-38.941,6.606h4.034V586.684h-3.535a20.177,20.177,0,0,1,4.52-6.263v3.6h28.478v-2.689A20.084,20.084,0,0,1,1549.872,595.755Z" transform="translate(-1515.668 -584.719)"/><path class="p" d="M1549.73,595.82a19.918,19.918,0,0,1-38.487,6.529h3.815V586.855h-3.321a19.936,19.936,0,0,1,4.467-6.19v3.424h28.146v-2.528A19.851,19.851,0,0,1,1549.73,595.82Z" transform="translate(-1515.761 -584.791)"/><path class="q" d="M1549.038,595.885a19.682,19.682,0,0,1-38.033,6.452h3.6v-7.7h-4.9a19.613,19.613,0,0,1,6.2-13.723v3.252h27.813v-2.367A19.615,19.615,0,0,1,1549.038,595.885Z" transform="translate(-1515.303 -584.864)"/><path class="r" d="M1548.9,595.95a19.442,19.442,0,1,1-32.734-14.8v3.081h27.481v-2.206A19.382,19.382,0,0,1,1548.9,595.95Z" transform="translate(-1515.398 -584.936)"/><path class="s" d="M1548.762,596.015a19.207,19.207,0,1,1-32.339-14.618v2.909h27.149v-2.045A19.145,19.145,0,0,1,1548.762,596.015Z" transform="translate(-1515.498 -585.009)"/><path class="t" d="M1548.626,596.079a18.971,18.971,0,1,1-31.943-14.439v2.739H1543.5v-1.885A18.912,18.912,0,0,1,1548.626,596.079Z" transform="translate(-1515.597 -585.081)"/><path class="u" d="M1548.491,596.145a18.736,18.736,0,1,1-31.547-14.261v2.567h26.484v-1.724A18.682,18.682,0,0,1,1548.491,596.145Z" transform="translate(-1515.696 -585.154)"/><path class="v" d="M1548.355,596.209a18.5,18.5,0,1,1-31.152-14.081v2.4h26.152v-1.563A18.446,18.446,0,0,1,1548.355,596.209Z" transform="translate(-1515.796 -585.226)"/><path class="w" d="M1548.219,596.274a18.266,18.266,0,1,1-30.755-13.9V584.6h25.819v-1.4A18.21,18.21,0,0,1,1548.219,596.274Z" transform="translate(-1515.895 -585.299)"/><path class="x" d="M1548.084,596.34a18.031,18.031,0,1,1-30.359-13.724v2.052h25.487v-1.241A17.975,17.975,0,0,1,1548.084,596.34Z" transform="translate(-1515.995 -585.371)"/><path class="y" d="M1547.948,596.4a17.8,17.8,0,1,1-29.964-13.544v1.881h25.154v-1.08A17.742,17.742,0,0,1,1547.948,596.4Z" transform="translate(-1516.094 -585.444)"/><path class="z" d="M1547.813,596.469a17.561,17.561,0,1,1-29.567-13.365v1.709h24.822v-.919A17.5,17.5,0,0,1,1547.813,596.469Z" transform="translate(-1516.194 -585.516)"/><path class="aa" d="M1547.677,596.535a17.326,17.326,0,1,1-29.172-13.187v1.538h24.489v-.758A17.272,17.272,0,0,1,1547.677,596.535Z" transform="translate(-1516.293 -585.589)"/><path class="ab" d="M1547.542,596.6a17.091,17.091,0,1,1-28.776-13.007v1.366h24.158v-.6A17.036,17.036,0,0,1,1547.542,596.6Z" transform="translate(-1516.392 -585.661)"/><path class="ac" d="M1547.406,596.664a16.855,16.855,0,1,1-28.38-12.828v1.195h23.825V584.6A16.8,16.8,0,0,1,1547.406,596.664Z" transform="translate(-1516.491 -585.734)"/><path class="ad" d="M1547.27,596.73a16.62,16.62,0,1,1-27.984-12.65V585.1h23.493v-.276A16.568,16.568,0,0,1,1547.27,596.73Z" transform="translate(-1516.591 -585.806)"/><path class="ae" d="M1547.135,596.794a16.385,16.385,0,1,1-27.589-12.47v.852h23.16v-.115A16.337,16.337,0,0,1,1547.135,596.794Z" transform="translate(-1516.69 -585.878)"/><path class="af" d="M1547,595.636a16.15,16.15,0,1,1-27.192-12.292v.68h17.808v-3.576A16.17,16.17,0,0,1,1547,595.636Z" transform="translate(-1516.79 -584.727)"/><path class="ag" d="M1546.863,595.107a15.915,15.915,0,1,1-26.8-12.113v.509h11.4v-4.81A15.915,15.915,0,0,1,1546.863,595.107Z" transform="translate(-1516.889 -584.206)"/><circle class="ah" cx="15.68" cy="15.68" r="15.68" transform="translate(-1.612 -5.285)"/><circle class="ai" cx="15.444" cy="15.444" r="15.444" transform="translate(-1.377 -5.05)"/><circle class="aj" cx="15.209" cy="15.209" r="15.209" transform="translate(-1.142 -4.815)"/><circle class="ak" cx="14.974" cy="14.974" r="14.974" transform="translate(-0.907 -4.58)"/><circle class="al" cx="14.739" cy="14.739" r="14.739" transform="translate(-0.672 -4.345)"/><circle class="am" cx="14.504" cy="14.504" r="14.504" transform="translate(-0.437 -4.11)"/><circle class="an" cx="14.269" cy="14.269" r="14.269" transform="translate(-0.201 -3.874)"/><circle class="ao" cx="14.034" cy="14.034" r="14.034" transform="translate(0.034 -3.639)"/><circle class="ap" cx="13.799" cy="13.799" r="13.799" transform="translate(0.269 -3.404)"/><circle class="aq" cx="13.563" cy="13.563" r="13.563" transform="translate(0.504 -3.169)"/><circle class="ar" cx="13.328" cy="13.328" r="13.328" transform="translate(0.739 -2.934)"/><circle class="as" cx="13.093" cy="13.093" r="13.093" transform="translate(0.974 -2.699)"/><circle class="at" cx="12.858" cy="12.858" r="12.858" transform="translate(1.209 -2.464)"/><circle class="au" cx="12.623" cy="12.623" r="12.623" transform="translate(1.445 -2.228)"/><circle class="av" cx="12.388" cy="12.388" r="12.388" transform="translate(1.68 -1.993)"/><circle class="aw" cx="12.153" cy="12.153" r="12.153" transform="translate(1.915 -1.758)"/><circle class="ax" cx="11.917" cy="11.917" r="11.917" transform="translate(2.15 -1.523)"/><circle class="ay" cx="11.682" cy="11.682" r="11.682" transform="translate(2.385 -1.288)"/><circle class="az" cx="11.447" cy="11.447" r="11.447" transform="translate(2.62 -1.053)"/><circle class="ba" cx="11.212" cy="11.212" r="11.212" transform="translate(2.855 -0.818)"/><circle class="bb" cx="10.977" cy="10.977" r="10.977" transform="translate(3.091 -0.582)"/><circle class="bc" cx="10.742" cy="10.742" r="10.742" transform="translate(3.326 -0.347)"/><circle class="bd" cx="10.507" cy="10.507" r="10.507" transform="translate(3.561 -0.112)"/><circle class="be" cx="10.271" cy="10.271" r="10.271" transform="translate(3.796 0.123)"/><circle class="bf" cx="10.036" cy="10.036" r="10.036" transform="translate(4.031 0.358)"/><circle class="bg" cx="9.801" cy="9.801" r="9.801" transform="translate(4.266 0.593)"/><circle class="bh" cx="9.566" cy="9.566" r="9.566" transform="translate(4.501 0.828)"/><circle class="bi" cx="9.331" cy="9.331" r="9.331" transform="translate(4.737 1.064)"/><circle class="bj" cx="9.096" cy="9.096" r="9.096" transform="translate(4.972 1.299)"/><circle class="bk" cx="8.861" cy="8.861" r="8.861" transform="translate(5.207 1.534)"/><circle class="bl" cx="8.625" cy="8.625" r="8.625" transform="translate(5.442 1.769)"/><circle class="bm" cx="8.39" cy="8.39" r="8.39" transform="translate(5.677 2.004)"/><circle class="bn" cx="8.155" cy="8.155" r="8.155" transform="translate(5.912 2.239)"/><circle class="bo" cx="7.92" cy="7.92" r="7.92" transform="translate(6.147 2.474)"/><circle class="bp" cx="7.685" cy="7.685" r="7.685" transform="translate(6.383 2.71)"/><circle class="bq" cx="7.45" cy="7.45" r="7.45" transform="translate(6.618 2.945)"/><circle class="br" cx="7.215" cy="7.215" r="7.215" transform="translate(6.853 3.18)"/><circle class="bs" cx="6.979" cy="6.979" r="6.979" transform="translate(7.088 3.415)"/><circle class="bt" cx="6.744" cy="6.744" r="6.744" transform="translate(7.323 3.65)"/><circle class="bu" cx="6.509" cy="6.509" r="6.509" transform="translate(7.558 3.885)"/><circle class="bv" cx="6.274" cy="6.274" r="6.274" transform="translate(7.793 4.12)"/><circle class="bw" cx="6.039" cy="6.039" r="6.039" transform="translate(8.029 4.356)"/><circle class="bx" cx="5.804" cy="5.804" r="5.804" transform="translate(8.264 4.591)"/><circle class="by" cx="5.569" cy="5.569" r="5.569" transform="translate(8.499 4.826)"/><circle class="bz" cx="5.333" cy="5.333" r="5.333" transform="translate(8.734 5.061)"/><circle class="ca" cx="5.098" cy="5.098" r="5.098" transform="translate(8.969 5.296)"/><circle class="cb" cx="4.863" cy="4.863" r="4.863" transform="translate(9.204 5.531)"/><circle class="cc" cx="4.628" cy="4.628" r="4.628" transform="translate(9.439 5.766)"/><circle class="cd" cx="4.393" cy="4.393" r="4.393" transform="translate(9.675 6.002)"/><circle class="ce" cx="4.158" cy="4.158" r="4.158" transform="translate(9.91 6.237)"/><circle class="cf" cx="3.923" cy="3.923" r="3.923" transform="translate(10.145 6.472)"/><circle class="cg" cx="3.687" cy="3.687" r="3.687" transform="translate(10.38 6.707)"/><circle class="ch" cx="3.452" cy="3.452" r="3.452" transform="translate(10.615 6.942)"/><circle class="ci" cx="3.217" cy="3.217" r="3.217" transform="translate(10.85 7.177)"/><circle class="cj" cx="2.982" cy="2.982" r="2.982" transform="translate(11.085 7.412)"/><circle class="ck" cx="2.747" cy="2.747" r="2.747" transform="translate(11.321 7.647)"/><circle class="cl" cx="2.512" cy="2.512" r="2.512" transform="translate(11.556 7.883)"/><circle class="cl" cx="2.277" cy="2.277" r="2.277" transform="translate(11.791 8.118)"/></g></g><path class="cm" d="M1545.916,586.595l-7.271,4.984-7.133,4.8c-2.37,1.559-4.719,3.13-7.086,4.642s-4.726,3.039-7.119,4.511l-.143-1.662c1.421.583,2.828,1.2,4.242,1.8l4.214,1.868,8.424,3.749.316.141-.045.319c-.293,2.07-.59,4.139-.839,6.215-.267,2.073-.5,4.15-.733,6.228s-.448,4.156-.632,6.239l-.57,6.247-.9-.584q8.626-5.535,17.377-10.863l8.74-5.346c2.93-1.754,5.853-3.52,8.808-5.232l-.339,1.565c-3.265-4.765-6.43-9.6-9.631-14.515Zm.042-.206,5.217,6.909,5.293,7.085c3.529,4.789,7.093,9.654,10.557,14.59l.666.948-1,.618c-2.908,1.791-5.848,3.527-8.782,5.275l-8.85,5.161q-8.841,5.176-17.8,10.152l-1.073.595.17-1.179.9-6.209c.306-2.068.566-4.142.834-6.215s.512-4.149.733-6.228c.24-2.076.43-4.158.626-6.24l.271.46-8.644-3.211-4.319-1.61c-1.43-.561-2.868-1.1-4.291-1.679l-1.681-.681,1.537-.98c2.462-1.569,4.955-3.1,7.445-4.614s4.992-3,7.478-4.483l7.43-4.322C1541.122,589.139,1543.562,587.724,1545.958,586.389Z" transform="translate(-1514.775 -586.389)"/></g><g transform="translate(1533.995 510.405)"><path class="cp" d="M1750.854,576.054c-7.324-20.453-54.893-35.825-105.157-35.07-53.113.8-93.59,15.6-102.748,34.277l15.778,25.37c18.463-12.415,48.049-19.914,88.636-20.524,36.782-.552,69.2,11.311,89.007,21.309Z" transform="translate(-1542.366 -540.069)"/><path class="cm" d="M1750.5,575.669a23.589,23.589,0,0,0-3.611-5.982,34.321,34.321,0,0,0-5.01-4.946,65.984,65.984,0,0,0-11.947-7.485,132.353,132.353,0,0,0-26.648-9.382,206.571,206.571,0,0,0-27.885-4.894c-4.695-.514-9.406-.877-14.121-1.138s-9.441-.4-14.165-.355c-9.451.066-18.915.446-28.325,1.43a203.679,203.679,0,0,0-27.978,4.669A125.984,125.984,0,0,0,1564.106,557a66.712,66.712,0,0,0-11.969,7.49c-.938.712-1.784,1.53-2.663,2.307-.825.834-1.674,1.645-2.42,2.546a26.783,26.783,0,0,0-3.894,5.773l-.025-.494,16.015,25.223-1.109-.238a98.356,98.356,0,0,1,20.766-10.39,154.878,154.878,0,0,1,22.371-6.117,219.757,219.757,0,0,1,22.93-3.288c7.689-.7,15.4-1.033,23.114-1.166a178.558,178.558,0,0,1,23.155,1.3,184.982,184.982,0,0,1,22.772,4.28,202.332,202.332,0,0,1,22.088,6.929,209.056,209.056,0,0,1,21.126,9.415l-.7.211c2.431-4.174,4.911-8.334,7.388-12.517Zm.21.018-7.032,12.771c-2.351,4.272-4.7,8.566-7.1,12.846l-.242.434-.458-.223a207.835,207.835,0,0,0-21.183-8.907,204.683,204.683,0,0,0-22-6.576,196.507,196.507,0,0,0-22.58-3.984,176.293,176.293,0,0,0-22.871-1.224q-11.494.21-22.945,1.19a217.487,217.487,0,0,0-22.736,3.091,155.384,155.384,0,0,0-22.132,5.864,96.72,96.72,0,0,0-20.519,9.939l-.69.45-.419-.687-15.542-25.516-.151-.247.125-.247a27.739,27.739,0,0,1,4.134-5.92c.784-.913,1.665-1.728,2.522-2.565.908-.779,1.79-1.592,2.747-2.307a67.41,67.41,0,0,1,12.148-7.5,120.543,120.543,0,0,1,13.174-5.456c4.484-1.577,9.049-2.921,13.655-4.085s9.258-2.149,13.928-3.03,9.377-1.563,14.1-2.152,9.454-1.025,14.2-1.35q7.116-.511,14.255-.582c4.759-.07,9.52.041,14.275.267,4.757.2,9.5.627,14.23,1.182a208.326,208.326,0,0,1,28.077,5.159c4.616,1.178,9.165,2.618,13.642,4.25a112.125,112.125,0,0,1,13.1,5.716,62.883,62.883,0,0,1,11.9,7.915C1745.928,567.336,1749.118,571.062,1750.713,575.688Z" transform="translate(-1542.119 -539.693)"/></g><g class="cq" transform="translate(1540.462 513.117)"><path class="cr" d="M1749.023,572.171a46.548,46.548,0,0,0-4.861-4.317,62.65,62.65,0,0,0-5.4-3.6c-1.85-1.12-3.772-2.116-5.7-3.1q-2.924-1.411-5.916-2.668a174.471,174.471,0,0,0-24.756-7.887q-6.311-1.612-12.73-2.814c-4.274-.814-8.577-1.5-12.9-2a187.256,187.256,0,0,0-26.084-1.063c-8.7.318-17.389.829-26.027,1.778a259.026,259.026,0,0,0-25.695,4.17l-3.181.68c-1.061.224-2.1.52-3.157.776-2.1.527-4.206,1.049-6.281,1.672l-3.125.895c-1.039.306-2.057.675-3.088,1.009l-3.082,1.031-3.029,1.17c-2.037.744-4.005,1.639-5.994,2.5-1.005.409-1.961.915-2.927,1.4s-1.941.964-2.891,1.482a64.7,64.7,0,0,0-10.7,7.369l0,0a.106.106,0,0,1-.142-.156l2.379-2.265.6-.564.643-.511,1.292-1.018a60.31,60.31,0,0,1,5.394-3.782,92.28,92.28,0,0,1,11.725-5.994,145.172,145.172,0,0,1,25.085-7.9,229.9,229.9,0,0,1,52.2-4.906c8.747.129,17.467.718,26.162,1.537,4.347.431,8.691.915,13.024,1.519s8.652,1.341,12.937,2.262,8.526,2.059,12.7,3.412a117.768,117.768,0,0,1,12.307,4.685,76.944,76.944,0,0,1,11.567,6.316,43.161,43.161,0,0,1,9.819,8.724.106.106,0,0,1-.017.148A.109.109,0,0,1,1749.023,572.171Z" transform="translate(-1551.318 -543.551)"/></g><g class="cq" transform="translate(1551.117 544.388)"><path class="cm" d="M1742.2,610.323c-13.613-6.733-28.063-11.214-42.681-14.936-3.65-.965-7.323-1.86-11.025-2.646-1.849-.394-3.7-.773-5.568-1.11s-3.735-.62-5.61-.886a137.19,137.19,0,0,0-22.662-1.094q-11.339.484-22.593,1.763l-5.611.73-5.588.881-5.566.99c-1.856.322-3.692.749-5.543,1.1-14.754,3.051-29.3,7.293-43.074,13.688a.14.14,0,0,1-.188-.066.143.143,0,0,1,.053-.181,118.273,118.273,0,0,1,20.586-9.953,165.147,165.147,0,0,1,22-6.426,186.75,186.75,0,0,1,22.658-3.392c1.9-.162,3.806-.3,5.71-.435s3.813-.181,5.718-.251c1.906-.092,3.815-.061,5.722-.056l2.858.01,2.86.075c3.813.1,7.613.378,11.408.651q5.69.432,11.363,1.052,2.838.291,5.673.633c1.894.2,3.783.451,5.671.713,3.774.534,7.543,1.148,11.283,1.918q5.6,1.184,11.092,2.856,2.741.833,5.456,1.751c1.806.623,3.6,1.286,5.38,1.974a101.546,101.546,0,0,1,20.362,10.4.14.14,0,0,1,.037.2A.142.142,0,0,1,1742.2,610.323Z" transform="translate(-1566.477 -588.04)"/></g><g class="cs" transform="translate(1532.965 572.416)"><path class="cm" d="M1566.966,628.079c-2.276,1.22-4.556,2.426-6.789,3.709-2.246,1.256-4.456,2.569-6.6,3.969s-4.151,2.992-6.281,4.4-4.236,2.876-6.505,4.192a.089.089,0,0,1-.122-.032.088.088,0,0,1,.008-.1,35.767,35.767,0,0,1,5.58-5.476,46.156,46.156,0,0,1,6.595-4.184c2.27-1.27,4.587-2.44,6.927-3.547,2.355-1.079,4.721-2.12,7.119-3.087a.088.088,0,0,1,.074.159Z" transform="translate(-1540.653 -627.914)"/></g><g class="cs" transform="translate(1715.012 568.902)"><path class="cm" d="M1799.764,622.92c2.443.986,4.857,2.039,7.264,3.12,2.393,1.108,4.767,2.269,7.1,3.523a47.669,47.669,0,0,1,6.8,4.139,34.154,34.154,0,0,1,5.759,5.511.088.088,0,0,1-.013.125.09.09,0,0,1-.1.008c-2.307-1.347-4.466-2.8-6.659-4.21s-4.266-2.979-6.489-4.358-4.488-2.694-6.791-3.954c-2.29-1.286-4.62-2.5-6.942-3.745a.088.088,0,0,1-.037-.119A.089.089,0,0,1,1799.764,622.92Z" transform="translate(-1799.643 -622.914)"/></g><g transform="translate(1563.313 496.595)"><g transform="translate(0 2.137)"><path class="ct" d="M1609.286,563.516q1.866-5.048,3.677-9.752t3.39-8.567a58.037,58.037,0,0,1,2.593-5.7,4.048,4.048,0,0,1,1.733-2.011,5.11,5.11,0,0,1,2.993-.072,25.532,25.532,0,0,1,3.378.738q1.364.419,3.255,1.089a6.246,6.246,0,0,1,1.588.753,2.522,2.522,0,0,1,.8.926,3.673,3.673,0,0,1,.337,1.295q.07.755.117,1.786.055,1.169-.019,4t-.172,6.624q-.1,3.8-.209,8.074t-.193,8.348q1.286-3.437,2.793-7.265t3.053-7.69q1.539-3.861,3.058-7.553t2.845-6.922q1.331-3.229,2.417-5.8t1.837-4.187q.933-2.179,1.953-2.469a6.044,6.044,0,0,1,3.261.5q1.62.683,3.209,1.539a26.11,26.11,0,0,1,3.091,1.958,4.207,4.207,0,0,1,1.662,3.161,9.211,9.211,0,0,1-.728,3.55q-1.573,3.244-3.443,7.4t-3.8,8.656q-1.926,4.5-3.877,9.176t-3.711,9.065q-1.757,4.39-3.3,8.253t-2.649,6.741a3.094,3.094,0,0,1-1.778,1.737,8.185,8.185,0,0,1-3.37.157c-.831-.1-1.551-.214-2.152-.347s-1.172-.254-1.706-.368-1.068-.238-1.6-.372-1.128-.259-1.774-.366a5.418,5.418,0,0,1-2.843-1.762,6.921,6.921,0,0,1-1.221-2.6q-.277-1.435-.682-3.484t-.794-4.477q-.391-2.427-.751-4.963t-.472-4.94q-1.439,3.1-2.936,6.444t-2.832,6.508q-1.334,3.164-2.447,5.869t-1.791,4.461a3.2,3.2,0,0,1-1.678,1.7,6.875,6.875,0,0,1-2.508.153q-2.147-.246-4.132-.668t-3.8-.891a4.85,4.85,0,0,1-2.44-1.368,5.623,5.623,0,0,1-1.064-2.81q-.681-2.793-1.3-6.452t-1.158-7.838q-.55-4.383-1.052-9.186t-.93-9.57q-.431-4.771-.714-9.341t-.465-8.49q-.036-2.2.692-2.857t2.951-.277q2.568.432,4.659.92a16.853,16.853,0,0,1,3.928,1.435,5.3,5.3,0,0,1,1.722,1.435,6.946,6.946,0,0,1,1.016,1.848,9.059,9.059,0,0,1,.477,2.047,14.334,14.334,0,0,1,.091,1.959q.012,1.793,0,5.238t.015,7.684q.027,4.237.139,8.815t.3,8.7Q1607.42,568.567,1609.286,563.516Z" transform="translate(-1585.611 -524.867)"/><path class="cu" d="M1606.033,594.985q-.609,0-1.276-.056c-.045,0-.089-.008-.134-.013-1.565-.179-3.089-.426-4.53-.733-1.374-.294-2.708-.607-3.968-.93l-.094-.026a8.946,8.946,0,0,1-4.507-2.691,9.4,9.4,0,0,1-1.993-4.714c-.458-1.9-.9-4.113-1.321-6.578-.414-2.448-.812-5.14-1.182-8-.368-2.93-.725-6.049-1.064-9.288-.341-3.272-.655-6.512-.936-9.633-.288-3.186-.531-6.368-.723-9.456s-.347-5.959-.47-8.554c0-.044,0-.087,0-.131-.016-1.02-.066-4.122,2.09-6.06,2.234-2.019,5.428-1.478,6.477-1.3,1.8.3,3.454.63,4.914.971a21.147,21.147,0,0,1,4.9,1.793l.066.034a9.528,9.528,0,0,1,3.067,2.578,11.235,11.235,0,0,1,1.636,2.978,13.333,13.333,0,0,1,.7,3,18.868,18.868,0,0,1,.12,2.483q.011,1.8,0,5.211,0,1.5,0,3.151c1.008-2.594,1.968-5.011,2.861-7.2a62.572,62.572,0,0,1,2.758-6.062,8.029,8.029,0,0,1,3.682-3.879,8.885,8.885,0,0,1,5.512-.409,29.084,29.084,0,0,1,3.886.86c.967.3,2.087.671,3.427,1.145a10.161,10.161,0,0,1,2.656,1.314,6.717,6.717,0,0,1,2.1,2.461,7.9,7.9,0,0,1,.761,2.78c.052.564.095,1.222.131,1.984.037.782.037,1.941,0,3.614l.2-.484q1.513-3.684,2.845-6.922t2.432-5.837c.715-1.69,1.343-3.123,1.868-4.259.451-1.049,1.754-3.985,4.651-4.809a9.591,9.591,0,0,1,5.816.581c.08.028.16.059.238.091,1.2.506,2.4,1.082,3.572,1.713a30.455,30.455,0,0,1,3.583,2.268q.142.106.276.221a8.3,8.3,0,0,1,3.11,6.315,13.438,13.438,0,0,1-1.038,5.162c-.035.086-.073.17-.113.254-1.016,2.095-2.125,4.48-3.392,7.291-1.208,2.674-2.475,5.56-3.768,8.581q-1.92,4.485-3.862,9.141c-1.285,3.075-2.526,6.106-3.689,9.01l-3.3,8.247q-1.534,3.838-2.629,6.692c-.035.091-.073.181-.115.269a7.228,7.228,0,0,1-4.219,3.938,12.044,12.044,0,0,1-5.2.366,26.379,26.379,0,0,1-2.614-.424c-.587-.129-1.144-.248-1.667-.359q-.878-.186-1.758-.408-.626-.16-1.434-.294a4.249,4.249,0,0,1-.537-.126,9.523,9.523,0,0,1-4.973-3.247,11.137,11.137,0,0,1-1.966-4.175c-.013-.056-.025-.112-.037-.169q-.275-1.427-.678-3.466l-.006-.03q-1.186,2.82-2.191,5.261c-.725,1.758-1.315,3.229-1.755,4.369a4.016,4.016,0,0,1-.218.475,7.188,7.188,0,0,1-4.141,3.733A9.564,9.564,0,0,1,1606.033,594.985Zm-.521-8.457.16.01c.414-1.052.919-2.3,1.508-3.73q1.123-2.722,2.461-5.9c.869-2.066,1.835-4.285,2.869-6.594.993-2.216,1.988-4.4,2.959-6.495a4.217,4.217,0,0,1,8.038,1.577c.07,1.483.216,3.011.434,4.542q.356,2.5.741,4.887c.245,1.539.5,2.993.767,4.328s.483,2.456.666,3.4a2.677,2.677,0,0,0,.429.91,2.156,2.156,0,0,0,.526.249c.657.117,1.252.242,1.807.385.467.117.947.23,1.429.332.546.116,1.126.239,1.743.375.457.1,1.04.195,1.739.278a9.743,9.743,0,0,0,.992.063q1.027-2.654,2.393-6.075l3.3-8.254c1.18-2.944,2.436-6.013,3.735-9.124s2.6-6.2,3.891-9.209c1.315-3.073,2.605-6.011,3.835-8.734,1.27-2.817,2.391-5.228,3.423-7.361a5.2,5.2,0,0,0,.37-1.623c-.026-.03-.06-.066-.1-.11a21.769,21.769,0,0,0-2.422-1.519c-.889-.479-1.795-.917-2.7-1.3-.472,1.026-1.037,2.318-1.683,3.845q-1.081,2.555-2.4,5.764-1.33,3.229-2.842,6.917t-3.042,7.512q-1.545,3.862-3.049,7.677c-.986,2.5-1.918,4.927-2.767,7.194a4.217,4.217,0,0,1-8.166-1.562q.081-4.083.194-8.372l.209-8.078q.094-3.788.171-6.625c.057-2.228.043-3.236.023-3.69q-.026-.536-.056-.988-1.824-.644-3.065-1.025a21.439,21.439,0,0,0-2.8-.606l-.131-.023c-.083-.015-.159-.029-.229-.04l-.013.022a54.73,54.73,0,0,0-2.379,5.256c-1.035,2.542-2.166,5.4-3.36,8.492-1.208,3.134-2.438,6.4-3.656,9.7v0q-1.87,5.056-3.462,9.337a4.217,4.217,0,0,1-8.165-1.274c-.128-2.728-.231-5.689-.307-8.8-.074-3.063-.122-6.054-.139-8.891s-.022-5.414-.015-7.724q.012-3.42,0-5.2c0-.049,0-.1,0-.148a10.13,10.13,0,0,0-.068-1.376,4.766,4.766,0,0,0-.252-1.076,2.706,2.706,0,0,0-.4-.725,1.12,1.12,0,0,0-.339-.262,12.71,12.71,0,0,0-2.911-1.055c-.93-.218-1.956-.43-3.064-.634.108,2.162.24,4.5.391,6.971.188,3.007.425,6.11.7,9.221.277,3.082.588,6.281.925,9.512.332,3.18.682,6.242,1.041,9.1.355,2.74.736,5.322,1.132,7.659s.815,4.411,1.24,6.157c.029.117.052.235.071.354a5.167,5.167,0,0,0,.137.651c.076.03.175.064.3.1,1.134.29,2.338.572,3.578.838C1603.008,586.181,1604.239,586.38,1605.513,586.529Zm-7.46-1.307Zm51.279-53.7Z" transform="translate(-1583.828 -523.086)"/></g><g transform="translate(71.591 2.357)"><path class="ct" d="M1713.9,535.393a4.824,4.824,0,0,1,.026,2.825q-.818,3.141-1.764,7.182t-1.875,8.53q-.928,4.491-1.811,9.184t-1.708,9.177q-.822,4.484-1.5,8.479t-1.148,7.118a2.5,2.5,0,0,1-.858,1.557,3.754,3.754,0,0,1-2.375.042q-1.811-.4-3.448-.8a16.949,16.949,0,0,1-3.12-1.094,4.368,4.368,0,0,1-2.18-1.655,4.918,4.918,0,0,1-.441-2.772q.027-2.412.3-6.251t.709-8.407q.441-4.57,1.03-9.628t1.224-9.913q.633-4.852,1.327-9.194t1.3-7.608a3.591,3.591,0,0,1,1.571-2.521,5.086,5.086,0,0,1,3.206.022,29.837,29.837,0,0,1,4.683,1.435,29.221,29.221,0,0,1,4.444,2.135A6.109,6.109,0,0,1,1713.9,535.393Z" transform="translate(-1687.461 -525.182)"/><path class="cu" d="M1700.512,592.076a12.128,12.128,0,0,1-2.162-.223c-.05-.009-.1-.019-.15-.03-1.216-.267-2.412-.546-3.555-.829a21.251,21.251,0,0,1-3.824-1.336,8.382,8.382,0,0,1-4.112-3.394,8.773,8.773,0,0,1-1.008-5.043c.022-1.672.125-3.82.3-6.387.183-2.62.425-5.486.718-8.519.3-3.126.652-6.393,1.039-9.711.4-3.407.813-6.761,1.232-9.971s.872-6.356,1.344-9.311c.467-2.93.91-5.526,1.317-7.714q.027-.145.064-.289c.677-2.607,1.969-4.38,3.842-5.27a8.847,8.847,0,0,1,5.939-.285,34.369,34.369,0,0,1,5.292,1.622,33.624,33.624,0,0,1,5.084,2.449,9.707,9.707,0,0,1,4.082,4.038l.012.027a8.673,8.673,0,0,1,.3,5.4c-.013.066-.029.131-.046.2-.543,2.082-1.127,4.464-1.739,7.079s-1.24,5.462-1.852,8.424c-.618,2.992-1.222,6.056-1.8,9.109q-.884,4.69-1.706,9.164c-.553,3.012-1.052,5.844-1.485,8.413-.447,2.64-.83,5.012-1.138,7.05-.02.124-.044.247-.073.368a6.489,6.489,0,0,1-2.646,4.085A5.893,5.893,0,0,1,1700.512,592.076Zm-6.4-10.183.063.027c.048.02.1.041.143.064a12.815,12.815,0,0,0,2.345.821q.9.222,1.847.442c.242-1.525.515-3.186.815-4.964.438-2.606.945-5.479,1.506-8.536q.831-4.5,1.712-9.2c.583-3.1,1.2-6.213,1.824-9.255s1.267-5.942,1.9-8.641c.617-2.635,1.208-5.048,1.76-7.171.005-.028.01-.056.016-.082-.144-.1-.323-.219-.547-.356a25.206,25.206,0,0,0-3.771-1.8,26.029,26.029,0,0,0-3.943-1.222c-.349,1.927-.725,4.152-1.12,6.628-.458,2.877-.9,5.93-1.309,9.075-.414,3.173-.824,6.489-1.217,9.857-.38,3.263-.724,6.475-1.021,9.544-.285,2.961-.521,5.753-.7,8.3-.172,2.459-.268,4.48-.285,6,0,.077,0,.155-.01.233S1694.116,581.825,1694.115,581.893Zm.021.437Zm14.41-46.533Zm-.429-.98Z" transform="translate(-1685.678 -523.4)"/></g><g transform="translate(93.979)"><path class="ct" d="M1756.764,545.171q1.618-8.827,3.269-16.281a3.457,3.457,0,0,1,1.57-2.554,5.5,5.5,0,0,1,3.337-.088q1.046.227,1.88.394a10.516,10.516,0,0,1,1.642.474c.539.206,1.111.455,1.722.746s1.318.674,2.121,1.141a4.3,4.3,0,0,1,2.354,2.405,6.5,6.5,0,0,1-.167,3.075q-1.343,5.164-2.76,11.708t-2.789,13.295q-1.372,6.75-2.62,13.184t-2.126,11.3q-.29,2.632-4.043,1.982a45.592,45.592,0,0,1-6.547-1.485,7.272,7.272,0,0,1-4.456-3.927q-1.068-2.086-2.193-4.86t-2.313-5.992q-1.185-3.217-2.382-6.711T1740,555.95q-.555,4.3-1.148,8.6t-1.129,8.22q-.542,3.919-.969,7.281t-.656,5.854a2.066,2.066,0,0,1-.823,1.521,3.973,3.973,0,0,1-2.416-.06q-1.67-.335-3.377-.7a12.337,12.337,0,0,1-3.332-1.256,4.354,4.354,0,0,1-2.11-1.659,5.263,5.263,0,0,1-.51-2.767q.053-1.863.2-5.317t.459-7.843q.312-4.391.731-9.408t.945-10q.526-4.987,1.1-9.631t1.164-8.256a3.368,3.368,0,0,1,1.6-2.659,5.424,5.424,0,0,1,3.372-.124q2.582.638,5.022,1.282a39.283,39.283,0,0,1,5.115,1.759,6.552,6.552,0,0,1,3.129,2.092,10.057,10.057,0,0,1,1.492,3.893q.438,1.98,1.133,5.048t1.553,6.646q.855,3.579,1.791,7.36t1.856,7.254Q1755.146,554,1756.764,545.171Z" transform="translate(-1719.31 -521.828)"/><path class="cu" d="M1732.661,590.017a11.541,11.541,0,0,1-2.45-.3q-1.682-.337-3.4-.708a16.583,16.583,0,0,1-4.313-1.6,8.345,8.345,0,0,1-3.892-3.335,9.192,9.192,0,0,1-1.072-4.994q.053-1.882.2-5.377c.1-2.353.257-5.031.465-7.961.212-2.978.46-6.161.735-9.461.286-3.4.607-6.8.955-10.1.37-3.512.733-6.688,1.108-9.707.385-3.124.785-5.958,1.187-8.418,0-.028.01-.056.015-.085.642-3.475,2.495-5.019,3.936-5.7a9.331,9.331,0,0,1,6.043-.441l.148.034q2.616.645,5.086,1.3a43.632,43.632,0,0,1,5.585,1.91,10.617,10.617,0,0,1,4.979,3.515,13.956,13.956,0,0,1,2.23,5.547c.277,1.255.652,2.928,1.114,4.967l.093.408c.9-4.739,1.81-9.2,2.719-13.312.751-3.329,2.514-4.8,3.861-5.444a9.337,9.337,0,0,1,5.994-.422c.738.16,1.342.287,1.879.394a14.833,14.833,0,0,1,2.3.665c.652.249,1.317.537,2.047.885s1.5.762,2.395,1.284c2.414,1.354,3.883,3.066,4.366,5.09a10.483,10.483,0,0,1-.184,5.1c-.883,3.4-1.8,7.279-2.722,11.552-.946,4.374-1.88,8.829-2.778,13.244-.976,4.8-1.83,9.1-2.613,13.144-.827,4.251-1.531,7.993-2.1,11.129a6.293,6.293,0,0,1-2.456,4.346,8.092,8.092,0,0,1-6.424,1.17,49.988,49.988,0,0,1-7.1-1.615l-.11-.034a11.522,11.522,0,0,1-6.905-6.06c-.751-1.47-1.509-3.151-2.318-5.136-.411-1.007-.829-2.066-1.254-3.169q-.476,3.468-.858,6.48c-.28,2.188-.495,4.106-.64,5.7-.012.13-.029.259-.053.387a6.044,6.044,0,0,1-2.9,4.427A5.882,5.882,0,0,1,1732.661,590.017Zm-6.694-10.3.109.051q.159.071.312.154a8.108,8.108,0,0,0,2.2.835q.9.2,1.793.38c.117-1.055.255-2.193.409-3.4q.43-3.378.974-7.324l1.13-8.216q.589-4.284,1.144-8.567a4.217,4.217,0,0,1,8.222-.671c.682,2.271,1.425,4.583,2.209,6.871s1.572,4.508,2.351,6.621,1.532,4.07,2.26,5.858c.717,1.759,1.4,3.283,2.042,4.53.02.039.039.079.058.118a3.057,3.057,0,0,0,1.929,1.713,41.919,41.919,0,0,0,5.428,1.262c.524-2.868,1.149-6.171,1.863-9.844.788-4.068,1.647-8.393,2.628-13.218.905-4.449,1.847-8.938,2.8-13.346.949-4.385,1.891-8.382,2.8-11.878a5.594,5.594,0,0,0,.117-.572q-.116-.073-.274-.162l-.067-.038c-.708-.411-1.323-.743-1.828-.985s-.983-.448-1.4-.609a6.184,6.184,0,0,0-.97-.28q-.858-.172-1.941-.408l-.018,0c-1.042,4.738-2.091,9.976-3.115,15.566-1.055,5.755-1.906,11.67-2.528,17.584a4.217,4.217,0,0,1-8.27.641c-.614-2.31-1.245-4.774-1.875-7.325q-.941-3.795-1.8-7.392t-1.564-6.692q-.7-3.086-1.137-5.071a6.374,6.374,0,0,0-.769-2.3,3.21,3.21,0,0,0-1.183-.635c-.059-.022-.118-.045-.176-.07a35.408,35.408,0,0,0-4.566-1.572q-2.361-.621-4.858-1.241c-.349,2.2-.7,4.695-1.035,7.437-.368,2.97-.725,6.1-1.091,9.557-.342,3.236-.657,6.571-.937,9.913-.274,3.264-.518,6.412-.727,9.355-.2,2.851-.355,5.45-.453,7.725s-.163,4.027-.2,5.255C1725.96,579.481,1725.962,579.614,1725.967,579.719Z" transform="translate(-1717.527 -520.047)"/></g><g transform="translate(3.074 2.634)"><g transform="translate(0 2.044)"><path class="ct" d="M1610.776,567.373q1.865-5.049,3.677-9.752t3.39-8.567a58.118,58.118,0,0,1,2.593-5.7,4.043,4.043,0,0,1,1.733-2.01,5.117,5.117,0,0,1,2.994-.072,25.447,25.447,0,0,1,3.378.739q1.365.419,3.255,1.088a6.305,6.305,0,0,1,1.587.753,2.528,2.528,0,0,1,.8.927,3.675,3.675,0,0,1,.337,1.295q.071.756.117,1.786.055,1.169-.019,4t-.171,6.625q-.1,3.8-.21,8.074t-.193,8.348q1.285-3.437,2.793-7.265t3.054-7.69q1.538-3.861,3.058-7.553t2.845-6.922q1.331-3.231,2.417-5.8t1.837-4.187q.933-2.179,1.953-2.469a6.054,6.054,0,0,1,3.261.5q1.619.682,3.209,1.539a26.224,26.224,0,0,1,3.09,1.957,4.206,4.206,0,0,1,1.663,3.161,9.217,9.217,0,0,1-.729,3.55q-1.573,3.244-3.443,7.4t-3.8,8.656q-1.926,4.5-3.877,9.176t-3.711,9.064q-1.757,4.39-3.3,8.254t-2.649,6.74a3.092,3.092,0,0,1-1.778,1.737,8.2,8.2,0,0,1-3.37.158c-.832-.1-1.552-.214-2.153-.347s-1.172-.254-1.706-.368-1.068-.238-1.6-.373-1.127-.258-1.774-.365a5.416,5.416,0,0,1-2.842-1.762,6.916,6.916,0,0,1-1.221-2.6q-.277-1.434-.682-3.483t-.794-4.478q-.391-2.427-.751-4.962t-.472-4.941q-1.439,3.1-2.935,6.444t-2.833,6.508q-1.334,3.164-2.447,5.869t-1.791,4.461a3.2,3.2,0,0,1-1.678,1.7,6.9,6.9,0,0,1-2.508.153q-2.145-.247-4.131-.668t-3.8-.89a4.854,4.854,0,0,1-2.441-1.369,5.619,5.619,0,0,1-1.064-2.81q-.68-2.793-1.3-6.452t-1.158-7.837q-.551-4.384-1.052-9.186t-.93-9.571q-.43-4.77-.714-9.341t-.465-8.49q-.036-2.2.692-2.858c.484-.437,1.471-.528,2.952-.276q2.568.432,4.659.92a16.866,16.866,0,0,1,3.928,1.435,5.3,5.3,0,0,1,1.721,1.435,6.953,6.953,0,0,1,1.016,1.848,9.007,9.007,0,0,1,.477,2.047,14.331,14.331,0,0,1,.092,1.96q.011,1.791,0,5.238t.015,7.683q.025,4.239.138,8.815t.3,8.7Q1608.909,572.423,1610.776,567.373Z" transform="translate(-1589.128 -528.555)"/><path class="cv" d="M1607.658,561.267q1.862-5.049,3.677-9.752t3.39-8.567a58.516,58.516,0,0,1,2.593-5.7,4.048,4.048,0,0,1,1.733-2.011,5.116,5.116,0,0,1,2.994-.072,25.418,25.418,0,0,1,3.378.739q1.361.419,3.256,1.088a6.261,6.261,0,0,1,1.586.753,2.5,2.5,0,0,1,.8.926,3.675,3.675,0,0,1,.337,1.295q.071.756.117,1.786.055,1.169-.019,4t-.172,6.624q-.1,3.8-.207,8.074t-.2,8.349q1.284-3.437,2.8-7.265t3.052-7.69q1.54-3.861,3.058-7.553t2.845-6.922q1.332-3.23,2.417-5.8t1.837-4.187q.931-2.179,1.95-2.469a6.059,6.059,0,0,1,3.263.5q1.617.682,3.209,1.539a26.321,26.321,0,0,1,3.09,1.957,4.208,4.208,0,0,1,1.663,3.161,9.216,9.216,0,0,1-.729,3.55q-1.57,3.244-3.444,7.4t-3.8,8.655q-1.926,4.5-3.877,9.176t-3.712,9.065q-1.758,4.39-3.3,8.254t-2.647,6.74a3.1,3.1,0,0,1-1.778,1.737,8.2,8.2,0,0,1-3.37.158q-1.25-.148-2.153-.348c-.6-.133-1.172-.254-1.706-.367s-1.069-.238-1.6-.373-1.128-.258-1.776-.366a5.4,5.4,0,0,1-2.838-1.762,6.922,6.922,0,0,1-1.225-2.6q-.274-1.434-.68-3.483t-.8-4.478q-.389-2.427-.75-4.962t-.472-4.941q-1.439,3.1-2.937,6.444t-2.831,6.508q-1.334,3.165-2.447,5.87t-1.791,4.46a3.192,3.192,0,0,1-1.678,1.7,6.857,6.857,0,0,1-2.508.153q-2.149-.246-4.133-.668t-3.8-.891a4.853,4.853,0,0,1-2.441-1.368,5.634,5.634,0,0,1-1.064-2.81q-.681-2.793-1.3-6.452t-1.161-7.837q-.548-4.384-1.05-9.186t-.93-9.57q-.43-4.77-.714-9.341t-.465-8.49q-.036-2.2.693-2.858t2.95-.276q2.569.432,4.66.92a16.866,16.866,0,0,1,3.928,1.435,5.292,5.292,0,0,1,1.72,1.435,6.9,6.9,0,0,1,1.017,1.848,8.921,8.921,0,0,1,.475,2.047,13.8,13.8,0,0,1,.092,1.96q.013,1.791,0,5.238t.015,7.684q.025,4.237.138,8.815t.3,8.7Q1605.791,566.317,1607.658,561.267Z" transform="translate(-1588.201 -526.741)"/><path class="cw" d="M1660.107,536.681a3.5,3.5,0,0,0-.19-1.054,9.943,9.943,0,0,1-.643,2.388q-1.57,3.244-3.444,7.4t-3.8,8.655q-1.926,4.5-3.877,9.176t-3.712,9.065q-1.759,4.39-3.3,8.252t-2.647,6.741a3.1,3.1,0,0,1-1.778,1.737,8.162,8.162,0,0,1-3.371.157q-1.249-.148-2.152-.347t-1.706-.368c-.534-.113-1.07-.238-1.6-.373s-1.127-.257-1.776-.364a5.4,5.4,0,0,1-2.839-1.763,6.908,6.908,0,0,1-1.224-2.6q-.275-1.433-.681-3.482t-.8-4.477q-.388-2.429-.75-4.963t-.472-4.94q-1.439,3.1-2.937,6.443t-2.83,6.508q-1.335,3.163-2.448,5.869t-1.79,4.461a3.2,3.2,0,0,1-1.678,1.7,6.888,6.888,0,0,1-2.509.153q-2.148-.246-4.133-.669t-3.8-.889a4.858,4.858,0,0,1-2.441-1.369,5.649,5.649,0,0,1-1.064-2.81q-.68-2.794-1.3-6.453t-1.161-7.837q-.547-4.383-1.05-9.186t-.929-9.571q-.431-4.769-.714-9.341-.206-3.345-.36-6.342c0,.026,0,.044,0,.07q.184,3.92.465,8.49t.714,9.341q.428,4.77.93,9.57t1.05,9.186q.54,4.178,1.161,7.837t1.3,6.452a5.633,5.633,0,0,0,1.064,2.81,4.855,4.855,0,0,0,2.441,1.368q1.813.465,3.8.891t4.133.668a6.857,6.857,0,0,0,2.508-.153,3.192,3.192,0,0,0,1.678-1.7q.678-1.752,1.791-4.46t2.447-5.87q1.335-3.163,2.831-6.508t2.937-6.444q.113,2.408.472,4.941t.75,4.962q.388,2.429.795,4.477t.681,3.483a6.922,6.922,0,0,0,1.225,2.6,5.4,5.4,0,0,0,2.838,1.762c.648.108,1.24.228,1.776.365s1.068.259,1.6.373,1.1.234,1.706.367,1.32.25,2.153.348a8.2,8.2,0,0,0,3.37-.158,3.1,3.1,0,0,0,1.778-1.737q1.108-2.877,2.647-6.74t3.3-8.254q1.76-4.388,3.711-9.065t3.877-9.176q1.924-4.5,3.8-8.655t3.444-7.4A9.22,9.22,0,0,0,1660.107,536.681Z" transform="translate(-1588.202 -529.354)"/><g transform="translate(0.241 12.082)"><path class="cx" d="M1594.933,551.452c.227,4.274-1.009,7.814-2.761,7.907s-3.367-3.292-3.6-7.563,1.009-7.811,2.765-7.9S1594.7,547.184,1594.933,551.452Z" transform="translate(-1588.544 -543.891)"/></g><g transform="translate(24.041 12.33)"><path class="cy" d="M1629.584,552.729c-1.721,3.919-4.418,6.522-6.027,5.816s-1.522-4.456.194-8.374,4.42-6.52,6.029-5.811S1631.3,548.814,1629.584,552.729Z" transform="translate(-1622.403 -544.244)"/></g><g transform="translate(48.928)"><path class="cz" d="M1667.622,543.765c-3.872,8.819-8.083,15.5-9.412,14.919s.741-8.2,4.611-17.027,8.083-15.5,9.41-14.919S1671.491,534.942,1667.622,543.765Z" transform="translate(-1657.809 -526.703)"/><path class="da" d="M1669.469,547.708c-1.721,3.919-4.42,6.522-6.027,5.817s-1.522-4.456.194-8.374,4.42-6.519,6.029-5.812S1671.185,543.793,1669.469,547.708Z" transform="translate(-1659.14 -530.422)"/></g><path class="db" d="M1593.729,567.527s-2.407-27.392-2.279-29.8,3.314-2.883,9.739.746c0,0-5.077-2.248-6.881-1.362a3.05,3.05,0,0,0-1.629,2.883Z" transform="translate(-1589.165 -529.414)"/><path class="dc" d="M1653.1,567.9s13.707-32.351,14.711-34.547c1.044-2.289,3.576-2.549,9.62,1.679,0,0-4.1-2.378-5.982-1.669a5.013,5.013,0,0,0-2.633,2.366Z" transform="translate(-1607.482 -528.193)"/><path class="dc" d="M1613.946,573.9l12.986-30.919s.77-2.4,4.5-1.414,5.516,1.345,5.516,1.345l-5.3-.233s-2.267-.455-3.566.889S1613.946,573.9,1613.946,573.9Z" transform="translate(-1595.85 -531.047)"/></g><g transform="translate(71.59 2.356)"><path class="ct" d="M1715.388,539.25a4.817,4.817,0,0,1,.026,2.824q-.817,3.141-1.764,7.182t-1.875,8.531q-.927,4.491-1.811,9.183t-1.708,9.178q-.822,4.484-1.5,8.479t-1.149,7.118a2.5,2.5,0,0,1-.858,1.556,3.751,3.751,0,0,1-2.375.042q-1.811-.4-3.448-.8a16.886,16.886,0,0,1-3.12-1.094,4.367,4.367,0,0,1-2.18-1.655,4.917,4.917,0,0,1-.44-2.772q.026-2.413.295-6.251t.709-8.407q.441-4.571,1.03-9.629t1.224-9.913q.632-4.852,1.327-9.193t1.3-7.608a3.593,3.593,0,0,1,1.571-2.521,5.086,5.086,0,0,1,3.206.022,29.914,29.914,0,0,1,4.683,1.435,29.3,29.3,0,0,1,4.444,2.135A6.116,6.116,0,0,1,1715.388,539.25Z" transform="translate(-1690.976 -528.961)"/><path class="cv" d="M1712.268,533.143a4.809,4.809,0,0,1,.03,2.824q-.82,3.141-1.768,7.182t-1.873,8.531q-.927,4.489-1.811,9.183t-1.707,9.178q-.825,4.484-1.5,8.479t-1.149,7.118a2.5,2.5,0,0,1-.858,1.556,3.756,3.756,0,0,1-2.375.042q-1.811-.4-3.45-.8a16.92,16.92,0,0,1-3.118-1.094,4.368,4.368,0,0,1-2.18-1.655,4.918,4.918,0,0,1-.441-2.771q.027-2.413.293-6.251t.71-8.408q.443-4.571,1.031-9.628t1.224-9.913q.633-4.852,1.327-9.193t1.3-7.608a3.587,3.587,0,0,1,1.571-2.521,5.081,5.081,0,0,1,3.2.022,29.854,29.854,0,0,1,4.684,1.435,29.291,29.291,0,0,1,4.443,2.135A6.083,6.083,0,0,1,1712.268,533.143Z" transform="translate(-1690.05 -527.147)"/><path class="dd" d="M1708.657,554.148q.927-4.487,1.873-8.531t1.768-7.182a4.809,4.809,0,0,0-.03-2.824,1.524,1.524,0,0,0-.1-.158c0,.017,0,.031-.007.048q-.82,3.141-1.767,7.182t-1.874,8.53q-.927,4.49-1.81,9.182T1705,569.574q-.825,4.482-1.5,8.479t-1.149,7.118a2.5,2.5,0,0,1-.858,1.557,3.76,3.76,0,0,1-2.375.042q-1.811-.4-3.449-.8a16.976,16.976,0,0,1-3.118-1.094,4.359,4.359,0,0,1-2.18-1.656,3.11,3.11,0,0,1-.284-.726c-.007.3-.016.614-.02.89a4.918,4.918,0,0,0,.441,2.771,4.368,4.368,0,0,0,2.18,1.655,16.916,16.916,0,0,0,3.118,1.094q1.638.4,3.45.8a3.757,3.757,0,0,0,2.375-.042,2.5,2.5,0,0,0,.858-1.556q.473-3.124,1.149-7.118t1.5-8.478q.826-4.484,1.707-9.178T1708.657,554.148Z" transform="translate(-1690.05 -529.615)"/><path class="de" d="M1692.338,574.406l5.513-41.04s.08-3.386,3.047-3.2c2.919.186,8.212,3,8.212,3a31.483,31.483,0,0,0-7-1.67,2.379,2.379,0,0,0-2.751,2.22Z" transform="translate(-1690.729 -528.043)"/><g transform="translate(3.802 4.687)"><path class="df" d="M1701.268,541.63c-.846,3.987-2.741,6.959-4.235,6.643s-2.016-3.8-1.171-7.791,2.744-6.96,4.236-6.645S1702.118,537.643,1701.268,541.63Z" transform="translate(-1695.458 -533.814)"/></g></g><g transform="translate(93.976)"><path class="ct" d="M1758.253,549.027q1.618-8.827,3.269-16.28a3.458,3.458,0,0,1,1.57-2.555,5.5,5.5,0,0,1,3.337-.088q1.046.228,1.88.394a10.545,10.545,0,0,1,1.643.475c.538.205,1.11.454,1.722.747s1.318.674,2.121,1.141a4.3,4.3,0,0,1,2.353,2.405,6.5,6.5,0,0,1-.167,3.075q-1.343,5.164-2.76,11.708t-2.789,13.295q-1.371,6.751-2.62,13.184t-2.126,11.3q-.289,2.632-4.043,1.982a45.706,45.706,0,0,1-6.547-1.486,7.271,7.271,0,0,1-4.456-3.926q-1.067-2.085-2.193-4.859t-2.312-5.992q-1.185-3.218-2.382-6.711t-2.261-7.028q-.556,4.3-1.148,8.6t-1.13,8.22q-.541,3.92-.969,7.281t-.656,5.855a2.067,2.067,0,0,1-.824,1.521,3.971,3.971,0,0,1-2.416-.059q-1.67-.336-3.376-.7a12.4,12.4,0,0,1-3.333-1.256,4.356,4.356,0,0,1-2.11-1.66,5.264,5.264,0,0,1-.51-2.767q.053-1.863.2-5.317t.459-7.843q.312-4.392.731-9.409t.945-10q.527-4.988,1.1-9.631t1.164-8.256a3.366,3.366,0,0,1,1.6-2.66,5.428,5.428,0,0,1,3.372-.124q2.582.638,5.023,1.282a39.439,39.439,0,0,1,5.114,1.759,6.555,6.555,0,0,1,3.129,2.093,10.052,10.052,0,0,1,1.492,3.893q.438,1.979,1.133,5.048t1.553,6.646q.855,3.58,1.791,7.361t1.856,7.253Q1756.634,557.857,1758.253,549.027Z" transform="translate(-1722.824 -525.609)"/><path class="cv" d="M1755.135,542.922q1.618-8.828,3.269-16.281a3.458,3.458,0,0,1,1.57-2.555,5.5,5.5,0,0,1,3.337-.088q1.046.228,1.88.394a10.556,10.556,0,0,1,1.643.474c.536.206,1.111.455,1.722.747s1.318.674,2.122,1.141a4.306,4.306,0,0,1,2.353,2.405,6.5,6.5,0,0,1-.167,3.075q-1.344,5.165-2.76,11.708t-2.789,13.295q-1.374,6.75-2.623,13.184t-2.124,11.3q-.289,2.632-4.043,1.982a45.717,45.717,0,0,1-6.547-1.486,7.278,7.278,0,0,1-4.458-3.926q-1.063-2.085-2.192-4.86t-2.314-5.991q-1.183-3.218-2.38-6.711t-2.259-7.028q-.558,4.3-1.15,8.6t-1.129,8.22q-.541,3.919-.969,7.281t-.657,5.854a2.074,2.074,0,0,1-.826,1.521,3.963,3.963,0,0,1-2.415-.06q-1.668-.335-3.375-.7a12.405,12.405,0,0,1-3.333-1.256,4.371,4.371,0,0,1-2.111-1.66,5.271,5.271,0,0,1-.509-2.767q.053-1.863.2-5.317t.461-7.843q.312-4.391.731-9.408t.944-10q.526-4.988,1.1-9.631t1.166-8.257a3.361,3.361,0,0,1,1.6-2.659,5.428,5.428,0,0,1,3.372-.124q2.58.638,5.022,1.282a39.378,39.378,0,0,1,5.115,1.759,6.553,6.553,0,0,1,3.13,2.092,10.063,10.063,0,0,1,1.491,3.894q.439,1.979,1.133,5.048t1.553,6.646q.855,3.58,1.791,7.361t1.856,7.253Q1753.514,551.751,1755.135,542.922Z" transform="translate(-1721.897 -523.795)"/><path class="dg" d="M1772.848,530.809c-.036.189-.07.376-.122.576q-1.342,5.163-2.759,11.708t-2.79,13.295q-1.374,6.749-2.622,13.183t-2.125,11.3q-.289,2.632-4.043,1.981a45.721,45.721,0,0,1-6.546-1.486,7.286,7.286,0,0,1-4.458-3.926q-1.062-2.087-2.191-4.86t-2.315-5.992q-1.183-3.218-2.38-6.712t-2.259-7.028q-.559,4.3-1.149,8.6t-1.13,8.219q-.542,3.921-.969,7.282t-.656,5.855a2.068,2.068,0,0,1-.825,1.52,3.967,3.967,0,0,1-2.416-.058q-1.667-.336-3.375-.7a12.369,12.369,0,0,1-3.333-1.256,4.383,4.383,0,0,1-2.112-1.66,3.583,3.583,0,0,1-.337-.907c-.014.392-.026.752-.035,1.074a5.271,5.271,0,0,0,.509,2.767,4.371,4.371,0,0,0,2.111,1.66,12.405,12.405,0,0,0,3.333,1.256q1.7.367,3.375.7a3.963,3.963,0,0,0,2.415.06,2.074,2.074,0,0,0,.826-1.521q.226-2.491.657-5.854t.969-7.281q.539-3.918,1.129-8.22t1.15-8.6q1.058,3.535,2.259,7.028t2.38,6.711q1.185,3.217,2.314,5.991t2.192,4.86a7.278,7.278,0,0,0,4.458,3.926,45.709,45.709,0,0,0,6.547,1.486q3.753.649,4.043-1.982.874-4.864,2.124-11.3t2.623-13.184q1.371-6.749,2.789-13.295t2.76-11.708a6.5,6.5,0,0,0,.167-3.075A2.19,2.19,0,0,0,1772.848,530.809Z" transform="translate(-1721.897 -525.878)"/><path class="dc" d="M1768.1,561.673l5.8-33.4s.593-3.465,9.959,1.563c0,0-6.3-2.384-8.122-1.428C1773.8,529.426,1768.1,561.673,1768.1,561.673Z" transform="translate(-1735.624 -524.78)"/><g transform="translate(2.355 4.964)"><path class="dc" d="M1725.248,573.552s1.626-33.834,3.768-40.209c1.018-4.5,7.659-1.8,14.52-.351,0,0-7.093-1.346-10.458-1.215s-3.31,1.6-4.194,7.645S1725.248,573.552,1725.248,573.552Z" transform="translate(-1725.248 -530.856)"/></g><g transform="translate(33.211 5.402)"><path class="dh" d="M1775.944,540.718c-.754,4.812-2.824,8.477-4.627,8.2s-2.65-4.411-1.9-9.219,2.828-8.48,4.627-8.2S1776.7,535.9,1775.944,540.718Z" transform="translate(-1769.145 -531.48)"/></g></g></g></g><path class="di" d="M1794.728,492.223" transform="translate(-83.171 -15.185)"/><g transform="translate(1575.197 441.109)"><g transform="translate(41.682)"><path class="dj" d="M1669.564,487.652a4.848,4.848,0,0,1-.349-2.317l.74-8.244a1.5,1.5,0,0,0-.538-1.293l-6.371-5.283a4.819,4.819,0,0,1-1.735-3.179,8.736,8.736,0,0,1,.126-3.415,13.578,13.578,0,0,1,1.547-2.936,5.646,5.646,0,0,1,2.842-1.855l8.034-1.835.087-.022a1.462,1.462,0,0,0,.141-.046,1.506,1.506,0,0,0,.87-.851l3.056-7.692a4.884,4.884,0,0,1,8.731-.7l4.247,7.1a1.5,1.5,0,0,0,1.195.73l8.26.529a4.854,4.854,0,0,1,4.155,2.9c.046.09.089.183.129.279.974,2.338-.1,5.97-1.667,7.767l-4.8,5.5,1.88,7.364c.04.158.072.319.1.481a6.014,6.014,0,0,1-1.713,6.334c-1.769,1.752-4.057,2.395-5.831,1.637l-7.611-3.251a1.5,1.5,0,0,0-1.4.112l-6.993,4.427a4.89,4.89,0,0,1-7.128-2.246Z" transform="translate(-1660.381 -442.444)"/><path class="dk" d="M1668.4,483.157a4.85,4.85,0,0,1-.349-2.317l.741-8.244a1.509,1.509,0,0,0-.538-1.293l-6.371-5.283a4.827,4.827,0,0,1-1.736-3.179,8.741,8.741,0,0,1,.127-3.415,13.542,13.542,0,0,1,1.546-2.936,5.648,5.648,0,0,1,2.842-1.855l8.034-1.835.087-.022a1.369,1.369,0,0,0,.141-.046,1.508,1.508,0,0,0,.871-.851l3.055-7.692a4.885,4.885,0,0,1,8.732-.7l4.246,7.1a1.5,1.5,0,0,0,1.2.73l8.259.529a4.855,4.855,0,0,1,4.156,2.9c.046.091.089.183.129.28.974,2.338-.1,5.97-1.667,7.767l-4.8,5.5,1.879,7.364c.041.158.073.319.1.481a6.013,6.013,0,0,1-1.713,6.334c-1.769,1.752-4.058,2.395-5.831,1.637l-7.612-3.251a1.5,1.5,0,0,0-1.4.112l-6.993,4.427a4.89,4.89,0,0,1-7.128-2.246Z" transform="translate(-1660.035 -441.109)"/><path class="dl" d="M1664.257,463.832a6.018,6.018,0,0,0-1.724,5.516s4.892-2.107,4.7-2.27S1664.257,463.832,1664.257,463.832Z" transform="translate(-1660.749 -447.86)"/><path class="dl" d="M1701.373,463.613l-5.445,6.234a3.194,3.194,0,0,0-.689,2.892l2.931,5.75c1.411,3.321-2.8,7.038-5.232,6l-7.611-3.251a3.194,3.194,0,0,0-2.964.238l-6.993,4.427a3.194,3.194,0,0,1-4.89-2.985l.74-8.244a3.193,3.193,0,0,0-1.143-2.744l-6.371-5.283a3.139,3.139,0,0,1-1.141-2.123,3.19,3.19,0,0,1,2.469-3.451l8.069-1.843a3.194,3.194,0,0,0,2.257-1.935l3.056-7.692a3.2,3.2,0,0,1,5.71-.46l4.246,7.1a3.2,3.2,0,0,0,2.537,1.549l10.4-1.255C1703.949,456.709,1703.114,461.619,1701.373,463.613Z" transform="translate(-1660.782 -443.033)"/><path class="dm" d="M1702.438,459.539l-5.445,6.234a3.2,3.2,0,0,0-.689,2.892l2.05,8.02a3.2,3.2,0,0,1-4.35,3.728l-7.612-3.252a3.194,3.194,0,0,0-2.963.238l-6.994,4.427a3.194,3.194,0,0,1-4.889-2.985l.74-8.244a3.2,3.2,0,0,0-1.142-2.744l-6.372-5.283A3.194,3.194,0,0,1,1666.1,457l8.069-1.844a3.194,3.194,0,0,0,2.257-1.934l3.056-7.692a3.194,3.194,0,0,1,5.71-.46l4.247,7.1a3.2,3.2,0,0,0,2.537,1.548l8.26.529A3.194,3.194,0,0,1,1702.438,459.539Z" transform="translate(-1661.099 -441.823)"/><path class="dn" d="M1683.43,482.267a3.223,3.223,0,0,1,.507-.254,28.292,28.292,0,0,1-9.359-22.115,3.121,3.121,0,0,1-.408.124l-8.069,1.844a3.194,3.194,0,0,0-1.327,5.573l6.371,5.283a3.2,3.2,0,0,1,1.142,2.744l-.74,8.244a3.194,3.194,0,0,0,4.889,2.985Z" transform="translate(-1661.099 -446.691)"/><path class="do" d="M1685.758,446.567A52.15,52.15,0,0,1,1696.352,463a53.2,53.2,0,0,1,4.147,17.515l.131.056a3.194,3.194,0,0,0,4.349-3.728l-2.049-8.02a3.193,3.193,0,0,1,.689-2.892l5.444-6.234a3.194,3.194,0,0,0-2.2-5.289l-8.26-.529a3.192,3.192,0,0,1-2.537-1.548l-4.246-7.1a3.194,3.194,0,0,0-5.71.46Z" transform="translate(-1667.677 -441.87)"/><g class="dp" transform="translate(20.35 2.583)"><path class="dq" d="M1690.174,446.7l4.246,7.1a4.393,4.393,0,0,0,3.49,2.13l8.26.529a1.995,1.995,0,0,1,1.375,3.3L1702.1,466a4.393,4.393,0,0,0-.948,3.977l2.049,8.019a1.955,1.955,0,0,1-.2,1.478,2,2,0,0,0,2.459-2.419l-2.05-8.019a4.4,4.4,0,0,1,.948-3.978l5.445-6.234a1.995,1.995,0,0,0-1.376-3.3l-8.26-.529a4.395,4.395,0,0,1-3.49-2.13l-4.246-7.1a2,2,0,0,0-3.449.04A1.956,1.956,0,0,1,1690.174,446.7Z" transform="translate(-1688.986 -444.783)"/></g><g transform="translate(3.717 3.043)"><path class="dr" d="M1680.7,456.347l.287-.065a4.394,4.394,0,0,0,3.1-2.661l3.056-7.692a2.07,2.07,0,0,1,.264-.472,2.089,2.089,0,0,0-.415-.013,1.959,1.959,0,0,0-1.694,1.253l-3.056,7.692A4.384,4.384,0,0,1,1680.7,456.347Z" transform="translate(-1669.891 -445.438)"/><path class="dr" d="M1677.023,486.471a1.966,1.966,0,0,1-.528-.088,2.042,2.042,0,0,1-1.263-1.139,1.983,1.983,0,0,1-.139-.948l.74-8.244a4.4,4.4,0,0,0-1.571-3.775l-6.372-5.283a2,2,0,0,1-.575-.767,2.043,2.043,0,0,1,.081-1.7,1.959,1.959,0,0,1,.31-.437l-.831.19a1.95,1.95,0,0,0-1.324,1.015,2.04,2.04,0,0,0-.081,1.7,1.983,1.983,0,0,0,.575.767l6.372,5.283a4.394,4.394,0,0,1,1.571,3.775l-.74,8.244a1.97,1.97,0,0,0,.139.948,2.041,2.041,0,0,0,1.262,1.14,1.949,1.949,0,0,0,1.653-.224Z" transform="translate(-1665.323 -450.98)"/><path class="dr" d="M1704.811,492.491a2.1,2.1,0,0,0,.284-.3,2.075,2.075,0,0,1-.521-.145l-7.612-3.251a4.394,4.394,0,0,0-4.076.328l-.249.157a4.395,4.395,0,0,1,2.481.283l7.611,3.252A1.959,1.959,0,0,0,1704.811,492.491Z" transform="translate(-1673.438 -458.213)"/></g><path class="ds" d="M1709.8,486.746a3.176,3.176,0,0,0-.161-.738c-1-2.8-3.109-3.5-2.251-1.79.89,1.778.666,6.486,1.764,5.821C1710,489.527,1709.892,487.6,1709.8,486.746Z" transform="translate(-1674.043 -453.641)"/><path class="ds" d="M1668.847,463.176c-.675.169-2.281,2.608-.976,2.73C1669.349,466.045,1670.408,462.783,1668.847,463.176Z" transform="translate(-1662.215 -447.655)"/><path class="ds" d="M1715.569,463.371a1.1,1.1,0,1,0,1.774-.231A1.3,1.3,0,0,0,1715.569,463.371Z" transform="translate(-1676.368 -447.577)"/></g><g transform="translate(0 17.505)"><path class="dj" d="M1611.866,503.2a4,4,0,0,1-.372-1.9l.312-6.834a1.244,1.244,0,0,0-.491-1.048l-5.452-4.13a3.984,3.984,0,0,1-1.549-2.561,7.226,7.226,0,0,1-.02-2.824,11.284,11.284,0,0,1,1.17-2.48,4.672,4.672,0,0,1,2.28-1.635l6.566-1.807.071-.02c.039-.013.077-.027.115-.044a1.247,1.247,0,0,0,.688-.735l2.243-6.462a4.037,4.037,0,0,1,7.184-.9l3.764,5.712a1.243,1.243,0,0,0,1.013.559l6.839.137a4.013,4.013,0,0,1,3.536,2.246c.042.073.08.148.117.226.888,1.9.136,4.932-1.094,6.473l-3.766,4.716,1.818,6.012c.04.129.072.261.1.393a4.971,4.971,0,0,1-1.184,5.292,4.53,4.53,0,0,1-4.756,1.563l-6.4-2.407a1.243,1.243,0,0,0-1.148.143l-5.614,3.91a4.042,4.042,0,0,1-5.966-1.6Z" transform="translate(-1601.754 -466.605)"/><path class="dk" d="M1608.438,501.206a4,4,0,0,1-.372-1.9l.312-6.833a1.249,1.249,0,0,0-.492-1.048l-5.452-4.13a3.986,3.986,0,0,1-1.549-2.561,7.226,7.226,0,0,1-.02-2.824,11.209,11.209,0,0,1,1.17-2.48,4.674,4.674,0,0,1,2.279-1.635l6.567-1.807.071-.021c.039-.012.077-.027.115-.043a1.242,1.242,0,0,0,.687-.735l2.244-6.461a4.036,4.036,0,0,1,7.183-.9l3.765,5.712a1.245,1.245,0,0,0,1.013.559l6.839.136a4.013,4.013,0,0,1,3.536,2.246c.041.073.081.148.117.226.888,1.9.136,4.932-1.094,6.473l-3.766,4.716,1.819,6.011c.039.13.072.261.1.394a4.97,4.97,0,0,1-1.185,5.292,4.528,4.528,0,0,1-4.755,1.563l-6.4-2.408a1.242,1.242,0,0,0-1.148.143l-5.613,3.91a4.041,4.041,0,0,1-5.966-1.6Z" transform="translate(-1600.735 -466.013)"/><path class="dl" d="M1604.071,485.7a4.97,4.97,0,0,0-1.223,4.617,32.511,32.511,0,0,0,3.8-2.044C1606.475,488.148,1604.071,485.7,1604.071,485.7Z" transform="translate(-1601.325 -471.862)"/><path class="dl" d="M1634.9,483.912l-4.269,5.345a2.639,2.639,0,0,0-.464,2.412l2.629,4.641c1.286,2.691-2.054,5.912-4.1,5.142l-6.4-2.407a2.638,2.638,0,0,0-2.438.3l-5.613,3.909a2.64,2.64,0,0,1-4.146-2.287l.312-6.833a2.641,2.641,0,0,0-1.043-2.225l-5.453-4.131a2.593,2.593,0,0,1-1.019-1.711,2.635,2.635,0,0,1,1.912-2.938l6.6-1.815a2.639,2.639,0,0,0,1.793-1.679l2.244-6.463a2.64,2.64,0,0,1,4.7-.587l3.764,5.712a2.64,2.64,0,0,0,2.152,1.186l8.537-1.414C1636.774,478.118,1636.262,482.2,1634.9,483.912Z" transform="translate(-1601.367 -467.614)"/><path class="dt" d="M1635.628,480.509l-4.269,5.345a2.64,2.64,0,0,0-.463,2.413l1.983,6.546a2.64,2.64,0,0,1-3.456,3.236l-6.4-2.407a2.636,2.636,0,0,0-2.437.3l-5.614,3.909a2.64,2.64,0,0,1-4.146-2.286l.311-6.834a2.638,2.638,0,0,0-1.042-2.224l-5.453-4.131a2.64,2.64,0,0,1,.893-4.649l6.6-1.816a2.638,2.638,0,0,0,1.793-1.679l2.244-6.462a2.64,2.64,0,0,1,4.7-.587l3.764,5.712a2.64,2.64,0,0,0,2.151,1.186l6.839.137A2.639,2.639,0,0,1,1635.628,480.509Z" transform="translate(-1601.584 -466.603)"/><path class="dn" d="M1620.583,500.087a2.569,2.569,0,0,1,.409-.228,23.386,23.386,0,0,1-8.531-17.92,2.563,2.563,0,0,1-.332.118l-6.6,1.815a2.64,2.64,0,0,0-.893,4.649l5.453,4.131a2.638,2.638,0,0,1,1.042,2.224l-.311,6.834A2.64,2.64,0,0,0,1614.97,504Z" transform="translate(-1601.584 -470.744)"/><path class="do" d="M1621.175,470.642a43.1,43.1,0,0,1,9.344,13.184,43.977,43.977,0,0,1,4.059,14.311l.11.041a2.64,2.64,0,0,0,3.456-3.236l-1.983-6.546a2.64,2.64,0,0,1,.464-2.413l4.269-5.345a2.64,2.64,0,0,0-2.01-4.286l-6.839-.137a2.642,2.642,0,0,1-2.152-1.187l-3.764-5.712a2.64,2.64,0,0,0-4.7.587Z" transform="translate(-1606.808 -466.641)"/><g class="dp" transform="translate(16.201 2.108)"><path class="dq" d="M1624.8,470.614l3.764,5.711a3.629,3.629,0,0,0,2.958,1.632l6.839.137a1.649,1.649,0,0,1,1.255,2.677l-4.269,5.345a3.631,3.631,0,0,0-.637,3.318l1.983,6.547a1.62,1.62,0,0,1-.109,1.227,1.649,1.649,0,0,0,1.942-2.087l-1.983-6.547a3.629,3.629,0,0,1,.638-3.318l4.268-5.345a1.649,1.649,0,0,0-1.255-2.677l-6.839-.137a3.63,3.63,0,0,1-2.958-1.632l-3.765-5.712a1.649,1.649,0,0,0-2.846.158A1.617,1.617,0,0,1,1624.8,470.614Z" transform="translate(-1623.784 -469.012)"/></g><g transform="translate(3.001 2.53)"><path class="dr" d="M1617.478,478.854l.235-.065a3.63,3.63,0,0,0,2.467-2.31l2.244-6.462a1.655,1.655,0,0,1,.2-.4,1.7,1.7,0,0,0-.343,0,1.618,1.618,0,0,0-1.353,1.1l-2.244,6.462A3.62,3.62,0,0,1,1617.478,478.854Z" transform="translate(-1608.71 -469.612)"/><path class="dr" d="M1615.4,503.922a1.6,1.6,0,0,1-.44-.053,1.684,1.684,0,0,1-1.083-.895,1.627,1.627,0,0,1-.15-.778l.312-6.834a3.629,3.629,0,0,0-1.435-3.059l-5.452-4.131a1.636,1.636,0,0,1-.5-.612,1.686,1.686,0,0,1,.005-1.405,1.6,1.6,0,0,1,.24-.373l-.68.187a1.609,1.609,0,0,0-1.056.886,1.687,1.687,0,0,0,0,1.406,1.633,1.633,0,0,0,.5.612L1611.11,493a3.637,3.637,0,0,1,1.435,3.06l-.312,6.833a1.635,1.635,0,0,0,.149.778,1.687,1.687,0,0,0,1.084.9,1.612,1.612,0,0,0,1.357-.245Z" transform="translate(-1605.004 -474.416)"/><path class="dr" d="M1638.543,507.878a1.712,1.712,0,0,0,.223-.26,1.691,1.691,0,0,1-.435-.1l-6.4-2.408a3.63,3.63,0,0,0-3.353.419l-.2.139a3.625,3.625,0,0,1,2.058.143l6.4,2.408A1.618,1.618,0,0,0,1638.543,507.878Z" transform="translate(-1611.947 -480.089)"/></g><path class="ds" d="M1642.445,502.992a2.645,2.645,0,0,0-.16-.6c-.929-2.275-2.694-2.78-1.924-1.4.8,1.435.786,5.332,1.668,4.742C1642.708,505.281,1642.552,503.7,1642.445,502.992Z" transform="translate(-1612.451 -476.177)"/><path class="ds" d="M1607.806,485c-.551.164-1.788,2.236-.707,2.289C1608.325,487.345,1609.08,484.615,1607.806,485Z" transform="translate(-1602.498 -471.641)"/><path class="ds" d="M1646.38,483.46a.912.912,0,1,0,1.456-.254A1.074,1.074,0,0,0,1646.38,483.46Z" transform="translate(-1614.171 -471.063)"/></g><g transform="translate(91.923 13.181)"><path class="dj" d="M1733.393,467.48a4.318,4.318,0,0,0,.3,2.066l2.751,6.839a1.345,1.345,0,0,1-.126,1.241l-4.075,6.143a4.3,4.3,0,0,0-.663,3.157,7.793,7.793,0,0,0,.985,2.879,12.125,12.125,0,0,0,2.074,2.106,5.031,5.031,0,0,0,2.9.851l7.322-.5.08,0c.044,0,.088,0,.132,0a1.339,1.339,0,0,1,.961.5l4.583,5.773a4.35,4.35,0,0,0,7.625-1.646l1.795-7.15a1.342,1.342,0,0,1,.831-.929l6.907-2.575a4.324,4.324,0,0,0,2.8-3.544c.016-.089.029-.179.038-.271.229-2.244-1.617-5.065-3.418-6.195l-5.51-3.455-.291-6.762c-.006-.146-.02-.291-.04-.435a5.356,5.356,0,0,0-3.089-4.961c-1.958-1.039-4.076-1-5.393.1l-5.654,4.729a1.342,1.342,0,0,1-1.219.263l-7.1-1.977a4.354,4.354,0,0,0-5.5,3.748Z" transform="translate(-1731.51 -459.86)"/><path class="dk" d="M1738.93,467.819a4.315,4.315,0,0,0,.3,2.065l2.751,6.839a1.358,1.358,0,0,1,.089.636,1.344,1.344,0,0,1-.217.605l-4.074,6.143a4.3,4.3,0,0,0-.663,3.157,7.79,7.79,0,0,0,.985,2.879,12.1,12.1,0,0,0,2.074,2.105,5.031,5.031,0,0,0,2.9.851l7.322-.5.079,0c.044,0,.089,0,.132,0a1.34,1.34,0,0,1,.961.5l4.583,5.773a4.35,4.35,0,0,0,7.626-1.645l1.794-7.149a1.342,1.342,0,0,1,.832-.93l6.907-2.574a4.324,4.324,0,0,0,2.8-3.544q.024-.134.038-.272c.229-2.244-1.617-5.065-3.418-6.194l-5.509-3.455-.291-6.762c-.006-.146-.02-.292-.04-.436a5.355,5.355,0,0,0-3.089-4.96c-1.958-1.04-4.075-1-5.393.1l-5.654,4.729a1.34,1.34,0,0,1-1.219.264l-7.1-1.977a4.356,4.356,0,0,0-5.5,3.748Z" transform="translate(-1733.156 -459.961)"/><path class="dl" d="M1742.151,502.647a5.359,5.359,0,0,1-2.888-4.26s4.713.539,4.588.728S1742.151,502.647,1742.151,502.647Z" transform="translate(-1733.813 -471.306)"/><path class="dl" d="M1772.564,478.477l-6.245-3.917a2.845,2.845,0,0,1-1.331-2.289l1.021-5.656c.349-3.194-4.194-5.282-6-3.769l-5.655,4.729a2.843,2.843,0,0,1-2.588.559l-7.1-1.977a2.845,2.845,0,0,0-3.4,3.8l2.75,6.839a2.846,2.846,0,0,1-.269,2.634l-4.075,6.143a2.8,2.8,0,0,0-.427,2.1,2.841,2.841,0,0,0,2.992,2.308l7.355-.5a2.847,2.847,0,0,1,2.422,1.07l4.583,5.773a2.845,2.845,0,0,0,4.987-1.076l1.795-7.149a2.843,2.843,0,0,1,1.765-1.973l9.188-1.6C1776.537,483.7,1774.562,479.73,1772.564,478.477Z" transform="translate(-1733.792 -460.598)"/><path class="du" d="M1774.52,481.607l-6.245-3.916a2.846,2.846,0,0,1-1.331-2.289l-.315-7.364a2.845,2.845,0,0,0-4.667-2.061l-5.654,4.729a2.845,2.845,0,0,1-2.588.559l-7.1-1.977a2.845,2.845,0,0,0-3.4,3.8l2.751,6.839a2.845,2.845,0,0,1-.269,2.634l-4.075,6.143a2.844,2.844,0,0,0,2.565,4.41l7.354-.5a2.844,2.844,0,0,1,2.422,1.07l4.583,5.773a2.845,2.845,0,0,0,4.987-1.076l1.794-7.15a2.845,2.845,0,0,1,1.766-1.972l6.907-2.575A2.845,2.845,0,0,0,1774.52,481.607Z" transform="translate(-1734.373 -461.479)"/><path class="dn" d="M1753.72,472.9a2.83,2.83,0,0,0,.5.086,25.2,25.2,0,0,0-2.294,21.264,2.861,2.861,0,0,0-.38,0l-7.354.5a2.844,2.844,0,0,1-2.565-4.41l4.075-6.143a2.845,2.845,0,0,0,.269-2.634l-2.751-6.839a2.845,2.845,0,0,1,3.4-3.8Z" transform="translate(-1734.373 -463.115)"/><path class="do" d="M1765.174,498.644a46.469,46.469,0,0,0,4.809-16.737,47.4,47.4,0,0,0-.968-16l.1-.082a2.845,2.845,0,0,1,4.667,2.061l.314,7.364a2.844,2.844,0,0,0,1.331,2.289l6.245,3.917a2.845,2.845,0,0,1-.517,5.076l-6.907,2.575a2.845,2.845,0,0,0-1.766,1.973l-1.794,7.149a2.845,2.845,0,0,1-4.987,1.076Z" transform="translate(-1741.512 -461.434)"/><g class="dp" transform="translate(25.881 4.969)"><path class="dq" d="M1769.111,498.452l1.795-7.149a3.912,3.912,0,0,1,2.428-2.714l6.907-2.575a1.777,1.777,0,0,0,.323-3.17l-6.245-3.917a3.911,3.911,0,0,1-1.83-3.148l-.315-7.364a1.741,1.741,0,0,0-.547-1.21,1.777,1.777,0,0,1,2.718,1.431l.314,7.364a3.912,3.912,0,0,0,1.831,3.148l6.245,3.917a1.777,1.777,0,0,1-.323,3.17l-6.907,2.575a3.911,3.911,0,0,0-2.428,2.714l-1.794,7.149a1.778,1.778,0,0,1-2.952.853A1.74,1.74,0,0,0,1769.111,498.452Z" transform="translate(-1768.33 -466.93)"/></g><g transform="translate(7.84 4.861)"><path class="dr" d="M1757.477,502.858l.261-.018a3.913,3.913,0,0,1,3.332,1.471l4.583,5.773a1.832,1.832,0,0,0,.346.335,1.835,1.835,0,0,1-.351.117,1.743,1.743,0,0,1-1.766-.633l-4.584-5.773A3.9,3.9,0,0,0,1757.477,502.858Z" transform="translate(-1747.064 -477.488)"/><path class="dr" d="M1747.515,472.608a1.709,1.709,0,0,0-.428.211,1.815,1.815,0,0,0-.784,1.3,1.762,1.762,0,0,0,.125.844l2.751,6.839a3.913,3.913,0,0,1-.37,3.623l-4.074,6.143a1.756,1.756,0,0,0-.293.8,1.815,1.815,0,0,0,.505,1.428,1.731,1.731,0,0,0,.377.293l-.758.052a1.738,1.738,0,0,1-1.39-.526,1.814,1.814,0,0,1-.505-1.428,1.767,1.767,0,0,1,.293-.8l4.075-6.143a3.917,3.917,0,0,0,.369-3.623l-2.75-6.839a1.762,1.762,0,0,1-.126-.844,1.818,1.818,0,0,1,.784-1.3,1.735,1.735,0,0,1,1.467-.234Z" transform="translate(-1742.664 -468.428)"/><path class="dr" d="M1769.837,466.933a1.837,1.837,0,0,1,.32.186,1.824,1.824,0,0,0-.407.258l-5.654,4.729a3.915,3.915,0,0,1-3.56.768l-.253-.071a3.9,3.9,0,0,0,2.042-.878l5.654-4.729A1.743,1.743,0,0,1,1769.837,466.933Z" transform="translate(-1747.898 -466.776)"/></g><path class="ds" d="M1775.45,470.747a2.853,2.853,0,0,1,.053.671c-.135,2.644-1.75,3.787-1.459,2.1.3-1.745-1.1-5.7.007-5.417C1774.9,468.325,1775.309,469.991,1775.45,470.747Z" transform="translate(-1744.02 -462.306)"/><path class="ds" d="M1746.544,502.948c-.619.029-2.615-1.638-1.534-2.077C1746.235,500.373,1747.976,502.882,1746.544,502.948Z" transform="translate(-1735.427 -472.025)"/><path class="ds" d="M1786.393,490.828c-.638-.318-.967-.95-.737-1.412a1.156,1.156,0,0,1,1.572-.259c.637.318.967.95.737,1.412A1.156,1.156,0,0,1,1786.393,490.828Z" transform="translate(-1747.574 -468.51)"/></g></g></g></g></svg>