<svg xmlns="http://www.w3.org/2000/svg" xmlns:xlink="http://www.w3.org/1999/xlink" width="104" height="108" viewBox="0 0 104 108"><defs><style>.a{fill:none;}.b{fill:url(#a);}.c{opacity:0.34;}.c,.v{mix-blend-mode:overlay;}.c,.k,.v{isolation:isolate;}.d,.w{fill:#fff;}.e,.k{opacity:0.27;}.f{fill:url(#b);}.g{opacity:0.6;}.h{fill:url(#c);}.i{opacity:0.4;}.j{fill:#9ce019;}.k{mix-blend-mode:multiply;}.l{opacity:0.53;}.m{fill:url(#d);}.n{opacity:0.29;}.o,.w,.y{opacity:0.8;}.o{fill:url(#e);}.p{opacity:0.5;}.q{fill:url(#f);}.r{opacity:0.65;}.s,.x{opacity:0.9;}.t{fill:#e7e8e9;}.u{fill:url(#g);}.v{opacity:0.84;}.x,.z{fill:#dd315e;}.x{stroke:#fff;stroke-miterlimit:10;stroke-width:2px;}.aa{opacity:0.28;fill:url(#h);}</style><radialGradient id="a" cx="0.508" cy="0.273" r="0.864" gradientTransform="translate(0.023) scale(0.953 1)" gradientUnits="objectBoundingBox"><stop offset="0.049" stop-color="#ef60a2"/><stop offset="0.929" stop-color="#ff2453"/></radialGradient><radialGradient id="b" cx="0.5" cy="0.5" r="0.594" gradientTransform="translate(0.129) scale(0.742 1)" xlink:href="#a"/><radialGradient id="c" cx="0.5" cy="0.5" r="0.447" gradientTransform="translate(-0.144) scale(1.289 1)" xlink:href="#a"/><radialGradient id="d" cx="0.5" cy="0.5" r="0.612" gradientTransform="translate(0.146) scale(0.708 1)" xlink:href="#a"/><radialGradient id="e" cx="0.5" cy="0.5" r="0.57" gradientTransform="translate(0.104) scale(0.791 1)" xlink:href="#a"/><radialGradient id="f" cx="0.5" cy="0.5" r="0.57" gradientTransform="translate(0.104) scale(0.791 1)" xlink:href="#a"/><radialGradient id="g" cx="0.5" cy="0.5" r="1.708" gradientTransform="translate(0.394) scale(0.212 1)" xlink:href="#a"/><radialGradient id="h" cx="0.5" cy="0.5" r="0.391" gradientTransform="translate(-0.566) scale(2.132 1)" xlink:href="#a"/></defs><g transform="translate(-614 -836)"><rect class="a" width="104" height="108" transform="translate(614 836)"/><g transform="translate(579.556 715.004)"><path class="b" d="M46.84,207.191l16.887-67.77H112.6l14.187,67.2s-5.074,5.1-14.894,7.184C94.511,217.5,53.426,215.658,46.84,207.191Z"/><g class="c"><path class="d" d="M124.062,209.383l-14.767-69.464H97.479l11.73,73.654a25.242,25.242,0,0,0,3.73-.412A39.06,39.06,0,0,0,124.062,209.383Z"/></g><g class="e"><path class="f" d="M79.761,156.572c0,3.624-3.713,5.74-8.294,5.74s-8.294-2.116-8.294-5.74,3.713-6.563,8.294-6.563S79.761,152.947,79.761,156.572Z"/></g><g class="g"><path class="h" d="M110.77,168.174c0,3.625,3.714,5.741,8.3,5.741a10.416,10.416,0,0,0,1.167-.072L117.6,161.72C113.72,162.267,110.77,164.945,110.77,168.174Z"/></g><g class="i"><ellipse class="j" cx="8.294" cy="6.563" rx="8.294" ry="6.563" transform="translate(97.479 197.251)"/></g><g class="k"><ellipse class="j" cx="10.491" cy="8.067" rx="10.491" ry="8.067" transform="translate(61.628 187.573)"/></g><g class="l"><path class="m" d="M93.215,168.026c0,2.159-2.212,3.088-4.941,3.088s-4.941-.929-4.941-3.088,2.212-3.909,4.941-3.909S93.215,165.867,93.215,168.026Z"/></g><g class="n"><ellipse class="o" cx="6.689" cy="5.292" rx="6.689" ry="5.292" transform="translate(95.121 141.649)"/></g><g class="p"><ellipse class="q" cx="4.941" cy="3.909" rx="4.941" ry="3.909" transform="translate(54.785 181.602)"/></g><g class="r"><path class="d" d="M97.831,155.817a.394.394,0,0,0,.427-.351.3.3,0,0,0-.027-.122,6.75,6.75,0,0,0-.736.337A.464.464,0,0,0,97.831,155.817Z"/><path class="d" d="M100.273,155.114a.358.358,0,1,0,.428.352A.4.4,0,0,0,100.273,155.114Z"/><path class="d" d="M102.716,155.114a.358.358,0,1,0,.428.352A.4.4,0,0,0,102.716,155.114Z"/><path class="d" d="M96.609,156.819a.4.4,0,0,0,.428-.351.361.361,0,0,0-.278-.328,5.752,5.752,0,0,0-.549.451A.432.432,0,0,0,96.609,156.819Z"/><path class="d" d="M99.052,156.117a.358.358,0,1,0,.428.351A.395.395,0,0,0,99.052,156.117Z"/><path class="d" d="M101.494,156.117a.358.358,0,1,0,.428.351A.4.4,0,0,0,101.494,156.117Z"/><path class="d" d="M103.937,156.117a.358.358,0,1,0,.428.351A.4.4,0,0,0,103.937,156.117Z"/><path class="d" d="M95.816,156.649a.333.333,0,0,0-.165-.276,4.9,4.9,0,0,0-.41.6.5.5,0,0,0,.147.023A.4.4,0,0,0,95.816,156.649Z"/><path class="d" d="M97.831,156.3a.358.358,0,1,0,.427.352A.4.4,0,0,0,97.831,156.3Z"/><path class="d" d="M100.273,156.3a.358.358,0,1,0,.428.352A.4.4,0,0,0,100.273,156.3Z"/><path class="d" d="M102.716,156.3a.358.358,0,1,0,.428.352A.4.4,0,0,0,102.716,156.3Z"/><path class="d" d="M105.158,156.3a.358.358,0,1,0,.428.352A.4.4,0,0,0,105.158,156.3Z"/><path class="d" d="M96.609,157.3a.358.358,0,1,0,.428.351A.4.4,0,0,0,96.609,157.3Z"/><path class="d" d="M99.052,157.3a.358.358,0,1,0,.428.351A.395.395,0,0,0,99.052,157.3Z"/><path class="d" d="M101.494,157.3a.358.358,0,1,0,.428.351A.4.4,0,0,0,101.494,157.3Z"/><path class="d" d="M103.937,157.3a.358.358,0,1,0,.428.351A.4.4,0,0,0,103.937,157.3Z"/><path class="d" d="M106.38,158a.358.358,0,1,0-.428-.351A.4.4,0,0,0,106.38,158Z"/><ellipse class="d" cx="0.428" cy="0.351" rx="0.428" ry="0.351" transform="translate(94.96 158.302)"/><path class="d" d="M97.831,158.3a.358.358,0,1,0,.427.351A.395.395,0,0,0,97.831,158.3Z"/><path class="d" d="M100.273,158.3a.358.358,0,1,0,.428.351A.4.4,0,0,0,100.273,158.3Z"/><ellipse class="d" cx="0.428" cy="0.351" rx="0.428" ry="0.351" transform="translate(102.288 158.302)"/><ellipse class="d" cx="0.428" cy="0.351" rx="0.428" ry="0.351" transform="translate(104.73 158.302)"/><ellipse class="d" cx="0.428" cy="0.351" rx="0.428" ry="0.351" transform="translate(96.181 159.304)"/><path class="d" d="M99.052,159.3a.358.358,0,1,0,.428.352A.4.4,0,0,0,99.052,159.3Z"/><path class="d" d="M101.494,159.3a.358.358,0,1,0,.428.352A.4.4,0,0,0,101.494,159.3Z"/><ellipse class="d" cx="0.428" cy="0.351" rx="0.428" ry="0.351" transform="translate(103.509 159.304)"/><ellipse class="d" cx="0.428" cy="0.351" rx="0.428" ry="0.351" transform="translate(105.952 159.304)"/><ellipse class="d" cx="0.428" cy="0.351" rx="0.428" ry="0.351" transform="translate(94.96 160.307)"/><path class="d" d="M97.831,160.307a.358.358,0,1,0,.427.351A.395.395,0,0,0,97.831,160.307Z"/><path class="d" d="M100.273,160.307a.358.358,0,1,0,.428.351A.4.4,0,0,0,100.273,160.307Z"/><ellipse class="d" cx="0.428" cy="0.351" rx="0.428" ry="0.351" transform="translate(102.288 160.307)"/><ellipse class="d" cx="0.428" cy="0.351" rx="0.428" ry="0.351" transform="translate(104.73 160.307)"/><ellipse class="d" cx="0.428" cy="0.351" rx="0.428" ry="0.351" transform="translate(96.181 161.309)"/><path class="d" d="M99.052,161.309a.358.358,0,1,0,.428.352A.395.395,0,0,0,99.052,161.309Z"/><path class="d" d="M101.494,161.309a.358.358,0,1,0,.428.352A.4.4,0,0,0,101.494,161.309Z"/><ellipse class="d" cx="0.428" cy="0.351" rx="0.428" ry="0.351" transform="translate(103.509 161.309)"/><path class="d" d="M105.952,161.661a.332.332,0,0,0,.165.275,5.136,5.136,0,0,0,.41-.6.5.5,0,0,0-.147-.023A.4.4,0,0,0,105.952,161.661Z"/><path class="d" d="M97.831,162.312a.358.358,0,1,0,.427.351A.395.395,0,0,0,97.831,162.312Z"/><path class="d" d="M100.273,162.312a.358.358,0,1,0,.428.351A.4.4,0,0,0,100.273,162.312Z"/><path class="d" d="M102.716,162.312a.358.358,0,1,0,.428.351A.395.395,0,0,0,102.716,162.312Z"/><path class="d" d="M105.158,162.312a.4.4,0,0,0-.428.351.361.361,0,0,0,.279.328,6.038,6.038,0,0,0,.549-.451A.432.432,0,0,0,105.158,162.312Z"/><path class="d" d="M99.052,163.314a.358.358,0,1,0,.428.351A.395.395,0,0,0,99.052,163.314Z"/><path class="d" d="M101.494,163.314a.358.358,0,1,0,.428.351A.4.4,0,0,0,101.494,163.314Z"/><path class="d" d="M103.937,163.314a.4.4,0,0,0-.428.351.29.29,0,0,0,.028.121,6.643,6.643,0,0,0,.736-.336A.465.465,0,0,0,103.937,163.314Z"/></g><g class="s"><path class="d" d="M109.356,176.619a.954.954,0,0,0,1.128.032.663.663,0,0,0,.166-.179,13.981,13.981,0,0,0-1.5-.381A.547.547,0,0,0,109.356,176.619Z"/><path class="d" d="M113.629,178.394a.953.953,0,0,0-1.128-.031.544.544,0,0,0-.04.892.953.953,0,0,0,1.128.031A.544.544,0,0,0,113.629,178.394Z"/><path class="d" d="M116.733,181.03a.951.951,0,0,0-1.127-.031.543.543,0,0,0-.04.892.953.953,0,0,0,1.128.031A.543.543,0,0,0,116.733,181.03Z"/><path class="d" d="M106.139,176.53a.951.951,0,0,0,1.127.031.541.541,0,0,0,.191-.7q-.722-.055-1.447-.04A.532.532,0,0,0,106.139,176.53Z"/><path class="d" d="M110.411,178.3a.951.951,0,0,0-1.128-.032.544.544,0,0,0-.04.892.954.954,0,0,0,1.128.032A.544.544,0,0,0,110.411,178.3Z"/><path class="d" d="M113.516,180.94a.953.953,0,0,0-1.128-.031.544.544,0,0,0-.04.892.954.954,0,0,0,1.128.032A.545.545,0,0,0,113.516,180.94Z"/><path class="d" d="M116.62,183.576a.951.951,0,0,0-1.127-.031.543.543,0,0,0-.04.892.953.953,0,0,0,1.128.031A.543.543,0,0,0,116.62,183.576Z"/><path class="d" d="M104.048,176.471a.562.562,0,0,0,.248-.515,14.261,14.261,0,0,0-1.525.3.638.638,0,0,0,.15.187A.951.951,0,0,0,104.048,176.471Z"/><path class="d" d="M107.193,178.215a.954.954,0,0,0-1.128-.032.544.544,0,0,0-.039.893.951.951,0,0,0,1.127.031A.543.543,0,0,0,107.193,178.215Z"/><path class="d" d="M110.3,180.851a.951.951,0,0,0-1.128-.032.544.544,0,0,0-.04.892.954.954,0,0,0,1.128.032A.544.544,0,0,0,110.3,180.851Z"/><path class="d" d="M113.4,183.486a.953.953,0,0,0-1.128-.031.544.544,0,0,0-.04.892.954.954,0,0,0,1.128.032A.545.545,0,0,0,113.4,183.486Z"/><path class="d" d="M116.507,186.122a.951.951,0,0,0-1.127-.031.543.543,0,0,0-.04.892.953.953,0,0,0,1.128.031A.543.543,0,0,0,116.507,186.122Z"/><path class="d" d="M103.975,178.125a.953.953,0,0,0-1.128-.031.543.543,0,0,0-.039.892.951.951,0,0,0,1.127.031A.543.543,0,0,0,103.975,178.125Z"/><path class="d" d="M107.08,180.761a.954.954,0,0,0-1.128-.032.544.544,0,0,0-.039.893.951.951,0,0,0,1.127.031A.543.543,0,0,0,107.08,180.761Z"/><path class="d" d="M110.185,183.4a.953.953,0,0,0-1.128-.032.544.544,0,0,0-.04.892.953.953,0,0,0,1.128.032A.543.543,0,0,0,110.185,183.4Z"/><path class="d" d="M113.29,186.032a.953.953,0,0,0-1.128-.031.544.544,0,0,0-.04.892.954.954,0,0,0,1.128.032A.545.545,0,0,0,113.29,186.032Z"/><path class="d" d="M115.227,189.529a.953.953,0,0,0,1.128.031.544.544,0,0,0,.04-.892.953.953,0,0,0-1.128-.031A.543.543,0,0,0,115.227,189.529Z"/><ellipse class="d" cx="0.798" cy="0.631" rx="0.798" ry="0.631" transform="translate(99.376 177.834)"/><path class="d" d="M103.862,180.671a.951.951,0,0,0-1.127-.031.543.543,0,0,0-.04.892.953.953,0,0,0,1.128.031A.543.543,0,0,0,103.862,180.671Z"/><path class="d" d="M106.967,183.307a.954.954,0,0,0-1.128-.032.544.544,0,0,0-.039.893.951.951,0,0,0,1.127.031A.543.543,0,0,0,106.967,183.307Z"/><ellipse class="d" cx="0.798" cy="0.631" rx="0.798" ry="0.631" transform="translate(108.69 185.742)"/><ellipse class="d" cx="0.798" cy="0.631" rx="0.798" ry="0.631" transform="translate(111.795 188.378)"/><ellipse class="d" cx="0.798" cy="0.631" rx="0.798" ry="0.631" transform="translate(99.263 180.38)"/><path class="d" d="M103.749,183.217a.951.951,0,0,0-1.127-.031.543.543,0,0,0-.04.892.953.953,0,0,0,1.128.031A.543.543,0,0,0,103.749,183.217Z"/><path class="d" d="M106.854,185.853a.954.954,0,0,0-1.128-.032.544.544,0,0,0-.039.893.951.951,0,0,0,1.127.031A.543.543,0,0,0,106.854,185.853Z"/><ellipse class="d" cx="0.798" cy="0.631" rx="0.798" ry="0.631" transform="translate(108.577 188.288)"/><ellipse class="d" cx="0.798" cy="0.631" rx="0.798" ry="0.631" transform="translate(111.682 190.924)"/><ellipse class="d" cx="0.798" cy="0.631" rx="0.798" ry="0.631" transform="translate(96.045 180.291)"/><path class="d" d="M100.531,183.127A.951.951,0,0,0,99.4,183.1a.543.543,0,0,0-.04.892.954.954,0,0,0,1.128.032A.544.544,0,0,0,100.531,183.127Z"/><path class="d" d="M103.636,185.763a.951.951,0,0,0-1.127-.031.543.543,0,0,0-.04.892.953.953,0,0,0,1.128.031A.543.543,0,0,0,103.636,185.763Z"/><ellipse class="d" cx="0.798" cy="0.631" rx="0.798" ry="0.631" transform="translate(105.36 188.198)"/><ellipse class="d" cx="0.798" cy="0.631" rx="0.798" ry="0.631" transform="translate(108.464 190.834)"/><ellipse class="d" cx="0.798" cy="0.631" rx="0.798" ry="0.631" transform="translate(95.932 182.837)"/><path class="d" d="M100.418,185.673a.951.951,0,0,0-1.127-.031.543.543,0,0,0-.04.892.954.954,0,0,0,1.128.032A.544.544,0,0,0,100.418,185.673Z"/><path class="d" d="M103.523,188.309a.951.951,0,0,0-1.127-.031.543.543,0,0,0-.04.892.953.953,0,0,0,1.128.031A.543.543,0,0,0,103.523,188.309Z"/><ellipse class="d" cx="0.798" cy="0.631" rx="0.798" ry="0.631" transform="translate(105.247 190.744)"/><path class="d" d="M108.605,193.549a.564.564,0,0,0-.247.516,14.246,14.246,0,0,0,1.524-.3.627.627,0,0,0-.149-.186A.954.954,0,0,0,108.605,193.549Z"/><path class="d" d="M97.2,185.584a.953.953,0,0,0-1.128-.032.544.544,0,0,0-.04.892.953.953,0,0,0,1.128.032A.544.544,0,0,0,97.2,185.584Z"/><path class="d" d="M100.305,188.219a.951.951,0,0,0-1.127-.031.543.543,0,0,0-.04.892.954.954,0,0,0,1.128.032A.544.544,0,0,0,100.305,188.219Z"/><path class="d" d="M103.41,190.855a.951.951,0,0,0-1.127-.031.543.543,0,0,0-.04.892.953.953,0,0,0,1.128.031A.543.543,0,0,0,103.41,190.855Z"/><path class="d" d="M106.515,193.491a.953.953,0,0,0-1.128-.031.541.541,0,0,0-.191.7q.722.056,1.448.04A.533.533,0,0,0,106.515,193.491Z"/><path class="d" d="M97.088,188.13a.954.954,0,0,0-1.128-.032.544.544,0,0,0-.04.892.951.951,0,0,0,1.128.032A.544.544,0,0,0,97.088,188.13Z"/><path class="d" d="M100.192,190.765a.951.951,0,0,0-1.127-.031.543.543,0,0,0-.04.892.954.954,0,0,0,1.128.032A.544.544,0,0,0,100.192,190.765Z"/><path class="d" d="M103.3,193.4a.951.951,0,0,0-1.127-.031.646.646,0,0,0-.166.178,13.971,13.971,0,0,0,1.494.382A.546.546,0,0,0,103.3,193.4Z"/></g><g class="i"><path class="t" d="M64.813,165.992a.461.461,0,0,0,.546.015.328.328,0,0,0,.081-.086,6.578,6.578,0,0,0-.725-.185A.263.263,0,0,0,64.813,165.992Z"/><path class="t" d="M66.883,166.852a.462.462,0,0,0-.547-.015.263.263,0,0,0-.019.432.461.461,0,0,0,.547.015A.263.263,0,0,0,66.883,166.852Z"/><path class="t" d="M68.387,168.129a.462.462,0,0,0-.546-.015.263.263,0,0,0-.019.432.461.461,0,0,0,.546.016A.264.264,0,0,0,68.387,168.129Z"/><path class="t" d="M63.253,165.948a.462.462,0,0,0,.547.016.263.263,0,0,0,.092-.341q-.349-.027-.7-.019A.257.257,0,0,0,63.253,165.948Z"/><path class="t" d="M65.324,166.809a.462.462,0,0,0-.547-.016.264.264,0,0,0-.019.433.462.462,0,0,0,.546.015A.263.263,0,0,0,65.324,166.809Z"/><path class="t" d="M66.828,168.086a.459.459,0,0,0-.546-.015.263.263,0,0,0-.02.432.462.462,0,0,0,.547.015A.263.263,0,0,0,66.828,168.086Z"/><path class="t" d="M68.333,168.541a.464.464,0,0,0-.547-.015.263.263,0,0,0-.019.432.461.461,0,0,0,.546.016A.264.264,0,0,0,68.333,168.541Z"/><path class="t" d="M62.24,165.92a.269.269,0,0,0,.12-.249,6.544,6.544,0,0,0-.738.144.3.3,0,0,0,.072.09A.461.461,0,0,0,62.24,165.92Z"/><path class="t" d="M63.764,166.765a.461.461,0,0,0-.546-.015.263.263,0,0,0-.019.432.459.459,0,0,0,.546.015A.263.263,0,0,0,63.764,166.765Z"/><path class="t" d="M65.269,168.042a.464.464,0,0,0-.547-.015.264.264,0,0,0-.019.433.464.464,0,0,0,.547.015A.264.264,0,0,0,65.269,168.042Z"/><path class="t" d="M66.773,168.5a.459.459,0,0,0-.546-.015.263.263,0,0,0-.019.432.461.461,0,0,0,.546.015A.263.263,0,0,0,66.773,168.5Z"/><path class="t" d="M68.278,169.775a.462.462,0,0,0-.547-.015.263.263,0,0,0-.019.432.461.461,0,0,0,.547.015A.263.263,0,0,0,68.278,169.775Z"/><path class="t" d="M62.205,166.722a.462.462,0,0,0-.547-.016.264.264,0,0,0-.019.433.464.464,0,0,0,.547.015A.263.263,0,0,0,62.205,166.722Z"/><path class="t" d="M63.709,168a.459.459,0,0,0-.546-.015.263.263,0,0,0-.019.432.461.461,0,0,0,.546.015A.263.263,0,0,0,63.709,168Z"/><path class="t" d="M65.214,168.454a.462.462,0,0,0-.546-.015.263.263,0,0,0-.02.432.462.462,0,0,0,.547.016A.264.264,0,0,0,65.214,168.454Z"/><path class="t" d="M66.719,169.732a.462.462,0,0,0-.547-.016.264.264,0,0,0-.019.433.462.462,0,0,0,.546.015A.263.263,0,0,0,66.719,169.732Z"/><path class="t" d="M67.657,171.426a.462.462,0,0,0,.547.015.263.263,0,0,0,.019-.432.459.459,0,0,0-.546-.015A.263.263,0,0,0,67.657,171.426Z"/><ellipse class="t" cx="0.387" cy="0.306" rx="0.387" ry="0.306" transform="translate(59.976 166.581)"/><path class="t" d="M62.15,167.955a.462.462,0,0,0-.546-.015.264.264,0,0,0-.019.433.462.462,0,0,0,.546.015A.264.264,0,0,0,62.15,167.955Z"/><path class="t" d="M63.655,168.411a.461.461,0,0,0-.547-.015.263.263,0,0,0-.019.432.462.462,0,0,0,.547.015A.263.263,0,0,0,63.655,168.411Z"/><ellipse class="t" cx="0.387" cy="0.306" rx="0.387" ry="0.306" transform="translate(64.49 169.591)"/><ellipse class="t" cx="0.387" cy="0.306" rx="0.387" ry="0.306" transform="translate(65.994 170.868)"/><ellipse class="t" cx="0.387" cy="0.306" rx="0.387" ry="0.306" transform="translate(59.921 167.815)"/><path class="t" d="M62.1,168.367a.462.462,0,0,0-.546-.015.263.263,0,0,0-.019.432.461.461,0,0,0,.546.016A.264.264,0,0,0,62.1,168.367Z"/><path class="t" d="M63.6,169.645a.461.461,0,0,0-.546-.016.264.264,0,0,0-.02.433.464.464,0,0,0,.547.015A.263.263,0,0,0,63.6,169.645Z"/><ellipse class="t" cx="0.387" cy="0.306" rx="0.387" ry="0.306" transform="translate(64.435 170.825)"/><ellipse class="t" cx="0.387" cy="0.306" rx="0.387" ry="0.306" transform="translate(65.94 172.102)"/><ellipse class="t" cx="0.387" cy="0.306" rx="0.387" ry="0.306" transform="translate(58.362 167.771)"/><path class="t" d="M60.536,168.324a.459.459,0,0,0-.546-.015.263.263,0,0,0-.02.432.462.462,0,0,0,.547.015A.263.263,0,0,0,60.536,168.324Z"/><path class="t" d="M62.041,169.6a.464.464,0,0,0-.547-.015.263.263,0,0,0-.019.432.459.459,0,0,0,.546.015A.263.263,0,0,0,62.041,169.6Z"/><ellipse class="t" cx="0.387" cy="0.306" rx="0.387" ry="0.306" transform="translate(62.876 170.781)"/><ellipse class="t" cx="0.387" cy="0.306" rx="0.387" ry="0.306" transform="translate(64.38 172.058)"/><ellipse class="t" cx="0.387" cy="0.306" rx="0.387" ry="0.306" transform="translate(58.307 168.183)"/><path class="t" d="M60.481,169.558a.461.461,0,0,0-.546-.016.264.264,0,0,0-.019.433.462.462,0,0,0,.546.015A.263.263,0,0,0,60.481,169.558Z"/><path class="t" d="M61.986,170.835a.461.461,0,0,0-.547-.015.263.263,0,0,0-.019.432.462.462,0,0,0,.547.015A.263.263,0,0,0,61.986,170.835Z"/><ellipse class="t" cx="0.387" cy="0.306" rx="0.387" ry="0.306" transform="translate(62.821 172.015)"/><path class="t" d="M64.449,173.374a.272.272,0,0,0-.12.25,7.018,7.018,0,0,0,.738-.144.3.3,0,0,0-.072-.091A.462.462,0,0,0,64.449,173.374Z"/><path class="t" d="M58.922,169.514a.462.462,0,0,0-.546-.015.263.263,0,0,0-.02.432.461.461,0,0,0,.547.015A.263.263,0,0,0,58.922,169.514Z"/><path class="t" d="M60.427,170.791a.464.464,0,0,0-.547-.015.264.264,0,0,0-.019.433.462.462,0,0,0,.546.015A.264.264,0,0,0,60.427,170.791Z"/><path class="t" d="M61.931,172.069a.461.461,0,0,0-.546-.016.264.264,0,0,0-.019.433.462.462,0,0,0,.546.015A.263.263,0,0,0,61.931,172.069Z"/><path class="t" d="M63.436,173.346a.462.462,0,0,0-.547-.015.262.262,0,0,0-.092.34q.349.027.7.019A.257.257,0,0,0,63.436,173.346Z"/><path class="t" d="M58.867,170.748a.459.459,0,0,0-.546-.015.263.263,0,0,0-.019.432.461.461,0,0,0,.546.015A.263.263,0,0,0,58.867,170.748Z"/><path class="t" d="M60.372,172.025a.464.464,0,0,0-.547-.015.263.263,0,0,0-.019.432.462.462,0,0,0,.547.016A.264.264,0,0,0,60.372,172.025Z"/><path class="t" d="M61.876,173.3a.462.462,0,0,0-.546-.015.326.326,0,0,0-.08.087,6.5,6.5,0,0,0,.724.184A.263.263,0,0,0,61.876,173.3Z"/></g><path class="d" d="M57.882,196.207a168.33,168.33,0,0,1,27.917-3c24.469-.531,32.742,3.42,39.347,6.108l-1.038-6.825c-6.682-8.419-42.727-9.464-63.765-5.144-9.245,1.9-11.707,6.289-11.707,6.289l-1.942,7.832C48.3,198.915,54.346,196.853,57.882,196.207Z"/><path class="u" d="M69.3,141.408a109.982,109.982,0,0,1,18.233-1.957c15.98-.347,21.685,2.485,26,4.241l-.98-4.709c-4.364-5.5-27.9-6.182-41.645-3.36-6.037,1.24-7.382,4.107-7.382,4.107l-1.268,5.116C63.307,143.177,66.992,141.831,69.3,141.408Z"/><g class="v"><path class="w" d="M62.362,156.2c-.906.356-1.514.813-2.5,1.224l-4.619,17.8a12.744,12.744,0,0,1,2.357-.589c7.419-1.492,18.512-2.193,30.121-2.388,14.693-.245,25.644.9,31.807,2.948l-3.484-17.079c-14.187-5.345-31.278-5.37-46.122-3.378-2.2.3-4.391.646-6.55,1.15A7.173,7.173,0,0,0,62.362,156.2Z"/></g><ellipse class="x" cx="41" cy="11.895" rx="41" ry="11.895" transform="translate(45.444 191.286)"/><g class="y"><path class="z" d="M123.886,192.619c-7.664-3.927-22.925-6.567-37.978-6.567-13.682,0-28.09,2.239-35.848,5.57l.59-2.167c8.3-3.565,20.881-5.868,35.258-5.868,15.6,0,29.469,2.8,37.594,6.964Z"/></g><g class="y"><path class="z" d="M113.8,145.217c-5.391-2.9-15.863-4.705-26.452-4.705-9.627,0-22.474,2.017-25.206,4.705l.4-2.2c5.841-2.629,14.69-4.327,24.805-4.327,10.976,0,20.466,1.927,26.183,5Z"/></g><path class="aa" d="M67.809,187.247l8.868-46.932-9.661,1.644L53.176,190.41A79.663,79.663,0,0,1,67.809,187.247Z"/><path class="w" d="M113.709,144.183c-6.692-2.39-15.786-3.863-25.813-3.863-9.913,0-18.913,1.439-25.583,3.781l-.907,4.218c6.747-2.536,16.119-4.111,26.49-4.111,10.506,0,19.991,1.615,26.756,4.21Z"/></g></g></svg>