<svg xmlns="http://www.w3.org/2000/svg" xmlns:xlink="http://www.w3.org/1999/xlink" width="110" height="124" viewBox="0 0 110 124"><defs><style>.a{fill:url(#a);}.b{opacity:0.48;}.ax,.b{mix-blend-mode:overlay;}.ax,.b,.ba,.j{isolation:isolate;}.ay,.c{fill:#fff;}.d,.j{opacity:0.27;}.e{fill:url(#b);}.f{opacity:0.71;}.g{fill:url(#c);}.h{opacity:0.4;}.i{fill:url(#d);}.ba,.j{mix-blend-mode:multiply;}.k{fill:url(#e);}.l{opacity:0.53;}.m{fill:url(#f);}.n{opacity:0.29;}.o{fill:url(#g);}.p{opacity:0.85;}.q{fill:url(#h);}.r{opacity:0.65;}.s{opacity:0.78;}.t{fill:url(#i);}.u{fill:url(#j);}.v{fill:url(#k);}.w{fill:url(#l);}.x{fill:url(#m);}.y{fill:url(#n);}.z{fill:url(#o);}.aa{fill:url(#p);}.ab{fill:url(#q);}.ac{fill:url(#s);}.ad{fill:url(#t);}.ae{fill:url(#u);}.af{fill:url(#v);}.ag{fill:url(#w);}.ah{fill:url(#z);}.ai{fill:url(#aa);}.aj{fill:url(#ab);}.ak{fill:url(#af);}.al{fill:url(#ak);}.am{fill:url(#al);}.an{fill:url(#ap);}.ao{fill:url(#aq);}.ap{fill:url(#as);}.aq{fill:url(#at);}.ar{fill:url(#au);}.as{fill:url(#aw);}.at{fill:url(#az);}.au{fill:#f1f2f2;}.av{fill:url(#ba);}.aw,.az,.bb{fill:none;}.aw,.az{stroke:#dd315e;stroke-miterlimit:10;}.aw{stroke-linecap:round;stroke-width:3px;}.aw,.ay,.az{opacity:0.8;}.ax{opacity:0.64;}.az{stroke-linecap:square;stroke-width:1.6px;}.ba{fill:#ff2453;opacity:0.34;}</style><radialGradient id="a" cx="0.5" cy="0.5" r="0.838" gradientTransform="translate(-0.112) scale(1.224 1)" gradientUnits="objectBoundingBox"><stop offset="0.049" stop-color="#ef60a2"/><stop offset="0.929" stop-color="#ff2453"/></radialGradient><radialGradient id="b" cx="0.5" cy="0.5" r="0.5" gradientTransform="translate(0)" xlink:href="#a"/><radialGradient id="c" cx="0.5" cy="0.5" r="0.408" gradientTransform="translate(-0.369) scale(1.739 1)" xlink:href="#a"/><radialGradient id="d" cx="0.5" cy="0.5" r="0.5" gradientTransform="translate(0)" xlink:href="#a"/><radialGradient id="e" cx="0.5" cy="0.5" r="0.507" gradientTransform="translate(0.014) scale(0.972 1)" xlink:href="#a"/><radialGradient id="f" cx="0.5" cy="0.5" r="0.5" gradientTransform="translate(0)" xlink:href="#a"/><radialGradient id="g" cx="0.5" cy="0.5" r="0.5" gradientTransform="translate(0)" xlink:href="#a"/><radialGradient id="h" cx="0.5" cy="0.5" r="0.5" gradientTransform="matrix(1, 0, 0, 1, 0, 0)" xlink:href="#a"/><linearGradient id="i" y1="0.5" x2="1" y2="0.5" gradientUnits="objectBoundingBox"><stop offset="0" stop-color="#fff"/><stop offset="0.388" stop-color="#fff"/><stop offset="0.394" stop-color="#fff"/><stop offset="0.782" stop-color="#fff"/></linearGradient><linearGradient id="j" x1="0" y1="0.5" x2="1" y2="0.5" xlink:href="#i"/><linearGradient id="k" x1="0" y1="0.5" x2="1" y2="0.5" xlink:href="#i"/><linearGradient id="l" x1="0" y1="0.5" x2="1" y2="0.5" xlink:href="#i"/><linearGradient id="m" x1="0" y1="0.5" x2="1" y2="0.5" xlink:href="#i"/><linearGradient id="n" x1="0" y1="0.5" x2="1" y2="0.5" xlink:href="#i"/><linearGradient id="o" x1="0" y1="0.5" x2="1" y2="0.5" xlink:href="#i"/><linearGradient id="p" x1="0" y1="0.5" x2="1" y2="0.5" xlink:href="#i"/><linearGradient id="q" x1="0" y1="0.5" x2="1" y2="0.5" xlink:href="#i"/><linearGradient id="s" x1="0" y1="0.5" x2="1" y2="0.5" xlink:href="#i"/><linearGradient id="t" x1="0" y1="0.5" x2="1" y2="0.5" xlink:href="#i"/><linearGradient id="u" x1="0" y1="0.5" x2="1" y2="0.5" xlink:href="#i"/><linearGradient id="v" x1="0" y1="0.5" x2="1" y2="0.5" xlink:href="#i"/><linearGradient id="w" x1="0" y1="0.5" x2="1" y2="0.5" xlink:href="#i"/><linearGradient id="z" x1="0" y1="0.5" x2="1" y2="0.5" xlink:href="#i"/><linearGradient id="aa" x1="0" y1="0.5" x2="1" y2="0.5" xlink:href="#i"/><linearGradient id="ab" x1="0" y1="0.5" x2="1" y2="0.5" xlink:href="#i"/><linearGradient id="af" x1="0" y1="0.5" x2="1" y2="0.5" xlink:href="#i"/><linearGradient id="ak" x1="0" y1="0.5" x2="1" y2="0.5" xlink:href="#i"/><linearGradient id="al" x1="0" y1="0.5" x2="1" y2="0.5" xlink:href="#i"/><linearGradient id="ap" x1="0" y1="0.5" x2="1" y2="0.5" xlink:href="#i"/><linearGradient id="aq" x1="0" y1="0.5" x2="1" y2="0.5" xlink:href="#i"/><linearGradient id="as" x1="0" y1="0.5" x2="1" y2="0.5" xlink:href="#i"/><linearGradient id="at" x1="0" y1="0.5" x2="1" y2="0.5" xlink:href="#i"/><linearGradient id="au" x1="0" y1="0.5" x2="1" y2="0.5" xlink:href="#i"/><linearGradient id="aw" x1="0" y1="0.5" x2="1" y2="0.5" xlink:href="#i"/><linearGradient id="az" x1="0" y1="0.5" x2="1" y2="0.5" xlink:href="#i"/><radialGradient id="ba" cx="0.5" cy="0.5" r="1.926" gradientTransform="translate(0.407) scale(0.187 1)" xlink:href="#a"/></defs><g transform="translate(-487 -827)"><g transform="translate(277.173 709.555)"><path class="a" d="M225.827,218.2l16.966-85.689h47.049L303.5,217.5s-4.885,4.985-14.34,7.525C272.431,229.517,232.169,228.5,225.827,218.2Z"/><g class="b"><path class="c" d="M300.883,219.639l-14.218-86.526H275.288l11.294,91.624c2.458-.365,1.668.016,3.592-.5A32.82,32.82,0,0,0,300.883,219.639Z"/></g><g class="d"><circle class="e" cx="7.986" cy="7.986" r="7.986" transform="translate(242.259 145.391)"/></g><g class="f"><path class="g" d="M288.086,168.495a7.923,7.923,0,0,0,9.109,7.9l-2.531-15.751A7.981,7.981,0,0,0,288.086,168.495Z"/></g><g class="h"><circle class="i" cx="7.986" cy="7.986" r="7.986" transform="translate(275.288 204.876)"/></g><g class="j"><ellipse class="k" cx="10.101" cy="9.817" rx="10.101" ry="9.817" transform="translate(240.771 193.1)"/></g><g class="l"><circle class="m" cx="4.757" cy="4.757" r="4.757" transform="translate(261.669 163.558)"/></g><g class="n"><circle class="o" cx="6.44" cy="6.44" r="6.44" transform="translate(273.018 135.218)"/></g><g class="p"><circle class="q" cx="4.757" cy="4.757" r="4.757" transform="translate(234.183 185.834)"/></g><g class="r"><path class="c" d="M275.627,152.458a.426.426,0,0,0,.385-.575,5.793,5.793,0,0,0-.708.41A.406.406,0,0,0,275.627,152.458Z"/><path class="c" d="M277.979,151.6a.428.428,0,1,0,.412.427A.419.419,0,0,0,277.979,151.6Z"/><path class="c" d="M280.331,151.6a.428.428,0,1,0,.412.427A.42.42,0,0,0,280.331,151.6Z"/><path class="c" d="M274.451,153.678a.42.42,0,0,0,.412-.428.427.427,0,0,0-.268-.4,6.236,6.236,0,0,0-.529.549A.414.414,0,0,0,274.451,153.678Z"/><path class="c" d="M276.8,152.823a.428.428,0,1,0,.412.427A.419.419,0,0,0,276.8,152.823Z"/><path class="c" d="M279.155,152.823a.428.428,0,1,0,.412.427A.419.419,0,0,0,279.155,152.823Z"/><path class="c" d="M281.506,152.823a.428.428,0,1,0,.412.427A.42.42,0,0,0,281.506,152.823Z"/><path class="c" d="M273.687,154.47a.429.429,0,0,0-.158-.335,6.169,6.169,0,0,0-.395.735.389.389,0,0,0,.141.027A.419.419,0,0,0,273.687,154.47Z"/><path class="c" d="M275.627,154.042a.428.428,0,1,0,.412.428A.42.42,0,0,0,275.627,154.042Z"/><path class="c" d="M277.979,154.042a.428.428,0,1,0,.412.428A.42.42,0,0,0,277.979,154.042Z"/><path class="c" d="M280.331,154.042a.428.428,0,1,0,.412.428A.421.421,0,0,0,280.331,154.042Z"/><path class="c" d="M282.682,154.042a.428.428,0,1,0,.412.428A.421.421,0,0,0,282.682,154.042Z"/><path class="c" d="M274.451,155.262a.428.428,0,1,0,.412.428A.42.42,0,0,0,274.451,155.262Z"/><path class="c" d="M276.8,155.262a.428.428,0,1,0,.412.428A.42.42,0,0,0,276.8,155.262Z"/><path class="c" d="M279.155,155.262a.428.428,0,1,0,.412.428A.42.42,0,0,0,279.155,155.262Z"/><path class="c" d="M281.506,155.262a.428.428,0,1,0,.412.428A.42.42,0,0,0,281.506,155.262Z"/><path class="c" d="M283.858,156.117a.428.428,0,1,0-.412-.427A.419.419,0,0,0,283.858,156.117Z"/><ellipse class="c" cx="0.412" cy="0.427" rx="0.412" ry="0.427" transform="translate(272.863 156.482)"/><path class="c" d="M275.627,156.482a.428.428,0,1,0,.412.427A.419.419,0,0,0,275.627,156.482Z"/><path class="c" d="M277.979,156.482a.428.428,0,1,0,.412.427A.419.419,0,0,0,277.979,156.482Z"/><ellipse class="c" cx="0.412" cy="0.427" rx="0.412" ry="0.427" transform="translate(279.918 156.482)"/><ellipse class="c" cx="0.412" cy="0.427" rx="0.412" ry="0.427" transform="translate(282.27 156.482)"/><ellipse class="c" cx="0.412" cy="0.427" rx="0.412" ry="0.427" transform="translate(274.039 157.702)"/><path class="c" d="M276.8,157.7a.428.428,0,1,0,.412.427A.419.419,0,0,0,276.8,157.7Z"/><path class="c" d="M279.155,157.7a.428.428,0,1,0,.412.427A.419.419,0,0,0,279.155,157.7Z"/><ellipse class="c" cx="0.412" cy="0.427" rx="0.412" ry="0.427" transform="translate(281.094 157.702)"/><ellipse class="c" cx="0.412" cy="0.427" rx="0.412" ry="0.427" transform="translate(283.446 157.702)"/><ellipse class="c" cx="0.412" cy="0.427" rx="0.412" ry="0.427" transform="translate(272.863 158.921)"/><path class="c" d="M275.627,158.921a.428.428,0,1,0,.412.428A.42.42,0,0,0,275.627,158.921Z"/><path class="c" d="M277.979,158.921a.428.428,0,1,0,.412.428A.42.42,0,0,0,277.979,158.921Z"/><ellipse class="c" cx="0.412" cy="0.427" rx="0.412" ry="0.427" transform="translate(279.918 158.921)"/><ellipse class="c" cx="0.412" cy="0.427" rx="0.412" ry="0.427" transform="translate(282.27 158.921)"/><ellipse class="c" cx="0.412" cy="0.427" rx="0.412" ry="0.427" transform="translate(274.039 160.141)"/><path class="c" d="M276.8,160.141a.428.428,0,1,0,.412.428A.42.42,0,0,0,276.8,160.141Z"/><path class="c" d="M279.155,160.141a.428.428,0,1,0,.412.428A.42.42,0,0,0,279.155,160.141Z"/><ellipse class="c" cx="0.412" cy="0.427" rx="0.412" ry="0.427" transform="translate(281.094 160.141)"/><path class="c" d="M283.446,160.569a.429.429,0,0,0,.159.334,6.224,6.224,0,0,0,.395-.734.4.4,0,0,0-.142-.028A.42.42,0,0,0,283.446,160.569Z"/><path class="c" d="M275.627,161.361a.428.428,0,1,0,.412.427A.419.419,0,0,0,275.627,161.361Z"/><path class="c" d="M277.979,161.361a.428.428,0,1,0,.412.427A.419.419,0,0,0,277.979,161.361Z"/><path class="c" d="M280.331,161.361a.428.428,0,1,0,.412.427A.42.42,0,0,0,280.331,161.361Z"/><path class="c" d="M282.682,161.361a.42.42,0,0,0-.412.427.425.425,0,0,0,.268.4,6.082,6.082,0,0,0,.529-.548A.413.413,0,0,0,282.682,161.361Z"/><path class="c" d="M276.8,162.581a.428.428,0,1,0,.412.427A.419.419,0,0,0,276.8,162.581Z"/><path class="c" d="M279.155,162.581a.428.428,0,1,0,.412.427A.419.419,0,0,0,279.155,162.581Z"/><path class="c" d="M281.506,162.581a.42.42,0,0,0-.412.427.457.457,0,0,0,.027.148,6.064,6.064,0,0,0,.708-.41A.4.4,0,0,0,281.506,162.581Z"/></g><g class="s"><path class="t" d="M286.724,179.771a.769.769,0,0,0,1.086.038.777.777,0,0,0,.16-.217,11.228,11.228,0,0,0-1.44-.464A.767.767,0,0,0,286.724,179.771Z"/><path class="u" d="M290.837,181.931a.768.768,0,1,0-.038,1.085A.766.766,0,0,0,290.837,181.931Z"/><path class="v" d="M293.827,185.138a.768.768,0,1,0-.038,1.086A.769.769,0,0,0,293.827,185.138Z"/><path class="w" d="M283.626,179.662a.767.767,0,0,0,1.27-.816,11,11,0,0,0-1.394-.049A.768.768,0,0,0,283.626,179.662Z"/><path class="x" d="M287.739,181.822a.768.768,0,1,0-.038,1.085A.767.767,0,0,0,287.739,181.822Z"/><path class="y" d="M290.729,185.029a.768.768,0,1,0-.039,1.086A.768.768,0,0,0,290.729,185.029Z"/><path class="z" d="M293.718,188.236a.768.768,0,1,0-.038,1.086A.769.769,0,0,0,293.718,188.236Z"/><path class="aa" d="M281.614,179.591a.766.766,0,0,0,.238-.627,11.072,11.072,0,0,0-1.468.362.762.762,0,0,0,1.23.265Z"/><path class="ab" d="M284.641,181.712a.768.768,0,1,0-.038,1.086A.769.769,0,0,0,284.641,181.712Z"/><path class="u" d="M287.631,184.92a.768.768,0,1,0-.039,1.085A.768.768,0,0,0,287.631,184.92Z"/><path class="ac" d="M290.62,188.127a.768.768,0,1,0-.038,1.086A.769.769,0,0,0,290.62,188.127Z"/><path class="ad" d="M293.609,191.334a.768.768,0,1,0-.038,1.086A.769.769,0,0,0,293.609,191.334Z"/><path class="ae" d="M281.543,181.6a.768.768,0,1,0-.038,1.086A.769.769,0,0,0,281.543,181.6Z"/><path class="af" d="M284.532,184.81a.768.768,0,1,0-.038,1.086A.768.768,0,0,0,284.532,184.81Z"/><path class="ag" d="M287.522,188.018a.768.768,0,1,0-.038,1.085A.767.767,0,0,0,287.522,188.018Z"/><path class="ae" d="M290.511,191.225a.768.768,0,1,0-.038,1.086A.769.769,0,0,0,290.511,191.225Z"/><path class="af" d="M292.377,195.48a.768.768,0,1,0,.038-1.086A.768.768,0,0,0,292.377,195.48Z"/><circle class="ah" cx="0.768" cy="0.768" r="0.768" transform="translate(277.115 181.249)"/><path class="ai" d="M281.434,184.7a.768.768,0,1,0-.038,1.086A.768.768,0,0,0,281.434,184.7Z"/><path class="aj" d="M284.424,187.909a.768.768,0,1,0-.039,1.085A.768.768,0,0,0,284.424,187.909Z"/><circle class="ah" cx="0.768" cy="0.768" r="0.768" transform="translate(286.083 190.871)"/><circle class="ah" cx="0.768" cy="0.768" r="0.768" transform="translate(289.072 194.079)"/><circle class="ah" cx="0.768" cy="0.768" r="0.768" transform="translate(277.006 184.348)"/><path class="ak" d="M281.326,187.8a.768.768,0,1,0-.039,1.086A.769.769,0,0,0,281.326,187.8Z"/><path class="z" d="M284.315,191.007a.768.768,0,1,0-.038,1.085A.768.768,0,0,0,284.315,191.007Z"/><circle class="ah" cx="0.768" cy="0.768" r="0.768" transform="translate(285.974 193.97)"/><circle class="ah" cx="0.768" cy="0.768" r="0.768" transform="translate(288.963 197.177)"/><circle class="ah" cx="0.768" cy="0.768" r="0.768" transform="translate(273.908 184.238)"/><path class="al" d="M278.227,187.69a.768.768,0,1,0-.038,1.086A.768.768,0,0,0,278.227,187.69Z"/><path class="am" d="M281.217,190.9a.768.768,0,1,0-.038,1.086A.769.769,0,0,0,281.217,190.9Z"/><circle class="ah" cx="0.768" cy="0.768" r="0.768" transform="translate(282.876 193.86)"/><circle class="ah" cx="0.768" cy="0.768" r="0.768" transform="translate(285.865 197.068)"/><circle class="ah" cx="0.768" cy="0.768" r="0.768" transform="translate(273.799 187.336)"/><path class="an" d="M278.119,190.788a.768.768,0,1,0-.039,1.086A.769.769,0,0,0,278.119,190.788Z"/><path class="ao" d="M281.108,194a.768.768,0,1,0-.038,1.085A.768.768,0,0,0,281.108,194Z"/><circle class="ah" cx="0.768" cy="0.768" r="0.768" transform="translate(282.767 196.958)"/><path class="ap" d="M286,200.372a.762.762,0,0,0-.238.627,11.019,11.019,0,0,0,1.467-.362.76.76,0,0,0-1.229-.265Z"/><path class="aq" d="M275.021,190.679a.768.768,0,1,0-.039,1.086A.769.769,0,0,0,275.021,190.679Z"/><path class="ar" d="M278.01,193.886a.768.768,0,1,0-.038,1.086A.769.769,0,0,0,278.01,193.886Z"/><path class="x" d="M281,197.094a.768.768,0,1,0-.038,1.085A.767.767,0,0,0,281,197.094Z"/><path class="as" d="M283.989,200.3a.767.767,0,0,0-1.27.816,11.171,11.171,0,0,0,1.393.049A.766.766,0,0,0,283.989,200.3Z"/><path class="ac" d="M274.912,193.777a.768.768,0,1,0-.038,1.086A.769.769,0,0,0,274.912,193.777Z"/><path class="ab" d="M277.9,196.984a.768.768,0,1,0-.038,1.086A.769.769,0,0,0,277.9,196.984Z"/><path class="at" d="M280.89,200.192a.766.766,0,0,0-1.085-.038.744.744,0,0,0-.16.217,11.164,11.164,0,0,0,1.439.464A.763.763,0,0,0,280.89,200.192Z"/></g><path class="au" d="M243.838,165.839a.368.368,0,0,0,.6-.086,5.286,5.286,0,0,0-.7-.225A.367.367,0,0,0,243.838,165.839Z"/><path class="au" d="M245.831,166.886a.372.372,0,1,0-.019.526A.372.372,0,0,0,245.831,166.886Z"/><path class="au" d="M247.279,168.44a.372.372,0,1,0-.018.526A.372.372,0,0,0,247.279,168.44Z"/><path class="au" d="M242.336,165.786a.372.372,0,0,0,.616-.395,5.446,5.446,0,0,0-.676-.024A.371.371,0,0,0,242.336,165.786Z"/><path class="au" d="M244.329,166.833a.372.372,0,1,0-.018.526A.373.373,0,0,0,244.329,166.833Z"/><path class="au" d="M245.778,168.387a.373.373,0,1,0-.018.526A.372.372,0,0,0,245.778,168.387Z"/><path class="au" d="M247.227,169.941a.373.373,0,1,0-.019.526A.373.373,0,0,0,247.227,169.941Z"/><path class="au" d="M241.361,165.752a.371.371,0,0,0,.116-.3,5.36,5.36,0,0,0-.712.175.367.367,0,0,0,.07.11A.372.372,0,0,0,241.361,165.752Z"/><path class="au" d="M242.828,166.78a.372.372,0,1,0-.018.526A.373.373,0,0,0,242.828,166.78Z"/><path class="au" d="M244.277,168.334a.373.373,0,1,0-.019.526A.373.373,0,0,0,244.277,168.334Z"/><path class="au" d="M245.725,169.888a.372.372,0,1,0-.018.527A.373.373,0,0,0,245.725,169.888Z"/><path class="au" d="M247.174,171.443a.372.372,0,1,0-.019.526A.372.372,0,0,0,247.174,171.443Z"/><path class="au" d="M241.327,166.727a.373.373,0,1,0-.019.526A.372.372,0,0,0,241.327,166.727Z"/><path class="au" d="M242.775,168.281a.372.372,0,1,0-.018.526A.373.373,0,0,0,242.775,168.281Z"/><path class="au" d="M244.224,169.836a.372.372,0,1,0-.018.526A.372.372,0,0,0,244.224,169.836Z"/><path class="au" d="M245.673,171.39a.372.372,0,1,0-.019.526A.372.372,0,0,0,245.673,171.39Z"/><path class="au" d="M246.577,173.452a.372.372,0,1,0,.018-.527A.373.373,0,0,0,246.577,173.452Z"/><circle class="au" cx="0.372" cy="0.372" r="0.372" transform="translate(239.181 166.556)"/><path class="au" d="M241.274,168.228a.372.372,0,1,0-.018.526A.373.373,0,0,0,241.274,168.228Z"/><path class="au" d="M242.723,169.783a.372.372,0,1,0-.019.526A.372.372,0,0,0,242.723,169.783Z"/><circle class="au" cx="0.372" cy="0.372" r="0.372" transform="translate(243.527 171.218)"/><circle class="au" cx="0.372" cy="0.372" r="0.372" transform="translate(244.975 172.773)"/><circle class="au" cx="0.372" cy="0.372" r="0.372" transform="translate(239.128 168.057)"/><path class="au" d="M241.221,169.73a.372.372,0,1,0-.018.526A.372.372,0,0,0,241.221,169.73Z"/><path class="au" d="M242.67,171.284a.372.372,0,1,0-.018.526A.372.372,0,0,0,242.67,171.284Z"/><circle class="au" cx="0.372" cy="0.372" r="0.372" transform="translate(243.474 172.72)"/><circle class="au" cx="0.372" cy="0.372" r="0.372" transform="translate(244.923 174.274)"/><circle class="au" cx="0.372" cy="0.372" r="0.372" transform="translate(237.627 168.004)"/><path class="au" d="M239.72,169.677a.372.372,0,1,0-.018.526A.372.372,0,0,0,239.72,169.677Z"/><path class="au" d="M241.169,171.231a.373.373,0,1,0-.019.526A.373.373,0,0,0,241.169,171.231Z"/><circle class="au" cx="0.372" cy="0.372" r="0.372" transform="translate(241.973 172.667)"/><circle class="au" cx="0.372" cy="0.372" r="0.372" transform="translate(243.421 174.221)"/><circle class="au" cx="0.372" cy="0.372" r="0.372" transform="translate(237.574 169.505)"/><path class="au" d="M239.667,171.178a.372.372,0,1,0-.018.526A.372.372,0,0,0,239.667,171.178Z"/><path class="au" d="M241.116,172.732a.373.373,0,1,0-.018.526A.373.373,0,0,0,241.116,172.732Z"/><circle class="au" cx="0.372" cy="0.372" r="0.372" transform="translate(241.92 174.168)"/><path class="au" d="M243.487,175.822a.368.368,0,0,0-.115.3,5.384,5.384,0,0,0,.711-.175.366.366,0,0,0-.07-.11A.372.372,0,0,0,243.487,175.822Z"/><path class="au" d="M238.166,171.125a.372.372,0,1,0-.018.526A.372.372,0,0,0,238.166,171.125Z"/><path class="au" d="M239.615,172.679a.373.373,0,1,0-.019.526A.373.373,0,0,0,239.615,172.679Z"/><path class="au" d="M241.063,174.234a.372.372,0,1,0-.018.526A.372.372,0,0,0,241.063,174.234Z"/><path class="au" d="M242.512,175.788a.371.371,0,0,0-.615.4,5.426,5.426,0,0,0,.675.024A.371.371,0,0,0,242.512,175.788Z"/><path class="au" d="M238.113,172.626a.372.372,0,1,0-.018.527A.373.373,0,0,0,238.113,172.626Z"/><path class="au" d="M239.562,174.181a.372.372,0,1,0-.018.526A.372.372,0,0,0,239.562,174.181Z"/><path class="au" d="M241.011,175.735a.372.372,0,0,0-.526-.019.346.346,0,0,0-.078.106,5.437,5.437,0,0,0,.7.224A.366.366,0,0,0,241.011,175.735Z"/><path class="av" d="M289.869,131.445H242.82l-1.666,9.347h50.057Z"/><path class="c" d="M289.869,136.232H242.82l-1.666,7.651h50.057Z"/><path class="c" d="M291.627,214.266a129.778,129.778,0,0,1-26.91,3.406c-23.563.435-31.485-4.443-37.815-7.771l-1.074,8.295c6.341,10.3,43.032,11.9,63.334,6.828A33.963,33.963,0,0,0,303.5,217.5l-1.045-9.54C300.883,211.053,295.039,213.509,291.627,214.266Z"/><path class="aw" d="M227.719,210.672c.924.53,3.373,1.724,4.543,2.189,13.223,5.26,40.985,6.345,57.427,2.235a39.305,39.305,0,0,0,11.934-5.777"/><g class="ax"><path class="ay" d="M288.932,191.163a35.962,35.962,0,0,0,6.229-2.576,27.782,27.782,0,0,0,2.781-1.843l-3.184-19.816a4.1,4.1,0,0,1-1.27.716,134.821,134.821,0,0,1-29,3.906c-14.146.3-21.764-2.1-27.7-4.587l-4.348,21.782C246.336,195.361,275.243,195.379,288.932,191.163Z"/></g><line class="az" x2="46.759" transform="translate(242.82 135.232)"/><path class="ba" d="M242.936,216.947,255.26,133.6h-9.3l-17.11,79.416A59.088,59.088,0,0,0,242.936,216.947Z"/></g><rect class="bb" width="110" height="124" transform="translate(487 827)"/></g></svg>