<svg xmlns="http://www.w3.org/2000/svg" xmlns:xlink="http://www.w3.org/1999/xlink" width="46.01" height="46.009" viewBox="0 0 46.01 46.009"><defs><style>.a{fill:url(#a);}.b{opacity:0.77;fill:url(#b);}.c{fill:#fff;}.d{fill:#752f00;}.e{fill:#feffc0;}</style><linearGradient id="a" x1="-2.99" y1="2.851" x2="-2.254" y2="2.147" gradientUnits="objectBoundingBox"><stop offset="0.002" stop-color="#ff9800"/><stop offset="0.165" stop-color="#fc9007"/><stop offset="0.419" stop-color="#f47a1d"/><stop offset="0.731" stop-color="#e75741"/><stop offset="1" stop-color="#db3466"/></linearGradient><linearGradient id="b" x1="-3.732" y1="3.326" x2="-2.996" y2="2.623" gradientUnits="objectBoundingBox"><stop offset="0" stop-color="#e64d00"/><stop offset="0.119" stop-color="#e24a08"/><stop offset="0.303" stop-color="#d8421d"/><stop offset="0.53" stop-color="#c83441"/><stop offset="0.788" stop-color="#b32273"/><stop offset="0.999" stop-color="#9f12a1"/></linearGradient></defs><g transform="translate(-683.465 -479.797)"><ellipse class="a" cx="16.264" cy="16.277" rx="16.264" ry="16.277" transform="translate(683.465 503.257) rotate(-46.157)"/><ellipse class="b" cx="13.141" cy="13.152" rx="13.141" ry="13.152" transform="translate(687.882 503.166) rotate(-46.145)"/><path class="c" d="M927.02,578.278c-.258,1.14,1.21,1.874,2.361,1.942s1.88-.223,1.565-1.348a2.616,2.616,0,0,0-3.057-1.747A1.3,1.3,0,0,0,927.02,578.278Z" transform="translate(-215.302 -86.457)"/><path class="d" d="M856.726,633.2a1.5,1.5,0,0,1-2.252-1.4l-.01-5.664-.01-5.664a1.5,1.5,0,0,1,2.247-1.413l4.527,2.824,4.527,2.824a1.7,1.7,0,0,1,.005,2.818l-4.517,2.84Z" transform="translate(-151.793 -123.032)"/><path class="e" d="M856.726,623.6a1.5,1.5,0,0,1-2.252-1.4l-.01-5.664-.01-5.665a1.5,1.5,0,0,1,2.247-1.413l4.527,2.824,4.527,2.824a1.7,1.7,0,0,1,.005,2.818l-4.517,2.84Z" transform="translate(-151.793 -114.624)"/></g></svg>