<svg xmlns="http://www.w3.org/2000/svg" xmlns:xlink="http://www.w3.org/1999/xlink" width="389" height="312" viewBox="0 0 389 312"><defs><style>.a{fill:url(#a);}.b{fill:#fff;}.c{fill:#f2f2f2;}.d{fill:none;}</style><linearGradient id="a" x1="0.5" y1="1" x2="0.5" gradientUnits="objectBoundingBox"><stop offset="0" stop-color="#f15300"/><stop offset="1" stop-color="#f7d100"/></linearGradient></defs><g transform="translate(-1109 -778)"><g transform="translate(1147.975 760.901)"><g transform="translate(-11.975 39.099)"><path class="a" d="M485.42,578.807l58.565-42.588-70.394-4.961,8.123-31.271-21.075,9.479L453.3,449.829l-49.32,50.7L388.368,463.21l-15.245,22.72-35.061-35.957L325.688,506.8l-36.019-25.574,2.524,42.437L240.25,510.907l22.793,48.926-37.423,9.642,42.056,20.156L209.11,632.219,279.5,637.18l-8.123,31.271,21.075-9.479,7.337,59.637,49.32-50.7,15.614,37.323,15.245-22.72,35.061,35.957,12.375-56.828,36.019,25.574L460.9,644.773l51.943,12.758L490.052,608.6l37.424-9.642Z" transform="translate(-209.11 -449.829)"/><path class="b" d="M471.691,580.677l36.215,17.359-1.606.414-30.618,7.884,19.624,42.134L450.58,637.48l2.173,36.542L421.738,652l-10.656,48.935-30.193-30.966-13.123,19.564L354.317,657.4l-42.466,43.659L305.534,649.7l-18.149,8.162,6.992-26.926-60.615-4.269,38.813-28.222L284.195,590,247.98,572.646l32.224-8.3L260.58,522.213,305.306,533.2l-2.173-36.542,31.015,22.02,10.656-48.93,30.188,30.961,13.128-19.564,13.444,32.137,42.472-43.659,6.316,51.353L468.5,512.81l-7,26.926L522.118,544Z" transform="translate(-209.123 -450.949)"/><g transform="translate(35.879 30.515)"><path class="c" d="M394.695,662.824l-.036-.035.037.037,0-.007-.016-.014Z" transform="translate(-254.107 -492.395)"/><path class="c" d="M441.182,646.747l.031.029-.032-.03v0l.012.009Z" transform="translate(-256.74 -491.487)"/><path class="c" d="M452.663,673.065a4.606,4.606,0,0,0-.487-3.1c0-.056.018-.091.04-.1-.175-.177-.357-.347-.524-.531a4.382,4.382,0,0,0-4.342-1.47,4.155,4.155,0,0,1-.685,0c1.513-1.67,2.045-3.456,1.091-5.416-1.1-2.261-3.074-2.871-5.661-2.438a5.035,5.035,0,0,0,1.39-5.217c.426.329.7.555.984.756a4.421,4.421,0,1,0,1.894-8,4.4,4.4,0,0,0-3.755,4.617c.014.361.038.721.067,1.28a5.075,5.075,0,0,0-5.046-1.36c.214-.308.3-.452.409-.585a4.536,4.536,0,0,0,.655-4.74c-.076-.2-.119-.4-.177-.6a4.149,4.149,0,0,1-.426-.382,4.459,4.459,0,0,0-4.7-1.526,4.989,4.989,0,0,1-.622.058c.285-.318.475-.521.655-.732a4.44,4.44,0,0,0-2.625-7.284,5.826,5.826,0,0,0-3.2.567,1.641,1.641,0,0,1-.237.283,4.452,4.452,0,0,0-1.571,4.793c.031.135.042.274.088.571-1.735-1.733-3.609-2.286-5.678-1.234-2.238,1.138-2.811,3.116-2.269,5.676a4.98,4.98,0,0,0-5.294-1.456c1.86-2.381,2.034-4.544.583-6.315a4.419,4.419,0,0,0-7.766,3.668,4.378,4.378,0,0,0,1.511,2.522,5.006,5.006,0,0,0,4.276.923,5.2,5.2,0,0,0-1.332,5.008c-.459-.321-.708-.509-.97-.675a4.427,4.427,0,0,0-3.792-.541l-.917.28.038-.039-.038.039.028-.03-.707.608a4.385,4.385,0,0,0-1.609,3.369,13.271,13.271,0,0,0,.25,1.924c-.121-.1-.232-.184-.334-.278-.131-.121-.246-.261-.383-.374a4.456,4.456,0,0,0-7.39,3.055,6.249,6.249,0,0,0,.575,2.686,3.5,3.5,0,0,1,.345.324,4.386,4.386,0,0,0,4.591,1.58,3.3,3.3,0,0,1,.6,0c-1.559,1.628-2.062,3.428-1.158,5.386,1.07,2.32,3.073,2.947,5.555,2.525-1.557,2.125-1.693,2.708-1.284,5.265-2.482-1.889-3.561-2.084-5.846-1.055l-.254.025-.721.772a4.424,4.424,0,0,0,4.445,7.294,4.335,4.335,0,0,0,3.175-4.324c-.013-.527-.13-1.053-.219-1.728a4.889,4.889,0,0,0,4.941,1.742,12.206,12.206,0,0,0-1.073,2.431,12.425,12.425,0,0,0-.009,2.648c-2.345-1.809-4.428-1.982-6.245-.489a4.423,4.423,0,0,0,3.661,7.747,4.346,4.346,0,0,0,2.53-1.5,4.972,4.972,0,0,0,.9-4.444,5.14,5.14,0,0,0,5.642,1.16,4.374,4.374,0,0,1-.6.594,4.459,4.459,0,0,0,2.236,7.538,5.1,5.1,0,0,0,3.026-.4.123.123,0,0,1,.157.027c.223-.227.441-.458.672-.676a4.455,4.455,0,0,0,1.41-4.165c-.029-.184-.058-.369-.118-.761a4.975,4.975,0,0,0,3.473,1.594l1.885-8.654a5.094,5.094,0,0,0-3.028-.306,5.212,5.212,0,0,0,1.314-4.292,14.935,14.935,0,0,0,2.173.878c.111.026.225.04.339.057l1.989-9.133a5.32,5.32,0,0,0-2.188-.145,5.926,5.926,0,0,0,1.289-4.029,7.484,7.484,0,0,0,1.648.735l.9-4.108,9.64,6.844a6.63,6.63,0,0,0-.115-.748,5,5,0,0,0,4.807,1.174c-.35.763-.781,1.455-1.027,2.175l6.875,4.881A4.416,4.416,0,0,0,452.663,673.065Zm-33.979-24.774a5.174,5.174,0,0,0,4.866,1.363,5.225,5.225,0,0,0-1.314,4.81,5.145,5.145,0,0,0-4.771-1.278A5.315,5.315,0,0,0,418.684,648.291Zm.9,14.062a14.791,14.791,0,0,0-.8,1.981,15.667,15.667,0,0,0-.242,2.169,5.22,5.22,0,0,0-4.262-.9,5.666,5.666,0,0,0,1.287-4.386A5.209,5.209,0,0,0,419.583,662.353Zm-8.74-9.514a4.83,4.83,0,0,0,4.568,1.375,13.6,13.6,0,0,0-1.054,2.065,14.61,14.61,0,0,0-.347,2.372,5.2,5.2,0,0,0-4.151-.962C411.062,655.018,411.062,655.018,410.843,652.839Zm-9.475,9.643a4.969,4.969,0,0,0,1.343-5.262c2.35,1.715,2.35,1.715,4.8,1.678a12.252,12.252,0,0,0-.976,2.056,14.654,14.654,0,0,0-.242,2.462A4.987,4.987,0,0,0,401.368,662.482Zm4.874,7.725a5.122,5.122,0,0,0,1.315-4.562,14.736,14.736,0,0,0,2.115,1,13.568,13.568,0,0,0,2.271.283,5.254,5.254,0,0,0-1.06,4.412A5.483,5.483,0,0,0,406.242,670.207Zm4.437,7.972a5.186,5.186,0,0,0,1.463-4.419,13.232,13.232,0,0,0,2.068.932,13.974,13.974,0,0,0,2.3.218,5.344,5.344,0,0,0-.991,4.386A5.172,5.172,0,0,0,410.679,678.179Zm9.532,6.724a11.675,11.675,0,0,0-.041,2.57,4.806,4.806,0,0,0-5.323-1.15,5.128,5.128,0,0,0,1.64-5.247,5.08,5.08,0,0,0,4.83,1.434A12.555,12.555,0,0,0,420.211,684.9Zm3.019-10.411a5.231,5.231,0,0,0-4.116-1.076,14.3,14.3,0,0,0,.863-1.963,15.21,15.21,0,0,0,.274-2.175,5.477,5.477,0,0,0,4.086,1.01A5.842,5.842,0,0,0,423.23,674.492ZM426.6,661.86a5.465,5.465,0,0,0-4.111-1.028,5.584,5.584,0,0,0,.821-4.437,5.216,5.216,0,0,0,4.639,1.186A5.366,5.366,0,0,0,426.6,661.86Zm-1.176-13.241a5.216,5.216,0,0,0,1.136-4.951,5.016,5.016,0,0,0,5.353,1.115,5.11,5.11,0,0,0-1.725,5.157A5.125,5.125,0,0,0,425.423,648.619Zm4.809,7.807a13.6,13.6,0,0,0,.966-2.152,12.218,12.218,0,0,0,.177-2.23,11.9,11.9,0,0,0,2.235.952,12.4,12.4,0,0,0,2.51.037,4.952,4.952,0,0,0-1.349,4.781A5.325,5.325,0,0,0,430.232,656.425Zm9.174,6.6a12.18,12.18,0,0,0-.291,2.374,6.559,6.559,0,0,0-4.317-1.181,5.272,5.272,0,0,0,.935-4.662,5.048,5.048,0,0,0,4.867,1.222A13.873,13.873,0,0,0,439.406,663.03Z" transform="translate(-254.074 -490.892)"/><path class="c" d="M429.6,636.894v0l.009,0,.013-.018Z" transform="translate(-256.084 -490.929)"/><path class="c" d="M398.672,670.74a4.417,4.417,0,1,0-4.5,6.78,5.978,5.978,0,0,0,2.838-.316l.254-.026c.345-.356.7-.7,1.035-1.069A4.443,4.443,0,0,0,398.672,670.74Z" transform="translate(-253.876 -492.734)"/><path class="c" d="M418.764,632.742a4.4,4.4,0,0,0-.05,8.8,4.4,4.4,0,1,0,.05-8.8Z" transform="translate(-255.223 -490.695)"/><path class="c" d="M441.17,646.367c.257.285.506.574.768.851a4.4,4.4,0,1,0,1.986-7.245c-.34.1-.678.2-1.016.3l.035-.038-.035.038.019-.02a5.531,5.531,0,0,1-.419.411,4.414,4.414,0,0,0-1.479,5.12c.066.2.107.4.16.6l-.031-.029Z" transform="translate(-256.715 -491.094)"/><path class="c" d="M406.241,645.51a4.365,4.365,0,0,0-5.539-2.893,4.4,4.4,0,1,0,2.762,8.365c.332-.11.668-.208,1-.312.223-.241.442-.484.67-.719A4.272,4.272,0,0,0,406.241,645.51Z" transform="translate(-254.276 -491.242)"/><path class="c" d="M404.877,651.164h0l-.007.008-.028.03Z" transform="translate(-254.683 -491.737)"/><path class="c" d="M454.768,656.508a4.409,4.409,0,1,0,4.426,4.394A4.373,4.373,0,0,0,454.768,656.508Z" transform="translate(-257.261 -492.04)"/><path class="c" d="M420.426,697.895a.123.123,0,0,0-.156-.028c-.287.311-.575.621-.86.933a4.354,4.354,0,0,0,3.8,7.247l1.74-7.988a4.6,4.6,0,0,0-1.3-.562A5.087,5.087,0,0,0,420.426,697.895Z" transform="translate(-255.443 -494.352)"/><path class="c" d="M413.81,698.2a4.358,4.358,0,0,0-8.668-.615l4.806,4.929A4.337,4.337,0,0,0,413.81,698.2Z" transform="translate(-254.7 -494.154)"/><path class="c" d="M394.18,662.672c-.252-.283-.5-.569-.757-.845a4.371,4.371,0,1,0,.977,1.748c-.086-.3-.159-.612-.239-.919l.036.035Z" transform="translate(-253.61 -492.262)"/><path class="c" d="M456.28,678.183a4.435,4.435,0,0,0-1.451.234l5.76,4.09A4.335,4.335,0,0,0,456.28,678.183Z" transform="translate(-257.512 -493.266)"/><path class="c" d="M430.066,635.625a4.369,4.369,0,1,0-1.84.958c.34-.083.683-.151,1.024-.225l-.034.036h0l.022-.02C429.515,636.123,429.789,635.873,430.066,635.625Z" transform="translate(-255.701 -490.428)"/><path class="c" d="M456.341,672.225a4.348,4.348,0,1,0-1.044-3.573,6.765,6.765,0,0,0,.382,2.837c-.023.013-.036.049-.041.1C455.874,671.8,456.126,672,456.341,672.225Z" transform="translate(-257.536 -492.52)"/><path class="c" d="M393.688,647.26a4.33,4.33,0,1,0,4.412,4.294A4.314,4.314,0,0,0,393.688,647.26Z" transform="translate(-253.81 -491.516)"/><path class="c" d="M443.865,633.315a4.343,4.343,0,1,0-2.1,6.694c.3-.1.6-.161.907-.24.223-.238.44-.481.675-.706A4.37,4.37,0,0,0,443.865,633.315Z" transform="translate(-256.448 -490.628)"/><path class="c" d="M443.072,640.26h0l-.016.017-.019.02Z" transform="translate(-256.845 -491.12)"/><path class="c" d="M387.3,685.448l1.667-2.485A4.322,4.322,0,0,0,387.3,685.448Z" transform="translate(-253.691 -493.537)"/><path class="c" d="M391.636,682.087a4.263,4.263,0,0,0-1.527.29l5.5,5.645a4.389,4.389,0,0,0,.315-1.671A4.265,4.265,0,0,0,391.636,682.087Z" transform="translate(-253.85 -493.487)"/><path class="c" d="M458.33,643.433a4.291,4.291,0,1,0,.01,8.581,4.291,4.291,0,0,0-.01-8.581Z" transform="translate(-257.467 -491.3)"/><path class="c" d="M405.615,629.334a4.291,4.291,0,1,0-.074,8.581,4.291,4.291,0,0,0,.074-8.581Z" transform="translate(-254.481 -490.502)"/><path class="c" d="M382.4,678.016a4.314,4.314,0,0,0,4.345,4.241,4.289,4.289,0,0,0-.088-8.577A4.328,4.328,0,0,0,382.4,678.016Z" transform="translate(-253.414 -493.011)"/><path class="c" d="M398.258,690.752l2.337,2.4A4.2,4.2,0,0,0,398.258,690.752Z" transform="translate(-254.311 -493.977)"/><path class="c" d="M418.689,706.661a4.332,4.332,0,0,0-4.283-4.321,4.238,4.238,0,0,0-3.27,1.526l5.935,6.088A4.293,4.293,0,0,0,418.689,706.661Z" transform="translate(-255.04 -494.633)"/><path class="c" d="M458.821,656.169a4.276,4.276,0,0,0,5.238,4.141l-.5-8.429a4.27,4.27,0,0,0-.444-.023A4.33,4.33,0,0,0,458.821,656.169Z" transform="translate(-257.738 -491.776)"/><path class="c" d="M418.256,628.88a4.268,4.268,0,0,0-4.262-4.312,4.281,4.281,0,0,0-.054,8.563A4.252,4.252,0,0,0,418.256,628.88Z" transform="translate(-254.958 -490.232)"/><path class="c" d="M457.744,639.41a4.283,4.283,0,0,0-4.231-4.242,4.265,4.265,0,1,0-.067,8.529A4.3,4.3,0,0,0,457.744,639.41Z" transform="translate(-257.193 -490.832)"/><path class="c" d="M397.343,634.259a4.265,4.265,0,1,0-.065,8.529,4.265,4.265,0,0,0,.065-8.529Z" transform="translate(-254.014 -490.781)"/><path class="c" d="M435.454,623.215a4.271,4.271,0,1,0,4.307,4.3A4.316,4.316,0,0,0,435.454,623.215Z" transform="translate(-256.177 -490.156)"/><path class="c" d="M460.2,677.659a4.265,4.265,0,0,0,4.248,4.225,4.418,4.418,0,0,0,.893-.087l-.5-8.391c-.111-.009-.224-.018-.337-.019A4.26,4.26,0,0,0,460.2,677.659Z" transform="translate(-257.816 -492.995)"/><path class="c" d="M385.3,652.239a4.249,4.249,0,1,0,4.3,4.255A4.215,4.215,0,0,0,385.3,652.239Z" transform="translate(-253.338 -491.798)"/><path class="c" d="M381.881,665.453a4.222,4.222,0,1,0,4.177,4.259A4.21,4.21,0,0,0,381.881,665.453Z" transform="translate(-253.141 -492.546)"/><path class="c" d="M452.894,631.038a4.223,4.223,0,1,0-4.238,4.189A4.184,4.184,0,0,0,452.894,631.038Z" transform="translate(-256.924 -490.359)"/><path class="c" d="M388.889,647.509a4.214,4.214,0,1,0-4.251-4.191A4.181,4.181,0,0,0,388.889,647.509Z" transform="translate(-253.54 -491.054)"/><path class="c" d="M464.715,667.225l-.291-4.907a4.226,4.226,0,0,0,.291,4.907Z" transform="translate(-258.018 -492.368)"/><path class="c" d="M422.295,619.755a4.211,4.211,0,1,0,4.221,4.211A4.209,4.209,0,0,0,422.295,619.755Z" transform="translate(-255.432 -489.96)"/><path class="c" d="M417.986,710.971l3.52,3.609.593-2.722a4.095,4.095,0,0,0-4.112-.887Z" transform="translate(-255.427 -495.109)"/><path class="c" d="M465.845,686.154l-.127-2.145a4.188,4.188,0,0,0-.571,1.649Z" transform="translate(-258.096 -493.596)"/><path class="c" d="M384.755,648.029a4.222,4.222,0,0,0-4.2-4.129,4.172,4.172,0,1,0,4.2,4.129Z" transform="translate(-253.075 -491.326)"/><path class="c" d="M377.071,665.433a4.172,4.172,0,0,0,0-8.344,4.172,4.172,0,1,0,0,8.344Z" transform="translate(-252.874 -492.073)"/><path class="c" d="M378.923,691.17a4.13,4.13,0,0,0,1.876,3.486l4.634-6.908a4.2,4.2,0,0,0-2.383-.728A4.113,4.113,0,0,0,378.923,691.17Z" transform="translate(-253.217 -493.766)"/><path class="c" d="M434.861,619.258a4.165,4.165,0,0,0-4.084-4.232,4.167,4.167,0,1,0-.124,8.332A4.153,4.153,0,0,0,434.861,619.258Z" transform="translate(-255.911 -489.692)"/><path class="c" d="M400.778,629.5a4.166,4.166,0,1,0-4.111-4.2A4.154,4.154,0,0,0,400.778,629.5Z" transform="translate(-254.221 -490.04)"/><path class="c" d="M378.34,678.7a4.163,4.163,0,1,0,4.126,4.207A4.211,4.211,0,0,0,378.34,678.7Z" transform="translate(-252.947 -493.296)"/><path class="c" d="M466.605,638.821a4.141,4.141,0,1,0,.081,8.282,4.141,4.141,0,1,0-.081-8.282Z" transform="translate(-257.945 -491.039)"/><path class="c" d="M448.05,622.791a4.109,4.109,0,0,0-4.077-4.2,4.137,4.137,0,1,0,4.077,4.2Z" transform="translate(-256.658 -489.894)"/><path class="c" d="M461.849,638.814a4.157,4.157,0,1,0-4.13-4.2A4.154,4.154,0,0,0,461.849,638.814Z" transform="translate(-257.675 -490.568)"/><path class="c" d="M396.554,630.1a4.146,4.146,0,0,0-8.292-.035,4.146,4.146,0,1,0,8.292.035Z" transform="translate(-253.745 -490.311)"/><path class="c" d="M471.494,647.249a4.084,4.084,0,0,0-3.025,1.415l7.167,1.76A4.137,4.137,0,0,0,471.494,647.249Z" transform="translate(-258.284 -491.516)"/><path class="c" d="M409.154,624.571a4.123,4.123,0,1,0-4.188-4.109A4.1,4.1,0,0,0,409.154,624.571Z" transform="translate(-254.69 -489.766)"/><path class="c" d="M377.628,674.507a4.11,4.11,0,1,0-4.1,4.081A4.124,4.124,0,0,0,377.628,674.507Z" transform="translate(-252.678 -492.822)"/><path class="c" d="M384.106,639.013a4.12,4.12,0,0,0,.05-8.24,4.12,4.12,0,0,0-.05,8.24Z" transform="translate(-253.278 -490.583)"/><path class="c" d="M457.046,630.368a4.116,4.116,0,1,0,.058-8.231,4.116,4.116,0,0,0-.058,8.231Z" transform="translate(-257.409 -490.095)"/><path class="c" d="M417.582,619.763a4.092,4.092,0,1,0-4.136-4.012A4.043,4.043,0,0,0,417.582,619.763Z" transform="translate(-255.17 -489.497)"/><path class="c" d="M372.11,657.039a4.073,4.073,0,1,0,.051-8.145,4.073,4.073,0,0,0-.051,8.145Z" transform="translate(-252.603 -491.609)"/><path class="c" d="M438.924,618.377a4.07,4.07,0,1,0,.139-8.138,4.07,4.07,0,0,0-.139,8.138Z" transform="translate(-256.386 -489.421)"/><path class="c" d="M372.709,666.2a4.112,4.112,0,0,0-4.078-4.106,4.061,4.061,0,1,0,4.078,4.106Z" transform="translate(-252.406 -492.356)"/><path class="c" d="M375.732,643.835a4.057,4.057,0,1,0-4.077-3.959A4.048,4.048,0,0,0,375.732,643.835Z" transform="translate(-252.805 -490.863)"/><path class="c" d="M452.19,622a4.052,4.052,0,0,0,.1-8.1,4.051,4.051,0,1,0-.1,8.1Z" transform="translate(-257.135 -489.629)"/><path class="c" d="M425.86,614.813a4.022,4.022,0,1,0-4.075-3.97A3.994,3.994,0,0,0,425.86,614.813Z" transform="translate(-255.642 -489.225)"/><path class="c" d="M374.823,692.057a4,4,0,0,0-2.923,1.27l2.821,6.742c.05,0,.1.007.148.007a4.009,4.009,0,0,0,2.981-1.333l.627-.936a4.008,4.008,0,0,0-3.655-5.749Z" transform="translate(-252.819 -494.051)"/><path class="c" d="M479.085,638.234a4.018,4.018,0,1,0-4.058,3.993A4.047,4.047,0,0,0,479.085,638.234Z" transform="translate(-258.43 -490.775)"/><path class="c" d="M374.129,687.629a3.971,3.971,0,0,0-4.031-3.975,4.012,4.012,0,0,0-2.026.561l3.057,7.308A3.953,3.953,0,0,0,374.129,687.629Z" transform="translate(-252.603 -493.576)"/><path class="c" d="M395.892,620.93a4,4,0,1,0-3.978-4.036A3.971,3.971,0,0,0,395.892,620.93Z" transform="translate(-253.952 -489.574)"/><path class="c" d="M470.1,633.8a4.022,4.022,0,1,0,.107-8.044,4.022,4.022,0,0,0-.107,8.044Z" transform="translate(-258.155 -490.3)"/><path class="c" d="M391.644,621.906a4,4,0,1,0-4.014,3.937A4.043,4.043,0,0,0,391.644,621.906Z" transform="translate(-253.484 -489.849)"/><path class="c" d="M404.371,616.146a3.993,3.993,0,0,0,0-7.985,3.993,3.993,0,1,0,0,7.985Z" transform="translate(-254.428 -489.304)"/><path class="c" d="M479.846,642.5a3.993,3.993,0,1,0,.046,7.985,3.993,3.993,0,0,0-.046-7.985Z" transform="translate(-258.7 -491.247)"/><path class="c" d="M369.3,679.4a3.986,3.986,0,0,0-4.893-3.916l3.027,7.236A4.018,4.018,0,0,0,369.3,679.4Z" transform="translate(-252.395 -493.107)"/><path class="c" d="M484.79,650.935a3.93,3.93,0,0,0-2.713,1.092l6.5,1.6A4.015,4.015,0,0,0,484.79,650.935Z" transform="translate(-259.054 -491.724)"/><path class="c" d="M465.306,625.448a3.972,3.972,0,1,0,.153-7.943,3.972,3.972,0,0,0-.153,7.943Z" transform="translate(-257.887 -489.833)"/><path class="c" d="M379.131,630.582a3.978,3.978,0,1,0,.13-7.954,3.978,3.978,0,0,0-.13,7.954Z" transform="translate(-253.01 -490.123)"/><path class="c" d="M412.57,611.253a3.978,3.978,0,1,0,.109-7.954,3.978,3.978,0,0,0-.109,7.954Z" transform="translate(-254.901 -489.029)"/><path class="c" d="M434.19,609.978a3.964,3.964,0,1,0,.076-7.927,3.964,3.964,0,0,0-.076,7.927Z" transform="translate(-256.124 -488.958)"/><path class="c" d="M367.821,657.79a3.92,3.92,0,0,0-3.89-4,3.967,3.967,0,1,0,3.89,4Z" transform="translate(-252.14 -491.886)"/><path class="c" d="M367.306,648.526a3.957,3.957,0,1,0,.132-7.912,3.957,3.957,0,0,0-.132,7.912Z" transform="translate(-252.341 -491.14)"/><path class="c" d="M447.344,613.505a3.957,3.957,0,1,0,.148-7.911,3.957,3.957,0,0,0-.148,7.911Z" transform="translate(-256.871 -489.159)"/><path class="c" d="M460.629,617a3.93,3.93,0,1,0-3.908-3.88A3.939,3.939,0,0,0,460.629,617Z" transform="translate(-257.619 -489.359)"/><path class="c" d="M370.807,635.279a3.905,3.905,0,1,0-3.81-3.963A3.886,3.886,0,0,0,370.807,635.279Z" transform="translate(-252.542 -490.397)"/><path class="c" d="M360.458,667.042a3.887,3.887,0,0,0-4.028,3.847,3.926,3.926,0,0,0,.559,2.074l4.272-4.391,2.064,4.933a3.908,3.908,0,0,0-2.866-6.462Z" transform="translate(-251.944 -492.636)"/><path class="c" d="M421.1,606.394a3.9,3.9,0,1,0-3.947-3.916A3.881,3.881,0,0,0,421.1,606.394Z" transform="translate(-255.38 -488.763)"/><path class="c" d="M391.184,604.766a3.869,3.869,0,0,0-.03,7.739,3.87,3.87,0,1,0,.03-7.739Z" transform="translate(-253.691 -489.112)"/><path class="c" d="M479.49,633.27a3.926,3.926,0,0,0,3.842,3.931,3.883,3.883,0,1,0-3.842-3.931Z" transform="translate(-258.907 -490.508)"/><path class="c" d="M386.716,613.464a3.839,3.839,0,0,0-3.831-3.918,3.866,3.866,0,0,0-.1,7.73A3.825,3.825,0,0,0,386.716,613.464Z" transform="translate(-253.22 -489.382)"/><path class="c" d="M358.949,653.338A3.873,3.873,0,1,0,355.1,649.5,3.917,3.917,0,0,0,358.949,653.338Z" transform="translate(-251.869 -491.422)"/><path class="c" d="M478.57,621.148a3.861,3.861,0,0,0,.006,7.723,3.861,3.861,0,1,0-.006-7.723Z" transform="translate(-258.638 -490.039)"/><path class="c" d="M399.436,607.62a3.861,3.861,0,1,0-3.847-3.922A3.9,3.9,0,0,0,399.436,607.62Z" transform="translate(-254.16 -488.836)"/><path class="c" d="M442.536,605.119a3.861,3.861,0,0,0,.106-7.722,3.861,3.861,0,1,0-.106,7.722Z" transform="translate(-256.6 -488.695)"/><path class="c" d="M492.145,641.679a3.878,3.878,0,0,0-3.843-3.8,3.861,3.861,0,1,0-.009,7.723A3.906,3.906,0,0,0,492.145,641.679Z" transform="translate(-259.186 -490.985)"/><path class="c" d="M429.38,601.57a3.85,3.85,0,1,0-.015-7.7,3.85,3.85,0,0,0,.015,7.7Z" transform="translate(-255.855 -488.495)"/><path class="c" d="M455.8,608.619a3.849,3.849,0,1,0-3.878-3.743A3.828,3.828,0,0,0,455.8,608.619Z" transform="translate(-257.347 -488.894)"/><path class="c" d="M355.478,658.815a3.84,3.84,0,0,0-.025,7.68,3.84,3.84,0,1,0,.025-7.68Z" transform="translate(-251.672 -492.17)"/><path class="c" d="M489.22,650a3.829,3.829,0,0,0,3.772,3.869,3.845,3.845,0,1,0,.055-7.69A3.84,3.84,0,0,0,489.22,650Z" transform="translate(-259.458 -491.455)"/><path class="c" d="M366.376,636.352a3.852,3.852,0,0,0-3.832-3.91,3.833,3.833,0,0,0-.055,7.666A3.865,3.865,0,0,0,366.376,636.352Z" transform="translate(-252.072 -490.678)"/><path class="c" d="M477.649,616.615a3.84,3.84,0,0,0-3.779-3.859,3.841,3.841,0,1,0-.029,7.681A3.829,3.829,0,0,0,477.649,616.615Z" transform="translate(-258.37 -489.564)"/><path class="c" d="M374.445,622.129a3.82,3.82,0,1,0-.041-7.641,3.82,3.82,0,1,0,.041,7.641Z" transform="translate(-252.746 -489.662)"/><path class="c" d="M407.93,595.166A3.812,3.812,0,1,0,411.7,599,3.785,3.785,0,0,0,407.93,595.166Z" transform="translate(-254.638 -488.569)"/><path class="c" d="M498.083,654.645a3.692,3.692,0,0,0-2.318.763l5.673,1.393A3.83,3.83,0,0,0,498.083,654.645Z" transform="translate(-259.828 -491.934)"/><path class="c" d="M419.949,594.1a3.771,3.771,0,0,0-3.7-3.8,3.795,3.795,0,1,0,3.7,3.8Z" transform="translate(-255.111 -488.293)"/><path class="c" d="M366.156,626.856a3.775,3.775,0,1,0-.006-7.549,3.775,3.775,0,1,0,.006,7.549Z" transform="translate(-252.28 -489.935)"/><path class="c" d="M351.993,672.065a3.78,3.78,0,0,0-1.422,7.3l4.864-5A3.786,3.786,0,0,0,351.993,672.065Z" transform="translate(-251.477 -492.92)"/><path class="c" d="M472.706,608.231a3.735,3.735,0,0,0-3.784-3.7,3.77,3.77,0,1,0,.038,7.54A3.723,3.723,0,0,0,472.706,608.231Z" transform="translate(-258.096 -489.099)"/><path class="c" d="M357.993,641.063a3.788,3.788,0,0,0-3.732-3.773,3.758,3.758,0,1,0-.025,7.515A3.776,3.776,0,0,0,357.993,641.063Z" transform="translate(-251.607 -490.952)"/><path class="c" d="M350.706,657.994a3.758,3.758,0,0,0,.024-7.515,3.758,3.758,0,1,0-.024,7.515Z" transform="translate(-251.406 -491.699)"/><path class="c" d="M437.783,596.589a3.751,3.751,0,0,0,.01-7.5,3.751,3.751,0,1,0-.01,7.5Z" transform="translate(-256.335 -488.225)"/><path class="c" d="M450.933,600.121a3.746,3.746,0,1,0-3.719-3.8A3.793,3.793,0,0,0,450.933,600.121Z" transform="translate(-257.081 -488.425)"/><path class="c" d="M488.085,628.524a3.723,3.723,0,0,0,3.723,3.754,3.736,3.736,0,1,0-3.723-3.754Z" transform="translate(-259.394 -490.246)"/><path class="c" d="M347.188,663.7a3.733,3.733,0,1,0,3.718,3.779A3.781,3.781,0,0,0,347.188,663.7Z" transform="translate(-251.21 -492.446)"/><path class="c" d="M357.711,631.591a3.731,3.731,0,1,0,.013-7.462,3.731,3.731,0,0,0-.013,7.462Z" transform="translate(-251.807 -490.208)"/><path class="c" d="M374.254,605.149a3.721,3.721,0,1,0,3.73-3.761A3.76,3.76,0,0,0,374.254,605.149Z" transform="translate(-252.953 -488.921)"/><path class="c" d="M486.962,616.4a3.726,3.726,0,1,0,3.657,3.725A3.762,3.762,0,0,0,486.962,616.4Z" transform="translate(-259.117 -489.77)"/><path class="c" d="M460.451,599.874a3.714,3.714,0,1,0,3.686-3.71A3.749,3.749,0,0,0,460.451,599.874Z" transform="translate(-257.83 -488.625)"/><path class="c" d="M382.657,600.263a3.735,3.735,0,0,0,3.689,3.684,3.711,3.711,0,1,0,.05-7.421A3.728,3.728,0,0,0,382.657,600.263Z" transform="translate(-253.428 -488.645)"/><path class="c" d="M492.865,636.819a3.675,3.675,0,0,0,3.737,3.731,3.714,3.714,0,0,0,3.7-3.579l-1.407-3.021a3.75,3.75,0,0,0-2.343-.8A3.674,3.674,0,0,0,492.865,636.819Z" transform="translate(-259.664 -490.718)"/><path class="c" d="M398.419,595.5a3.714,3.714,0,1,0-3.7,3.659A3.7,3.7,0,0,0,398.419,595.5Z" transform="translate(-253.9 -488.376)"/><path class="c" d="M428.311,589.3a3.713,3.713,0,1,0-3.629,3.718A3.672,3.672,0,0,0,428.311,589.3Z" transform="translate(-255.591 -488.029)"/><path class="c" d="M369.657,613.606a3.706,3.706,0,1,0-3.663-3.813A3.7,3.7,0,0,0,369.657,613.606Z" transform="translate(-252.485 -489.193)"/><path class="c" d="M485.828,611.815a3.675,3.675,0,0,0-3.706-3.653,3.67,3.67,0,1,0,3.706,3.653Z" transform="translate(-258.85 -489.304)"/><path class="c" d="M497.8,645.287a3.626,3.626,0,0,0,3.7,3.643,3.669,3.669,0,0,0,3.384-2.257l-2.286-4.908a3.735,3.735,0,0,0-1.146-.175A3.638,3.638,0,0,0,497.8,645.287Z" transform="translate(-259.943 -491.196)"/><path class="c" d="M399.427,590.608a3.68,3.68,0,1,0,3.649-3.734A3.725,3.725,0,0,0,399.427,590.608Z" transform="translate(-254.377 -488.099)"/><path class="c" d="M349.444,645.951a3.619,3.619,0,0,0-3.658-3.657,3.649,3.649,0,0,0-.009,7.3A3.606,3.606,0,0,0,349.444,645.951Z" transform="translate(-251.136 -491.235)"/><path class="c" d="M449.728,588.125a3.609,3.609,0,0,0-3.636-3.7,3.65,3.65,0,1,0,3.636,3.7Z" transform="translate(-256.811 -487.961)"/><path class="c" d="M343.625,676.984a3.65,3.65,0,0,0,.059,7.3,3.65,3.65,0,1,0-.059-7.3Z" transform="translate(-251.015 -493.198)"/><path class="c" d="M477.332,599.777a3.641,3.641,0,0,0,.071,7.282,3.641,3.641,0,1,0-.071-7.282Z" transform="translate(-258.582 -488.829)"/><path class="c" d="M349.472,636.394a3.641,3.641,0,0,0-.047-7.281,3.641,3.641,0,1,0,.047,7.281Z" transform="translate(-251.342 -490.49)"/><path class="c" d="M345.943,659.115a3.687,3.687,0,0,0-3.622-3.623,3.641,3.641,0,0,0-.064,7.281A3.672,3.672,0,0,0,345.943,659.115Z" transform="translate(-250.939 -491.982)"/><path class="c" d="M502.62,653.571a3.626,3.626,0,0,0,6.538,2.175l-2.7-5.8c-.052,0-.1-.009-.158-.01A3.6,3.6,0,0,0,502.62,653.571Z" transform="translate(-260.216 -491.668)"/><path class="c" d="M364.9,614.662a3.6,3.6,0,0,0-3.594-3.614,3.638,3.638,0,1,0,3.594,3.614Z" transform="translate(-252.011 -489.467)"/><path class="c" d="M415.073,585.746a3.643,3.643,0,0,0-3.653-3.571,3.631,3.631,0,0,0,0,7.262A3.672,3.672,0,0,0,415.073,585.746Z" transform="translate(-254.851 -487.834)"/><path class="c" d="M459.264,587.959a3.635,3.635,0,1,0,.1,7.269,3.635,3.635,0,0,0-.1-7.269Z" transform="translate(-257.558 -488.161)"/><path class="c" d="M436.523,584.572a3.625,3.625,0,0,0-3.565-3.663,3.635,3.635,0,1,0-.048,7.27A3.608,3.608,0,0,0,436.523,584.572Z" transform="translate(-256.065 -487.762)"/><path class="c" d="M356.546,619.572a3.581,3.581,0,0,0-3.515-3.6,3.6,3.6,0,1,0,3.515,3.6Z" transform="translate(-251.546 -489.746)"/><path class="c" d="M338.761,675.783a3.569,3.569,0,1,0-3.57-3.6A3.553,3.553,0,0,0,338.761,675.783Z" transform="translate(-250.742 -492.726)"/><path class="c" d="M476.061,595.163a3.572,3.572,0,1,0-3.561,3.525A3.56,3.56,0,0,0,476.061,595.163Z" transform="translate(-258.309 -488.365)"/><path class="c" d="M419.764,584.588a3.564,3.564,0,1,0,.139-7.126,3.564,3.564,0,1,0-.139,7.126Z" transform="translate(-255.329 -487.567)"/><path class="c" d="M510.91,659.152l-.322-.69a3.523,3.523,0,0,0-1.081.346Z" transform="translate(-260.606 -492.15)"/><path class="c" d="M381.46,588.385a3.556,3.556,0,1,0,3.633,3.575A3.565,3.565,0,0,0,381.46,588.385Z" transform="translate(-253.163 -488.185)"/><path class="c" d="M492.1,613.918l5.392-1.389a3.538,3.538,0,0,0-2.166-.715A3.574,3.574,0,0,0,492.1,613.918Z" transform="translate(-259.621 -489.511)"/><path class="c" d="M373.243,593.167a3.549,3.549,0,1,0,0,7.1,3.549,3.549,0,0,0,0-7.1Z" transform="translate(-252.692 -488.456)"/><path class="c" d="M386.4,587.039a3.547,3.547,0,0,0,3.5,3.586,3.564,3.564,0,1,0,.035-7.129A3.526,3.526,0,0,0,386.4,587.039Z" transform="translate(-253.64 -487.908)"/><path class="c" d="M336.609,693.775c0,.1,0,.193.011.289l3.676-3.778c-.039,0-.075-.007-.114-.008A3.516,3.516,0,0,0,336.609,693.775Z" transform="translate(-250.822 -493.95)"/><path class="c" d="M364.777,605.152a3.534,3.534,0,1,0-3.523-3.568A3.578,3.578,0,0,0,364.777,605.152Z" transform="translate(-252.217 -488.734)"/><path class="c" d="M337.522,654.271a3.534,3.534,0,1,0-3.557-3.534A3.577,3.577,0,0,0,337.522,654.271Z" transform="translate(-250.673 -491.513)"/><path class="c" d="M344.6,637.572a3.55,3.55,0,0,0-3.519-3.558,3.534,3.534,0,0,0-.063,7.067A3.577,3.577,0,0,0,344.6,637.572Z" transform="translate(-250.874 -490.767)"/><path class="c" d="M486.937,606.943a3.5,3.5,0,0,0,3.529,3.538,3.532,3.532,0,0,0,.021-7.063A3.515,3.515,0,0,0,486.937,606.943Z" transform="translate(-259.329 -489.036)"/><path class="c" d="M441.273,576.13a3.532,3.532,0,0,0,.062,7.063,3.532,3.532,0,1,0-.062-7.063Z" transform="translate(-256.549 -487.491)"/><path class="c" d="M454.5,579.679a3.516,3.516,0,0,0-.015,7.032,3.516,3.516,0,1,0,.015-7.032Z" transform="translate(-257.296 -487.692)"/><path class="c" d="M398.29,578.77a3.517,3.517,0,1,0-.061,7.032,3.516,3.516,0,0,0,.061-7.032Z" transform="translate(-254.109 -487.641)"/><path class="c" d="M335.227,681.9a3.51,3.51,0,0,0,.039,7.021,3.511,3.511,0,0,0-.039-7.021Z" transform="translate(-250.547 -493.476)"/><path class="c" d="M334.008,667.413a3.491,3.491,0,1,0-.025-6.982,3.491,3.491,0,1,0,.025,6.982Z" transform="translate(-250.476 -492.262)"/><path class="c" d="M467.726,583.208a3.507,3.507,0,1,0,3.482,3.5A3.516,3.516,0,0,0,467.726,583.208Z" transform="translate(-258.043 -487.892)"/><path class="c" d="M348.062,624.39a3.5,3.5,0,1,0-3.5,3.443A3.46,3.46,0,0,0,348.062,624.39Z" transform="translate(-251.075 -490.023)"/><path class="c" d="M428.1,579.623a3.48,3.48,0,1,0-3.453-3.491A3.476,3.476,0,0,0,428.1,579.623Z" transform="translate(-255.804 -487.295)"/><path class="c" d="M482.187,598.7a3.489,3.489,0,1,0,3.411-3.522A3.456,3.456,0,0,0,482.187,598.7Z" transform="translate(-259.06 -488.569)"/><path class="c" d="M356.612,602.914A3.475,3.475,0,1,0,360,606.466,3.463,3.463,0,0,0,356.612,602.914Z" transform="translate(-251.751 -489.007)"/><path class="c" d="M406.714,573.9a3.5,3.5,0,1,0,3.421,3.531A3.506,3.506,0,0,0,406.714,573.9Z" transform="translate(-254.589 -487.365)"/><path class="c" d="M333.926,677.128a3.465,3.465,0,0,0-3.488-3.453,3.435,3.435,0,0,0,.078,6.87A3.449,3.449,0,0,0,333.926,677.128Z" transform="translate(-250.282 -493.011)"/><path class="c" d="M348.055,607.731a3.432,3.432,0,1,0,.082,6.864,3.432,3.432,0,0,0-.082-6.864Z" transform="translate(-251.278 -489.28)"/><path class="c" d="M484.31,590.211a3.413,3.413,0,0,0-3.418-3.394,3.426,3.426,0,1,0,.07,6.852A3.4,3.4,0,0,0,484.31,590.211Z" transform="translate(-258.793 -488.096)"/><path class="c" d="M411.515,572.583a3.459,3.459,0,0,0,3.478,3.462,3.415,3.415,0,0,0-.025-6.831A3.437,3.437,0,0,0,411.515,572.583Z" transform="translate(-255.061 -487.1)"/><path class="c" d="M332.76,645.856a3.415,3.415,0,1,0-.071-6.829,3.415,3.415,0,0,0,.071,6.829Z" transform="translate(-250.411 -491.051)"/><path class="c" d="M332.534,655.548a3.468,3.468,0,0,0-3.384-3.456,3.416,3.416,0,1,0,3.384,3.456Z" transform="translate(-250.206 -491.79)"/><path class="c" d="M449.62,571.495a3.407,3.407,0,0,0-.019,6.813,3.407,3.407,0,1,0,.019-6.813Z" transform="translate(-257.026 -487.229)"/><path class="c" d="M462.833,575.005a3.413,3.413,0,1,0,3.409,3.423A3.459,3.459,0,0,0,462.833,575.005Z" transform="translate(-257.772 -487.428)"/><path class="c" d="M433.144,571.361a3.445,3.445,0,0,0,3.4,3.421,3.413,3.413,0,0,0,.023-6.827A3.462,3.462,0,0,0,433.144,571.361Z" transform="translate(-256.285 -487.029)"/><path class="c" d="M364.939,588.414a3.393,3.393,0,1,0,3.334-3.393A3.431,3.431,0,0,0,364.939,588.414Z" transform="translate(-252.425 -487.995)"/><path class="c" d="M503.592,607.079a3.443,3.443,0,0,0-3.347,3.38,3.323,3.323,0,0,0,.2,1.159l6.536-1.684A3.407,3.407,0,0,0,503.592,607.079Z" transform="translate(-260.082 -489.243)"/><path class="c" d="M336.278,632.642a3.392,3.392,0,1,0-.01-6.784,3.392,3.392,0,1,0,.01,6.784Z" transform="translate(-250.61 -490.305)"/><path class="c" d="M376.786,580.155a3.386,3.386,0,1,0-.068,6.772,3.386,3.386,0,1,0,.068-6.772Z" transform="translate(-252.901 -487.719)"/><path class="c" d="M381.668,578.782a3.393,3.393,0,1,0,3.4-3.392A3.35,3.35,0,0,0,381.668,578.782Z" transform="translate(-253.372 -487.45)"/><path class="c" d="M363.4,593.182a3.369,3.369,0,1,0-3.4,3.409A3.392,3.392,0,0,0,363.4,593.182Z" transform="translate(-251.957 -488.266)"/><path class="c" d="M393.43,570.487a3.388,3.388,0,1,0,3.4,3.3A3.4,3.4,0,0,0,393.43,570.487Z" transform="translate(-253.849 -487.172)"/><path class="c" d="M331.759,695.246a3.366,3.366,0,0,0-2.236,5.915l4.7-4.828A3.357,3.357,0,0,0,331.759,695.246Z" transform="translate(-250.355 -494.232)"/><path class="c" d="M498.857,605.542a3.356,3.356,0,1,0-3.349-3.317A3.342,3.342,0,0,0,498.857,605.542Z" transform="translate(-259.814 -488.776)"/><path class="c" d="M325.646,672.082a3.376,3.376,0,0,0-.107-6.752,3.376,3.376,0,0,0,.107,6.752Z" transform="translate(-250.01 -492.539)"/><path class="c" d="M420.033,567.869a3.3,3.3,0,0,0,3.335,3.323,3.344,3.344,0,1,0-3.335-3.323Z" transform="translate(-255.543 -486.834)"/><path class="c" d="M343.144,616.078a3.311,3.311,0,0,0-3.3-3.364,3.344,3.344,0,1,0-.035,6.688A3.3,3.3,0,0,0,343.144,616.078Z" transform="translate(-250.813 -489.561)"/><path class="c" d="M472.655,581.991a3.343,3.343,0,0,0,3.375,3.3,3.344,3.344,0,0,0,.025-6.688A3.355,3.355,0,0,0,472.655,581.991Z" transform="translate(-258.521 -487.631)"/><path class="c" d="M326.992,686.965a3.35,3.35,0,0,0-.066,6.7,3.35,3.35,0,1,0,.066-6.7Z" transform="translate(-250.088 -493.763)"/><path class="c" d="M348.284,597.992a3.382,3.382,0,0,0,3.349,3.332,3.324,3.324,0,0,0,3.309-3.346,3.29,3.29,0,0,0-3.323-3.319A3.346,3.346,0,0,0,348.284,597.992Z" transform="translate(-251.483 -488.54)"/><path class="c" d="M490.79,593.852a3.315,3.315,0,0,0,3.288,3.382,3.372,3.372,0,0,0,3.361-3.334,3.254,3.254,0,0,0-.19-1.088l-4.256-2.039A3.275,3.275,0,0,0,490.79,593.852Z" transform="translate(-259.547 -488.32)"/><path class="c" d="M398.464,569.122a3.312,3.312,0,0,0,3.248,3.314,3.325,3.325,0,1,0,.073-6.649A3.281,3.281,0,0,0,398.464,569.122Z" transform="translate(-254.323 -486.906)"/><path class="c" d="M331.182,633.979a3.356,3.356,0,0,0-3.309-3.263,3.309,3.309,0,1,0,3.309,3.263Z" transform="translate(-250.142 -490.58)"/><path class="c" d="M321.028,647.251a3.339,3.339,0,0,0,3.294,3.272,3.309,3.309,0,0,0,.039-6.618A3.354,3.354,0,0,0,321.028,647.251Z" transform="translate(-249.941 -491.326)"/><path class="c" d="M444.869,563.18a3.306,3.306,0,1,0-.007,6.611,3.306,3.306,0,0,0,.007-6.611Z" transform="translate(-256.761 -486.759)"/><path class="c" d="M458.085,566.739a3.279,3.279,0,1,0-.057,6.557,3.279,3.279,0,1,0,.057-6.557Z" transform="translate(-257.507 -486.96)"/><path class="c" d="M340.057,602.864a3.279,3.279,0,1,0,3.259-3.284A3.3,3.3,0,0,0,340.057,602.864Z" transform="translate(-251.017 -488.818)"/><path class="c" d="M325.346,681.925a3.28,3.28,0,1,0-3.274,3.236A3.242,3.242,0,0,0,325.346,681.925Z" transform="translate(-249.814 -493.292)"/><path class="c" d="M317.55,660.414a3.27,3.27,0,1,0,3.264-3.292A3.3,3.3,0,0,0,317.55,660.414Z" transform="translate(-249.744 -492.074)"/><path class="c" d="M334.661,620.8a3.265,3.265,0,1,0-3.224,3.323A3.3,3.3,0,0,0,334.661,620.8Z" transform="translate(-250.343 -489.836)"/><path class="c" d="M471.354,570.264a3.278,3.278,0,1,0,3.159,3.381A3.273,3.273,0,0,0,471.354,570.264Z" transform="translate(-258.257 -487.159)"/><path class="c" d="M410.17,561.079a3.252,3.252,0,1,0,3.28,3.235A3.239,3.239,0,0,0,410.17,561.079Z" transform="translate(-254.801 -486.64)"/><path class="c" d="M485.952,585.534a3.3,3.3,0,0,0,.293,1.309l5.179-3.766a3.278,3.278,0,0,0-2.263-.849A3.233,3.233,0,0,0,485.952,585.534Z" transform="translate(-259.273 -487.837)"/><path class="c" d="M489.3,589.035c.059,0,.116-.008.175-.011l-2.937-1.407A3.251,3.251,0,0,0,489.3,589.035Z" transform="translate(-259.306 -488.142)"/><path class="c" d="M428.427,563a3.259,3.259,0,1,0,3.219-3.286A3.214,3.214,0,0,0,428.427,563Z" transform="translate(-256.018 -486.563)"/><path class="c" d="M371.867,572.02a3.225,3.225,0,0,0,.021,6.45,3.225,3.225,0,1,0-.021-6.45Z" transform="translate(-252.636 -487.259)"/><path class="c" d="M363.571,576.8a3.221,3.221,0,1,0,.056,6.441,3.221,3.221,0,0,0-.056-6.441Z" transform="translate(-252.165 -487.529)"/><path class="c" d="M512.057,602.5a3.212,3.212,0,0,0-1.029,6.259l3.433-.884a3.232,3.232,0,0,0,.811-2.191A3.191,3.191,0,0,0,512.057,602.5Z" transform="translate(-260.568 -488.984)"/><path class="c" d="M323.458,700.287a3.216,3.216,0,0,0-.089,6.431,3.228,3.228,0,0,0,.614-.049l2.651-2.726a3.061,3.061,0,0,0,.034-.447A3.255,3.255,0,0,0,323.458,700.287Z" transform="translate(-249.896 -494.517)"/><path class="c" d="M380.331,567.149a3.22,3.22,0,1,0-.025,6.44,3.265,3.265,0,0,0,3.216-3.214A3.232,3.232,0,0,0,380.331,567.149Z" transform="translate(-253.113 -486.983)"/><path class="c" d="M320.525,673.586a3.218,3.218,0,0,0-3.242-3.175,3.2,3.2,0,0,0,.038,6.4A3.239,3.239,0,0,0,320.525,673.586Z" transform="translate(-249.549 -492.826)"/><path class="c" d="M331.7,607.693a3.232,3.232,0,0,0,3.256,3.163,3.2,3.2,0,0,0-.074-6.39A3.209,3.209,0,0,0,331.7,607.693Z" transform="translate(-250.545 -489.095)"/><path class="c" d="M319.594,642.116a3.194,3.194,0,1,0-3.2-3.2A3.184,3.184,0,0,0,319.594,642.116Z" transform="translate(-249.679 -490.864)"/><path class="c" d="M507.19,600.721a3.23,3.23,0,0,0,2.889-1.815l-5.77-2.765a3.232,3.232,0,0,0-.311,1.4A3.16,3.16,0,0,0,507.19,600.721Z" transform="translate(-260.294 -488.624)"/><path class="c" d="M385.374,565.539a3.212,3.212,0,0,0,3.166,3.238,3.187,3.187,0,0,0,.1-6.374A3.2,3.2,0,0,0,385.374,565.539Z" transform="translate(-253.582 -486.715)"/><path class="c" d="M418.466,556.263a3.187,3.187,0,1,0,.061,6.374,3.187,3.187,0,1,0-.061-6.374Z" transform="translate(-255.276 -486.367)"/><path class="c" d="M351.945,584.893a3.213,3.213,0,0,0,3.19,3.213,3.187,3.187,0,1,0,.049-6.373A3.2,3.2,0,0,0,351.945,584.893Z" transform="translate(-251.69 -487.808)"/><path class="c" d="M484.418,574a3.186,3.186,0,1,0,.051,6.373,3.187,3.187,0,1,0-.051-6.373Z" transform="translate(-259.007 -487.371)"/><path class="c" d="M318.573,691.906a3.185,3.185,0,1,0,3.146,3.263A3.214,3.214,0,0,0,318.573,691.906Z" transform="translate(-249.621 -494.043)"/><path class="c" d="M323.1,628.915a3.181,3.181,0,1,0-3.162-3.132A3.187,3.187,0,0,0,323.1,628.915Z" transform="translate(-249.879 -490.118)"/><path class="c" d="M453.323,558.568a3.154,3.154,0,1,0,3.143,3.137A3.136,3.136,0,0,0,453.323,558.568Z" transform="translate(-257.245 -486.498)"/><path class="c" d="M319.214,652.021a3.166,3.166,0,1,0-3.127,3.13A3.135,3.135,0,0,0,319.214,652.021Z" transform="translate(-249.48 -491.606)"/><path class="c" d="M346.827,586.543a3.149,3.149,0,1,0,3.2,3.17A3.135,3.135,0,0,0,346.827,586.543Z" transform="translate(-251.224 -488.081)"/><path class="c" d="M397.028,557.529a3.171,3.171,0,1,0,3.137,3.162A3.165,3.165,0,0,0,397.028,557.529Z" transform="translate(-254.062 -486.439)"/><path class="c" d="M440.057,555.027a3.172,3.172,0,1,0,3.187,3.1A3.192,3.192,0,0,0,440.057,555.027Z" transform="translate(-256.5 -486.297)"/><path class="c" d="M466.382,562.077a3.171,3.171,0,1,0,3.142,3.157A3.166,3.166,0,0,0,466.382,562.077Z" transform="translate(-257.987 -486.696)"/><path class="c" d="M315.677,665.184a3.088,3.088,0,0,0-3.117-3.11,3.127,3.127,0,0,0-2.384,1.118l.556,4.517a3.131,3.131,0,0,0,1.846.6A3.078,3.078,0,0,0,315.677,665.184Z" transform="translate(-249.327 -492.355)"/><path class="c" d="M323.5,612.576a3.169,3.169,0,0,0,3.074,3.1,3.121,3.121,0,1,0,.058-6.241A3.143,3.143,0,0,0,323.5,612.576Z" transform="translate(-250.08 -489.376)"/><path class="c" d="M317.025,686.871a3.13,3.13,0,0,0-4.307-2.961l.735,5.969a3.2,3.2,0,0,0,.345.029A3.128,3.128,0,0,0,317.025,686.871Z" transform="translate(-249.471 -493.577)"/><path class="c" d="M426.9,551.564a3.109,3.109,0,0,0-.031,6.217,3.109,3.109,0,1,0,.031-6.217Z" transform="translate(-255.756 -486.101)"/><path class="c" d="M482.683,568.8a3.147,3.147,0,0,0-3.129-3.132,3.109,3.109,0,1,0,.067,6.217A3.134,3.134,0,0,0,482.683,568.8Z" transform="translate(-258.736 -486.899)"/><path class="c" d="M338.451,591.362a3.107,3.107,0,0,0-.054,6.213,3.107,3.107,0,1,0,.054-6.213Z" transform="translate(-250.75 -488.353)"/><path class="c" d="M494.519,580.728c0,.061.007.122.01.183l4.231-3.076a3.124,3.124,0,0,0-4.242,2.893Z" transform="translate(-259.758 -487.576)"/><path class="c" d="M405.375,552.841a3.094,3.094,0,1,0-.025,6.186,3.094,3.094,0,0,0,.025-6.186Z" transform="translate(-254.534 -486.174)"/><path class="c" d="M311.861,676.956l.292,2.376a2.964,2.964,0,0,0-.292-2.376Z" transform="translate(-249.422 -493.197)"/><path class="c" d="M358.718,568.68a3.056,3.056,0,1,0,3.024,3.1A3.046,3.046,0,0,0,358.718,568.68Z" transform="translate(-251.901 -487.07)"/><path class="c" d="M445.364,553.3a3.081,3.081,0,0,0,3.047,3.074,3.053,3.053,0,1,0-3.047-3.074Z" transform="translate(-256.976 -486.028)"/><path class="c" d="M364.069,566.775a3.047,3.047,0,1,0,6.093.088,3.047,3.047,0,0,0-6.093-.088Z" transform="translate(-252.376 -486.794)"/><path class="c" d="M314.723,633.552a3.034,3.034,0,0,0-.01-6.068,3.034,3.034,0,1,0,.01,6.068Z" transform="translate(-249.41 -490.397)"/><path class="c" d="M314.22,643.726a3.047,3.047,0,0,0-6.093-.087,3.047,3.047,0,1,0,6.093.087Z" transform="translate(-249.211 -491.144)"/><path class="c" d="M375.413,559.042a3.028,3.028,0,1,0,.044,6.055,3.028,3.028,0,0,0-.044-6.055Z" transform="translate(-252.846 -486.524)"/><path class="c" d="M520.373,604.243a3.148,3.148,0,0,0,.7-.077l-3.409-1.633A2.979,2.979,0,0,0,520.373,604.243Z" transform="translate(-261.067 -488.986)"/><path class="c" d="M461.64,553.814a3.025,3.025,0,1,0-.038,6.049,3.025,3.025,0,0,0,.038-6.049Z" transform="translate(-257.723 -486.229)"/><path class="c" d="M330.134,596.339a3.024,3.024,0,0,0-.011,6.048,3.024,3.024,0,1,0,.011-6.048Z" transform="translate(-250.285 -488.635)"/><path class="c" d="M318.265,708.328a3.034,3.034,0,0,0-2.92-3.056l.728,5.918A3.01,3.01,0,0,0,318.265,708.328Z" transform="translate(-249.619 -494.799)"/><path class="c" d="M347.365,576.493a3.074,3.074,0,0,0,3.061,3.056,3.031,3.031,0,1,0-3.061-3.056Z" transform="translate(-251.431 -487.342)"/><path class="c" d="M410.713,551.125a2.974,2.974,0,0,0,2.934,3.049,3.022,3.022,0,1,0,.17-6.041A2.989,2.989,0,0,0,410.713,551.125Z" transform="translate(-255.016 -485.907)"/><path class="c" d="M492.745,569.281a3.021,3.021,0,1,0,.009,6.042,3.021,3.021,0,0,0-.009-6.042Z" transform="translate(-259.486 -487.104)"/><path class="c" d="M380.8,557.187a3.068,3.068,0,0,0,3,3.026,3.022,3.022,0,1,0-3-3.026Z" transform="translate(-253.323 -486.249)"/><path class="c" d="M318.206,620.339a3.01,3.01,0,0,0,.087-6.02,3.01,3.01,0,1,0-.087,6.02Z" transform="translate(-249.612 -489.652)"/><path class="c" d="M307.708,653.887a3.01,3.01,0,1,0-.076,6.02,3.01,3.01,0,0,0,.076-6.02Z" transform="translate(-249.012 -491.891)"/><path class="c" d="M471.766,560.507a3.026,3.026,0,0,0,3.019,2.975,3.006,3.006,0,0,0,.054-6.01A3.039,3.039,0,0,0,471.766,560.507Z" transform="translate(-258.47 -486.436)"/><path class="c" d="M432.2,549.753a3.028,3.028,0,0,0,2.954,3.041,3.006,3.006,0,0,0,.186-6.008A3.04,3.04,0,0,0,432.2,549.753Z" transform="translate(-256.231 -485.831)"/><path class="c" d="M338.987,581.328a3,3,0,0,0,2.953,2.933,2.968,2.968,0,1,0,.034-5.935A2.986,2.986,0,0,0,338.987,581.328Z" transform="translate(-250.957 -487.616)"/><path class="c" d="M392.14,549.456a2.956,2.956,0,1,0,.033,5.912,2.956,2.956,0,1,0-.033-5.912Z" transform="translate(-253.796 -485.982)"/><path class="c" d="M321.74,601.173a2.97,2.97,0,1,0,2.961,3.017A3,3,0,0,0,321.74,601.173Z" transform="translate(-249.814 -488.908)"/><path class="c" d="M419.091,546.287a2.944,2.944,0,1,0,2.9-2.946A2.91,2.91,0,0,0,419.091,546.287Z" transform="translate(-255.49 -485.636)"/><path class="c" d="M485.038,563.977a2.945,2.945,0,1,0,2.951-2.9A2.91,2.91,0,0,0,485.038,563.977Z" transform="translate(-259.221 -486.64)"/><path class="c" d="M330.753,586.167a2.973,2.973,0,0,0,2.917,2.96,2.943,2.943,0,0,0,.031-5.886A2.964,2.964,0,0,0,330.753,586.167Z" transform="translate(-250.491 -487.894)"/><path class="c" d="M303.47,635.326a2.97,2.97,0,0,0,2.95,2.911,2.932,2.932,0,0,0-.045-5.863A2.955,2.955,0,0,0,303.47,635.326Z" transform="translate(-248.947 -490.674)"/><path class="c" d="M503.317,574.619l2.283-1.66A2.856,2.856,0,0,0,503.317,574.619Z" transform="translate(-260.256 -487.312)"/><path class="c" d="M397.617,547.639a2.911,2.911,0,0,0,2.927,2.906,2.91,2.91,0,0,0,0-5.82A2.927,2.927,0,0,0,397.617,547.639Z" transform="translate(-254.275 -485.714)"/><path class="c" d="M305.793,648.5a2.915,2.915,0,0,0-2.93-2.907,2.863,2.863,0,0,0-2.87,2.94,2.9,2.9,0,0,0,2.957,2.867A2.951,2.951,0,0,0,305.793,648.5Z" transform="translate(-248.75 -491.422)"/><path class="c" d="M456.792,545.646a2.9,2.9,0,0,0,.026,5.8,2.9,2.9,0,1,0-.026-5.8Z" transform="translate(-257.462 -485.767)"/><path class="c" d="M312.842,622.246a2.93,2.93,0,0,0-2.922-2.921,2.9,2.9,0,0,0-.037,5.8A2.918,2.918,0,0,0,312.842,622.246Z" transform="translate(-249.149 -489.936)"/><path class="c" d="M467.143,552.129a2.878,2.878,0,0,0,2.879,2.844,2.935,2.935,0,0,0,2.906-2.951,2.9,2.9,0,0,0-2.9-2.831A2.847,2.847,0,0,0,467.143,552.129Z" transform="translate(-258.209 -485.967)"/><path class="c" d="M443.61,542.142a2.846,2.846,0,0,0-2.846,2.863,2.883,2.883,0,0,0,2.912,2.919,2.936,2.936,0,0,0,2.873-2.878A2.9,2.9,0,0,0,443.61,542.142Z" transform="translate(-256.716 -485.568)"/><path class="c" d="M362.386,555.684a2.87,2.87,0,0,0-.081,5.74,2.87,2.87,0,0,0,.081-5.74Z" transform="translate(-252.116 -486.334)"/><path class="c" d="M351.077,563.322a2.85,2.85,0,1,0,2.866-2.854A2.884,2.884,0,0,0,351.077,563.322Z" transform="translate(-251.641 -486.605)"/><path class="c" d="M427.609,541.455a2.849,2.849,0,1,0,2.891-2.818A2.867,2.867,0,0,0,427.609,541.455Z" transform="translate(-255.972 -485.37)"/><path class="c" d="M480.249,555.5a2.849,2.849,0,1,0,2.953-2.762A2.876,2.876,0,0,0,480.249,555.5Z" transform="translate(-258.95 -486.167)"/><path class="c" d="M313.472,606.176a2.863,2.863,0,1,0,2.827,2.882A2.893,2.893,0,0,0,313.472,606.176Z" transform="translate(-249.351 -489.192)"/><path class="c" d="M302.206,661.646a2.821,2.821,0,0,0-2.891-2.8,2.841,2.841,0,1,0,.078,5.681,2.883,2.883,0,0,0,.947-.18l.384-.173A2.809,2.809,0,0,0,302.206,661.646Z" transform="translate(-248.552 -492.172)"/><path class="c" d="M322.411,590.992a2.86,2.86,0,1,0,2.839-2.869A2.845,2.845,0,0,0,322.411,590.992Z" transform="translate(-250.019 -488.17)"/><path class="c" d="M498.324,567.511a2.816,2.816,0,0,0,2.824,2.869,2.84,2.84,0,1,0-2.824-2.869Z" transform="translate(-259.973 -486.845)"/><path class="c" d="M408.895,539.922a2.832,2.832,0,1,0,2.809,2.9A2.815,2.815,0,0,0,408.895,539.922Z" transform="translate(-254.749 -485.443)"/><path class="c" d="M370.594,550.838a2.831,2.831,0,1,0,2.9,2.806A2.816,2.816,0,0,0,370.594,550.838Z" transform="translate(-252.587 -486.06)"/><path class="c" d="M345.728,565.408a2.816,2.816,0,1,0-.2,5.629,2.816,2.816,0,1,0,.2-5.629Z" transform="translate(-251.173 -486.885)"/><path class="c" d="M378.964,546.084a2.808,2.808,0,1,0,2.812,2.77A2.813,2.813,0,0,0,378.964,546.084Z" transform="translate(-253.059 -485.791)"/><path class="c" d="M337.183,570.207a2.791,2.791,0,1,0,.071,5.581,2.791,2.791,0,0,0-.071-5.581Z" transform="translate(-250.698 -487.156)"/><path class="c" d="M384.6,543.965a2.764,2.764,0,0,0,2.727,2.83,2.822,2.822,0,0,0,2.841-2.742,2.793,2.793,0,0,0-2.753-2.817A2.741,2.741,0,0,0,384.6,543.965Z" transform="translate(-253.538 -485.517)"/><path class="c" d="M493.531,559.131a2.755,2.755,0,0,0,2.791,2.775,2.78,2.78,0,0,0,0-5.56A2.768,2.768,0,0,0,493.531,559.131Z" transform="translate(-259.702 -486.372)"/><path class="c" d="M417.272,535.2a2.78,2.78,0,0,0-.065,5.56,2.78,2.78,0,1,0,.065-5.56Z" transform="translate(-255.228 -485.175)"/><path class="c" d="M314.192,595.786a2.8,2.8,0,0,0,2.744,2.841,2.765,2.765,0,0,0,.143-5.527A2.779,2.779,0,0,0,314.192,595.786Z" transform="translate(-249.554 -488.452)"/><path class="c" d="M304.28,627.014a2.725,2.725,0,0,0-2.787-2.763,2.765,2.765,0,0,0,0,5.529A2.743,2.743,0,0,0,304.28,627.014Z" transform="translate(-248.679 -490.215)"/><path class="c" d="M300.786,640.129a2.779,2.779,0,0,0-2.889-2.685,2.723,2.723,0,0,0-2.662,2.778c0,.01,0,.021,0,.032l2.62.185-.627,2.414a2.76,2.76,0,0,0,3.555-2.725Z" transform="translate(-248.481 -490.961)"/><path class="c" d="M462.385,543.827a2.727,2.727,0,0,0,2.72,2.71,2.753,2.753,0,1,0,.017-5.5A2.718,2.718,0,0,0,462.385,543.827Z" transform="translate(-257.939 -485.505)"/><path class="c" d="M454.719,540.122a2.75,2.75,0,0,0-2.738-2.716,2.74,2.74,0,1,0-.062,5.479A2.756,2.756,0,0,0,454.719,540.122Z" transform="translate(-257.193 -485.3)"/><path class="c" d="M328.941,575.026a2.751,2.751,0,1,0,2.721,2.745A2.769,2.769,0,0,0,328.941,575.026Z" transform="translate(-250.233 -487.429)"/><path class="c" d="M478.334,550.053a2.746,2.746,0,1,0-2.737-2.819A2.755,2.755,0,0,0,478.334,550.053Z" transform="translate(-258.687 -485.705)"/><path class="c" d="M297.332,653.391a2.7,2.7,0,0,0-2.036-2.617l-1.365,5.255a2.836,2.836,0,0,0,.7.09A2.706,2.706,0,0,0,297.332,653.391Z" transform="translate(-248.407 -491.715)"/><path class="c" d="M305.052,616.544a2.721,2.721,0,1,0-2.739-2.794A2.7,2.7,0,0,0,305.052,616.544Z" transform="translate(-248.882 -489.47)"/><path class="c" d="M438.742,533.876a2.743,2.743,0,1,0,2.738,2.726A2.762,2.762,0,0,0,438.742,533.876Z" transform="translate(-256.448 -485.1)"/><path class="c" d="M395.578,536.52a2.716,2.716,0,1,0,2.822,2.7A2.7,2.7,0,0,0,395.578,536.52Z" transform="translate(-254.01 -485.25)"/><path class="c" d="M291.858,664.036l-1.256,4.835,2.972-1.338a2.708,2.708,0,0,0,.174-.939A2.66,2.66,0,0,0,291.858,664.036Z" transform="translate(-248.219 -492.466)"/><path class="c" d="M305.914,600.728a2.646,2.646,0,0,0,2.7,2.587,2.68,2.68,0,1,0-.074-5.359A2.662,2.662,0,0,0,305.914,600.728Z" transform="translate(-249.086 -488.726)"/><path class="c" d="M425.595,530.422a2.674,2.674,0,1,0,.009,5.347,2.674,2.674,0,0,0-.009-5.347Z" transform="translate(-255.705 -484.905)"/><path class="c" d="M491.586,553.506a2.674,2.674,0,0,0-.079-5.347,2.674,2.674,0,1,0,.079,5.347Z" transform="translate(-259.436 -485.909)"/><path class="c" d="M404.016,531.792a2.669,2.669,0,0,0,.091,5.336,2.669,2.669,0,1,0-.091-5.336Z" transform="translate(-254.491 -484.983)"/><path class="c" d="M320.537,580a2.669,2.669,0,1,0,0,5.337,2.669,2.669,0,0,0,0-5.337Z" transform="translate(-249.76 -487.711)"/><path class="c" d="M509.447,565.327a2.67,2.67,0,0,0,.131-5.337,2.67,2.67,0,1,0-.131,5.337Z" transform="translate(-260.453 -486.578)"/><path class="c" d="M357.447,547.5a2.654,2.654,0,1,0,2.674,2.661A2.7,2.7,0,0,0,357.447,547.5Z" transform="translate(-251.854 -485.871)"/><path class="c" d="M363.248,545.379a2.642,2.642,0,0,0,5.284.056,2.694,2.694,0,0,0-2.621-2.712A2.664,2.664,0,0,0,363.248,545.379Z" transform="translate(-252.33 -485.601)"/><path class="c" d="M346.519,554.989a2.633,2.633,0,0,0,2.619,2.681,2.624,2.624,0,0,0,.116-5.247A2.634,2.634,0,0,0,346.519,554.989Z" transform="translate(-251.383 -486.15)"/><path class="c" d="M371.572,540.448a2.618,2.618,0,0,0,5.236.09,2.618,2.618,0,0,0-5.236-.09Z" transform="translate(-252.801 -485.327)"/><path class="c" d="M293.261,629.158a2.637,2.637,0,1,0,2.59,2.721A2.642,2.642,0,0,0,293.261,629.158Z" transform="translate(-248.22 -490.492)"/><path class="c" d="M338.143,559.842a2.618,2.618,0,0,0,5.237-.039,2.618,2.618,0,0,0-5.237.039Z" transform="translate(-250.909 -486.421)"/><path class="c" d="M457.768,535.334a2.611,2.611,0,1,0,2.6-2.589A2.627,2.627,0,0,0,457.768,535.334Z" transform="translate(-257.678 -485.037)"/><path class="c" d="M299.34,618.592a2.6,2.6,0,0,0-2.578-2.6,2.615,2.615,0,1,0,2.578,2.6Z" transform="translate(-248.42 -489.747)"/><path class="c" d="M444.6,531.833a2.545,2.545,0,0,0,2.541,2.608,2.591,2.591,0,1,0,.04-5.181A2.554,2.554,0,0,0,444.6,531.833Z" transform="translate(-256.933 -484.839)"/><path class="c" d="M473.589,536.309a2.59,2.59,0,1,0,.007,5.18,2.594,2.594,0,0,0,2.172-1.209l.393-1.509A2.6,2.6,0,0,0,473.589,536.309Z" transform="translate(-258.426 -485.238)"/><path class="c" d="M412.284,532.153A2.579,2.579,0,1,0,412.5,527a2.579,2.579,0,0,0-.221,5.154Z" transform="translate(-254.966 -484.711)"/><path class="c" d="M329.862,564.628a2.6,2.6,0,0,0,2.623,2.546,2.579,2.579,0,0,0-.058-5.157A2.612,2.612,0,0,0,329.862,564.628Z" transform="translate(-250.441 -486.693)"/><path class="c" d="M504.707,556.941a2.578,2.578,0,1,0,.026-5.156,2.578,2.578,0,0,0-.026,5.156Z" transform="translate(-260.19 -486.114)"/><path class="c" d="M312.2,584.877a2.6,2.6,0,0,0-2.579,2.592,2.627,2.627,0,0,0,2.6,2.578,2.578,2.578,0,0,0,2.555-2.6A2.544,2.544,0,0,0,312.2,584.877Z" transform="translate(-249.295 -487.986)"/><path class="c" d="M380.039,535.693a2.535,2.535,0,0,0,2.539,2.6,2.578,2.578,0,1,0,.053-5.156A2.547,2.547,0,0,0,380.039,535.693Z" transform="translate(-253.28 -485.059)"/><path class="c" d="M300.285,602.963a2.567,2.567,0,1,0,.052,5.133,2.567,2.567,0,0,0-.052-5.133Z" transform="translate(-248.623 -489.01)"/><path class="c" d="M431.455,528.26a2.519,2.519,0,0,0,2.526,2.619,2.544,2.544,0,1,0,.036-5.087A2.5,2.5,0,0,0,431.455,528.26Z" transform="translate(-256.189 -484.643)"/><path class="c" d="M488.065,544.849l-3.01-.212a2.533,2.533,0,0,0,3.01.212Z" transform="translate(-259.222 -485.709)"/><path class="c" d="M388.385,530.924a2.52,2.52,0,1,0,2.543-2.515A2.545,2.545,0,0,0,388.385,530.924Z" transform="translate(-253.752 -484.791)"/><path class="c" d="M321.529,569.543A2.519,2.519,0,1,0,324,566.989,2.492,2.492,0,0,0,321.529,569.543Z" transform="translate(-249.969 -486.974)"/><path class="c" d="M420.857,527.3a2.486,2.486,0,0,0,.009-4.97,2.486,2.486,0,1,0-.009,4.97Z" transform="translate(-255.446 -484.447)"/><path class="c" d="M499.87,548.568a2.535,2.535,0,0,0,2.458-2.472,2.265,2.265,0,0,0-.024-.242l-4.865-.344a2.57,2.57,0,0,0-.065.544A2.475,2.475,0,0,0,499.87,548.568Z" transform="translate(-259.919 -485.759)"/><path class="c" d="M301.351,592.4a2.474,2.474,0,0,0,2.46,2.443,2.536,2.536,0,0,0,2.494-2.54,2.508,2.508,0,0,0-2.485-2.432A2.453,2.453,0,0,0,301.351,592.4Z" transform="translate(-248.827 -488.269)"/><path class="c" d="M396.879,526.075a2.429,2.429,0,0,0,2.433,2.445,2.462,2.462,0,1,0-.027-4.923A2.443,2.443,0,0,0,396.879,526.075Z" transform="translate(-254.233 -484.519)"/><path class="c" d="M468.721,533.069a2.462,2.462,0,0,0-.022-4.925,2.462,2.462,0,1,0,.022,4.925Z" transform="translate(-258.158 -484.776)"/><path class="c" d="M517.962,560.357a2.462,2.462,0,0,0-.049-4.924,2.462,2.462,0,1,0,.049,4.924Z" transform="translate(-260.941 -486.32)"/><path class="c" d="M313.273,574.262a2.5,2.5,0,0,0,2.545,2.468,2.463,2.463,0,0,0-.086-4.924A2.514,2.514,0,0,0,313.273,574.262Z" transform="translate(-249.502 -487.247)"/><path class="c" d="M455.456,524.641a2.412,2.412,0,0,0-2.408,2.458,2.438,2.438,0,0,0,2.432,2.446,2.5,2.5,0,0,0,2.488-2.418A2.47,2.47,0,0,0,455.456,524.641Z" transform="translate(-257.411 -484.578)"/><path class="c" d="M284.955,634.252a2.453,2.453,0,1,0-.213,4.9,2.453,2.453,0,0,0,.213-4.9Z" transform="translate(-247.752 -490.78)"/><path class="c" d="M288.472,621.065a2.413,2.413,0,0,0-2.563,2.3,2.438,2.438,0,0,0,2.377,2.6,2.451,2.451,0,0,0,.186-4.9Z" transform="translate(-247.953 -490.034)"/><path class="c" d="M292.027,612.734a2.416,2.416,0,1,0-.128-4.828,2.415,2.415,0,0,0,.128,4.828Z" transform="translate(-248.16 -489.29)"/><path class="c" d="M358.587,536.98a2.418,2.418,0,1,0,2.474-2.432A2.453,2.453,0,0,0,358.587,536.98Z" transform="translate(-252.066 -485.138)"/><path class="c" d="M350.293,541.794a2.417,2.417,0,1,0,2.543-2.321A2.386,2.386,0,0,0,350.293,541.794Z" transform="translate(-251.597 -485.417)"/><path class="c" d="M341.879,546.636a2.416,2.416,0,1,0,2.37-2.39A2.387,2.387,0,0,0,341.879,546.636Z" transform="translate(-251.121 -485.687)"/><path class="c" d="M442.3,521.05a2.4,2.4,0,1,0,2.421,2.344A2.385,2.385,0,0,0,442.3,521.05Z" transform="translate(-256.667 -484.375)"/><path class="c" d="M369.369,529.8a2.41,2.41,0,0,0,.059,4.818,2.409,2.409,0,1,0-.059-4.818Z" transform="translate(-252.545 -484.87)"/><path class="c" d="M335.983,549.127a2.41,2.41,0,0,0-.025,4.819,2.409,2.409,0,1,0,.025-4.819Z" transform="translate(-250.653 -485.964)"/><path class="c" d="M293.164,597.083a2.329,2.329,0,0,0,2.309,2.412,2.368,2.368,0,1,0,.1-4.734A2.34,2.34,0,0,0,293.164,597.083Z" transform="translate(-248.364 -488.546)"/><path class="c" d="M407.665,523.669a2.418,2.418,0,0,0,2.343-2.328,2.388,2.388,0,0,0-2.357-2.408,2.325,2.325,0,0,0-2.372,2.368A2.355,2.355,0,0,0,407.665,523.669Z" transform="translate(-254.708 -484.255)"/><path class="c" d="M304.989,579.115a2.329,2.329,0,0,0,2.307,2.415,2.368,2.368,0,1,0,.1-4.734A2.339,2.339,0,0,0,304.989,579.115Z" transform="translate(-249.033 -487.529)"/><path class="c" d="M512.994,551.867a2.355,2.355,0,0,0,2.385-2.368,2.325,2.325,0,0,0-2.372-2.369,2.389,2.389,0,0,0-2.357,2.3A2.416,2.416,0,0,0,512.994,551.867Z" transform="translate(-260.671 -485.85)"/><path class="c" d="M325.246,556.321a2.328,2.328,0,0,0,2.292,2.345,2.4,2.4,0,0,0,2.415-2.357,2.368,2.368,0,0,0-2.321-2.332A2.3,2.3,0,0,0,325.246,556.321Z" transform="translate(-250.179 -486.238)"/><path class="c" d="M377.74,525.095a2.345,2.345,0,1,0-.034,4.69,2.345,2.345,0,0,0,.034-4.69Z" transform="translate(-253.015 -484.604)"/><path class="c" d="M429.119,522.282a2.345,2.345,0,0,0,0-4.691,2.345,2.345,0,1,0,0,4.691Z" transform="translate(-255.923 -484.179)"/><path class="c" d="M280.077,625.974a2.315,2.315,0,1,0,2.274,2.257A2.331,2.331,0,0,0,280.077,625.974Z" transform="translate(-247.492 -490.312)"/><path class="c" d="M316.991,561.053a2.3,2.3,0,1,0,4.6.025,2.3,2.3,0,0,0-4.6-.025Z" transform="translate(-249.712 -486.511)"/><path class="c" d="M386.129,524.85a2.3,2.3,0,0,0,.09-4.6,2.3,2.3,0,1,0-.09,4.6Z" transform="translate(-253.497 -484.329)"/><path class="c" d="M461.65,522.3a2.228,2.228,0,0,0,2.293,2.192,2.269,2.269,0,0,0,2.235-1.977l-2.931,1.318-.441-3.592A2.246,2.246,0,0,0,461.65,522.3Z" transform="translate(-257.898 -484.329)"/><path class="c" d="M283.6,617.4a2.3,2.3,0,0,0-.025-4.6,2.3,2.3,0,0,0,.025,4.6Z" transform="translate(-247.694 -489.567)"/><path class="c" d="M416.075,518.683a2.255,2.255,0,0,0,2.216-2.276,2.224,2.224,0,0,0-2.222-2.258,2.288,2.288,0,0,0-2.3,2.21A2.316,2.316,0,0,0,416.075,518.683Z" transform="translate(-255.189 -483.984)"/><path class="c" d="M477.059,528.006a2.311,2.311,0,0,0,2.323-2.3,2.288,2.288,0,0,0-2.274-2.232,2.227,2.227,0,0,0-2.244,2.237A2.256,2.256,0,0,0,477.059,528.006Z" transform="translate(-258.646 -484.512)"/><path class="c" d="M450.733,516.424a2.226,2.226,0,0,0-2.247,2.232,2.255,2.255,0,0,0,2.191,2.3,2.267,2.267,0,1,0,.057-4.532Z" transform="translate(-257.153 -484.113)"/><path class="c" d="M299.013,581.69a2.225,2.225,0,0,0-2.206,2.273,2.259,2.259,0,0,0,2.233,2.259,2.315,2.315,0,0,0,2.285-2.339A2.288,2.288,0,0,0,299.013,581.69Z" transform="translate(-248.57 -487.806)"/><path class="c" d="M308.657,566.042a2.192,2.192,0,0,0,2.2,2.165,2.219,2.219,0,1,0,0-4.436A2.183,2.183,0,0,0,308.657,566.042Z" transform="translate(-249.241 -486.792)"/><path class="c" d="M287.115,604.138a2.218,2.218,0,0,0,.044-4.436,2.219,2.219,0,1,0-.044,4.436Z" transform="translate(-247.894 -488.825)"/><path class="c" d="M437.584,512.929a2.229,2.229,0,1,0,2.186,2.22A2.282,2.282,0,0,0,437.584,512.929Z" transform="translate(-256.409 -483.915)"/><path class="c" d="M394.409,515.579a2.2,2.2,0,1,0,.078,4.4,2.2,2.2,0,1,0-.078-4.4Z" transform="translate(-253.969 -484.065)"/><path class="c" d="M526.2,555.223a2.2,2.2,0,1,0,.059-4.4,2.2,2.2,0,1,0-.059,4.4Z" transform="translate(-261.427 -486.06)"/><path class="c" d="M339.484,540.542a2.18,2.18,0,0,0,.09-4.359,2.18,2.18,0,0,0-.09,4.359Z" transform="translate(-250.865 -485.231)"/><path class="c" d="M347.85,531.309a2.159,2.159,0,0,0-.027,4.317,2.159,2.159,0,1,0,.027-4.317Z" transform="translate(-251.336 -484.955)"/><path class="c" d="M356.3,526.534a2.159,2.159,0,0,0-.093,4.317,2.159,2.159,0,1,0,.093-4.317Z" transform="translate(-251.812 -484.685)"/><path class="c" d="M300.454,570.773a2.107,2.107,0,0,0,2.083,2.134,2.144,2.144,0,1,0,.093-4.288A2.118,2.118,0,0,0,300.454,570.773Z" transform="translate(-248.777 -487.067)"/><path class="c" d="M424.31,513.781a2.144,2.144,0,0,0,.086-4.288,2.144,2.144,0,1,0-.086,4.288Z" transform="translate(-255.665 -483.721)"/><path class="c" d="M331.154,541a2.162,2.162,0,0,0-2.194,2.153,2.189,2.189,0,0,0,2.119,2.133,2.134,2.134,0,0,0,2.17-2.165A2.107,2.107,0,0,0,331.154,541Z" transform="translate(-250.39 -485.504)"/><path class="c" d="M288.482,588.859A2.189,2.189,0,0,0,290.6,591a2.133,2.133,0,0,0,2.174-2.161,2.108,2.108,0,0,0-2.091-2.125A2.163,2.163,0,0,0,288.482,588.859Z" transform="translate(-248.099 -488.09)"/><path class="c" d="M364.632,521.675a2.159,2.159,0,0,0-2.243,2.1,2.2,2.2,0,0,0,2.176,2.185,2.135,2.135,0,0,0,2.111-2.117A2.1,2.1,0,0,0,364.632,521.675Z" transform="translate(-252.281 -484.41)"/><path class="c" d="M402.849,515.01a2.111,2.111,0,1,0,.1-4.222,2.112,2.112,0,1,0-.1,4.222Z" transform="translate(-254.452 -483.794)"/><path class="c" d="M275.325,622.1a2.1,2.1,0,1,0-.059-4.192,2.1,2.1,0,1,0,.059,4.192Z" transform="translate(-247.234 -489.855)"/><path class="c" d="M271.708,635.287a2.1,2.1,0,1,0-.1-4.193,2.1,2.1,0,1,0,.1,4.193Z" transform="translate(-247.028 -490.602)"/><path class="c" d="M322.78,545.91a2.115,2.115,0,1,0,2.149,2.075A2.132,2.132,0,0,0,322.78,545.91Z" transform="translate(-249.924 -485.781)"/><path class="c" d="M456.946,514.007a2.1,2.1,0,1,0,2.028-2.2A2.12,2.12,0,0,0,456.946,514.007Z" transform="translate(-257.632 -483.852)"/><path class="c" d="M370.869,518.987a2.1,2.1,0,1,0,2.066-2.031A2.068,2.068,0,0,0,370.869,518.987Z" transform="translate(-252.761 -484.143)"/><path class="c" d="M278.742,608.868a2.058,2.058,0,1,0-1.977-2.084A2.024,2.024,0,0,0,278.742,608.868Z" transform="translate(-247.436 -489.111)"/><path class="c" d="M443.773,510.4a2.053,2.053,0,0,0,2.024,2.053,2.058,2.058,0,0,0,.1-4.115A2.063,2.063,0,0,0,443.773,510.4Z" transform="translate(-256.886 -483.655)"/><path class="c" d="M314.374,550.764a2.073,2.073,0,0,0-2.022,2.08,2.1,2.1,0,0,0,2.093,2.019,2.035,2.035,0,0,0,1.994-2.091A2.01,2.01,0,0,0,314.374,550.764Z" transform="translate(-249.45 -486.056)"/><path class="c" d="M381.208,516.3a2.042,2.042,0,0,0,.114-4.083,2.042,2.042,0,1,0-.114,4.083Z" transform="translate(-253.233 -483.875)"/><path class="c" d="M294.112,573.628a2.09,2.09,0,0,0-1.982,2.012,2.062,2.062,0,0,0,2.046,2.047,2.03,2.03,0,1,0-.064-4.059Z" transform="translate(-248.306 -487.35)"/><path class="c" d="M284.351,593.643a2.017,2.017,0,0,0-2.014-2.041,2.074,2.074,0,0,0-2.013,1.957,1.918,1.918,0,0,0,.016.233l3.135,1.5A2.014,2.014,0,0,0,284.351,593.643Z" transform="translate(-247.638 -488.367)"/><path class="c" d="M432.66,508.849a1.978,1.978,0,1,0-1.87-2.067A1.979,1.979,0,0,0,432.66,508.849Z" transform="translate(-256.152 -483.461)"/><path class="c" d="M389.667,511.331a1.955,1.955,0,1,0,.048-3.91,1.955,1.955,0,1,0-.048,3.91Z" transform="translate(-253.715 -483.603)"/><path class="c" d="M534.634,550.311a1.913,1.913,0,0,0,1.979-1.93c0-.039-.008-.074-.01-.11L532.724,548a1.847,1.847,0,0,0-.039.341A1.953,1.953,0,0,0,534.634,550.311Z" transform="translate(-261.917 -485.9)"/><path class="c" d="M306.143,559.54a1.955,1.955,0,1,0-.059-3.909,1.955,1.955,0,1,0,.059,3.909Z" transform="translate(-248.985 -486.332)"/><path class="c" d="M266.9,626.7a1.9,1.9,0,1,0,.033-3.809,1.9,1.9,0,1,0-.033,3.809Z" transform="translate(-246.77 -490.137)"/><path class="c" d="M270.431,613.478a1.877,1.877,0,0,0,.027-3.754,1.933,1.933,0,0,0-.679.116l-.884.642a1.841,1.841,0,0,0-.383,1.1A1.9,1.9,0,0,0,270.431,613.478Z" transform="translate(-246.969 -489.392)"/><path class="c" d="M343.008,527.063a1.877,1.877,0,1,0,.079-3.751,1.876,1.876,0,0,0-.079,3.751Z" transform="translate(-251.081 -484.503)"/><path class="c" d="M287.769,580.431a1.855,1.855,0,0,0-1.93-1.859,1.876,1.876,0,1,0,.033,3.751A1.855,1.855,0,0,0,287.769,580.431Z" transform="translate(-247.844 -487.63)"/><path class="c" d="M334.616,531.835a1.872,1.872,0,1,0,.035-3.742,1.871,1.871,0,0,0-.035,3.742Z" transform="translate(-250.606 -484.773)"/><path class="c" d="M263.391,636.1a1.894,1.894,0,0,0-1.923,1.829l3.766.265a1.648,1.648,0,0,0,.021-.17A1.855,1.855,0,0,0,263.391,636.1Z" transform="translate(-246.571 -490.885)"/><path class="c" d="M349.48,520.262a1.889,1.889,0,1,0,1.849-1.868A1.921,1.921,0,0,0,349.48,520.262Z" transform="translate(-251.551 -484.224)"/><path class="c" d="M452.4,505.48a1.879,1.879,0,1,0,1.94-1.858A1.906,1.906,0,0,0,452.4,505.48Z" transform="translate(-257.374 -483.389)"/><path class="c" d="M397.951,506.486a1.879,1.879,0,1,0-.014-3.757,1.88,1.88,0,0,0,.014,3.757Z" transform="translate(-254.191 -483.338)"/><path class="c" d="M357.944,515.571a1.871,1.871,0,0,0,1.843,1.828,1.875,1.875,0,0,0,.013-3.75A1.87,1.87,0,0,0,357.944,515.571Z" transform="translate(-252.03 -483.956)"/><path class="c" d="M324.516,534.77a1.873,1.873,0,0,0,1.819,1.958,1.875,1.875,0,0,0,.061-3.75A1.874,1.874,0,0,0,324.516,534.77Z" transform="translate(-250.138 -485.05)"/><path class="c" d="M295.854,562.522a1.822,1.822,0,0,0,1.95,1.809,1.852,1.852,0,1,0-1.95-1.809Z" transform="translate(-248.516 -486.614)"/><path class="c" d="M441.083,503.82a1.828,1.828,0,0,0,.007-3.657,1.828,1.828,0,1,0-.007,3.657Z" transform="translate(-256.63 -483.193)"/><path class="c" d="M366.267,510.756a1.837,1.837,0,0,0,1.879,1.8,1.783,1.783,0,0,0,1.742-1.807,1.758,1.758,0,0,0-1.747-1.79A1.815,1.815,0,0,0,366.267,510.756Z" transform="translate(-252.501 -483.691)"/><path class="c" d="M316.156,539.559a1.789,1.789,0,0,0,1.777,1.88,1.84,1.84,0,0,0,1.843-1.838,1.819,1.819,0,0,0-1.8-1.763A1.766,1.766,0,0,0,316.156,539.559Z" transform="translate(-249.665 -485.325)"/><path class="c" d="M309.629,546.147a1.739,1.739,0,1,0,0-3.478,1.739,1.739,0,0,0,0,3.478Z" transform="translate(-249.199 -485.598)"/><path class="c" d="M376.464,507.627a1.759,1.759,0,1,0,.049-3.517,1.759,1.759,0,0,0-.049,3.517Z" transform="translate(-252.982 -483.416)"/><path class="c" d="M287.676,567.255a1.76,1.76,0,0,0,1.759,1.773,1.764,1.764,0,1,0-.088-3.526A1.758,1.758,0,0,0,287.676,567.255Z" transform="translate(-248.054 -486.89)"/><path class="c" d="M277.489,583.473a1.759,1.759,0,0,0-.084,3.516,1.759,1.759,0,0,0,.084-3.516Z" transform="translate(-247.377 -487.907)"/><path class="c" d="M405.521,501.3l-.8-1.911a1.675,1.675,0,0,0-.059.44A1.8,1.8,0,0,0,405.521,501.3Z" transform="translate(-254.673 -483.149)"/><path class="c" d="M429.7,498.58a1.7,1.7,0,0,0-.333-1.061l-2.376,2.443a1.756,1.756,0,0,0,2.709-1.381Z" transform="translate(-255.937 -483.043)"/><path class="c" d="M258.6,627.986a1.7,1.7,0,1,0,.011,3.4,1.7,1.7,0,0,0-.011-3.4Z" transform="translate(-246.312 -490.426)"/><path class="c" d="M262.165,618.2a1.731,1.731,0,0,0,1.664-1.753,1.755,1.755,0,0,0-1.1-1.517l-2.266,1.648A1.676,1.676,0,0,0,262.165,618.2Z" transform="translate(-246.514 -489.687)"/><path class="c" d="M384.8,502.743a1.64,1.64,0,0,0,.585-3.193l-1.779,2.652A1.644,1.644,0,0,0,384.8,502.743Z" transform="translate(-253.482 -483.158)"/><path class="c" d="M301.245,550.949a1.644,1.644,0,1,0-1.659-1.59A1.626,1.626,0,0,0,301.245,550.949Z" transform="translate(-248.727 -485.881)"/><path class="c" d="M449.564,498.848a1.621,1.621,0,0,0-.107-3.24,1.621,1.621,0,1,0,.107,3.24Z" transform="translate(-257.118 -482.935)"/><path class="c" d="M279.382,572.139a1.664,1.664,0,0,0,1.626,1.646,1.606,1.606,0,0,0,1.6-1.649,1.569,1.569,0,0,0-1.546-1.579,1.612,1.612,0,0,0-.324.024l-.034.009A1.636,1.636,0,0,0,279.382,572.139Z" transform="translate(-247.584 -487.176)"/><path class="c" d="M269.24,588.582l-.034,0,1.352.648A1.553,1.553,0,0,0,269.24,588.582Z" transform="translate(-247.008 -488.196)"/><path class="c" d="M436.295,495.253a1.542,1.542,0,1,0-1.524-1.578A1.53,1.53,0,0,0,436.295,495.253Z" transform="translate(-256.377 -482.741)"/><path class="c" d="M329.917,523.222a1.541,1.541,0,1,0-1.571-1.529A1.523,1.523,0,0,0,329.917,523.222Z" transform="translate(-250.355 -484.323)"/><path class="c" d="M393.238,497.753a1.541,1.541,0,1,0-1.556-1.54A1.533,1.533,0,0,0,393.238,497.753Z" transform="translate(-253.939 -482.882)"/><path class="c" d="M292.985,555.658a1.572,1.572,0,1,0-1.589-1.537A1.6,1.6,0,0,0,292.985,555.658Z" transform="translate(-248.264 -486.155)"/><path class="c" d="M346.628,513.587a1.572,1.572,0,1,0-1.566-1.56A1.6,1.6,0,0,0,346.628,513.587Z" transform="translate(-251.301 -483.775)"/><path class="c" d="M354.987,508.64a1.515,1.515,0,1,0-.124-3.028,1.515,1.515,0,0,0,.124,3.028Z" transform="translate(-251.773 -483.501)"/><path class="c" d="M321.444,527.972a1.517,1.517,0,1,0,0-3.031,1.517,1.517,0,0,0,0,3.031Z" transform="translate(-249.882 -484.595)"/><path class="c" d="M363.266,503.828a1.475,1.475,0,1,0-1.382-1.492A1.482,1.482,0,0,0,363.266,503.828Z" transform="translate(-252.253 -483.233)"/><path class="c" d="M311.726,531.4a1.457,1.457,0,0,0,1.459,1.4,1.445,1.445,0,1,0,.021-2.89A1.46,1.46,0,0,0,311.726,531.4Z" transform="translate(-249.414 -484.876)"/><path class="c" d="M272.768,575.51a1.439,1.439,0,0,0-.086,2.876,1.439,1.439,0,0,0,.086-2.876Z" transform="translate(-247.127 -487.456)"/><path class="c" d="M253.726,622.775a1.441,1.441,0,0,0,1.227-2.191l-2.284,1.66A1.437,1.437,0,0,0,253.726,622.775Z" transform="translate(-246.073 -490.007)"/><path class="c" d="M285.978,559.008a1.467,1.467,0,0,0-1.4-1.463,1.439,1.439,0,0,0-.049,2.878A1.468,1.468,0,0,0,285.978,559.008Z" transform="translate(-247.797 -486.44)"/><path class="c" d="M400.119,491.367a1.471,1.471,0,0,0,1.332,1.52,1.306,1.306,0,0,0,.485-.059l-1.09-2.6A1.453,1.453,0,0,0,400.119,491.367Z" transform="translate(-254.416 -482.63)"/><path class="c" d="M250.228,633.073a1.39,1.39,0,0,0-1.408,1.425,1.413,1.413,0,0,0,1.432,1.408,1.463,1.463,0,0,0,1.376-1.487A1.443,1.443,0,0,0,250.228,633.073Z" transform="translate(-245.855 -490.714)"/><path class="c" d="M457.705,493.744a1.433,1.433,0,0,0,1.529-1.309,1.4,1.4,0,0,0-1.271-1.445,1.351,1.351,0,0,0-1.5,1.187A1.379,1.379,0,0,0,457.705,493.744Z" transform="translate(-257.604 -482.673)"/><path class="c" d="M371.686,498.982a1.438,1.438,0,0,0,1.362-1.484,1.4,1.4,0,0,0-1.438-1.285,1.349,1.349,0,0,0-1.338,1.469A1.381,1.381,0,0,0,371.686,498.982Z" transform="translate(-252.727 -482.969)"/><path class="c" d="M304.787,537.564a1.421,1.421,0,0,0,1.4-1.39l-2.617-.643a1.432,1.432,0,0,0-.157.694A1.356,1.356,0,0,0,304.787,537.564Z" transform="translate(-248.944 -485.194)"/><path class="c" d="M444.659,490.162a1.326,1.326,0,0,0,.019-2.649,1.325,1.325,0,1,0-.019,2.649Z" transform="translate(-256.861 -482.477)"/><path class="c" d="M296.452,542.219a1.346,1.346,0,0,0,1.345-1.259,1.313,1.313,0,0,0-1.258-1.332,1.255,1.255,0,0,0-1.322,1.245A1.288,1.288,0,0,0,296.452,542.219Z" transform="translate(-248.48 -485.426)"/><path class="c" d="M264.332,580.5a1.238,1.238,0,1,0,1.211,1.247A1.246,1.246,0,0,0,264.332,580.5Z" transform="translate(-246.663 -487.739)"/><path class="c" d="M288.128,546.939a1.127,1.127,0,0,0-.031-2.254,1.128,1.128,0,1,0,.031,2.254Z" transform="translate(-248.011 -485.712)"/><path class="c" d="M325.173,514.412a1.119,1.119,0,1,0-.089-2.236,1.119,1.119,0,0,0,.089,2.236Z" transform="translate(-250.11 -483.873)"/><path class="c" d="M316.736,519.3a1.146,1.146,0,0,0,1.114-1.072,1.133,1.133,0,0,0-1.036-1.143,1.089,1.089,0,0,0-1.148,1.013A1.1,1.1,0,0,0,316.736,519.3Z" transform="translate(-249.637 -484.15)"/><path class="c" d="M246.484,626.807l-.807.587A1.091,1.091,0,0,0,246.484,626.807Z" transform="translate(-245.677 -490.359)"/><path class="c" d="M350.228,499.963a1.147,1.147,0,0,0,1.052-1.132,1.136,1.136,0,0,0-1.1-1.083,1.108,1.108,0,1,0,.049,2.215Z" transform="translate(-251.529 -483.056)"/><path class="c" d="M453.1,485.087a1.008,1.008,0,1,0-.043-2.016,1.008,1.008,0,1,0,.043,2.016Z" transform="translate(-257.354 -482.226)"/><path class="c" d="M309.543,522.957a.992.992,0,0,0-.84-.982l.116,1.953A.989.989,0,0,0,309.543,522.957Z" transform="translate(-249.243 -484.427)"/><path class="c" d="M358.418,495.068a.982.982,0,0,0,1.064-.942.993.993,0,0,0-.986-1.028.986.986,0,0,0-.078,1.971Z" transform="translate(-252.004 -482.793)"/><path class="c" d="M279.746,549.6a.986.986,0,0,0-.922,1.076,1,1,0,0,0,.976.924,1.041,1.041,0,0,0,.992-1.032A1.026,1.026,0,0,0,279.746,549.6Z" transform="translate(-247.552 -485.99)"/><path class="c" d="M396.818,484.005a.921.921,0,0,0,.927-.95,1.025,1.025,0,0,0-.03-.226l-.115-.276a.887.887,0,0,0-.511-.377l-1,1.488A.975.975,0,0,0,396.818,484.005Z" transform="translate(-254.188 -482.175)"/><path class="c" d="M366.886,490.077a.844.844,0,0,0,.886-.867.853.853,0,0,0-.872-.885.886.886,0,0,0-.9.87A.877.877,0,0,0,366.886,490.077Z" transform="translate(-252.486 -482.523)"/><path class="c" d="M291.781,533.45a.749.749,0,0,0,.69-.646l-1.457-.358a.708.708,0,0,0-.042.193A.8.8,0,0,0,291.781,533.45Z" transform="translate(-248.24 -485.02)"/><path class="c" d="M283.952,537.41a3.645,3.645,0,0,0-.587-.868c-.288.379-.542.581-.606.831-.089.351.157.6.516.658C283.62,538.089,284.038,537.738,283.952,537.41Z" transform="translate(-247.774 -485.251)"/><path class="c" d="M312,510.3c.208-.013.4-.251.724-.482-.315-.25-.469-.46-.66-.5-.293-.066-.678.339-.566.583C311.582,510.082,311.836,510.312,312,510.3Z" transform="translate(-249.4 -483.71)"/></g></g></g><rect class="d" width="389" height="312" transform="translate(1109 778)"/></g></svg>