<svg xmlns="http://www.w3.org/2000/svg" width="324" height="164" viewBox="0 0 324 164"><defs><style>.a{fill:#f26c36;}.b{fill:none;}.c{fill:#ffde31;}.d{fill:#fff;opacity:0.34;}</style></defs><g transform="translate(-1028 -70)"><g transform="translate(158.011 -169.408)"><g transform="translate(902.989 262.409)"><path d="M1084.528,303.774q3.995-1.377,7.734-2.7l.118-.043a9.716,9.716,0,0,0,5.362-4.128c1.17-2.124,1.2-4.637.082-7.47-.047-.118-.1-.234-.15-.349-.46-.982-.913-1.91-1.351-2.765a18.125,18.125,0,0,0-2.342-3.427c-2.558-3.648-6.852-5.127-11.6-3.964l-.1.024c-2.7.709-5.41,1.553-8.056,2.508-2.559.924-5.094,1.909-7.537,2.928s-4.78,2.066-6.977,3.121c-1.982.952-3.826,1.864-5.5,2.719a64.527,64.527,0,0,0-6.683-1c-2.153-.206-4.232-.349-6.179-.427a16.425,16.425,0,0,0-5.938.611,10.769,10.769,0,0,0-5.357,3.882,17.15,17.15,0,0,0-2.5,5.193c-.463,1.5-.958,3.32-1.51,5.56-.568,1.851-1.149,3.825-1.728,5.871l-.093-.256a5.917,5.917,0,0,1-.2-.655,6.141,6.141,0,0,0-.408-1.2q-.56-1.218-1.026-2.177A11.609,11.609,0,0,0,1016.73,300a15.988,15.988,0,0,0-4.4-1.17c-1.923-.25-3.844-.413-5.715-.484a61.692,61.692,0,0,0-6.807.193,11.477,11.477,0,0,0-6.661,2.38,8.361,8.361,0,0,0-2.468,3.636,12.289,12.289,0,0,0-3.791-1.044c-.174-.02-.35-.034-.526-.039-.936-.03-1.879-.082-2.806-.155-1.186-.092-2.479-.157-3.783-.138-1.345,0-2.82.068-4.383.2-1.546.13-3.291.363-5.189.7a12.721,12.721,0,0,0-7.918,3.809,14.632,14.632,0,0,0-3.155,5.708c-1.089,3.686-2.183,7.911-3.251,12.56-.391,1.7-.766,3.414-1.14,5.123-.017-.082-.03-.165-.047-.247-.256-1.236-.528-2.371-.806-3.375-.043-.152-.09-.3-.144-.451a23.118,23.118,0,0,0-3.077-5.852,16.269,16.269,0,0,0-6.111-4.908,23.429,23.429,0,0,0-3.976-1.555,29.419,29.419,0,0,0-4.269-.9,41.5,41.5,0,0,0-4.208-.343,31.9,31.9,0,0,0-4.213.147,21.826,21.826,0,0,0-3.367.5,26.223,26.223,0,0,0-3.469,1.048,18.938,18.938,0,0,0-3.772,1.944,16.036,16.036,0,0,0-3.439,3.1,38.631,38.631,0,0,0-5.852,9.147,54.065,54.065,0,0,0-3.5,10.191,56.365,56.365,0,0,0-1.457,10.621,54.853,54.853,0,0,0,.538,10.316,41.72,41.72,0,0,0,2.558,9.5,26.524,26.524,0,0,0,4.87,7.908A18.384,18.384,0,0,0,915.647,382a21.29,21.29,0,0,0,5.274,2.309c.157.044.316.081.477.112a42.511,42.511,0,0,0,8.025.771q1.919,0,3.817-.179a24.67,24.67,0,0,0,7.1-1.668,21.326,21.326,0,0,0,6.234-3.9l.114-.1a28.627,28.627,0,0,0,4.566-5.624,8.764,8.764,0,0,0,3.377,2.061q.557.188,1.31.476a6.161,6.161,0,0,0,.718.224c.883.217,1.763.4,2.62.553q1.176.206,2.154.348c.066.01.132.018.2.026a14.353,14.353,0,0,0,1.607.094,8.845,8.845,0,0,0,4.151-.922,8.069,8.069,0,0,0,4.1-5.657c.012-.056.023-.111.034-.166q.425-2.215.89-4.538c.134-.668.285-1.368.45-2.094,1.489-.682,3.132-1.366,4.915-2.044h0q1.582-.6,3.168-1.2.51,1.517,1.018,2.866a10.716,10.716,0,0,0,3.5,5.022,10.175,10.175,0,0,0,5.488,1.832,17.336,17.336,0,0,0,4.474-.1c1.079-.169,2.251-.4,3.484-.676a9,9,0,0,0,5.73-3.452l.016-.025a26.62,26.62,0,0,0,2.795.4c1.13.1,2.26.147,3.408.147l.369,0a9.055,9.055,0,0,0,6.244-2.24,8.121,8.121,0,0,0,2.33-6.08,6.118,6.118,0,0,0-.052-.77q-.1-.8-.207-1.682a9.179,9.179,0,0,0,3.066,1.591,14.37,14.37,0,0,0,2.323.474l.151.017a44.3,44.3,0,0,0,5.394.164,10.671,10.671,0,0,0,3.008-.389,7.891,7.891,0,0,0,3.285-1.859,7.483,7.483,0,0,0,1.48-2,10.07,10.07,0,0,0,5.134,2.832,19.621,19.621,0,0,0,4.086.658c1.207.073,2.405.1,3.549.095h.013c3.216,0,5.614-1.069,7.135-3.19a10.193,10.193,0,0,0,1.712-4.533,6.131,6.131,0,0,0,.066-.891V349.1c.243.144.483.294.737.423,1.2.63,2.208,1.126,3.088,1.512s1.8.757,2.728,1.1a13.954,13.954,0,0,0,4.379.852c.119,0,.239.007.359.007a14.044,14.044,0,0,0,6.23-1.727c2.478-1.063,5.027-2.176,7.579-3.309q3.987-1.769,7.849-3.442a8.716,8.716,0,0,0,5.149-4.691,8.058,8.058,0,0,0-.655-6.68,6.08,6.08,0,0,0-.556-.9q-.653-.874-1.22-1.743a21.306,21.306,0,0,0-2.452-3.033,10.654,10.654,0,0,0-1.96-1.594,8.8,8.8,0,0,0,3.976-3.767c.8-1.625,1.321-4.252-.679-7.628-.444-.863-.92-1.717-1.419-2.539a19.176,19.176,0,0,0-2.488-3.231,9.444,9.444,0,0,0-5.751-3.166,13.062,13.062,0,0,0-4.9.374c.009-.174.019-.347.03-.52C1081.535,304.823,1083.059,304.281,1084.528,303.774ZM931.338,344.73q.187-.749.387-1.46.314.551.669,1.065Q931.862,344.529,931.338,344.73Z" transform="translate(-902.989 -267.601)"/><path d="M1258.979,314.386a19.962,19.962,0,0,0-2-2.6,22.014,22.014,0,0,0-2.561-2.458,11.331,11.331,0,0,0-4.19-2.35c.037-.059.075-.119.111-.178,1.467-2.36,2.814-4.731,4-7.045a52.492,52.492,0,0,0,2.958-6.837,44.932,44.932,0,0,0,1.626-5.469,23.223,23.223,0,0,0,.573-6.038,17.912,17.912,0,0,0-1.431-6.318,20.1,20.1,0,0,0-3.869-5.772c-.083-.09-.17-.176-.258-.26a25.087,25.087,0,0,0-10.913-5.892,26.22,26.22,0,0,0-7.153-.743,22.237,22.237,0,0,0-8.082,1.852,28.757,28.757,0,0,0-11.07,8.386,37.813,37.813,0,0,0-6.644,12.228c-.038.118-.073.236-.1.356a21.611,21.611,0,0,0-.726,4.095,9.8,9.8,0,0,0,.812,4.818,8.147,8.147,0,0,0,3.75,3.887,10.045,10.045,0,0,0,3.652,1.013,21.206,21.206,0,0,0,4.29.062,24.072,24.072,0,0,0,4.166-.718q-.877,1.474-1.805,2.966c-1.728,2.77-3.562,5.54-5.45,8.231a87.906,87.906,0,0,1-5.4,6.985,8.849,8.849,0,0,0-2.111,4.425,8.214,8.214,0,0,0,.668,4.652,9.965,9.965,0,0,0,1.914,2.77,11.775,11.775,0,0,0,1.977,1.636c.493.349,1.04.711,1.629,1.083.637.4,1.281.785,1.914,1.143s1.3.713,1.951,1.038c.611.305,1.175.562,1.712.779a11.8,11.8,0,0,0,1.76.7,9.79,9.79,0,0,0,2.859.41h.159a12.428,12.428,0,0,0,2.985-.449,23.063,23.063,0,0,0,3.046-1.088l.142-.062c1.094-.5,2.505-1.094,4.2-1.771,1.712-.686,3.555-1.388,5.477-2.084s3.864-1.379,5.806-2.041c1.859-.632,3.518-1.158,4.93-1.562q.218-.063.431-.141a9.276,9.276,0,0,0,4.665-3.268C1260.022,321.811,1261.862,318.48,1258.979,314.386Z" transform="translate(-1001.551 -262.409)"/></g><g transform="translate(909.092 269.868)"><path class="a" d="M951.947,365.016a3.717,3.717,0,0,1-2.131.785q-4.6.376-7.116-1.129a8.22,8.22,0,0,1-3.573-4.678,8.791,8.791,0,0,1-.44-1.2,9.215,9.215,0,0,1-.265-1.313q-.159-.7-.367-1.322t-.416-1.244q-.529-1.15-.939-1.929a1.344,1.344,0,0,0-1.091-.823q-1.361-.093-2.784,1.736a19.686,19.686,0,0,0-2.633,4.915,51.263,51.263,0,0,0-2.124,7.009,55.388,55.388,0,0,0-1.26,8.016,34.315,34.315,0,0,0-.136,6.624,31.674,31.674,0,0,0,1,6.031,15.05,15.05,0,0,0,1.954,4.476,3.785,3.785,0,0,0,2.642,1.91,3.23,3.23,0,0,0,2.344-.732,8.366,8.366,0,0,0,2.032-2.4,20.42,20.42,0,0,0,1.655-3.622,41.022,41.022,0,0,0,1.276-4.406,9.217,9.217,0,0,1-6.192,0,10.446,10.446,0,0,1-4.449-4.412,1.635,1.635,0,0,1-.264-1.312,2.007,2.007,0,0,1,.814-.988,7.953,7.953,0,0,1,1.617-.836q.983-.389,2.212-.87a50.586,50.586,0,0,1,4.721-1.908q2.481-.864,4.255-1.6a9.279,9.279,0,0,1,3.508-.763,5.241,5.241,0,0,1,2.851,1.059,22.761,22.761,0,0,1,1.823,1.394q.871.742,1.617,1.374a4.955,4.955,0,0,1,1.706,2.357,8.359,8.359,0,0,1,.095,2.924,41.189,41.189,0,0,1-3.229,10.84,24.692,24.692,0,0,1-5.262,7.487,15.175,15.175,0,0,1-4.455,2.785,18.49,18.49,0,0,1-5.339,1.245,35.761,35.761,0,0,1-10.155-.506,15.165,15.165,0,0,1-3.757-1.657,12.244,12.244,0,0,1-3.195-2.722,20.26,20.26,0,0,1-3.815-6.195A35.425,35.425,0,0,1,912.5,381.3a48.478,48.478,0,0,1-.474-9.162,49.994,49.994,0,0,1,1.3-9.466,47.728,47.728,0,0,1,3.1-9.037,32.366,32.366,0,0,1,4.967-7.754,9.853,9.853,0,0,1,2.165-1.965,12.718,12.718,0,0,1,2.546-1.314,20.03,20.03,0,0,1,2.662-.806,15.523,15.523,0,0,1,2.526-.372,25.483,25.483,0,0,1,3.518-.13,34.843,34.843,0,0,1,3.581.292,22.938,22.938,0,0,1,3.373.707,17.042,17.042,0,0,1,2.975,1.165,10.242,10.242,0,0,1,3.908,3.062,16.955,16.955,0,0,1,2.25,4.309q.366,1.322.711,2.985t.56,3.353q.218,1.692.341,3.269t.1,2.654A3.431,3.431,0,0,1,951.947,365.016Z" transform="translate(-911.988 -295.253)"/><path class="a" d="M1000.149,372.97a75.416,75.416,0,0,0-8,3.523q-.71,2.772-1.18,5.121t-.9,4.588a2.14,2.14,0,0,1-.952,1.554,4.218,4.218,0,0,1-2.268.18q-.9-.131-1.981-.32t-2.214-.468q-.88-.336-1.533-.556a2.483,2.483,0,0,1-1.732-1.883,7.381,7.381,0,0,1-.134-2.211q.531-4.739,1.638-11.215t2.509-13.421q1.4-6.945,2.968-13.76t3.155-12.2a8.552,8.552,0,0,1,1.847-3.364,6.951,6.951,0,0,1,4.331-1.853q2.64-.465,4.741-.642t3.876-.177q1.773,0,3.307.119t3.084.17a4.219,4.219,0,0,1,2.933,1.275,5.813,5.813,0,0,1,1.029,2.913q.644,4.607,1.719,10.52t2.392,12.308q1.317,6.4,2.738,12.8t2.726,11.864a2.181,2.181,0,0,1-.116,1.7,3.48,3.48,0,0,1-2.031.93q-1.656.376-3.077.6a11.275,11.275,0,0,1-3,.046,4.54,4.54,0,0,1-2.392-.662,5.087,5.087,0,0,1-1.423-2.288q-.674-1.787-1.364-3.941t-1.473-4.719Q1004.74,371.226,1000.149,372.97Zm.627-11.689q2.824-.976,5.709-1.831-1.312-5.19-2.553-10.365t-2.27-10.294q-1.491,5.225-3.172,11.53t-3.3,13.032Q997.952,362.259,1000.775,361.282Z" transform="translate(-933.631 -290.293)"/><path class="a" d="M1056.108,345.536q.22,4.5.493,8.657t.591,7.764q.318,3.61.684,6.4a2.293,2.293,0,0,1-.488,1.684,3.251,3.251,0,0,1-2.094.509q-1.538.013-3.141-.124a19.725,19.725,0,0,1-3.022-.485,5.288,5.288,0,0,1-2.54-1.164,4.218,4.218,0,0,1-1.023-2.445q-.563-2.483-1.157-6.129t-1.133-7.942q-.54-4.3-1.057-8.931t-.909-9.165q-.392-4.53-.676-8.581t-.391-7.174a4.137,4.137,0,0,1,1.009-3.073,5.862,5.862,0,0,1,3.228-.967,55.22,55.22,0,0,1,6.084-.177q2.532.1,5.153.437a10.092,10.092,0,0,1,2.7.692,5.841,5.841,0,0,1,1.732,1.147,5.726,5.726,0,0,1,1.13,1.584q.439.9.969,2.056a11.956,11.956,0,0,0,.405,1.347q.277.774,1.025,2.746t2.175,5.6q1.425,3.626,3.932,9.951.5-2.524,1.246-5.571t1.561-6.244q.813-3.2,1.723-6.416t1.8-6.1q.8-3.259,1.455-5.384a11.309,11.309,0,0,1,1.577-3.37,4.611,4.611,0,0,1,2.325-1.7,10.79,10.79,0,0,1,3.776-.321q2.769.109,5.882.406a58.029,58.029,0,0,1,6.2.934,4.488,4.488,0,0,1,2.793,1.541,5.014,5.014,0,0,1,.521,3.328q-.276,3.21-.6,7.367t-.6,8.7q-.273,4.547-.517,9.22t-.448,8.937q-.2,4.263-.329,7.839t-.13,5.92a4.376,4.376,0,0,1-.642,1.886q-.458.639-2.2.633-1.537.013-3.165-.084a13.289,13.289,0,0,1-2.919-.475,3.35,3.35,0,0,1-3.054-3.724q-.18-1.967-.292-5.121t-.18-6.987q-.067-3.833-.054-8.054t.242-8.22q-1.159,3.743-2.409,8.11t-2.4,8.578q-1.154,4.212-2.081,7.936t-1.442,6.184q-.16.774-.288,1.237a1.556,1.556,0,0,1-.4.728,1.858,1.858,0,0,1-.777.41,4.976,4.976,0,0,1-1.373.144,38.288,38.288,0,0,1-4.716-.134,8.263,8.263,0,0,1-1.332-.267,3.121,3.121,0,0,1-1.065-.562,4.871,4.871,0,0,1-.936-1.026,19.168,19.168,0,0,1-1.009-1.645q-2.314-4.294-4.849-10.01t-4.936-11.865Q1055.889,341.035,1056.108,345.536Z" transform="translate(-953.268 -283.454)"/><path class="a" d="M1135.275,297.9q3.168-1.522,6.684-2.99t7.259-2.819q3.742-1.352,7.533-2.346,3.613-.886,5.282,1.746a12.776,12.776,0,0,1,1.775,2.508q.6,1.17,1.25,2.561a2.908,2.908,0,0,1,.251,2.286,4.172,4.172,0,0,1-2.167,1.362q-3.718,1.312-7.692,2.683t-8.347,3.033q-.305,3.081-.431,6.356t-.379,6.88q1.852-.688,3.733-1.249t4.03-1.116a7.658,7.658,0,0,1,2.873-.318,3.48,3.48,0,0,1,2.095,1.265,13.106,13.106,0,0,1,1.748,2.247q.7,1.147,1.3,2.348.841,1.349.543,1.952a4.349,4.349,0,0,1-1.994,1.39q-3.661,1.568-7.494,3.107t-7.353,3.142q-.048,2.153-.081,4.068t-.138,3.813q2.876-1.188,5.509-2.121t5.773-1.846a6.8,6.8,0,0,1,2.826-.374,3.588,3.588,0,0,1,2.034,1.145,15.048,15.048,0,0,1,1.72,2.12q.665,1.02,1.435,2.05a2.425,2.425,0,0,1,.4,1.75q-.211.55-1.856,1.258-3.9,1.69-7.914,3.47t-7.673,3.349a8.467,8.467,0,0,1-3.786,1.16,7.785,7.785,0,0,1-2.483-.474q-1.243-.453-2.395-.962t-2.749-1.35a6.6,6.6,0,0,1-2.164-1.718,5.7,5.7,0,0,1-1.142-2.82l-3.562-43.7Q1132.106,299.428,1135.275,297.9Z" transform="translate(-982.004 -278.595)"/><path class="a" d="M1243.957,319.171q2.758-.827,4.78-1.353a5.046,5.046,0,0,1,2.513-.136,5.181,5.181,0,0,1,2.15,1.219,15.623,15.623,0,0,1,1.924,1.838,13.591,13.591,0,0,1,1.478,1.941q.769,1.029.442,1.505a3.879,3.879,0,0,1-1.747,1q-2.262.648-5.214,1.652t-5.92,2.08q-2.969,1.076-5.669,2.157t-4.459,1.883a17.314,17.314,0,0,1-2.226.806,6.5,6.5,0,0,1-1.518.244,3.7,3.7,0,0,1-1.137-.144,5.9,5.9,0,0,1-1.036-.434q-.659-.252-1.49-.666t-1.675-.891q-.844-.477-1.665-.995t-1.459-.974a5.6,5.6,0,0,1-1.027-.838,3.828,3.828,0,0,1-.745-1.069,2.076,2.076,0,0,1-.172-1.2,2.878,2.878,0,0,1,.726-1.371,93.183,93.183,0,0,0,5.743-7.428q2.933-4.18,5.633-8.508t4.96-8.522q2.261-4.194,3.7-7.568a28.224,28.224,0,0,0,1.855-5.541q.411-2.168-.547-2.554a2.2,2.2,0,0,0-2.024.226,10.475,10.475,0,0,0-2.377,1.912,29.9,29.9,0,0,0-2.578,3.1q-1.331,1.808-2.574,3.7a8.988,8.988,0,0,1-2.37,1.944,12.273,12.273,0,0,1-2.908,1.2,17.827,17.827,0,0,1-3.187.556,14.977,14.977,0,0,1-3.157-.053,4.025,4.025,0,0,1-1.528-.389,2.078,2.078,0,0,1-.968-1.019,3.828,3.828,0,0,1-.252-1.851,15.933,15.933,0,0,1,.539-2.934,31.606,31.606,0,0,1,5.568-10.267,22.619,22.619,0,0,1,8.735-6.635,16.121,16.121,0,0,1,5.88-1.368,19.987,19.987,0,0,1,5.483.562,18.225,18.225,0,0,1,4.71,1.876,18.571,18.571,0,0,1,3.484,2.522,13.985,13.985,0,0,1,2.715,4,11.76,11.76,0,0,1,.947,4.17,17.035,17.035,0,0,1-.429,4.448,38.729,38.729,0,0,1-1.426,4.775,45.975,45.975,0,0,1-2.635,6.087q-1.67,3.258-3.754,6.609t-4.5,6.576q-2.415,3.227-4.866,5.991A55.552,55.552,0,0,1,1243.957,319.171Z" transform="translate(-1010.55 -273.408)"/></g><g transform="translate(908.406 266.178)"><path class="b" d="M1007.338,370.883q2.823-.975,5.708-1.831c-.159-.629-.307-1.257-.465-1.886q-4.96.8-9.786,1.525c-.351,1.409-.7,2.827-1.046,4.264Q1004.514,371.86,1007.338,370.883Z" transform="translate(-940.193 -299.895)"/><path class="c" d="M911.019,379.861a48.523,48.523,0,0,0,.474,9.163,35.451,35.451,0,0,0,2.176,8.107,20.25,20.25,0,0,0,3.815,6.2,12.228,12.228,0,0,0,3.194,2.722,15.207,15.207,0,0,0,3.757,1.657,35.788,35.788,0,0,0,10.155.507,18.518,18.518,0,0,0,5.34-1.246,15.177,15.177,0,0,0,4.455-2.785,24.692,24.692,0,0,0,5.262-7.486,41.169,41.169,0,0,0,3.229-10.84,8.371,8.371,0,0,0-.095-2.923,4.961,4.961,0,0,0-1.706-2.357q-.748-.634-1.617-1.373a22.487,22.487,0,0,0-1.823-1.394,5.249,5.249,0,0,0-2.851-1.06,9.284,9.284,0,0,0-3.509.764q-1.774.738-4.255,1.6a50.435,50.435,0,0,0-4.721,1.908q-1.231.481-2.212.871a7.919,7.919,0,0,0-1.617.835,2.015,2.015,0,0,0-.814.988,1.635,1.635,0,0,0,.265,1.312,10.448,10.448,0,0,0,4.449,4.411,9.214,9.214,0,0,0,6.191,0,41.1,41.1,0,0,1-1.275,4.406,20.379,20.379,0,0,1-1.655,3.622,8.372,8.372,0,0,1-2.031,2.4,3.23,3.23,0,0,1-2.343.733,3.789,3.789,0,0,1-2.643-1.91,15.051,15.051,0,0,1-1.953-4.476,31.6,31.6,0,0,1-1-6.031,34.254,34.254,0,0,1,.136-6.624q.181-2.165.526-4.28c-5.365.406-10.439.694-15.193.865C911.087,378.717,911.042,379.289,911.019,379.861Z" transform="translate(-910.977 -302.978)"/><path class="c" d="M1005.473,368q-2.884.856-5.708,1.831t-5.588,2.072c.346-1.437.7-2.855,1.046-4.264q-6.884,1.031-13.454,1.9-1.033,5.284-1.889,10.292-1.107,6.477-1.638,11.215a7.416,7.416,0,0,0,.134,2.212,2.7,2.7,0,0,0,.646,1.225,2.736,2.736,0,0,0,1.086.657q.654.221,1.533.556,1.133.279,2.214.467t1.982.32a4.224,4.224,0,0,0,2.267-.18,2.142,2.142,0,0,0,.953-1.555q.428-2.239.9-4.588t1.18-5.121a75.424,75.424,0,0,1,8-3.524q4.591-1.745,9.22-3.465.784,2.566,1.473,4.719t1.364,3.941a5.087,5.087,0,0,0,1.423,2.287,4.539,4.539,0,0,0,2.392.662,11.311,11.311,0,0,0,3-.045q1.421-.223,3.078-.6a3.494,3.494,0,0,0,2.032-.93,2.189,2.189,0,0,0,.115-1.7q-1.307-5.458-2.727-11.864-1.18-5.323-2.284-10.637-6.718,1.178-13.217,2.225C1005.167,366.739,1005.315,367.367,1005.473,368Z" transform="translate(-932.62 -298.839)"/><path class="c" d="M1068.6,359.7q2.536,5.717,4.85,10.01a19.038,19.038,0,0,0,1.009,1.646,4.832,4.832,0,0,0,.936,1.025,3.1,3.1,0,0,0,1.064.561,8.291,8.291,0,0,0,1.333.267,38.288,38.288,0,0,0,4.716.134,4.949,4.949,0,0,0,1.373-.144,1.858,1.858,0,0,0,.777-.41,1.564,1.564,0,0,0,.4-.728q.127-.464.288-1.237.513-2.459,1.442-6.184t2.081-7.935c.492-1.8,1-3.625,1.521-5.465q-11.884,2.581-23.37,4.824C1067.549,357.286,1068.074,358.5,1068.6,359.7Z" transform="translate(-961.202 -294.768)"/><path class="c" d="M1105.984,348.817q.007,2.957.055,5.717.066,3.835.181,6.987t.292,5.121a3.348,3.348,0,0,0,3.054,3.724,13.246,13.246,0,0,0,2.919.475q1.63.1,3.166.085,1.741.006,2.2-.633a4.372,4.372,0,0,0,.643-1.887q0-2.343.129-5.92t.33-7.839q.2-4.229.443-8.862-2.794.649-5.611,1.29Q1109.865,347.965,1105.984,348.817Z" transform="translate(-973.74 -293.014)"/><path class="c" d="M1043.45,366.143q.54,4.3,1.133,7.942t1.157,6.13a4.221,4.221,0,0,0,1.024,2.445,5.285,5.285,0,0,0,2.54,1.164,19.84,19.84,0,0,0,3.022.486q1.6.138,3.141.124a3.249,3.249,0,0,0,2.094-.509,2.293,2.293,0,0,0,.488-1.683q-.367-2.794-.685-6.4t-.59-7.765q-.276-4.153-.492-8.657c0-.069-.005-.138-.009-.208q-6.771,1.3-13.364,2.486Q1043.177,363.962,1043.45,366.143Z" transform="translate(-953.439 -297.334)"/><path class="c" d="M1133.225,354.786a5.708,5.708,0,0,0,1.143,2.82,6.567,6.567,0,0,0,2.164,1.718q1.6.842,2.749,1.35t2.395.963a7.786,7.786,0,0,0,2.483.473,8.454,8.454,0,0,0,3.786-1.16q3.66-1.567,7.675-3.349t7.914-3.469c1.1-.472,1.714-.892,1.856-1.258a2.434,2.434,0,0,0-.4-1.751q-.771-1.029-1.436-2.05a15.158,15.158,0,0,0-1.719-2.12,3.592,3.592,0,0,0-2.034-1.145,6.8,6.8,0,0,0-2.827.374q-3.141.913-5.773,1.846t-5.509,2.121q.1-1.9.138-3.813t.081-4.068q3.517-1.6,7.352-3.141t7.495-3.107a4.348,4.348,0,0,0,1.994-1.39c.165-.334.052-.852-.311-1.532-9.8,2.6-19.948,5.144-30.366,7.6Z" transform="translate(-982.138 -288.93)"/><path class="c" d="M1247.917,315.021q2.083-3.35,3.754-6.609.844-1.647,1.507-3.184-8.724,3.034-18.284,6.078-1.357,2.35-2.843,4.739-2.7,4.327-5.632,8.507a93.507,93.507,0,0,1-5.744,7.428,2.874,2.874,0,0,0-.726,1.37,2.075,2.075,0,0,0,.172,1.2,3.831,3.831,0,0,0,.744,1.069,5.64,5.64,0,0,0,1.027.838q.641.457,1.459.974t1.665.994q.846.478,1.675.891t1.49.666a5.762,5.762,0,0,0,1.036.434,3.7,3.7,0,0,0,1.136.144,6.5,6.5,0,0,0,1.518-.244,17.341,17.341,0,0,0,2.226-.806q1.758-.8,4.458-1.883t5.669-2.157q2.968-1.074,5.92-2.08t5.213-1.652a3.875,3.875,0,0,0,1.748-1q.328-.475-.442-1.505a13.507,13.507,0,0,0-1.478-1.94,15.593,15.593,0,0,0-1.924-1.839,5.184,5.184,0,0,0-2.15-1.219,5.043,5.043,0,0,0-2.512.136q-2.023.527-4.781,1.353a55.536,55.536,0,0,0-5.265,1.865q2.451-2.765,4.864-5.991T1247.917,315.021Z" transform="translate(-1010.412 -279.96)"/><path class="c" d="M929.253,353.37a19.694,19.694,0,0,1,2.632-4.915q1.424-1.829,2.784-1.737a1.342,1.342,0,0,1,1.091.823q.411.778.939,1.929.208.624.417,1.244t.368,1.322a9.137,9.137,0,0,0,.264,1.312,8.894,8.894,0,0,0,.441,1.205,8.221,8.221,0,0,0,3.572,4.678q2.516,1.5,7.117,1.128a3.709,3.709,0,0,0,2.131-.785,3.424,3.424,0,0,0,.667-1.925q.022-1.075-.1-2.655t-.34-3.269q-.218-1.691-.561-3.353t-.711-2.985a16.981,16.981,0,0,0-2.249-4.308,10.257,10.257,0,0,0-3.909-3.062,17.031,17.031,0,0,0-2.976-1.165,23,23,0,0,0-3.372-.707,34.843,34.843,0,0,0-3.581-.292,25.48,25.48,0,0,0-3.518.129,15.506,15.506,0,0,0-2.526.373,20.023,20.023,0,0,0-2.662.8,12.72,12.72,0,0,0-2.546,1.314,9.9,9.9,0,0,0-2.165,1.964,32.377,32.377,0,0,0-4.966,7.754,47.747,47.747,0,0,0-3.1,9.038,50.184,50.184,0,0,0-1.189,7.75c4.755-.171,9.828-.46,15.193-.865.2-1.258.445-2.5.734-3.737A51.2,51.2,0,0,1,929.253,353.37Z" transform="translate(-911.05 -289.813)"/><path class="d" d="M929.253,353.37a19.694,19.694,0,0,1,2.632-4.915q1.424-1.829,2.784-1.737a1.342,1.342,0,0,1,1.091.823q.411.778.939,1.929.208.624.417,1.244t.368,1.322a9.137,9.137,0,0,0,.264,1.312,8.894,8.894,0,0,0,.441,1.205,8.221,8.221,0,0,0,3.572,4.678q2.516,1.5,7.117,1.128a3.709,3.709,0,0,0,2.131-.785,3.424,3.424,0,0,0,.667-1.925q.022-1.075-.1-2.655t-.34-3.269q-.218-1.691-.561-3.353t-.711-2.985a16.981,16.981,0,0,0-2.249-4.308,10.257,10.257,0,0,0-3.909-3.062,17.031,17.031,0,0,0-2.976-1.165,23,23,0,0,0-3.372-.707,34.843,34.843,0,0,0-3.581-.292,25.48,25.48,0,0,0-3.518.129,15.506,15.506,0,0,0-2.526.373,20.023,20.023,0,0,0-2.662.8,12.72,12.72,0,0,0-2.546,1.314,9.9,9.9,0,0,0-2.165,1.964,32.377,32.377,0,0,0-4.966,7.754,47.747,47.747,0,0,0-3.1,9.038,50.184,50.184,0,0,0-1.189,7.75c4.755-.171,9.828-.46,15.193-.865.2-1.258.445-2.5.734-3.737A51.2,51.2,0,0,1,929.253,353.37Z" transform="translate(-911.05 -289.813)"/><path class="c" d="M1017.064,335.429q-1.076-5.913-1.719-10.52a5.813,5.813,0,0,0-1.029-2.912,4.219,4.219,0,0,0-2.934-1.275c-1.035-.033-2.061-.09-3.084-.17s-2.125-.12-3.307-.12-2.475.06-3.875.177-2.981.332-4.742.642a6.954,6.954,0,0,0-4.331,1.853,8.557,8.557,0,0,0-1.846,3.364q-1.59,5.381-3.156,12.2t-2.968,13.76q-.318,1.578-.62,3.129,6.57-.873,13.454-1.9,1.114-4.479,2.255-8.768,1.682-6.3,3.172-11.53,1.029,5.123,2.27,10.295c.677,2.822,1.38,5.65,2.089,8.478q6.5-1.047,13.217-2.225c-.151-.72-.305-1.441-.454-2.161Q1018.137,341.345,1017.064,335.429Z" transform="translate(-934.304 -284.853)"/><path class="d" d="M1017.064,335.429q-1.076-5.913-1.719-10.52a5.813,5.813,0,0,0-1.029-2.912,4.219,4.219,0,0,0-2.934-1.275c-1.035-.033-2.061-.09-3.084-.17s-2.125-.12-3.307-.12-2.475.06-3.875.177-2.981.332-4.742.642a6.954,6.954,0,0,0-4.331,1.853,8.557,8.557,0,0,0-1.846,3.364q-1.59,5.381-3.156,12.2t-2.968,13.76q-.318,1.578-.62,3.129,6.57-.873,13.454-1.9,1.114-4.479,2.255-8.768,1.682-6.3,3.172-11.53,1.029,5.123,2.27,10.295c.677,2.822,1.38,5.65,2.089,8.478q6.5-1.047,13.217-2.225c-.151-.72-.305-1.441-.454-2.161Q1018.137,341.345,1017.064,335.429Z" transform="translate(-934.304 -284.853)"/><path class="c" d="M1098.431,321.491q.275-4.546.6-8.7t.6-7.366a5.022,5.022,0,0,0-.521-3.329,4.5,4.5,0,0,0-2.793-1.541,58.016,58.016,0,0,0-6.2-.934q-3.114-.3-5.882-.4a10.77,10.77,0,0,0-3.776.321,4.606,4.606,0,0,0-2.325,1.7,11.284,11.284,0,0,0-1.577,3.37q-.656,2.124-1.455,5.384-.887,2.88-1.8,6.1t-1.724,6.415q-.814,3.2-1.56,6.244t-1.246,5.571q-2.506-6.325-3.932-9.951t-2.174-5.6q-.749-1.971-1.026-2.746a11.9,11.9,0,0,1-.4-1.347q-.53-1.15-.97-2.056a5.721,5.721,0,0,0-1.128-1.584,5.85,5.85,0,0,0-1.733-1.146,10.072,10.072,0,0,0-2.7-.692q-2.622-.341-5.152-.437a55.058,55.058,0,0,0-6.085.176,5.873,5.873,0,0,0-3.228.967,4.139,4.139,0,0,0-1.009,3.074q.108,3.123.391,7.173t.676,8.582q.393,4.53.909,9.164.254,2.282.515,4.481,6.591-1.182,13.364-2.486-.213-4.4-.366-8.81,1.646,4.219,3.359,8.229,11.469-2.242,23.37-4.824c.291-1.033.582-2.066.881-3.113q1.251-4.367,2.41-8.111-.23,4-.243,8.221c0,.789,0,1.567,0,2.336q3.883-.854,7.8-1.741,2.82-.641,5.611-1.29l0-.075Q1098.159,326.038,1098.431,321.491Z" transform="translate(-952.257 -278.014)"/><path class="d" d="M1098.431,321.491q.275-4.546.6-8.7t.6-7.366a5.022,5.022,0,0,0-.521-3.329,4.5,4.5,0,0,0-2.793-1.541,58.016,58.016,0,0,0-6.2-.934q-3.114-.3-5.882-.4a10.77,10.77,0,0,0-3.776.321,4.606,4.606,0,0,0-2.325,1.7,11.284,11.284,0,0,0-1.577,3.37q-.656,2.124-1.455,5.384-.887,2.88-1.8,6.1t-1.724,6.415q-.814,3.2-1.56,6.244t-1.246,5.571q-2.506-6.325-3.932-9.951t-2.174-5.6q-.749-1.971-1.026-2.746a11.9,11.9,0,0,1-.4-1.347q-.53-1.15-.97-2.056a5.721,5.721,0,0,0-1.128-1.584,5.85,5.85,0,0,0-1.733-1.146,10.072,10.072,0,0,0-2.7-.692q-2.622-.341-5.152-.437a55.058,55.058,0,0,0-6.085.176,5.873,5.873,0,0,0-3.228.967,4.139,4.139,0,0,0-1.009,3.074q.108,3.123.391,7.173t.676,8.582q.393,4.53.909,9.164.254,2.282.515,4.481,6.591-1.182,13.364-2.486-.213-4.4-.366-8.81,1.646,4.219,3.359,8.229,11.469-2.242,23.37-4.824c.291-1.033.582-2.066.881-3.113q1.251-4.367,2.41-8.111-.23,4-.243,8.221c0,.789,0,1.567,0,2.336q3.883-.854,7.8-1.741,2.82-.641,5.611-1.29l0-.075Q1098.159,326.038,1098.431,321.491Z" transform="translate(-952.257 -278.014)"/><path class="c" d="M1159.761,314.555a13.066,13.066,0,0,0-1.748-2.247,3.482,3.482,0,0,0-2.095-1.265,7.67,7.67,0,0,0-2.873.317q-2.15.555-4.03,1.116t-3.733,1.249q.25-3.6.379-6.88t.431-6.356q4.374-1.662,8.349-3.033t7.69-2.683a4.176,4.176,0,0,0,2.168-1.362,2.911,2.911,0,0,0-.252-2.285q-.65-1.392-1.251-2.561a12.7,12.7,0,0,0-1.775-2.509q-1.667-2.634-5.282-1.746-3.79.995-7.532,2.345t-7.259,2.819q-3.517,1.469-6.684,2.99t-5.747,2.844l2.413,29.617c10.418-2.459,20.565-5,30.366-7.6-.073-.136-.14-.269-.233-.42Q1160.457,315.7,1159.761,314.555Z" transform="translate(-980.993 -273.155)"/><path class="d" d="M1159.761,314.555a13.066,13.066,0,0,0-1.748-2.247,3.482,3.482,0,0,0-2.095-1.265,7.67,7.67,0,0,0-2.873.317q-2.15.555-4.03,1.116t-3.733,1.249q.25-3.6.379-6.88t.431-6.356q4.374-1.662,8.349-3.033t7.69-2.683a4.176,4.176,0,0,0,2.168-1.362,2.911,2.911,0,0,0-.252-2.285q-.65-1.392-1.251-2.561a12.7,12.7,0,0,0-1.775-2.509q-1.667-2.634-5.282-1.746-3.79.995-7.532,2.345t-7.259,2.819q-3.517,1.469-6.684,2.99t-5.747,2.844l2.413,29.617c10.418-2.459,20.565-5,30.366-7.6-.073-.136-.14-.269-.233-.42Q1160.457,315.7,1159.761,314.555Z" transform="translate(-980.993 -273.155)"/><path class="c" d="M1253.432,290.334a38.757,38.757,0,0,0,1.426-4.775,17.039,17.039,0,0,0,.43-4.449,11.788,11.788,0,0,0-.947-4.169,13.992,13.992,0,0,0-2.716-4,18.571,18.571,0,0,0-3.484-2.523,18.22,18.22,0,0,0-4.709-1.876,19.961,19.961,0,0,0-5.483-.563,16.126,16.126,0,0,0-5.881,1.368,22.618,22.618,0,0,0-8.734,6.635,31.6,31.6,0,0,0-5.568,10.267,16.1,16.1,0,0,0-.539,2.934,3.854,3.854,0,0,0,.252,1.851,2.076,2.076,0,0,0,.969,1.018,4.03,4.03,0,0,0,1.527.39,15.028,15.028,0,0,0,3.158.053,17.887,17.887,0,0,0,3.187-.556,12.343,12.343,0,0,0,2.909-1.2,8.987,8.987,0,0,0,2.369-1.944q1.243-1.888,2.574-3.7a29.888,29.888,0,0,1,2.578-3.1,10.494,10.494,0,0,1,2.377-1.912,2.2,2.2,0,0,1,2.024-.225q.957.385.547,2.553a28.211,28.211,0,0,1-1.856,5.542q-1.443,3.374-3.7,7.567-1.012,1.878-2.116,3.783,9.549-3.037,18.284-6.078Q1252.954,291.733,1253.432,290.334Z" transform="translate(-1009.54 -267.968)"/><path class="d" d="M1253.432,290.334a38.757,38.757,0,0,0,1.426-4.775,17.039,17.039,0,0,0,.43-4.449,11.788,11.788,0,0,0-.947-4.169,13.992,13.992,0,0,0-2.716-4,18.571,18.571,0,0,0-3.484-2.523,18.22,18.22,0,0,0-4.709-1.876,19.961,19.961,0,0,0-5.483-.563,16.126,16.126,0,0,0-5.881,1.368,22.618,22.618,0,0,0-8.734,6.635,31.6,31.6,0,0,0-5.568,10.267,16.1,16.1,0,0,0-.539,2.934,3.854,3.854,0,0,0,.252,1.851,2.076,2.076,0,0,0,.969,1.018,4.03,4.03,0,0,0,1.527.39,15.028,15.028,0,0,0,3.158.053,17.887,17.887,0,0,0,3.187-.556,12.343,12.343,0,0,0,2.909-1.2,8.987,8.987,0,0,0,2.369-1.944q1.243-1.888,2.574-3.7a29.888,29.888,0,0,1,2.578-3.1,10.494,10.494,0,0,1,2.377-1.912,2.2,2.2,0,0,1,2.024-.225q.957.385.547,2.553a28.211,28.211,0,0,1-1.856,5.542q-1.443,3.374-3.7,7.567-1.012,1.878-2.116,3.783,9.549-3.037,18.284-6.078Q1252.954,291.733,1253.432,290.334Z" transform="translate(-1009.54 -267.968)"/></g></g><rect class="b" width="324" height="164" transform="translate(1028 70)"/></g></svg>