<svg xmlns="http://www.w3.org/2000/svg" width="324" height="164" viewBox="0 0 324 164"><defs><style>.a{fill:#f26c36;}.b{fill:none;}.c{fill:#ffde31;}.d{fill:#fff;opacity:0.34;}</style></defs><g transform="translate(-1025 -260)"><g transform="translate(16.419 -190.339)"><g transform="translate(1040.581 484.649)"><path d="M1226,516.778q4.079-1.419,7.9-2.78l.12-.044a9.929,9.929,0,0,0,5.469-4.235c1.191-2.175,1.212-4.744.062-7.636q-.072-.181-.154-.356c-.473-1-.939-1.949-1.389-2.823a18.538,18.538,0,0,0-2.4-3.5c-2.625-3.721-7.019-5.22-11.865-4.018l-.1.026c-2.758.733-5.525,1.6-8.227,2.588-2.613.953-5.2,1.967-7.7,3.015s-4.881,2.126-7.122,3.212c-2.024.979-3.906,1.917-5.617,2.795a66.109,66.109,0,0,0-6.834-1c-2.2-.2-4.326-.344-6.317-.417a16.774,16.774,0,0,0-6.068.643,11.008,11.008,0,0,0-5.464,3.984,17.511,17.511,0,0,0-2.538,5.315c-.469,1.535-.969,3.4-1.527,5.688-.575,1.894-1.162,3.914-1.748,6.007-.035-.1-.068-.184-.1-.261a6.071,6.071,0,0,1-.211-.668,6.315,6.315,0,0,0-.42-1.224q-.576-1.242-1.055-2.222a11.865,11.865,0,0,0-6.011-5.741,16.322,16.322,0,0,0-4.5-1.183c-1.967-.25-3.932-.411-5.844-.478a63.069,63.069,0,0,0-6.957.217,11.729,11.729,0,0,0-6.8,2.453,8.542,8.542,0,0,0-2.512,3.724,12.529,12.529,0,0,0-3.879-1.056q-.267-.031-.536-.04c-.957-.028-1.921-.078-2.869-.15-1.212-.091-2.534-.153-3.867-.13-1.375,0-2.882.078-4.479.216-1.58.137-3.363.381-5.3.726a13,13,0,0,0-8.083,3.917,14.962,14.962,0,0,0-3.208,5.844c-1.1,3.77-2.208,8.092-3.285,12.848-.394,1.741-.773,3.492-1.151,5.241-.017-.085-.031-.169-.048-.253-.266-1.262-.547-2.422-.834-3.448-.044-.155-.093-.308-.148-.46a23.633,23.633,0,0,0-3.164-5.973,16.629,16.629,0,0,0-6.26-5,23.913,23.913,0,0,0-4.069-1.578,30.031,30.031,0,0,0-4.366-.9,42.444,42.444,0,0,0-4.3-.338,32.648,32.648,0,0,0-4.306.163,22.359,22.359,0,0,0-3.44.525,26.915,26.915,0,0,0-3.542,1.081,19.363,19.363,0,0,0-3.849,2,16.388,16.388,0,0,0-3.506,3.178,39.507,39.507,0,0,0-5.955,9.367,55.287,55.287,0,0,0-3.546,10.427,57.7,57.7,0,0,0-1.458,10.862,56.128,56.128,0,0,0,.581,10.543,42.642,42.642,0,0,0,2.643,9.7,27.108,27.108,0,0,0,5,8.069,18.809,18.809,0,0,0,4.762,4.009,21.792,21.792,0,0,0,5.4,2.344c.161.044.324.082.488.113a43.459,43.459,0,0,0,8.2.764c1.309,0,2.611-.069,3.9-.194a25.208,25.208,0,0,0,7.251-1.727,21.824,21.824,0,0,0,6.361-4l.116-.108a29.255,29.255,0,0,0,4.651-5.762,8.951,8.951,0,0,0,3.458,2.1q.571.191,1.341.483a6.321,6.321,0,0,0,.735.227c.9.219,1.8.406,2.68.557.8.138,1.534.254,2.2.349.067.01.135.018.2.026a14.786,14.786,0,0,0,1.642.091,9.043,9.043,0,0,0,4.24-.955,8.249,8.249,0,0,0,4.176-5.8c.012-.056.024-.113.034-.17q.428-2.265.9-4.641c.134-.684.287-1.4.454-2.143,1.519-.7,3.2-1.406,5.018-2.1h0q1.615-.619,3.234-1.235.525,1.548,1.049,2.926a10.949,10.949,0,0,0,3.594,5.123,10.4,10.4,0,0,0,5.615,1.857,17.732,17.732,0,0,0,4.573-.113c1.1-.175,2.3-.412,3.56-.7a9.2,9.2,0,0,0,5.846-3.546c.005-.008.01-.017.016-.026a26.856,26.856,0,0,0,2.858.406c1.155.1,2.311.143,3.483.14l.377,0a9.251,9.251,0,0,0,6.376-2.308A8.3,8.3,0,0,0,1160,573a6.252,6.252,0,0,0-.056-.787q-.109-.814-.216-1.718a9.376,9.376,0,0,0,3.139,1.617,14.715,14.715,0,0,0,2.375.478l.155.017a45.214,45.214,0,0,0,5.514.152,10.927,10.927,0,0,0,3.074-.406,8.059,8.059,0,0,0,3.352-1.91,7.631,7.631,0,0,0,1.507-2.046,10.287,10.287,0,0,0,5.256,2.879,20.015,20.015,0,0,0,4.179.661c1.234.071,2.459.1,3.629.087h.012c3.288-.01,5.735-1.11,7.285-3.282a10.414,10.414,0,0,0,1.736-4.639,6.273,6.273,0,0,0,.066-.912v-.008c.249.146.494.3.754.43,1.225.641,2.26,1.144,3.161,1.537s1.838.768,2.792,1.115a14.239,14.239,0,0,0,4.478.858c.121,0,.244.007.367.006a14.356,14.356,0,0,0,6.363-1.784c2.53-1.094,5.133-2.239,7.737-3.4q4.071-1.82,8.013-3.541c1.9-.826,4.221-2.116,5.249-4.811a8.238,8.238,0,0,0-.689-6.827,6.185,6.185,0,0,0-.572-.915c-.446-.594-.865-1.189-1.252-1.778a21.811,21.811,0,0,0-2.515-3.093,10.883,10.883,0,0,0-2.008-1.623,9,9,0,0,0,4.053-3.862c.816-1.663,1.337-4.351-.718-7.8-.456-.882-.946-1.752-1.458-2.592a19.6,19.6,0,0,0-2.553-3.294,9.652,9.652,0,0,0-5.888-3.219,13.316,13.316,0,0,0-5.009.4q.013-.267.029-.532C1222.945,517.86,1224.5,517.3,1226,516.778ZM1069.535,559.1q.19-.765.392-1.493.322.563.687,1.087Q1070.071,558.892,1069.535,559.1Z" transform="translate(-1040.581 -490.982)"/></g><path class="a" d="M1090.4,578.6a3.794,3.794,0,0,1-2.177.808q-4.7.4-7.278-1.133a8.4,8.4,0,0,1-3.666-4.771,9.041,9.041,0,0,1-.454-1.23,9.475,9.475,0,0,1-.274-1.341q-.164-.715-.379-1.351c-.143-.423-.287-.846-.43-1.27q-.544-1.175-.966-1.969a1.372,1.372,0,0,0-1.117-.839q-1.391-.09-2.842,1.784a20.162,20.162,0,0,0-2.676,5.032,52.352,52.352,0,0,0-2.15,7.17,56.7,56.7,0,0,0-1.264,8.2,35.069,35.069,0,0,0-.12,6.771,32.429,32.429,0,0,0,1.041,6.162,15.407,15.407,0,0,0,2.01,4.57,3.875,3.875,0,0,0,2.707,1.944,3.306,3.306,0,0,0,2.394-.756,8.565,8.565,0,0,0,2.07-2.462,20.849,20.849,0,0,0,1.679-3.707,42.085,42.085,0,0,0,1.292-4.507q-3.858,1.092-6.329.018a10.682,10.682,0,0,1-4.561-4.5,1.672,1.672,0,0,1-.274-1.34,2.057,2.057,0,0,1,.828-1.013,8.149,8.149,0,0,1,1.651-.859q1-.4,2.258-.9a51.66,51.66,0,0,1,4.82-1.964q2.532-.891,4.344-1.65a9.485,9.485,0,0,1,3.584-.79,5.358,5.358,0,0,1,2.918,1.074,23.064,23.064,0,0,1,1.867,1.419l1.656,1.4a5.068,5.068,0,0,1,1.752,2.4,8.539,8.539,0,0,1,.105,2.988,42.129,42.129,0,0,1-3.268,11.09,25.232,25.232,0,0,1-5.357,7.668,15.506,15.506,0,0,1-4.545,2.86,18.893,18.893,0,0,1-5.454,1.289,36.541,36.541,0,0,1-10.381-.487,15.5,15.5,0,0,1-3.846-1.683,12.5,12.5,0,0,1-3.273-2.773,20.7,20.7,0,0,1-3.919-6.321,36.24,36.24,0,0,1-2.248-8.281,49.545,49.545,0,0,1-.512-9.364,51.044,51.044,0,0,1,1.3-9.679,48.782,48.782,0,0,1,3.144-9.247,33.079,33.079,0,0,1,5.054-7.941,10.068,10.068,0,0,1,2.207-2.014,13,13,0,0,1,2.6-1.351,20.578,20.578,0,0,1,2.719-.831,15.82,15.82,0,0,1,2.581-.388,26.136,26.136,0,0,1,3.6-.143,35.9,35.9,0,0,1,3.661.288,23.506,23.506,0,0,1,3.45.713,17.4,17.4,0,0,1,3.044,1.182,10.461,10.461,0,0,1,4,3.119,17.309,17.309,0,0,1,2.313,4.4q.379,1.35.736,3.048t.582,3.426q.227,1.729.358,3.341t.111,2.713A3.508,3.508,0,0,1,1090.4,578.6Z" transform="translate(-2.763 -25.787)"/><path class="a" d="M1138.241,586.924a76.986,76.986,0,0,0-8.169,3.625q-.719,2.835-1.192,5.238t-.906,4.693a2.187,2.187,0,0,1-.968,1.591,4.317,4.317,0,0,1-2.318.191q-.92-.132-2.026-.322t-2.265-.471q-.9-.34-1.568-.564a2.536,2.536,0,0,1-1.776-1.919,7.539,7.539,0,0,1-.143-2.26q.528-4.845,1.64-11.469t2.525-13.726q1.411-7.1,2.993-14.074t3.189-12.475a8.74,8.74,0,0,1,1.877-3.444,7.1,7.1,0,0,1,4.422-1.907q2.7-.482,4.844-.67t3.962-.193q1.811-.006,3.381.112t3.153.165a4.31,4.31,0,0,1,3,1.294,5.945,5.945,0,0,1,1.061,2.974q.672,4.708,1.788,10.749t2.482,12.574q1.366,6.533,2.838,13.074t2.822,12.12a2.231,2.231,0,0,1-.113,1.737,3.563,3.563,0,0,1-2.074.957q-1.692.389-3.143.621a11.578,11.578,0,0,1-3.068.055,4.644,4.644,0,0,1-2.448-.67,5.206,5.206,0,0,1-1.461-2.334q-.694-1.825-1.405-4.024t-1.519-4.82Q1142.927,585.127,1138.241,586.924Zm.606-11.95q2.883-1.006,5.83-1.889-1.357-5.3-2.64-10.586t-2.351-10.516q-1.509,5.345-3.209,11.8t-3.334,13.331Q1135.962,575.982,1138.847,574.974Z" transform="translate(-23.412 -20.995)"/><path class="a" d="M1193.95,559.165q.237,4.6.53,8.847t.627,7.935q.336,3.689.719,6.544a2.344,2.344,0,0,1-.493,1.722,3.322,3.322,0,0,1-2.139.527q-1.572.018-3.211-.117a20.227,20.227,0,0,1-3.09-.487,5.4,5.4,0,0,1-2.6-1.182,4.312,4.312,0,0,1-1.054-2.5q-.583-2.536-1.2-6.262t-1.183-8.115q-.565-4.389-1.108-9.125t-.956-9.365q-.413-4.629-.717-8.77t-.421-7.332q.078-2.345,1.022-3.145a6,6,0,0,1,3.3-1,56.228,56.228,0,0,1,6.219-.2q2.588.089,5.268.431a10.281,10.281,0,0,1,2.763.7,5.964,5.964,0,0,1,1.774,1.167,5.851,5.851,0,0,1,1.159,1.616q.452.923,1,2.1a12.4,12.4,0,0,0,.419,1.375q.284.791,1.056,2.8t2.239,5.715q1.468,3.7,4.05,10.16.5-2.581,1.257-5.7t1.576-6.388q.822-3.27,1.743-6.563t1.816-6.237q.808-3.334,1.472-5.507a11.571,11.571,0,0,1,1.6-3.45,4.711,4.711,0,0,1,2.371-1.743,11.016,11.016,0,0,1,3.859-.34q2.83.1,6.014.4a59.509,59.509,0,0,1,6.343.937,4.586,4.586,0,0,1,2.859,1.567,5.127,5.127,0,0,1,.543,3.4q-.272,3.282-.6,7.532t-.589,8.9q-.265,4.649-.5,9.427t-.431,9.137q-.2,4.359-.313,8.014t-.114,6.051a4.494,4.494,0,0,1-.652,1.931q-.466.654-2.246.653-1.571.019-3.235-.077a13.545,13.545,0,0,1-2.986-.477,3.423,3.423,0,0,1-3.133-3.8q-.189-2.011-.315-5.234t-.2-7.142q-.08-3.918-.08-8.232t.223-8.4q-1.173,3.83-2.439,8.3t-2.431,8.776q-1.167,4.308-2.1,8.117t-1.454,6.325q-.161.791-.291,1.265a1.6,1.6,0,0,1-.411.745,1.9,1.9,0,0,1-.793.422,5.089,5.089,0,0,1-1.4.151,39.107,39.107,0,0,1-4.821-.123,8.413,8.413,0,0,1-1.362-.269,3.171,3.171,0,0,1-1.09-.57,4.97,4.97,0,0,1-.959-1.046,19.559,19.559,0,0,1-1.037-1.679q-2.378-4.382-4.987-10.218t-5.08-12.113Q1193.712,554.564,1193.95,559.165Z" transform="translate(-42.055 -14.395)"/><path class="a" d="M1272.747,510.6q3.235-1.565,6.824-3.076t7.411-2.9q3.821-1.392,7.693-2.42,3.691-.917,5.4,1.769a13.037,13.037,0,0,1,1.822,2.559q.615,1.195,1.286,2.614a2.977,2.977,0,0,1,.264,2.336,4.263,4.263,0,0,1-2.211,1.4q-3.8,1.353-7.854,2.765t-8.524,3.125q-.3,3.151-.421,6.5t-.368,7.034q1.891-.707,3.812-1.288T1292,529.86a7.855,7.855,0,0,1,2.936-.333,3.559,3.559,0,0,1,2.145,1.287,13.431,13.431,0,0,1,1.794,2.291q.714,1.172,1.339,2.4.864,1.378.562,1.994a4.444,4.444,0,0,1-2.034,1.427q-3.737,1.614-7.651,3.2t-7.507,3.232q-.043,2.2-.07,4.159t-.13,3.9q2.936-1.223,5.625-2.184t5.9-1.9a6.951,6.951,0,0,1,2.889-.39,3.668,3.668,0,0,1,2.082,1.164,15.429,15.429,0,0,1,1.764,2.161q.683,1.042,1.474,2.092a2.484,2.484,0,0,1,.411,1.788q-.214.563-1.893,1.291-3.983,1.738-8.079,3.571t-7.834,3.446a8.66,8.66,0,0,1-3.867,1.2,7.964,7.964,0,0,1-2.541-.477q-1.271-.46-2.45-.977t-2.815-1.372a6.729,6.729,0,0,1-2.216-1.75,5.819,5.819,0,0,1-1.176-2.879l-3.772-44.662Q1269.512,512.167,1272.747,510.6Z" transform="translate(-69.431 -9.704)"/><path class="b" d="M1145.013,583.874q2.882-1,5.829-1.888c-.165-.643-.318-1.284-.48-1.926q-5.068.832-10,1.587c-.354,1.441-.706,2.891-1.056,4.362Q1142.129,584.881,1145.013,583.874Z" transform="translate(-30.29 -33.663)"/><path class="c" d="M1048.6,593.09a49.535,49.535,0,0,0,.512,9.364,36.15,36.15,0,0,0,2.248,8.281,20.714,20.714,0,0,0,3.918,6.322,12.51,12.51,0,0,0,3.274,2.773,15.509,15.509,0,0,0,3.845,1.682,36.55,36.55,0,0,0,10.382.487,18.9,18.9,0,0,0,5.454-1.289,15.515,15.515,0,0,0,4.546-2.86,25.252,25.252,0,0,0,5.356-7.668,42.1,42.1,0,0,0,3.268-11.09,8.551,8.551,0,0,0-.106-2.988,5.06,5.06,0,0,0-1.751-2.4q-.765-.647-1.656-1.4a23.273,23.273,0,0,0-1.867-1.419,5.362,5.362,0,0,0-2.918-1.074,9.5,9.5,0,0,0-3.584.79q-1.811.76-4.344,1.65a51.389,51.389,0,0,0-4.819,1.965q-1.257.495-2.259.9a8.062,8.062,0,0,0-1.65.859,2.06,2.06,0,0,0-.83,1.012,1.673,1.673,0,0,0,.275,1.341,10.682,10.682,0,0,0,4.561,4.5q2.472,1.075,6.328-.018a41.725,41.725,0,0,1-1.291,4.507,20.873,20.873,0,0,1-1.68,3.707,8.569,8.569,0,0,1-2.069,2.462,3.3,3.3,0,0,1-2.393.756,3.871,3.871,0,0,1-2.708-1.944,15.379,15.379,0,0,1-2.009-4.569,32.277,32.277,0,0,1-1.041-6.162,34.971,34.971,0,0,1,.119-6.772c.119-1.475.3-2.933.525-4.376-5.482.43-10.667.741-15.527.93C1048.663,591.921,1048.619,592.5,1048.6,593.09Z" transform="translate(-2.448 -36.653)"/><path class="c" d="M1143.649,580.961q-2.945.882-5.829,1.888t-5.706,2.134c.349-1.47.7-2.92,1.056-4.362q-7.032,1.076-13.747,1.985-1.039,5.4-1.9,10.526-1.113,6.622-1.641,11.469a7.61,7.61,0,0,0,.144,2.26,2.758,2.758,0,0,0,.665,1.251,2.789,2.789,0,0,0,1.111.668q.669.224,1.569.564,1.16.283,2.265.472t2.026.321a4.313,4.313,0,0,0,2.317-.191,2.192,2.192,0,0,0,.97-1.592q.431-2.29.906-4.693t1.191-5.238a76.905,76.905,0,0,1,8.169-3.625q4.687-1.8,9.414-3.569.81,2.621,1.52,4.819t1.405,4.024a5.191,5.191,0,0,0,1.462,2.334,4.633,4.633,0,0,0,2.446.67,11.52,11.52,0,0,0,3.069-.055q1.452-.232,3.144-.621a3.557,3.557,0,0,0,2.074-.956,2.236,2.236,0,0,0,.113-1.738q-1.352-5.576-2.823-12.119-1.222-5.438-2.367-10.867-6.862,1.225-13.5,2.315C1143.332,579.677,1143.485,580.318,1143.649,580.961Z" transform="translate(-23.098 -32.638)"/><path class="c" d="M1206.156,572.6q2.61,5.836,4.988,10.218a19.421,19.421,0,0,0,1.036,1.679,4.958,4.958,0,0,0,.96,1.045,3.18,3.18,0,0,0,1.09.571,8.506,8.506,0,0,0,1.363.268,39.1,39.1,0,0,0,4.82.123,5.087,5.087,0,0,0,1.4-.152,1.889,1.889,0,0,0,.792-.422,1.594,1.594,0,0,0,.412-.745q.129-.473.29-1.264.516-2.515,1.455-6.325t2.1-8.118c.5-1.839,1.014-3.708,1.539-5.591q-12.141,2.673-23.874,5Q1205.339,570.761,1206.156,572.6Z" transform="translate(-50.302 -28.7)"/><path class="c" d="M1243.466,561.5q.017,3.024.073,5.844.08,3.919.206,7.141t.314,5.234a3.422,3.422,0,0,0,3.133,3.8,13.584,13.584,0,0,0,2.985.478q1.666.095,3.236.077,1.78,0,2.245-.654a4.465,4.465,0,0,0,.652-1.93q0-2.4.114-6.052t.313-8.014q.192-4.322.426-9.06-2.854.672-5.731,1.335Q1247.43,560.618,1243.466,561.5Z" transform="translate(-62.247 -27.006)"/><path class="c" d="M1180.994,579.1q.565,4.388,1.183,8.115t1.2,6.262a4.31,4.31,0,0,0,1.054,2.5,5.4,5.4,0,0,0,2.6,1.182,20.25,20.25,0,0,0,3.091.487q1.639.136,3.21.117a3.321,3.321,0,0,0,2.139-.526,2.347,2.347,0,0,0,.493-1.723q-.383-2.854-.719-6.545t-.626-7.935q-.294-4.244-.53-8.847c0-.071-.006-.142-.01-.213q-6.917,1.353-13.652,2.581Q1180.709,576.868,1180.994,579.1Z" transform="translate(-42.906 -31.181)"/><path class="c" d="M1270.757,567.782a5.825,5.825,0,0,0,1.177,2.878,6.7,6.7,0,0,0,2.217,1.75q1.633.857,2.814,1.373t2.45.977a7.984,7.984,0,0,0,2.54.476,8.642,8.642,0,0,0,3.866-1.2q3.737-1.614,7.834-3.446t8.079-3.57q1.681-.729,1.893-1.291a2.484,2.484,0,0,0-.411-1.788q-.791-1.05-1.474-2.091a15.422,15.422,0,0,0-1.763-2.162,3.674,3.674,0,0,0-2.082-1.164,6.95,6.95,0,0,0-2.889.391q-3.208.943-5.9,1.9T1283.489,563q.1-1.938.13-3.9t.071-4.158q3.59-1.648,7.506-3.233t7.651-3.2a4.437,4.437,0,0,0,2.034-1.427c.168-.342.05-.871-.322-1.565-10.01,2.687-20.375,5.317-31.017,7.862Z" transform="translate(-70.247 -23.068)"/><path class="c" d="M1067.185,566.88a20.108,20.108,0,0,1,2.676-5.032q1.45-1.874,2.841-1.783a1.372,1.372,0,0,1,1.117.838q.422.793.966,1.969.213.636.43,1.271t.379,1.35a9.388,9.388,0,0,0,.274,1.341,8.953,8.953,0,0,0,.455,1.23,8.4,8.4,0,0,0,3.664,4.771q2.576,1.531,7.279,1.132a3.8,3.8,0,0,0,2.176-.808,3.5,3.5,0,0,0,.676-1.97q.02-1.1-.111-2.713t-.357-3.341q-.228-1.727-.584-3.426t-.735-3.049a17.382,17.382,0,0,0-2.312-4.4,10.483,10.483,0,0,0-4-3.119,17.458,17.458,0,0,0-3.045-1.182,23.573,23.573,0,0,0-3.449-.713,35.641,35.641,0,0,0-3.661-.287,26.022,26.022,0,0,0-3.6.142,15.89,15.89,0,0,0-2.581.389,20.477,20.477,0,0,0-2.719.831,13.042,13.042,0,0,0-2.6,1.351,10.125,10.125,0,0,0-2.207,2.014,33.069,33.069,0,0,0-5.053,7.94,48.782,48.782,0,0,0-3.144,9.247,51.253,51.253,0,0,0-1.192,7.925c4.859-.189,10.044-.5,15.527-.93q.307-1.93.739-3.822A52.442,52.442,0,0,1,1067.185,566.88Z" transform="translate(-2.512 -24.119)"/><path class="d" d="M1067.185,566.88a20.108,20.108,0,0,1,2.676-5.032q1.45-1.874,2.841-1.783a1.372,1.372,0,0,1,1.117.838q.422.793.966,1.969.213.636.43,1.271t.379,1.35a9.388,9.388,0,0,0,.274,1.341,8.953,8.953,0,0,0,.455,1.23,8.4,8.4,0,0,0,3.664,4.771q2.576,1.531,7.279,1.132a3.8,3.8,0,0,0,2.176-.808,3.5,3.5,0,0,0,.676-1.97q.02-1.1-.111-2.713t-.357-3.341q-.228-1.727-.584-3.426t-.735-3.049a17.382,17.382,0,0,0-2.312-4.4,10.483,10.483,0,0,0-4-3.119,17.458,17.458,0,0,0-3.045-1.182,23.573,23.573,0,0,0-3.449-.713,35.641,35.641,0,0,0-3.661-.287,26.022,26.022,0,0,0-3.6.142,15.89,15.89,0,0,0-2.581.389,20.477,20.477,0,0,0-2.719.831,13.042,13.042,0,0,0-2.6,1.351,10.125,10.125,0,0,0-2.207,2.014,33.069,33.069,0,0,0-5.053,7.94,48.782,48.782,0,0,0-3.144,9.247,51.253,51.253,0,0,0-1.192,7.925c4.859-.189,10.044-.5,15.527-.93q.307-1.93.739-3.822A52.442,52.442,0,0,1,1067.185,566.88Z" transform="translate(-2.512 -24.119)"/><path class="c" d="M1155.3,548.626q-1.118-6.041-1.788-10.748a5.947,5.947,0,0,0-1.061-2.974,4.314,4.314,0,0,0-3-1.294c-1.059-.03-2.107-.085-3.153-.164s-2.172-.117-3.38-.113-2.53.069-3.961.193-3.047.348-4.845.67a7.108,7.108,0,0,0-4.422,1.908,8.742,8.742,0,0,0-1.876,3.444q-1.61,5.506-3.19,12.476t-2.992,14.073q-.321,1.614-.625,3.2,6.714-.912,13.747-1.985,1.125-4.58,2.279-8.969,1.7-6.45,3.208-11.795,1.067,5.232,2.351,10.516c.7,2.883,1.427,5.771,2.16,8.661q6.638-1.091,13.5-2.315c-.156-.736-.316-1.472-.47-2.208Q1156.41,554.669,1155.3,548.626Z" transform="translate(-24.673 -19.326)"/><path class="d" d="M1155.3,548.626q-1.118-6.041-1.788-10.748a5.947,5.947,0,0,0-1.061-2.974,4.314,4.314,0,0,0-3-1.294c-1.059-.03-2.107-.085-3.153-.164s-2.172-.117-3.38-.113-2.53.069-3.961.193-3.047.348-4.845.67a7.108,7.108,0,0,0-4.422,1.908,8.742,8.742,0,0,0-1.876,3.444q-1.61,5.506-3.19,12.476t-2.992,14.073q-.321,1.614-.625,3.2,6.714-.912,13.747-1.985,1.125-4.58,2.279-8.969,1.7-6.45,3.208-11.795,1.067,5.232,2.351,10.516c.7,2.883,1.427,5.771,2.16,8.661q6.638-1.091,13.5-2.315c-.156-.736-.316-1.472-.47-2.208Q1156.41,554.669,1155.3,548.626Z" transform="translate(-24.673 -19.326)"/><path class="c" d="M1237.162,534.581q.267-4.648.589-8.9t.595-7.532a5.128,5.128,0,0,0-.543-3.4,4.593,4.593,0,0,0-2.859-1.567,59.322,59.322,0,0,0-6.344-.937q-3.183-.294-6.013-.4a11.011,11.011,0,0,0-3.858.34,4.714,4.714,0,0,0-2.373,1.744,11.552,11.552,0,0,0-1.6,3.449q-.664,2.173-1.471,5.507-.9,2.947-1.817,6.238t-1.743,6.563q-.821,3.269-1.576,6.387t-1.257,5.7q-2.581-6.457-4.049-10.16T1200.6,531.9q-.77-2.013-1.056-2.8a12.364,12.364,0,0,1-.419-1.375q-.545-1.175-1-2.1a5.846,5.846,0,0,0-1.158-1.617,5.988,5.988,0,0,0-1.775-1.167,10.312,10.312,0,0,0-2.763-.7q-2.682-.341-5.268-.431a56.47,56.47,0,0,0-6.219.2,6,6,0,0,0-3.3,1q-.945.8-1.022,3.145.118,3.191.42,7.331t.717,8.77q.416,4.628.957,9.365.267,2.332.539,4.578,6.734-1.228,13.652-2.581-.23-4.495-.4-9,1.7,4.308,3.458,8.4,11.717-2.326,23.874-5c.295-1.057.588-2.114.892-3.185q1.265-4.467,2.439-8.3-.224,4.092-.224,8.4c0,.808,0,1.6.007,2.388q3.966-.884,7.966-1.8,2.879-.663,5.731-1.335l0-.076Q1236.9,539.229,1237.162,534.581Z" transform="translate(-41.74 -12.727)"/><path class="d" d="M1237.162,534.581q.267-4.648.589-8.9t.595-7.532a5.128,5.128,0,0,0-.543-3.4,4.593,4.593,0,0,0-2.859-1.567,59.322,59.322,0,0,0-6.344-.937q-3.183-.294-6.013-.4a11.011,11.011,0,0,0-3.858.34,4.714,4.714,0,0,0-2.373,1.744,11.552,11.552,0,0,0-1.6,3.449q-.664,2.173-1.471,5.507-.9,2.947-1.817,6.238t-1.743,6.563q-.821,3.269-1.576,6.387t-1.257,5.7q-2.581-6.457-4.049-10.16T1200.6,531.9q-.77-2.013-1.056-2.8a12.364,12.364,0,0,1-.419-1.375q-.545-1.175-1-2.1a5.846,5.846,0,0,0-1.158-1.617,5.988,5.988,0,0,0-1.775-1.167,10.312,10.312,0,0,0-2.763-.7q-2.682-.341-5.268-.431a56.47,56.47,0,0,0-6.219.2,6,6,0,0,0-3.3,1q-.945.8-1.022,3.145.118,3.191.42,7.331t.717,8.77q.416,4.628.957,9.365.267,2.332.539,4.578,6.734-1.228,13.652-2.581-.23-4.495-.4-9,1.7,4.308,3.458,8.4,11.717-2.326,23.874-5c.295-1.057.588-2.114.892-3.185q1.265-4.467,2.439-8.3-.224,4.092-.224,8.4c0,.808,0,1.6.007,2.388q3.966-.884,7.966-1.8,2.879-.663,5.731-1.335l0-.076Q1236.9,539.229,1237.162,534.581Z" transform="translate(-41.74 -12.727)"/><path class="c" d="M1297.849,527.669a13.327,13.327,0,0,0-1.793-2.292,3.555,3.555,0,0,0-2.145-1.286,7.835,7.835,0,0,0-2.935.333q-2.2.575-4.116,1.153t-3.812,1.288q.246-3.685.367-7.034t.421-6.5q4.467-1.711,8.525-3.125t7.853-2.765a4.267,4.267,0,0,0,2.211-1.4,2.971,2.971,0,0,0-.264-2.335q-.669-1.42-1.286-2.614a13.026,13.026,0,0,0-1.822-2.559q-1.713-2.687-5.4-1.768-3.871,1.028-7.693,2.42t-7.411,2.9q-3.59,1.511-6.824,3.076t-5.865,2.924l2.555,30.267c10.642-2.544,21.006-5.175,31.017-7.862-.074-.139-.144-.275-.24-.428Q1298.563,528.839,1297.849,527.669Z" transform="translate(-69.116 -8.036)"/><path class="d" d="M1297.849,527.669a13.327,13.327,0,0,0-1.793-2.292,3.555,3.555,0,0,0-2.145-1.286,7.835,7.835,0,0,0-2.935.333q-2.2.575-4.116,1.153t-3.812,1.288q.246-3.685.367-7.034t.421-6.5q4.467-1.711,8.525-3.125t7.853-2.765a4.267,4.267,0,0,0,2.211-1.4,2.971,2.971,0,0,0-.264-2.335q-.669-1.42-1.286-2.614a13.026,13.026,0,0,0-1.822-2.559q-1.713-2.687-5.4-1.768-3.871,1.028-7.693,2.42t-7.411,2.9q-3.59,1.511-6.824,3.076t-5.865,2.924l2.555,30.267c10.642-2.544,21.006-5.175,31.017-7.862-.074-.139-.144-.275-.24-.428Q1298.563,528.839,1297.849,527.669Z" transform="translate(-69.116 -8.036)"/><g transform="translate(1246.443 470.339)"><g transform="translate(0)"><path d="M1376.831,510.434a11.673,11.673,0,0,1,3.36,1.149,16.722,16.722,0,0,1,4.961,3.652,11.871,11.871,0,0,1,2.542,4.359,11.344,11.344,0,0,1,.419,4.779,14.68,14.68,0,0,1-1.439,4.775,19.793,19.793,0,0,1-6.978,7.881,32.623,32.623,0,0,1-9.991,3.995,32.141,32.141,0,0,1-9.454.667,29.482,29.482,0,0,1-10.937-3.21,15.306,15.306,0,0,1-2.718-1.516,3.475,3.475,0,0,1-1.174-1.293,1.362,1.362,0,0,1-.006-1.126,3.192,3.192,0,0,1,.782-1.019,7.842,7.842,0,0,1,4.552-2.186,14.548,14.548,0,0,1,5.012.11,28.016,28.016,0,0,0,5.826.794,15.379,15.379,0,0,0,4.463-.527,9.154,9.154,0,0,0,3.349-1.724,11.743,11.743,0,0,0,2.464-2.866,10.368,10.368,0,0,0,1.292-3.212,8.251,8.251,0,0,0,.116-2.793,5.023,5.023,0,0,0-.789-2.146,4,4,0,0,0-1.355-1.287,5.578,5.578,0,0,0-3.224-.562,19.95,19.95,0,0,0-4.061,1.162,10.563,10.563,0,0,1-6.608.225,14.67,14.67,0,0,1-6.37-3.761q-2.608-2.452-.07-4.06a88.6,88.6,0,0,0,10.482-7.057,53.1,53.1,0,0,0,6.446-5.938,12.593,12.593,0,0,0,2.826-4.441,2.32,2.32,0,0,0-.548-2.675,1.935,1.935,0,0,0-1.9-.359,6.046,6.046,0,0,0-1.724.728,18.025,18.025,0,0,0-1.879,1.31q-.986.775-1.919,1.61t-1.826,1.7a7.528,7.528,0,0,1-2.934,2.1,14.332,14.332,0,0,1-3.774.986,15.1,15.1,0,0,1-3.939-.031,12.117,12.117,0,0,1-3.424-.952q-3-1.632-1.733-4.329a24.429,24.429,0,0,1,2.125-3.7,31.812,31.812,0,0,1,3.109-3.852,34.169,34.169,0,0,1,3.878-3.521,24.515,24.515,0,0,1,4.484-2.788,40.7,40.7,0,0,1,3.885-1.449,15.582,15.582,0,0,1,4.569-.7,16.423,16.423,0,0,1,5.223.862,20.759,20.759,0,0,1,5.83,3.16,19.576,19.576,0,0,1,4.729,5.162,14.7,14.7,0,0,1,2.009,5.357,12.879,12.879,0,0,1-2.188,9.389,26.685,26.685,0,0,1-3.96,4.414A57.925,57.925,0,0,1,1373.2,510Q1375.124,510.14,1376.831,510.434Z" transform="translate(-1339.709 -472.487)"/><path d="M1368.652,543.6a37.09,37.09,0,0,1-10.878.782,34.327,34.327,0,0,1-12.692-3.668,19.492,19.492,0,0,1-3.551-2.019,8.014,8.014,0,0,1-2.742-3.311,6.211,6.211,0,0,1,.055-4.994,8.016,8.016,0,0,1,1.863-2.535,12.624,12.624,0,0,1,7.224-3.469,19.436,19.436,0,0,1,6.681.168l.085.019a23.4,23.4,0,0,0,4.8.671,10.74,10.74,0,0,0,3.056-.338,4.32,4.32,0,0,0,1.6-.8,6.914,6.914,0,0,0,1.408-1.641,5.487,5.487,0,0,0,.682-1.635,3.9,3.9,0,0,0,.089-1.032,15.93,15.93,0,0,0-2.921.88,15.386,15.386,0,0,1-9.607.368,19.508,19.508,0,0,1-8.442-4.933c-2.579-2.437-2.944-4.815-2.795-6.384a7.007,7.007,0,0,1,3.476-5.284c.046-.029.092-.058.139-.085q2.528-1.486,4.69-2.906a19.852,19.852,0,0,1-3.6-.175,16.95,16.95,0,0,1-4.787-1.352q-.143-.066-.282-.142c-4.25-2.313-5.748-6.475-3.824-10.614a29.005,29.005,0,0,1,2.528-4.407,36.735,36.735,0,0,1,3.581-4.441,39.139,39.139,0,0,1,4.428-4.024,29.533,29.533,0,0,1,5.372-3.338c.053-.025.106-.05.159-.073a45.677,45.677,0,0,1,4.35-1.623,20.426,20.426,0,0,1,5.989-.927,21.325,21.325,0,0,1,6.766,1.1,25.626,25.626,0,0,1,7.221,3.873c.047.034.091.069.135.1a24.451,24.451,0,0,1,5.877,6.471,19.583,19.583,0,0,1,2.644,7.125,17.737,17.737,0,0,1-3.048,12.947,29.609,29.609,0,0,1-3.112,3.707,20.8,20.8,0,0,1,5.353,4.2,16.752,16.752,0,0,1,3.549,6.142,16.22,16.22,0,0,1,.6,6.806,19.582,19.582,0,0,1-1.906,6.343l-.046.092a24.648,24.648,0,0,1-8.708,9.752A37.584,37.584,0,0,1,1368.652,543.6Zm-5.152-8.967a23.646,23.646,0,0,0,2.957-.486,27.967,27.967,0,0,0,8.516-3.382,14.892,14.892,0,0,0,5.222-5.961,9.756,9.756,0,0,0,.95-3.163,6.5,6.5,0,0,0-.236-2.758,7.044,7.044,0,0,0-1.534-2.575,12.062,12.062,0,0,0-3.54-2.554,6.865,6.865,0,0,0-1.98-.688h0c-.123-.022-.25-.042-.376-.062a9.6,9.6,0,0,1,2.445,5.27,13.121,13.121,0,0,1-.156,4.434,15.21,15.21,0,0,1-1.868,4.728c-.021.037-.043.073-.065.109a16.6,16.6,0,0,1-3.489,4.036,14.009,14.009,0,0,1-5.1,2.649A17.083,17.083,0,0,1,1363.5,534.635Zm-16.26-3.8Zm16.435-20.4c.492-.114.958-.2,1.4-.265a9.91,9.91,0,0,1,1.662-.093,4.856,4.856,0,0,1,1.508-6.19,53.217,53.217,0,0,0,4.983-3.955,21.922,21.922,0,0,0,3.246-3.6,8.036,8.036,0,0,0,1.232-2.71,7.78,7.78,0,0,0,.13-3.171,9.946,9.946,0,0,0-1.374-3.587,14.808,14.808,0,0,0-3.515-3.8,16.016,16.016,0,0,0-4.37-2.4,11.709,11.709,0,0,0-3.678-.627,10.865,10.865,0,0,0-3.151.469c-1.2.383-2.324.8-3.337,1.237a19.84,19.84,0,0,0-3.522,2.2,29.424,29.424,0,0,0-3.326,3.019,27.1,27.1,0,0,0-2.635,3.263q-.477.7-.861,1.345.265.051.552.091a10.3,10.3,0,0,0,2.682.021,9.51,9.51,0,0,0,2.5-.651,2.737,2.737,0,0,0,1.083-.744,4.9,4.9,0,0,1,.338-.362c.637-.617,1.3-1.232,1.965-1.828.7-.629,1.429-1.237,2.154-1.808a22.809,22.809,0,0,1,2.388-1.66,10.9,10.9,0,0,1,3.116-1.29,6.786,6.786,0,0,1,6.2,1.432,7.138,7.138,0,0,1,2.02,7.656,16.959,16.959,0,0,1-3.856,6.327,57.329,57.329,0,0,1-7.045,6.508,83.518,83.518,0,0,1-7.89,5.533,8.64,8.64,0,0,0,2.087.881,5.692,5.692,0,0,0,3.645-.093A28.968,28.968,0,0,1,1363.675,510.442Z" transform="translate(-1337.557 -470.339)"/></g><g transform="translate(6.034 5.971)"><path class="a" d="M1378.524,512.047a11.664,11.664,0,0,1,3.36,1.149,16.723,16.723,0,0,1,4.961,3.652,11.873,11.873,0,0,1,2.542,4.359,11.342,11.342,0,0,1,.418,4.78,14.661,14.661,0,0,1-1.438,4.775,19.8,19.8,0,0,1-6.977,7.881,32.652,32.652,0,0,1-9.992,3.995,32.136,32.136,0,0,1-9.454.667,29.475,29.475,0,0,1-10.937-3.211,15.23,15.23,0,0,1-2.718-1.516,3.47,3.47,0,0,1-1.174-1.292,1.363,1.363,0,0,1-.007-1.126,3.213,3.213,0,0,1,.783-1.019,7.84,7.84,0,0,1,4.551-2.186,14.548,14.548,0,0,1,5.012.11,28.032,28.032,0,0,0,5.826.794,15.387,15.387,0,0,0,4.464-.527,9.174,9.174,0,0,0,3.349-1.724,11.745,11.745,0,0,0,2.465-2.866,10.369,10.369,0,0,0,1.291-3.211,8.239,8.239,0,0,0,.115-2.794,5.007,5.007,0,0,0-.789-2.145,4,4,0,0,0-1.354-1.288,5.576,5.576,0,0,0-3.224-.561,19.854,19.854,0,0,0-4.061,1.161,10.564,10.564,0,0,1-6.608.225,14.683,14.683,0,0,1-6.37-3.762q-2.608-2.452-.069-4.06a88.559,88.559,0,0,0,10.48-7.057,53.167,53.167,0,0,0,6.446-5.938,12.6,12.6,0,0,0,2.827-4.441,2.318,2.318,0,0,0-.548-2.675,1.935,1.935,0,0,0-1.9-.359,6.03,6.03,0,0,0-1.724.728,17.91,17.91,0,0,0-1.879,1.31q-.985.775-1.919,1.61t-1.825,1.7a7.533,7.533,0,0,1-2.934,2.1,14.338,14.338,0,0,1-3.775.986,15.1,15.1,0,0,1-3.938-.033,12.116,12.116,0,0,1-3.424-.951q-3-1.632-1.734-4.329a24.452,24.452,0,0,1,2.126-3.7,31.929,31.929,0,0,1,3.109-3.853,34.181,34.181,0,0,1,3.878-3.521,24.531,24.531,0,0,1,4.484-2.788,40.717,40.717,0,0,1,3.885-1.449,15.559,15.559,0,0,1,4.569-.7,16.447,16.447,0,0,1,5.223.862,20.75,20.75,0,0,1,5.83,3.16,19.576,19.576,0,0,1,4.729,5.161,14.671,14.671,0,0,1,2.008,5.357,12.885,12.885,0,0,1-2.187,9.389,26.652,26.652,0,0,1-3.961,4.414,57.807,57.807,0,0,1-5.438,4.321Q1376.817,511.753,1378.524,512.047Z" transform="translate(-1346.263 -478.953)"/></g><g transform="translate(4.408 2.381)"><path class="c" d="M1363.512,530.193a19.872,19.872,0,0,1,4.061-1.162,5.577,5.577,0,0,1,3.224.562,4,4,0,0,1,1.354,1.286,5.023,5.023,0,0,1,.79,2.146,8.254,8.254,0,0,1-.116,2.793,10.358,10.358,0,0,1-1.292,3.212,11.728,11.728,0,0,1-2.464,2.866,9.144,9.144,0,0,1-3.349,1.724,15.357,15.357,0,0,1-4.463.527,28.016,28.016,0,0,1-5.826-.794,14.55,14.55,0,0,0-5.012-.11,7.843,7.843,0,0,0-4.552,2.186,3.193,3.193,0,0,0-.782,1.019,1.362,1.362,0,0,0,.006,1.126,3.476,3.476,0,0,0,1.174,1.293,15.318,15.318,0,0,0,2.718,1.516,29.486,29.486,0,0,0,10.937,3.21,32.135,32.135,0,0,0,9.453-.667,32.623,32.623,0,0,0,9.991-3.995,19.794,19.794,0,0,0,6.978-7.881,14.688,14.688,0,0,0,1.439-4.775,11.348,11.348,0,0,0-.419-4.779,11.875,11.875,0,0,0-2.542-4.359,15.415,15.415,0,0,0-3.691-2.95c-7.38,2.267-15.128,4.436-23.162,6.467A10.364,10.364,0,0,0,1363.512,530.193Z" transform="translate(-1344.239 -489.242)"/><path class="c" d="M1376.178,506.869q-1.706-.294-3.63-.43a57.914,57.914,0,0,0,5.439-4.32,26.678,26.678,0,0,0,3.96-4.414,12.881,12.881,0,0,0,2.188-9.389,14.7,14.7,0,0,0-2.009-5.357,19.578,19.578,0,0,0-4.729-5.162,20.751,20.751,0,0,0-5.83-3.16,16.442,16.442,0,0,0-5.222-.862,15.574,15.574,0,0,0-4.569.7,40.635,40.635,0,0,0-3.886,1.449,24.531,24.531,0,0,0-4.484,2.788,34.192,34.192,0,0,0-3.878,3.521,31.812,31.812,0,0,0-3.109,3.852,24.429,24.429,0,0,0-2.125,3.7q-1.268,2.7,1.733,4.329a12.117,12.117,0,0,0,3.424.952,15.125,15.125,0,0,0,3.938.032,14.33,14.33,0,0,0,3.774-.986,7.525,7.525,0,0,0,2.934-2.1q.891-.862,1.826-1.7t1.919-1.61a17.985,17.985,0,0,1,1.879-1.31,6.042,6.042,0,0,1,1.724-.728,1.934,1.934,0,0,1,1.9.359,2.32,2.32,0,0,1,.548,2.675,12.594,12.594,0,0,1-2.826,4.441,53.063,53.063,0,0,1-6.446,5.938,88.525,88.525,0,0,1-10.482,7.057q-2.537,1.609.071,4.06a14.666,14.666,0,0,0,6.369,3.761c.358.1.711.173,1.064.236,8.034-2.03,15.782-4.2,23.162-6.467-.4-.24-.825-.476-1.27-.7A11.663,11.663,0,0,0,1376.178,506.869Z" transform="translate(-1343.917 -473.775)"/><path class="d" d="M1376.178,506.869q-1.706-.294-3.63-.43a57.914,57.914,0,0,0,5.439-4.32,26.678,26.678,0,0,0,3.96-4.414,12.881,12.881,0,0,0,2.188-9.389,14.7,14.7,0,0,0-2.009-5.357,19.578,19.578,0,0,0-4.729-5.162,20.751,20.751,0,0,0-5.83-3.16,16.442,16.442,0,0,0-5.222-.862,15.574,15.574,0,0,0-4.569.7,40.635,40.635,0,0,0-3.886,1.449,24.531,24.531,0,0,0-4.484,2.788,34.192,34.192,0,0,0-3.878,3.521,31.812,31.812,0,0,0-3.109,3.852,24.429,24.429,0,0,0-2.125,3.7q-1.268,2.7,1.733,4.329a12.117,12.117,0,0,0,3.424.952,15.125,15.125,0,0,0,3.938.032,14.33,14.33,0,0,0,3.774-.986,7.525,7.525,0,0,0,2.934-2.1q.891-.862,1.826-1.7t1.919-1.61a17.985,17.985,0,0,1,1.879-1.31,6.042,6.042,0,0,1,1.724-.728,1.934,1.934,0,0,1,1.9.359,2.32,2.32,0,0,1,.548,2.675,12.594,12.594,0,0,1-2.826,4.441,53.063,53.063,0,0,1-6.446,5.938,88.525,88.525,0,0,1-10.482,7.057q-2.537,1.609.071,4.06a14.666,14.666,0,0,0,6.369,3.761c.358.1.711.173,1.064.236,8.034-2.03,15.782-4.2,23.162-6.467-.4-.24-.825-.476-1.27-.7A11.663,11.663,0,0,0,1376.178,506.869Z" transform="translate(-1343.917 -473.775)"/></g></g></g><rect class="b" width="324" height="164" transform="translate(1025 260)"/></g></svg>